<svg width="30" height="33" viewBox="0 0 30 33" fill="none" xmlns="http://www.w3.org/2000/svg">
<path d="M15 0C12.2053 0 9.7421 1.84737 8.95263 4.53158C8.11579 4.15263 7.23158 3.94737 6.31579 3.94737C4.64074 3.94737 3.03429 4.61278 1.84985 5.79722C0.665411 6.98166 0 8.5881 0 10.2632C0.003741 11.6618 0.470517 13.0199 1.32745 14.1254C2.18438 15.2308 3.38324 16.0214 4.73684 16.3737V27.6316H25.2632V16.3737C28.0421 15.6474 30 13.1368 30 10.2632C30 8.5881 29.3346 6.98166 28.1501 5.79722C26.9657 4.61278 25.3593 3.94737 23.6842 3.94737C22.7684 3.94737 21.8842 4.15263 21.0474 4.53158C20.2579 1.84737 17.7947 0 15 0ZM14.2105 14.2105H15.7895V25.2632H14.2105V14.2105ZM9.47368 17.3684H11.0526V25.2632H9.47368V17.3684ZM18.9474 17.3684H20.5263V25.2632H18.9474V17.3684ZM4.73684 29.2105V30.7895C4.73684 31.2082 4.90319 31.6098 5.19931 31.906C5.49542 32.2021 5.89703 32.3684 6.31579 32.3684H23.6842C24.103 32.3684 24.5046 32.2021 24.8007 31.906C25.0968 31.6098 25.2632 31.2082 25.2632 30.7895V29.2105H4.73684Z" fill="#2F88FF"/>
</svg>
