<svg width="40" height="40" viewBox="0 0 40 40" fill="none" xmlns="http://www.w3.org/2000/svg">
<rect x="0.5" y="0.5" width="39" height="39" rx="19.5" stroke="#D9D9D9"/>
<path d="M20.2683 10C18.5415 10 17.0195 11.1415 16.5317 12.8C16.0146 12.5659 15.4683 12.439 14.9024 12.439C13.8674 12.439 12.8748 12.8502 12.143 13.582C11.4111 14.3139 11 15.3065 11 16.3415C11.0023 17.2057 11.2907 18.0448 11.8202 18.7279C12.3497 19.4109 13.0905 19.8994 13.9268 20.1171V27.0732H26.6098V20.1171C28.3268 19.6683 29.5366 18.1171 29.5366 16.3415C29.5366 15.3065 29.1254 14.3139 28.3936 13.582C27.6617 12.8502 26.6691 12.439 25.6341 12.439C25.0683 12.439 24.522 12.5659 24.0049 12.8C23.5171 11.1415 21.9951 10 20.2683 10ZM19.7805 18.7805H20.7561V25.6098H19.7805V18.7805ZM16.8537 20.7317H17.8293V25.6098H16.8537V20.7317ZM22.7073 20.7317H23.6829V25.6098H22.7073V20.7317ZM13.9268 28.0488V29.0244C13.9268 29.2831 14.0296 29.5313 14.2126 29.7143C14.3955 29.8972 14.6437 30 14.9024 30H25.6341C25.8929 30 26.141 29.8972 26.324 29.7143C26.507 29.5313 26.6098 29.2831 26.6098 29.0244V28.0488H13.9268Z" fill="#2F88FF"/>
</svg>
