<svg width="40" height="40" viewBox="0 0 40 40" fill="none" xmlns="http://www.w3.org/2000/svg">
<rect x="0.5" y="0.5" width="39" height="39" rx="19.5" stroke="#D9D9D9"/>
<path d="M28.9621 17.0418L22.9082 10.9879L23.3335 10.5626C23.7171 10.1791 24.1924 9.99162 24.7594 10.0003C25.3264 10.009 25.8017 10.2048 26.1853 10.5877L29.4123 13.8147C29.7959 14.1983 29.9877 14.6696 29.9877 15.2286C29.9877 15.7876 29.7959 16.2586 29.4123 16.6415L28.9621 17.0418ZM16.6292 29.4246C16.2456 29.8082 15.7747 30 15.2163 30C14.658 30 14.1867 29.8082 13.8024 29.4246L10.5754 26.1976C10.1918 25.814 10 25.343 10 24.7847C10 24.2263 10.1918 23.755 10.5754 23.3708L10.9756 22.9705L17.0295 29.0244L16.6292 29.4246ZM20.2565 28.7242C20.0564 28.9243 19.8229 29.0244 19.5561 29.0244C19.2892 29.0244 19.0558 28.9243 18.8556 28.7242L11.2758 21.1444C11.0757 20.9442 10.9756 20.7108 10.9756 20.4439C10.9756 20.1771 11.0757 19.9436 11.2758 19.7435L12.7017 18.2926C12.9018 18.0924 13.1397 17.9924 13.4152 17.9924C13.6907 17.9924 13.9282 18.0924 14.1276 18.2926L15.7036 19.8686L19.8563 15.7159L18.2803 14.1399C18.0801 13.9398 17.9801 13.7063 17.9801 13.4395C17.9801 13.1726 18.0801 12.9392 18.2803 12.739L19.7062 11.2881C19.9063 11.088 20.1441 10.9879 20.4196 10.9879C20.6951 10.9879 20.9326 11.088 21.1321 11.2881L28.7119 18.8679C28.912 19.0681 29.0121 19.3059 29.0121 19.5814C29.0121 19.8569 28.912 20.0944 28.7119 20.2938L27.261 21.7197C27.0608 21.9199 26.8274 22.0199 26.5605 22.0199C26.2937 22.0199 26.0602 21.9199 25.8601 21.7197L24.2841 20.1437L20.1314 24.2964L21.7074 25.8724C21.9076 26.0725 22.0076 26.31 22.0076 26.5848C22.0076 26.8597 21.9076 27.0975 21.7074 27.2983L20.2565 28.7242Z" fill="#FF0000"/>
</svg>
