<svg width="184" height="357" viewBox="0 0 184 357" fill="none" xmlns="http://www.w3.org/2000/svg">
<path d="M179.89 19.7097H101.99C101.457 19.7097 100.93 19.8148 100.438 20.019C99.9457 20.2231 99.4988 20.5223 99.1226 20.8995C98.7464 21.2766 98.4483 21.7242 98.2454 22.2168C98.0424 22.7093 97.9386 23.237 97.94 23.7697V59.2497C97.9332 59.7834 98.0334 60.3131 98.2346 60.8075C98.4357 61.3019 98.7338 61.751 99.1112 62.1284C99.4886 62.5059 99.9378 62.8039 100.432 63.0051C100.927 63.2062 101.456 63.3064 101.99 63.2997H134.67L141.61 72.2097L147.4 63.2997H179.89C180.422 63.2997 180.948 63.195 181.44 62.9914C181.931 62.7879 182.378 62.4896 182.754 62.1135C183.13 61.7374 183.428 61.2909 183.632 60.7996C183.835 60.3082 183.94 59.7816 183.94 59.2497V23.7697C183.94 22.6947 183.514 21.6635 182.754 20.9024C181.995 20.1413 180.965 19.7124 179.89 19.7097Z" fill="#F5F5F5"/>
<path d="M126.35 29.7297V31.0397H125.5V29.7197L124.06 27.3597H124.97L125.97 28.9997L126.97 27.3597H127.81L126.35 29.7297Z" fill="#263238"/>
<path d="M127.77 29.1897C127.752 28.7908 127.854 28.3957 128.062 28.0552C128.271 27.7146 128.577 27.4443 128.94 27.2791C129.304 27.1138 129.708 27.0611 130.102 27.1278C130.496 27.1945 130.86 27.3776 131.149 27.6534C131.438 27.9291 131.638 28.285 131.722 28.6753C131.807 29.0655 131.773 29.4721 131.625 29.8428C131.476 30.2136 131.22 30.5314 130.89 30.7554C130.559 30.9794 130.169 31.0993 129.77 31.0997C129.512 31.1119 129.254 31.0715 129.011 30.981C128.769 30.8905 128.548 30.7517 128.361 30.5732C128.174 30.3946 128.025 30.1799 127.923 29.9421C127.822 29.7043 127.77 29.4483 127.77 29.1897ZM130.95 29.1897C130.948 28.9607 130.878 28.7375 130.75 28.548C130.621 28.3586 130.439 28.2115 130.227 28.1252C130.015 28.0389 129.782 28.0174 129.558 28.0633C129.333 28.1091 129.127 28.2204 128.966 28.383C128.805 28.5456 128.696 28.7524 128.652 28.9771C128.608 29.2018 128.631 29.4346 128.719 29.6459C128.807 29.8573 128.956 30.0379 129.147 30.1649C129.337 30.2919 129.561 30.3597 129.79 30.3597C129.944 30.3639 130.098 30.3365 130.241 30.279C130.384 30.2216 130.514 30.1354 130.623 30.0258C130.732 29.9161 130.817 29.7854 130.873 29.6416C130.929 29.4978 130.955 29.344 130.95 29.1897Z" fill="#263238"/>
<path d="M132.44 29.4097V27.3597H133.3V29.3597C133.3 30.0597 133.61 30.3597 134.12 30.3597C134.63 30.3597 134.95 30.0697 134.95 29.3597V27.3597H135.8V29.4297C135.8 29.8753 135.623 30.3026 135.308 30.6177C134.993 30.9327 134.566 31.1097 134.12 31.1097C133.674 31.1097 133.247 30.9327 132.932 30.6177C132.617 30.3026 132.44 29.8753 132.44 29.4297V29.4097Z" fill="#263238"/>
<path d="M139.01 31.0397L138.3 30.0397H137.51V31.0397H136.65V27.3597H138.25C139.25 27.3597 139.86 27.8697 139.86 28.6997C139.871 28.9496 139.804 29.1968 139.667 29.4065C139.531 29.6163 139.333 29.7783 139.1 29.8697L139.93 31.0597L139.01 31.0397ZM138.21 28.0397H137.51V29.3597H138.21C138.73 29.3597 138.99 29.1097 138.99 28.7097C138.99 28.3097 138.73 28.0297 138.19 28.0297L138.21 28.0397Z" fill="#263238"/>
<path d="M141.81 29.1897C141.813 28.7796 141.943 28.3804 142.18 28.0462C142.418 27.712 142.753 27.459 143.139 27.3215C143.526 27.184 143.945 27.1685 144.34 27.2773C144.736 27.3861 145.088 27.6139 145.35 27.9297L144.8 28.4397C144.687 28.3001 144.543 28.188 144.38 28.1118C144.218 28.0356 144.04 27.9973 143.86 27.9997C143.564 28.0269 143.29 28.1635 143.09 28.3827C142.89 28.6019 142.779 28.8879 142.779 29.1847C142.779 29.4814 142.89 29.7675 143.09 29.9867C143.29 30.2059 143.564 30.3425 143.86 30.3697C144.039 30.374 144.217 30.3376 144.38 30.2631C144.542 30.1886 144.686 30.078 144.8 29.9397L145.35 30.4397C145.089 30.7549 144.737 30.9824 144.343 31.0915C143.948 31.2005 143.53 31.186 143.144 31.0497C142.758 30.9134 142.423 30.662 142.185 30.3294C141.946 29.9967 141.815 29.599 141.81 29.1897Z" fill="#263238"/>
<path d="M145.62 29.1897C145.602 28.7908 145.704 28.3957 145.912 28.0552C146.121 27.7146 146.427 27.4443 146.79 27.2791C147.154 27.1138 147.558 27.0611 147.952 27.1278C148.346 27.1945 148.71 27.3776 148.999 27.6534C149.288 27.9291 149.488 28.285 149.572 28.6753C149.657 29.0655 149.623 29.4721 149.475 29.8428C149.326 30.2136 149.07 30.5314 148.74 30.7554C148.409 30.9794 148.019 31.0993 147.62 31.0997C147.362 31.1119 147.104 31.0715 146.861 30.981C146.619 30.8905 146.398 30.7517 146.211 30.5732C146.024 30.3946 145.875 30.1799 145.773 29.9421C145.672 29.7043 145.62 29.4483 145.62 29.1897ZM148.8 29.1897C148.796 28.9612 148.725 28.7389 148.595 28.5508C148.465 28.3627 148.282 28.2171 148.07 28.1324C147.858 28.0477 147.625 28.0275 147.402 28.0745C147.178 28.1215 146.973 28.2335 146.813 28.3965C146.653 28.5595 146.544 28.7662 146.501 28.9907C146.458 29.2151 146.482 29.4474 146.57 29.6582C146.659 29.869 146.807 30.0489 146.998 30.1755C147.188 30.3021 147.411 30.3697 147.64 30.3697C147.795 30.374 147.95 30.3463 148.094 30.2882C148.238 30.2302 148.368 30.1431 148.477 30.0323C148.586 29.9216 148.671 29.7897 148.726 29.6447C148.782 29.4997 148.807 29.3448 148.8 29.1897Z" fill="#263238"/>
<path d="M150.32 27.3597H152.01C152.269 27.3328 152.531 27.3605 152.779 27.4412C153.026 27.5219 153.254 27.6537 153.448 27.8281C153.641 28.0025 153.796 28.2156 153.902 28.4536C154.008 28.6916 154.063 28.9492 154.063 29.2097C154.063 29.4702 154.008 29.7278 153.902 29.9658C153.796 30.2039 153.641 30.417 153.448 30.5914C153.254 30.7658 153.026 30.8976 152.779 30.9783C152.531 31.059 152.269 31.0867 152.01 31.0597H150.32V27.3597ZM151.96 30.3597C152.265 30.3597 152.557 30.2386 152.773 30.0229C152.989 29.8072 153.11 29.5147 153.11 29.2097C153.11 28.9047 152.989 28.6122 152.773 28.3966C152.557 28.1809 152.265 28.0597 151.96 28.0597H151.19V30.3597H151.96Z" fill="#263238"/>
<path d="M157.57 30.3597V31.0497H154.7V27.3597H157.5V28.0397H155.55V28.8497H157.27V29.5197H155.55V30.3597H157.57Z" fill="#263238"/>
<path d="M172.29 34.9297H109.6C107.639 34.9297 106.05 36.5191 106.05 38.4797V51.7197C106.05 53.6803 107.639 55.2697 109.6 55.2697H172.29C174.251 55.2697 175.84 53.6803 175.84 51.7197V38.4797C175.84 36.5191 174.251 34.9297 172.29 34.9297Z" fill="#F5F5F5"/>
<path d="M120.19 46.3597C120.192 46.7784 120.106 47.1928 119.938 47.5763C119.77 47.9599 119.524 48.304 119.215 48.5865C118.906 48.8691 118.541 49.0839 118.144 49.217C117.747 49.3502 117.327 49.3988 116.91 49.3597C114.33 49.3597 112.96 47.4997 112.96 44.4197C112.96 41.0797 114.73 39.3697 117.34 39.3697C118.114 39.3361 118.884 39.5086 119.57 39.8697L119.28 40.4497C118.687 40.1248 118.016 39.9691 117.34 39.9997C115.13 39.9997 113.68 41.4497 113.68 44.3097C113.677 44.7045 113.704 45.099 113.76 45.4897C113.995 44.8604 114.428 44.3247 114.995 43.9638C115.562 43.6029 116.23 43.4365 116.9 43.4897C118.91 43.4197 120.19 44.5697 120.19 46.3597ZM119.47 46.3597C119.47 44.9497 118.47 44.0397 116.8 44.0397C116.465 44.0054 116.126 44.0397 115.804 44.1408C115.482 44.2418 115.185 44.4073 114.929 44.6273C114.674 44.8472 114.466 45.1169 114.318 45.42C114.17 45.723 114.086 46.053 114.07 46.3897C114.07 47.5397 115.07 48.6997 116.89 48.6997C117.22 48.7412 117.556 48.7114 117.873 48.6124C118.191 48.5133 118.484 48.3474 118.732 48.1257C118.98 47.904 119.178 47.6316 119.312 47.327C119.447 47.0224 119.514 46.6926 119.51 46.3597H119.47Z" fill="#FF0000"/>
<path d="M133.3 46.5197H131.24V49.2497H130.53V46.5197H124.92V45.9997L130.27 39.3997H131.07L125.82 45.8797H130.55V43.4797H131.24V45.8797H133.3V46.5197Z" fill="#FF0000"/>
<path d="M144.24 46.4697C144.24 48.1097 143.06 49.3197 140.79 49.3197C140.152 49.3444 139.515 49.2392 138.919 49.0106C138.322 48.782 137.778 48.4347 137.32 47.9897L137.68 47.4397C138.088 47.8427 138.575 48.158 139.11 48.366C139.645 48.5741 140.216 48.6707 140.79 48.6497C142.56 48.6497 143.51 47.8097 143.51 46.4697C143.51 45.1297 142.61 44.2897 140.64 44.2897H140.02V43.7697L142.93 40.0397H137.68V39.3597H143.86V39.8597L140.86 43.6497C143.19 43.7397 144.24 44.8697 144.24 46.4697Z" fill="#FF0000"/>
<path d="M156.19 39.3597V39.8597L151.96 49.2097H151.17L155.36 39.9997H149.83V41.8897H149.13V39.3597H156.19Z" fill="#FF0000"/>
<path d="M161.19 44.3597C161.19 41.2797 162.78 39.3597 165.04 39.3597C167.3 39.3597 168.9 41.2697 168.9 44.3597C168.9 47.4497 167.31 49.3597 165.04 49.3597C162.77 49.3597 161.19 47.3597 161.19 44.3597ZM168.19 44.3597C168.19 41.6197 166.91 40.0297 165.05 40.0297C163.19 40.0297 161.91 41.6197 161.91 44.3597C161.91 47.0997 163.19 48.6897 165.05 48.6897C166.91 48.6897 168.19 47.0597 168.19 44.3597Z" fill="#FF0000"/>
<path d="M27 357H18.2469L15 313H25.3081L27 357Z" fill="#263238"/>
<path d="M104 357H113.482L117 313H105.833L104 357Z" fill="#263238"/>
<path d="M122.82 317.719L7.57999 320.419L4.07999 245.99C3.99741 244.263 4.2663 242.537 4.87034 240.917C5.47439 239.298 6.40102 237.817 7.59409 236.566C8.78715 235.315 10.2218 234.32 11.8111 233.639C13.4004 232.959 15.1113 232.609 16.84 232.609H115.03C116.782 232.609 118.516 232.97 120.123 233.668C121.731 234.367 123.177 235.388 124.373 236.669C125.569 237.95 126.488 239.464 127.074 241.115C127.66 242.767 127.901 244.521 127.78 246.27L122.82 317.719Z" fill="#2F88FF"/>
<path d="M128.73 245.74H128.41H127.46L123.83 245.8H110.47C99.19 245.8 83.61 245.7 66.41 246.1C49.2 246.67 33.6 246.57 22.33 246.4C16.69 246.31 12.12 246.2 8.97 246.1L5.34 245.98H4.4C4.29378 245.993 4.18623 245.993 4.08 245.98H4.4H5.34H8.97L22.33 246.11C33.61 246.19 49.19 246.23 66.4 245.65C83.61 245.26 99.19 245.44 110.47 245.52L123.83 245.63L127.46 245.68H128.41L128.73 245.74Z" fill="#263238"/>
<path d="M46.11 233.77C43.5197 234.148 40.9994 234.906 38.63 236.02C36.3356 237.282 34.2426 238.879 32.42 240.76C32.787 240.062 33.2706 239.433 33.85 238.9C36.5081 236.165 39.9958 234.386 43.77 233.84C44.5398 233.679 45.332 233.655 46.11 233.77Z" fill="#263238"/>
<path d="M93.51 98.4396L107.59 124.17L128.19 112.63L138.19 115.94C138.19 115.94 112.95 143.36 108.84 144.79C104.73 146.22 96.95 146.45 92.51 140.88C88.51 135.81 76.67 109.21 76.67 109.21L93.51 98.4396Z" fill="#FFBE9D"/>
<path d="M151.5 81.6396C151.319 81.4177 151.085 81.246 150.818 81.1409C150.552 81.0359 150.264 81.001 149.98 81.0395L140.19 82.3596C139.764 82.4231 139.358 82.5775 138.997 82.8121C138.636 83.0468 138.33 83.3563 138.1 83.7196L117.69 115.07L119.25 115.94L130.11 115.6L151.81 82.0296L151.5 81.6396Z" fill="#263238"/>
<path d="M144.55 85.7096C144.628 85.8337 144.744 85.93 144.88 85.985C145.016 86.04 145.166 86.0508 145.308 86.0159C145.451 85.9811 145.579 85.9023 145.674 85.7907C145.77 85.6791 145.827 85.5404 145.84 85.3941C145.852 85.2479 145.818 85.1015 145.742 84.9756C145.667 84.8498 145.553 84.7509 145.419 84.6929C145.284 84.635 145.134 84.6208 144.991 84.6525C144.847 84.6842 144.718 84.7601 144.62 84.8696C144.505 84.975 144.433 85.1201 144.42 85.2758C144.407 85.4316 144.454 85.5865 144.55 85.7096Z" fill="white"/>
<path d="M151.81 82.0295C151.188 82.2038 150.552 82.3276 149.91 82.3995L144.71 83.2095L141.12 83.7295C140.816 83.7568 140.521 83.8517 140.258 84.0074C139.995 84.1632 139.77 84.3757 139.6 84.6295L138.44 86.4296C136.83 88.8996 135.08 91.6096 133.24 94.4296C129.53 100.11 126.15 105.24 123.67 108.94L120.72 113.36C120.377 113.908 119.993 114.43 119.57 114.92C119.852 114.33 120.186 113.768 120.57 113.24L123.37 108.78C125.76 105.02 129.08 99.8596 132.79 94.1796C134.65 91.3496 136.42 88.6496 138.03 86.1796C138.44 85.5696 138.84 84.9695 139.22 84.3795C139.433 84.0732 139.711 83.8176 140.035 83.6309C140.358 83.4443 140.718 83.3311 141.09 83.2995L144.7 82.8395L149.93 82.2195C150.551 82.1066 151.179 82.0431 151.81 82.0295Z" fill="#455A64"/>
<path d="M140.92 93.2195C140.92 93.2195 140.05 93.0696 139.57 95.4596C139.09 97.8496 137.57 104.71 137.57 104.71L132.99 102.28L127.25 103.03C127.25 103.03 126 104.18 126.92 104.81C127.84 105.44 131.46 106.08 131.46 106.08L134.13 109.93L126.46 106.23C126.46 106.23 123.9 106.9 124.65 108.46C125.4 110.02 130.57 114.91 130.57 114.91L126.73 114.62L122.19 111.84C122.19 111.84 120.79 111.91 121.31 113.1C121.83 114.29 126.59 118.61 126.59 118.61L132.35 121.41C132.35 121.41 135.5 121.16 135.8 120.23C136.004 119.498 136.131 118.747 136.18 117.99C136.18 117.99 137.85 117.54 138.18 116.73C138.364 116.048 138.401 115.336 138.29 114.64C138.29 114.64 140.91 115.1 141.24 113.64C141.469 111.82 141.395 109.975 141.02 108.18C140.76 107.05 142.14 96.5995 142.02 96.2895C141.9 95.9795 142.57 92.5295 140.92 93.2195Z" fill="#FFBE9D"/>
<path d="M135.95 120.25C135.495 120.522 134.98 120.68 134.45 120.71C131.895 121.081 129.294 120.462 127.18 118.98C126.39 118.41 126 117.98 126.05 117.89C126.1 117.8 127.98 119.32 130.78 119.97C133.58 120.62 135.92 120.07 135.95 120.25Z" fill="#EB996E"/>
<path d="M134.59 118.179C134.5 118.309 133.47 117.779 132.38 116.879C131.29 115.979 130.57 115.089 130.68 114.979C130.79 114.869 131.68 115.549 132.76 116.429C133.84 117.309 134.68 118.039 134.59 118.179Z" fill="#EB996E"/>
<path d="M137.62 113.21C137.53 113.34 136.51 112.82 135.49 111.87C134.47 110.92 133.87 109.96 133.99 109.87C134.11 109.78 134.91 110.54 135.89 111.45C136.87 112.36 137.71 113.07 137.62 113.21Z" fill="#EB996E"/>
<path d="M140.81 109.199C140.65 109.269 140.07 108.199 139.16 107.009C138.25 105.819 137.36 105.009 137.46 104.849C137.56 104.689 138.66 105.389 139.62 106.649C140.278 107.351 140.695 108.245 140.81 109.199Z" fill="#EB996E"/>
<path d="M144.7 294.66C144.776 294.347 144.776 294.022 144.7 293.71C144.538 292.845 144.197 292.025 143.7 291.3C143.537 291.048 143.346 290.817 143.13 290.61C142.988 290.476 142.813 290.383 142.623 290.341C142.433 290.298 142.235 290.308 142.05 290.37C141.941 290.407 141.842 290.469 141.761 290.55C141.679 290.632 141.618 290.731 141.58 290.84C141.51 291.047 141.51 291.272 141.58 291.48C141.717 291.827 141.884 292.162 142.08 292.48C142.45 293.11 142.76 293.73 143.24 294.48C143.38 294.681 143.572 294.84 143.796 294.941C144.02 295.041 144.266 295.079 144.51 295.05C144.957 294.97 145.379 294.785 145.74 294.51C146.402 294.024 147.006 293.464 147.54 292.84C147.797 292.543 148.038 292.233 148.26 291.91C148.503 291.594 148.683 291.234 148.79 290.85C148.85 290.624 148.828 290.384 148.73 290.172C148.631 289.96 148.461 289.789 148.25 289.69C148.052 289.631 147.842 289.624 147.641 289.67C147.44 289.715 147.254 289.812 147.1 289.95C146.643 290.349 146.239 290.806 145.9 291.31C145.397 292.016 144.996 292.791 144.71 293.61C144.578 293.898 144.51 294.212 144.51 294.53C144.984 293.478 145.556 292.473 146.22 291.53C146.559 291.08 146.948 290.671 147.38 290.31C147.61 290.15 147.89 290.04 148.06 290.13C148.159 290.188 148.234 290.278 148.275 290.386C148.315 290.493 148.317 290.611 148.28 290.72C148.176 291.032 148.017 291.323 147.81 291.58C147.6 291.88 147.37 292.17 147.13 292.46C146.612 293.041 146.036 293.567 145.41 294.03C145.117 294.255 144.774 294.406 144.41 294.47C144.261 294.488 144.109 294.464 143.973 294.4C143.837 294.337 143.722 294.236 143.64 294.11C143.25 293.54 142.87 292.83 142.5 292.24C142.33 291.93 142.12 291.63 142.02 291.38C141.92 291.13 142.02 290.93 142.17 290.85C142.6 290.68 143.03 291.17 143.32 291.58C143.97 292.51 144.438 293.555 144.7 294.66Z" fill="#263238"/>
<path d="M120.13 295.5L107.93 321.949L88.24 312.849L100.86 280.12L120.13 295.5Z" fill="#FFBE9D"/>
<path d="M110.19 320.18L103.06 333.78C103.06 333.78 121.31 352.65 119.6 356.87L76.7 336.3L88.48 309.03L110.19 320.18Z" fill="#455A64"/>
<path d="M90.73 325.56C90.2586 325.5 89.7813 325.61 89.3837 325.87C88.986 326.13 88.694 326.524 88.56 326.98C88.4695 327.449 88.5634 327.936 88.8223 328.338C89.0811 328.74 89.485 329.027 89.95 329.14C90.4508 329.215 90.9619 329.103 91.3848 328.824C91.8076 328.545 92.1123 328.12 92.24 327.63C92.2825 327.129 92.129 326.631 91.812 326.241C91.4949 325.851 91.0389 325.6 90.54 325.54" fill="#E0E0E0"/>
<g opacity="0.6">
<path d="M76.74 336.3L78.52 332.88L118.99 353.88C118.99 353.88 120.5 355.62 119.64 356.88L76.74 336.3Z" fill="white"/>
</g>
<path d="M103.9 333.89C103.8 334.1 102.7 333.69 101.35 333.89C100 334.09 99.02 334.69 98.87 334.51C98.72 334.33 99.61 333.28 101.25 333.09C102.89 332.9 104.04 333.72 103.9 333.89Z" fill="#263238"/>
<path d="M107.51 337.91C107.51 338.14 106.38 338.06 105.25 338.6C104.12 339.14 103.46 339.99 103.25 339.88C103.04 339.77 103.48 338.52 104.91 337.88C106.34 337.24 107.6 337.71 107.51 337.91Z" fill="#263238"/>
<path d="M107.48 344.52C107.27 344.52 107.48 343.29 108.57 342.4C109.66 341.51 110.86 341.52 110.86 341.74C110.86 341.96 109.97 342.28 109.08 343.02C108.19 343.76 107.7 344.6 107.48 344.52Z" fill="#263238"/>
<path d="M105.95 328.659C105.77 328.809 104.95 328.059 103.73 327.569C102.51 327.079 101.4 327.01 101.38 326.78C101.36 326.55 102.6 326.23 104.03 326.78C105.46 327.33 106.13 328.539 105.95 328.659Z" fill="#263238"/>
<path d="M114.25 316.649L146.42 236.159C146.42 236.159 145.69 222.419 143.16 218.089C140.63 213.759 64.01 188.449 64.01 188.449C64.01 188.449 44.5 183.749 31.48 188.449C18.46 193.149 8.70999 209.449 10.48 218.449C12.25 227.449 19.91 234.119 19.91 234.119L76.26 235.799L106.97 247L86.29 306.269L114.25 316.649Z" fill="#263238"/>
<path d="M142.86 261.65L143.59 290.759L121.9 291.299L118.78 256.359L142.86 261.65Z" fill="#FFBE9D"/>
<path d="M144.88 288.159L144.48 303.509C144.48 303.509 169.18 312.38 169.48 316.93L121.91 317.409L120.44 287.74L144.88 288.159Z" fill="#455A64"/>
<path d="M129.75 301.6C129.294 301.743 128.907 302.05 128.663 302.462C128.419 302.873 128.336 303.36 128.43 303.83C128.557 304.29 128.856 304.685 129.265 304.933C129.674 305.18 130.163 305.261 130.63 305.16C131.112 305.005 131.52 304.677 131.775 304.239C132.029 303.802 132.113 303.285 132.01 302.79C131.83 302.321 131.475 301.941 131.019 301.73C130.564 301.519 130.044 301.494 129.57 301.66" fill="#E0E0E0"/>
<g opacity="0.6">
<path d="M121.94 317.41L122.03 313.55L167.61 314.55C167.61 314.55 169.73 315.45 169.51 316.95L121.94 317.41Z" fill="white"/>
</g>
<path d="M145.25 303.26C145.25 303.49 144.08 303.61 142.95 304.37C141.82 305.13 141.21 306.11 141 306.02C140.79 305.93 141.12 304.58 142.51 303.69C143.9 302.8 145.3 303.05 145.25 303.26Z" fill="#263238"/>
<path d="M150.26 305.27C150.32 305.5 149.31 305.9 148.53 306.89C147.75 307.88 147.53 308.89 147.31 308.89C147.09 308.89 146.91 307.57 147.91 306.35C148.91 305.13 150.25 305.05 150.26 305.27Z" fill="#263238"/>
<path d="M153.19 311.22C152.98 311.27 152.65 310.11 153.19 308.83C153.73 307.55 154.86 307.04 154.96 307.23C155.06 307.42 154.39 308.11 153.96 309.16C153.53 310.21 153.38 311.19 153.19 311.22Z" fill="#263238"/>
<path d="M144.77 297.66C144.68 297.87 143.61 297.56 142.3 297.66C140.99 297.76 139.97 298.19 139.84 297.99C139.71 297.79 140.69 296.99 142.24 296.86C143.79 296.73 144.89 297.47 144.77 297.66Z" fill="#263238"/>
<path d="M130.19 180.809C130.19 180.809 143.19 179.809 144.63 193.869C146.07 207.929 147.49 273.749 147.49 273.749L117.19 276.279L112.49 209.049L64.06 188.449C64.06 188.449 121.52 179.009 130.19 180.809Z" fill="#263238"/>
<path d="M76.65 161.79C76.65 161.79 84.53 183.9 83.03 186.36C81.53 188.82 61.26 198.96 61.26 198.96L10.52 218.45C10.52 218.45 5.31 210.16 5.31 197.45C5.31 184.74 22.96 161.81 22.96 161.81L76.65 161.79Z" fill="#263238"/>
<path d="M61.61 187.359C61.6853 187.411 61.7657 187.455 61.85 187.49L62.57 187.819L65.38 189.069L75.93 193.669L112.34 209.34L112.17 209.109C112.63 215.749 113.17 222.92 113.64 230.34C114.88 247.69 116.02 263.68 116.92 276.34V276.569H117.15L139.27 274.629L145.36 274.06L146.95 273.9L147.49 273.819C147.307 273.804 147.123 273.804 146.94 273.819L145.35 273.919L139.25 274.37L117.11 276.109L117.36 276.319C116.49 263.669 115.36 247.669 114.2 230.319C113.68 222.899 113.2 215.73 112.7 209.09V208.93L112.55 208.859L76.06 193.359L65.45 188.919L62.61 187.75L61.87 187.46C61.786 187.42 61.6991 187.386 61.61 187.359Z" fill="#455A64"/>
<path d="M21.26 189.53C21.7487 189.454 22.2281 189.326 22.69 189.15L26.51 187.909C30.6792 186.501 34.9522 185.421 39.29 184.68C43.6298 183.971 48.0601 184.029 52.38 184.849C55.68 185.539 57.58 186.48 57.62 186.37C57.21 186.091 56.7665 185.866 56.3 185.699C55.0609 185.178 53.7796 184.763 52.47 184.46C48.1046 183.508 43.5984 183.393 39.19 184.12C34.8173 184.858 30.5224 186 26.36 187.53C24.76 188.1 23.48 188.589 22.59 188.939C22.1312 189.099 21.6863 189.297 21.26 189.53Z" fill="#455A64"/>
<path d="M28.43 177.879C29.9086 177.789 31.3914 177.789 32.87 177.879C34.24 177.969 35.87 178.179 37.67 178.389C39.47 178.599 41.46 178.849 43.52 179.239C47.0446 179.8 50.4231 181.055 53.46 182.93C54.6718 183.773 55.8245 184.699 56.91 185.699C56.7109 185.348 56.4616 185.028 56.17 184.75C55.4202 183.942 54.5853 183.218 53.68 182.59C50.6442 180.583 47.214 179.25 43.62 178.68C41.54 178.29 39.54 178.06 37.73 177.87C35.92 177.68 34.28 177.519 32.89 177.479C31.7947 177.431 30.6972 177.478 29.61 177.62C29.2062 177.649 28.8089 177.737 28.43 177.879Z" fill="#455A64"/>
<path d="M50.84 0.239523C45.01 -0.760477 39.84 1.48952 34.95 4.77952C29.9453 8.29743 26.1312 13.2568 24.016 18.9969C21.9008 24.7369 21.5847 30.9853 23.11 36.9095C23.9545 39.9203 25.4 42.7288 27.3592 45.1659C29.3185 47.6029 31.751 49.6179 34.51 51.0895C42.1 54.9395 51.81 53.5995 58.61 48.4595C65.41 43.3195 69.28 34.8295 69.61 26.3195C69.925 20.4176 68.3789 14.5657 65.19 9.58953C63.5733 7.13105 61.4674 5.03203 59.0036 3.42336C56.5399 1.8147 53.7711 0.730886 50.87 0.239523" fill="#263238"/>
<path d="M34.24 20.0895C35.1 17.8495 34.76 15.3595 35.1 12.9895C35.85 7.7795 40.1 3.59949 44.9 1.56949C49.42 -0.320506 54.9 0.0894927 60.38 1.84949C64.16 2.99516 67.5351 5.19439 70.11 8.1895C71.7486 10.2216 72.8761 12.6169 73.3981 15.1746C73.9201 17.7323 73.8213 20.3778 73.11 22.8895L46.45 19.0095C43.95 21.0695 41.39 23.1795 38.36 24.3295C37.4865 24.7126 36.5291 24.8641 35.58 24.7695C35.1072 24.7132 34.6606 24.5221 34.2936 24.2189C33.9265 23.9156 33.6545 23.5131 33.51 23.0595C33.27 22.0495 33.87 21.0595 34.24 20.0895Z" fill="#263238"/>
<path d="M60.95 9.20954L37.67 14.1495C36.5911 14.2211 35.5775 14.692 34.8269 15.4704C34.0762 16.2487 33.6424 17.2787 33.61 18.3595L33.89 68.7495C33.9136 72.1899 35.0659 75.5275 37.17 78.2495L39.39 81.1095C44.46 87.6395 54.71 86.9796 58.58 79.6796C58.8167 79.265 58.9983 78.8212 59.12 78.3595C59.19 77.9095 59.31 77.6095 59.33 77.2295L59.78 72.3095C60 67.8295 60.04 63.3095 60.04 63.3095C60.04 63.3095 69.57 62.1095 72.04 49.8295C73.25 43.7295 73.33 33.6395 73.13 25.3895C72.92 17.9995 68.37 8.71954 60.95 9.20954Z" fill="#FFBE9D"/>
<path d="M69.56 34.8895C69.547 35.3015 69.3734 35.6922 69.0763 35.978C68.7793 36.2639 68.3822 36.4223 67.97 36.4195C67.7676 36.4289 67.5653 36.3975 67.3753 36.3271C67.1853 36.2567 67.0113 36.1487 66.8639 36.0097C66.7165 35.8707 66.5985 35.7034 66.5171 35.5178C66.4357 35.3322 66.3925 35.1321 66.39 34.9295C66.4055 34.5174 66.5795 34.1271 66.8757 33.8402C67.172 33.5532 67.5676 33.3918 67.98 33.3895C68.1829 33.3815 68.3854 33.4142 68.5755 33.4857C68.7656 33.5572 68.9394 33.6661 69.0867 33.806C69.2339 33.9458 69.3517 34.1137 69.433 34.2998C69.5143 34.4859 69.5575 34.6864 69.56 34.8895Z" fill="#263238"/>
<path d="M70.72 30.5795C70.51 30.7795 69.35 29.8495 67.64 29.7895C65.93 29.7295 64.64 30.5295 64.48 30.3095C64.32 30.0895 64.6 29.8495 65.16 29.4795C65.9183 28.9924 66.8099 28.7547 67.71 28.7995C68.5942 28.8296 69.4456 29.1415 70.14 29.6895C70.65 30.1195 70.82 30.4995 70.72 30.5795Z" fill="#263238"/>
<path d="M54.28 34.4995C54.2695 34.9133 54.0971 35.3065 53.7997 35.5945C53.5024 35.8825 53.1039 36.0422 52.69 36.0395C52.4884 36.0475 52.2872 36.0151 52.0983 35.9441C51.9095 35.873 51.7368 35.7649 51.5904 35.626C51.4441 35.4871 51.327 35.3203 51.2462 35.1354C51.1654 34.9505 51.1225 34.7513 51.12 34.5495C51.1304 34.1374 51.3015 33.7458 51.5967 33.458C51.8919 33.1703 52.2878 33.0094 52.7 33.0095C52.9021 33.0015 53.1038 33.0339 53.2932 33.1048C53.4826 33.1757 53.656 33.2837 53.8031 33.4225C53.9503 33.5612 54.0682 33.728 54.1501 33.9129C54.232 34.0978 54.2762 34.2973 54.28 34.4995Z" fill="#263238"/>
<path d="M54.53 30.1695C54.32 30.3695 53.16 29.4295 51.45 29.3695C49.74 29.3095 48.45 30.1095 48.29 29.8995C48.13 29.6895 48.41 29.4395 48.98 29.0595C49.7378 28.5798 50.6239 28.3426 51.52 28.3795C52.4078 28.4151 53.2617 28.7301 53.96 29.2795C54.46 29.6995 54.63 30.0795 54.53 30.1695Z" fill="#263238"/>
<path d="M59.64 43.1295C60.5523 42.8945 61.4882 42.7636 62.43 42.7395C62.87 42.7395 63.28 42.6395 63.37 42.3495C63.4214 41.9019 63.3378 41.4492 63.13 41.0495C62.76 39.9795 62.37 38.8595 61.97 37.6795C60.36 32.8895 59.22 28.9595 59.41 28.8995C59.6 28.8395 61.07 32.6695 62.67 37.4595C63.05 38.6395 63.42 39.7595 63.77 40.8395C64.0269 41.3754 64.0836 41.9854 63.93 42.5595C63.8595 42.7096 63.7566 42.8422 63.6286 42.9477C63.5006 43.0532 63.3508 43.129 63.19 43.1695C62.9466 43.2198 62.6985 43.2433 62.45 43.2395C61.5126 43.3274 60.5677 43.2905 59.64 43.1295Z" fill="#263238"/>
<path d="M60.04 63.3596C54.2206 63.2266 48.5529 61.4781 43.67 58.3096C43.67 58.3096 47.49 67.0196 59.9 66.3096L60.04 63.3596Z" fill="#EB996E"/>
<path d="M58.76 47.2095C58.4514 46.789 58.0405 46.4543 57.5662 46.2373C57.0919 46.0203 56.57 45.9281 56.05 45.9695C55.6658 45.9898 55.29 46.0891 54.9458 46.2612C54.6017 46.4332 54.2968 46.6744 54.05 46.9695C53.8159 47.2418 53.6696 47.5785 53.6303 47.9354C53.591 48.2924 53.6607 48.6528 53.83 48.9695C54.0925 49.2846 54.4428 49.5146 54.8362 49.6303C55.2297 49.746 55.6487 49.7423 56.04 49.6195C56.8582 49.3678 57.6168 48.9528 58.27 48.3995C58.4698 48.2744 58.6431 48.1113 58.78 47.9195C58.8428 47.8246 58.8763 47.7133 58.8763 47.5995C58.8763 47.4857 58.8428 47.3744 58.78 47.2795" fill="#EB996E"/>
<path d="M54.58 44.1195C54.86 44.1195 54.79 45.9595 56.32 47.3395C57.85 48.7195 59.83 48.5895 59.84 48.8495C59.84 48.9595 59.38 49.1895 58.55 49.1795C57.4639 49.1514 56.4227 48.7406 55.61 48.0195C54.8376 47.3384 54.3576 46.3856 54.27 45.3595C54.19 44.5495 54.45 44.0995 54.58 44.1195Z" fill="#263238"/>
<path d="M54.43 25.1095C54.25 25.5695 52.55 25.2795 50.54 25.4395C48.53 25.5995 46.9 26.0895 46.65 25.6595C46.54 25.4595 46.83 25.0295 47.5 24.6095C48.3883 24.0838 49.3895 23.7786 50.42 23.7195C51.4433 23.6324 52.4724 23.7937 53.42 24.1895C54.19 24.5095 54.51 24.8895 54.43 25.1095Z" fill="#263238"/>
<path d="M70.51 23.1096C70.2 23.4896 69.04 23.0396 67.63 22.9596C66.22 22.8796 65.01 23.1196 64.75 22.7096C64.63 22.5096 64.84 22.1296 65.37 21.7796C66.0877 21.356 66.9198 21.1673 67.75 21.2396C68.5775 21.2842 69.3707 21.5847 70.02 22.0996C70.5 22.5196 70.65 22.9296 70.51 23.1096Z" fill="#263238"/>
<path d="M29.97 16.4895C32.39 9.39951 42.97 -0.260489 50.39 0.409511L62.19 7.79951C61.7606 9.82876 60.7903 11.7041 59.3819 13.2269C57.9736 14.7496 56.1796 15.8632 54.19 16.4495C52.06 17.0495 49.52 17.1795 48.19 18.9695C46.86 20.7595 47.57 23.5095 46.34 25.3895C44.63 28.0095 40.12 27.7895 38.82 30.6295C38.26 31.8695 38.51 33.3695 37.92 34.6295C37.14 36.2695 32.92 38.2795 31.19 37.6995C29.46 37.1195 29.52 34.1695 28.99 32.6095C28.3079 30.8546 28.2583 28.9169 28.85 27.1295C29.71 23.6195 28.82 19.8695 29.97 16.4895Z" fill="#263238"/>
<path d="M36.31 39.2296C36.31 38.3096 35.31 36.0996 34.46 35.9196C32.05 35.4496 27.67 35.4796 27.39 41.6396C27.01 50.0596 35.54 48.6996 35.57 48.4596C35.6 48.2196 36.19 42.4096 36.31 39.2296Z" fill="#FFBE9D"/>
<path d="M33.19 45.1595C33.19 45.1595 33.04 45.2495 32.78 45.3495C32.4303 45.4902 32.0397 45.4902 31.69 45.3495C30.81 44.9795 30.13 43.5295 30.15 42.0195C30.1663 41.2941 30.3404 40.5809 30.66 39.9295C30.7524 39.6707 30.9063 39.4381 31.1083 39.2518C31.3103 39.0654 31.5545 38.9308 31.82 38.8595C31.9895 38.8208 32.1672 38.8439 32.3212 38.9246C32.4752 39.0052 32.5953 39.1382 32.66 39.2995C32.76 39.5395 32.66 39.7095 32.75 39.7195C32.84 39.7295 32.93 39.5895 32.88 39.2395C32.8485 39.0292 32.742 38.8374 32.58 38.6995C32.469 38.6046 32.3402 38.5327 32.2011 38.4881C32.0621 38.4434 31.9155 38.4269 31.77 38.4395C31.4216 38.4944 31.0928 38.6371 30.8147 38.854C30.5365 39.0709 30.3181 39.355 30.18 39.6795C29.7914 40.3919 29.5821 41.1882 29.57 41.9995C29.57 43.6995 30.34 45.3295 31.57 45.7395C31.7929 45.8143 32.0295 45.8387 32.263 45.8111C32.4964 45.7834 32.7208 45.7043 32.92 45.5795C33.11 45.3595 33.19 45.1695 33.19 45.1595Z" fill="#EB996E"/>
<path d="M28.19 14.3595C28.19 11.7195 24.93 9.99952 22.36 9.35952C19.7379 8.90907 17.0414 9.42421 14.77 10.8095C13.42 11.5495 12.06 12.6095 11.77 14.1195C11.48 15.6295 12.92 17.4295 14.36 16.8895C13.6562 17.1197 13.0124 17.5034 12.475 18.0128C11.9376 18.5222 11.52 19.1446 11.2525 19.835C10.9849 20.5254 10.874 21.2667 10.9279 22.0052C10.9817 22.7437 11.1989 23.461 11.5637 24.1053C11.9286 24.7497 12.432 25.3049 13.0376 25.731C13.6432 26.1571 14.3358 26.4433 15.0655 26.5691C15.7952 26.6948 16.5438 26.6569 17.257 26.4581C17.9703 26.2593 18.6305 25.9046 19.19 25.4195C18.4595 27.8617 16.9135 29.9796 14.81 31.4195C16.9859 31.7318 19.2057 31.4652 21.2457 30.6466C23.2858 29.828 25.0742 28.4863 26.4308 26.7567C27.7873 25.027 28.6642 22.9704 28.973 20.794C29.2819 18.6176 29.0118 16.3983 28.19 14.3595Z" fill="#263238"/>
<path d="M22.33 27.6995C22.0797 26.8806 21.9715 26.0249 22.01 25.1695C21.9764 21.0094 23.343 16.9589 25.89 13.6695C26.3708 12.9622 26.9736 12.3459 27.67 11.8495C25.9113 14.095 24.5082 16.5976 23.51 19.2695C21.96 23.7695 22.52 27.7095 22.33 27.6995Z" fill="#FF725E"/>
<path d="M59.73 5.25953C60.5 8.68953 65.73 13.0795 68 15.7495C72.36 20.8395 73.22 22.5295 73.18 33.9195C75.24 29.9895 76.82 26.1295 76.66 21.6995C76.5629 17.2121 74.8271 12.9153 71.78 9.61953C70.2552 8.01154 68.3772 6.78047 66.2944 6.02373C64.2116 5.26699 61.9813 5.00536 59.78 5.25953" fill="#263238"/>
<path d="M95.44 98.9395C95.44 98.9395 86.36 83.8095 83.84 80.7495C81.8165 78.3844 79.2737 76.5192 76.41 75.2995C75.279 74.8112 74.094 74.4587 72.88 74.2495L59.82 71.3595C59.82 71.3595 59.82 80.2695 50.47 80.8195C41.12 81.3695 33.28 68.3595 33.28 68.3595C33.28 68.3595 18.19 70.6995 14.59 72.5595C10.99 74.4195 5.31 76.7695 2.19 92.3595L0 107.639L26 110.039L28.49 148.68L41.38 157.68C41.38 157.68 77.13 166.969 79.38 167.579C81.63 168.189 82.38 110.059 82.38 110.059C82.38 110.059 91.64 104.149 95.44 98.9395Z" fill="#263238"/>
<path d="M78.32 92.4396C78.5307 92.793 78.7017 93.1686 78.83 93.5596C79.12 94.2896 79.5 95.3596 79.92 96.6996C82.106 103.721 83.0071 111.079 82.58 118.42C82.5 119.82 82.39 120.95 82.27 121.73C82.2435 122.136 82.1731 122.538 82.06 122.93C82.0122 122.524 82.0122 122.115 82.06 121.71C82.11 120.93 82.17 119.8 82.2 118.4C82.2975 114.759 82.1304 111.116 81.7 107.5C81.249 103.889 80.5338 100.316 79.56 96.8096C79.19 95.4596 78.86 94.3696 78.62 93.6296C78.4784 93.2446 78.3778 92.8457 78.32 92.4396Z" fill="#455A64"/>
<path d="M77.19 155.73L28.19 145.07L25.93 110.07L4.16 108.07C4.16 108.07 4.97 131.99 5.8 139.07C7.01 149.3 13.05 163.26 16.59 166.07C20.13 168.88 79.34 167.6 79.34 167.6L77.19 155.73Z" fill="#FFBE9D"/>
<path d="M105 162.07C104.837 162.408 104.577 162.689 104.252 162.878C103.928 163.067 103.555 163.155 103.18 163.13C103.02 163.118 102.863 163.088 102.71 163.04C101.62 162.69 101.71 160.48 101.71 160.48L96.53 159.64C96.53 159.64 89.78 163.99 87.38 166.87C84.98 169.75 78.86 167.42 78.86 167.42L76.74 156.36L86.29 147.73C86.29 147.73 85.71 148.24 86.37 146.63C87.03 145.02 90.02 145.63 90.02 145.63C90.49 144.83 92.45 144.55 92.45 144.55L100.83 145.55C101.681 145.648 102.5 145.937 103.225 146.394C103.95 146.85 104.564 147.464 105.02 148.19L108.57 153.8C108.57 153.8 110.44 157.8 110.14 158.8C110.006 159.201 109.726 159.537 109.355 159.741C108.985 159.945 108.551 160.002 108.14 159.9C108.14 159.9 107.73 162.56 107.03 162.65C106.315 162.612 105.613 162.443 104.96 162.15L105 162.07Z" fill="#FFBE9D"/>
<path d="M87.19 154.129C87.19 154.219 88.31 154.129 90.1 154.189C92.4245 154.302 94.7226 154.733 96.93 155.469C98.1451 155.878 99.3256 156.383 100.46 156.979C101.46 157.549 102.52 157.979 102.85 158.749C102.925 158.909 102.955 159.086 102.94 159.262C102.924 159.437 102.862 159.606 102.76 159.749C102.608 159.986 102.389 160.17 102.13 160.279C101.892 160.362 101.641 160.4 101.39 160.389C101.39 160.389 101.65 160.619 102.19 160.479C102.516 160.391 102.802 160.193 103 159.919C103.144 159.737 103.238 159.521 103.273 159.291C103.308 159.061 103.283 158.826 103.2 158.609C102.987 158.128 102.64 157.719 102.2 157.429C101.74 157.139 101.26 156.829 100.73 156.539C99.5815 155.909 98.3803 155.381 97.14 154.959C94.885 154.197 92.5204 153.809 90.14 153.809C89.146 153.76 88.1503 153.868 87.19 154.129Z" fill="#EB996E"/>
<path d="M86.59 159.47C86.59 159.63 90.01 159.47 94.2 159.73C98.39 159.99 101.75 160.49 101.78 160.33C101.081 160.055 100.347 159.876 99.6 159.8C97.8228 159.498 96.0299 159.298 94.23 159.2C92.4281 159.099 90.6219 159.099 88.82 159.2C88.0678 159.186 87.3174 159.277 86.59 159.47Z" fill="#EB996E"/>
<path d="M104.95 161.86C105.024 161.569 105.061 161.27 105.06 160.969C105.111 160.15 105.111 159.329 105.06 158.51C105.032 157.937 104.955 157.369 104.83 156.81C104.679 156.155 104.401 155.536 104.01 154.99C103.184 153.724 102.117 152.633 100.87 151.78C99.6384 150.926 98.2915 150.253 96.87 149.78C95.6908 149.447 94.4748 149.262 93.25 149.23C92.25 149.23 91.39 149.23 90.81 149.23C90.5071 149.209 90.2029 149.24 89.91 149.319C91.0103 149.477 92.1188 149.57 93.23 149.599C94.4172 149.679 95.5915 149.894 96.73 150.24C98.0942 150.737 99.3882 151.41 100.58 152.24C101.76 153.066 102.777 154.104 103.58 155.3C104.238 156.272 104.615 157.407 104.67 158.58C104.89 160.57 104.84 161.86 104.95 161.86Z" fill="#EB996E"/>
<path d="M92.86 146.659C92.86 146.739 94.11 146.779 96.11 147.009C98.11 147.239 101.11 147.439 102.88 150.099C104.583 152.084 106.003 154.295 107.1 156.669C107.463 157.689 107.731 158.74 107.9 159.81C107.959 159.516 107.959 159.213 107.9 158.919C107.849 158.107 107.684 157.306 107.41 156.539C106.396 154.072 104.988 151.785 103.24 149.769C102.773 149.152 102.229 148.598 101.62 148.12C101.02 147.685 100.34 147.373 99.62 147.199C98.4594 146.888 97.2698 146.697 96.07 146.629C95.0026 146.513 93.9251 146.523 92.86 146.659Z" fill="#EB996E"/>
<path d="M89.19 165.09C89.3672 164.977 89.5345 164.85 89.69 164.71L91.09 163.58C92.8516 162.21 94.6914 160.945 96.6 159.79H96.48L101.66 160.67L101.48 160.45C101.463 160.875 101.497 161.302 101.58 161.72C101.648 162.186 101.853 162.621 102.17 162.97C102.36 163.141 102.597 163.253 102.85 163.29C103.091 163.334 103.339 163.334 103.58 163.29C104.084 163.216 104.543 162.959 104.87 162.57C104.958 162.478 105.035 162.378 105.1 162.27L105.15 162.18L104.85 162.29L105.01 162.35C105.23 162.44 105.45 162.52 105.68 162.59C105.91 162.66 106.14 162.72 106.39 162.77C106.52 162.78 106.65 162.78 106.78 162.77C106.945 162.78 107.11 162.749 107.26 162.68C107.487 162.5 107.661 162.262 107.76 161.99C107.866 161.76 107.953 161.523 108.02 161.28C108.161 160.797 108.271 160.306 108.35 159.81L108.05 160.02C108.401 160.093 108.766 160.07 109.105 159.954C109.445 159.838 109.747 159.633 109.98 159.36C110.211 159.077 110.338 158.724 110.34 158.36C110.312 158.021 110.252 157.686 110.16 157.36C109.767 156.086 109.29 154.84 108.73 153.63L106.84 150.63L105.64 148.74C105.275 148.078 104.836 147.461 104.33 146.9C103.794 146.36 103.155 145.935 102.45 145.65C101.763 145.394 101.042 145.246 100.31 145.21L92.42 144.32H92.36C91.8854 144.396 91.4196 144.52 90.97 144.69C90.4901 144.833 90.0693 145.128 89.77 145.53L90.06 145.44C89.6336 145.243 89.1653 145.153 88.6963 145.179C88.2273 145.205 87.7719 145.346 87.37 145.59C86.6702 146.099 86.1938 146.858 86.04 147.71L86.1 147.6L79.52 153.52L77.75 155.15C77.5318 155.327 77.334 155.528 77.16 155.75C77.3946 155.596 77.6155 155.422 77.82 155.23L79.67 153.68L86.36 147.9H86.41V147.83C86.5531 147.088 86.9709 146.427 87.58 145.98C87.9238 145.785 88.3092 145.675 88.7041 145.659C89.0989 145.644 89.4918 145.723 89.85 145.89L90.03 145.96L90.14 145.8C90.4009 145.49 90.7496 145.267 91.14 145.16C91.5581 145.008 91.9902 144.897 92.43 144.83H92.36L100.25 145.76C100.934 145.8 101.608 145.941 102.25 146.18C102.888 146.435 103.467 146.82 103.95 147.31C104.427 147.845 104.843 148.432 105.19 149.06L106.39 150.96C107.04 151.96 107.68 152.96 108.28 153.96C108.836 155.138 109.308 156.354 109.69 157.6C109.778 157.889 109.835 158.188 109.86 158.49C109.865 158.749 109.777 159.001 109.61 159.2C109.44 159.399 109.219 159.548 108.97 159.631C108.722 159.713 108.456 159.727 108.2 159.67H107.93V159.92C107.854 160.395 107.75 160.866 107.62 161.33C107.535 161.742 107.35 162.127 107.08 162.45C107.01 162.461 106.94 162.461 106.87 162.45H106.55C106.34 162.45 106.12 162.35 105.9 162.29L105.26 162.07L105.11 162.01L104.8 162.12V162.18C104.752 162.265 104.695 162.346 104.63 162.42C104.376 162.723 104.021 162.926 103.63 162.99C103.442 163.03 103.248 163.03 103.06 162.99C102.884 162.973 102.716 162.903 102.58 162.79C102.141 162.156 101.943 161.387 102.02 160.62V160.43H101.84L96.64 159.62H96.58H96.53C94.6276 160.81 92.8069 162.126 91.08 163.56C90.48 164.07 90.03 164.48 89.73 164.76C89.5386 164.85 89.3576 164.96 89.19 165.09Z" fill="#EB996E"/>
<path d="M168.51 129.9L104.04 130.43C101.94 130.43 99.95 131.43 99.63 133.5L92.63 180.5H59.37C58.8808 180.535 58.4232 180.754 58.0891 181.113C57.7549 181.472 57.5692 181.944 57.5692 182.435C57.5692 182.925 57.7549 183.397 58.0891 183.756C58.4232 184.115 58.8808 184.334 59.37 184.37H165.45L172.7 134.77C172.791 134.167 172.75 133.551 172.581 132.965C172.412 132.379 172.119 131.836 171.721 131.374C171.323 130.912 170.831 130.541 170.277 130.286C169.722 130.032 169.12 129.9 168.51 129.9Z" fill="#E0E0E0"/>
<path d="M168.51 129.9C168.846 129.886 169.183 129.919 169.51 130C170.368 130.203 171.142 130.667 171.725 131.327C172.309 131.988 172.674 132.813 172.77 133.69C172.795 134.579 172.714 135.469 172.53 136.34L171.6 142.89C170.18 152.74 168.14 166.94 165.6 184.4V184.57H165.43L62.52 184.63H59.75C59.2466 184.677 58.74 184.58 58.29 184.35C57.9459 184.161 57.6588 183.883 57.4589 183.545C57.2589 183.207 57.1534 182.822 57.1534 182.43C57.1534 182.037 57.2589 181.652 57.4589 181.314C57.6588 180.976 57.9459 180.698 58.29 180.51C58.7415 180.284 59.2476 180.19 59.75 180.24H92.59L92.34 180.46C94.87 163.63 97.24 147.93 99.34 133.84C99.4093 132.899 99.8392 132.021 100.54 131.39C101.24 130.8 102.093 130.421 103 130.3C103.864 130.216 104.732 130.185 105.6 130.21H108.13L117.84 130.15L135.09 130.04L159.65 129.91H168.49C168.49 129.91 168.3 129.91 167.92 129.91H166.22L159.65 130L135.09 130.27L117.84 130.45L108.13 130.54H105.6C104.756 130.524 103.911 130.554 103.07 130.63C102.239 130.739 101.458 131.087 100.82 131.63C100.509 131.909 100.256 132.247 100.076 132.625C99.8956 133.002 99.7917 133.412 99.77 133.83C97.67 147.92 95.33 163.62 92.77 180.45V180.67H59.77C59.3591 180.618 58.9419 180.687 58.57 180.87C58.2316 181.064 57.9704 181.369 57.8302 181.733C57.6899 182.097 57.6793 182.498 57.8 182.87C57.943 183.245 58.2115 183.56 58.56 183.76C58.9357 183.941 59.355 184.014 59.77 183.97H62.54L165.45 184.03L165.25 184.2C167.84 166.75 169.94 152.56 171.4 142.71C171.77 140.26 172.1 138.07 172.4 136.18C172.586 135.322 172.676 134.447 172.67 133.57C172.586 132.713 172.241 131.904 171.681 131.251C171.121 130.598 170.373 130.133 169.54 129.92C169.197 129.895 168.853 129.889 168.51 129.9Z" fill="#263238"/>
<path d="M133.54 160.579C135.771 160.579 137.58 158.771 137.58 156.539C137.58 154.308 135.771 152.5 133.54 152.5C131.309 152.5 129.5 154.308 129.5 156.539C129.5 158.771 131.309 160.579 133.54 160.579Z" fill="white"/>
<path d="M95.19 183.93C95.28 183.93 97.33 171.98 99.77 157.21C102.21 142.44 104.12 130.44 104.03 130.43C103.94 130.42 101.88 142.38 99.44 157.15C97 171.92 95.11 183.92 95.19 183.93Z" fill="#263238"/>
</svg>
