<svg width="261" height="206" viewBox="0 0 261 206" fill="none" xmlns="http://www.w3.org/2000/svg">
<path d="M149 205.64C204.228 205.64 249 200.572 249 194.32C249 188.068 204.228 183 149 183C93.7715 183 49 188.068 49 194.32C49 200.572 93.7715 205.64 149 205.64Z" fill="#F5F5F5"/>
<path d="M260.807 0H0V129.577H260.807V0Z" fill="white"/>
<path d="M232.936 48.6349H23.6243C21.9697 48.6349 20.6284 49.9762 20.6284 51.6307V77.109C20.6284 78.7636 21.9697 80.1048 23.6243 80.1048H232.936C234.591 80.1048 235.932 78.7636 235.932 77.109V51.6307C235.932 49.9762 234.591 48.6349 232.936 48.6349Z" fill="#FAFAFA"/>
<path d="M34.8355 57.3125H33.9438V71.9927H34.8355V57.3125Z" fill="#407BFF"/>
<path d="M27.5803 111V92.8182H31.4244V107.831H39.2191V111H27.5803ZM57.7649 101.909C57.7649 103.892 57.3891 105.579 56.6374 106.969C55.8917 108.36 54.8737 109.423 53.5835 110.157C52.2991 110.885 50.855 111.249 49.2511 111.249C47.6353 111.249 46.1853 110.882 44.9009 110.148C43.6166 109.414 42.6016 108.351 41.8558 106.961C41.1101 105.57 40.7372 103.886 40.7372 101.909C40.7372 99.9264 41.1101 98.2396 41.8558 96.8487C42.6016 95.4579 43.6166 94.3984 44.9009 93.6705C46.1853 92.9366 47.6353 92.5696 49.2511 92.5696C50.855 92.5696 52.2991 92.9366 53.5835 93.6705C54.8737 94.3984 55.8917 95.4579 56.6374 96.8487C57.3891 98.2396 57.7649 99.9264 57.7649 101.909ZM53.8675 101.909C53.8675 100.625 53.6752 99.5417 53.2905 98.6598C52.9117 97.7779 52.3761 97.1091 51.6836 96.6534C50.9911 96.1977 50.1803 95.9698 49.2511 95.9698C48.3219 95.9698 47.511 96.1977 46.8185 96.6534C46.1261 97.1091 45.5875 97.7779 45.2028 98.6598C44.824 99.5417 44.6346 100.625 44.6346 101.909C44.6346 103.193 44.824 104.277 45.2028 105.158C45.5875 106.04 46.1261 106.709 46.8185 107.165C47.511 107.621 48.3219 107.848 49.2511 107.848C50.1803 107.848 50.9911 107.621 51.6836 107.165C52.3761 106.709 52.9117 106.04 53.2905 105.158C53.6752 104.277 53.8675 103.193 53.8675 101.909ZM72.6686 98.6953C72.5443 98.2633 72.3697 97.8815 72.1448 97.5501C71.9199 97.2127 71.6447 96.9286 71.3192 96.6978C70.9996 96.4611 70.6326 96.2805 70.2183 96.1562C69.8099 96.032 69.3572 95.9698 68.86 95.9698C67.9308 95.9698 67.114 96.2006 66.4097 96.6623C65.7113 97.1239 65.1668 97.7957 64.7762 98.6776C64.3856 99.5535 64.1903 100.625 64.1903 101.891C64.1903 103.158 64.3826 104.235 64.7673 105.123C65.152 106.011 65.6965 106.688 66.4008 107.156C67.1051 107.618 67.9367 107.848 68.8955 107.848C69.7655 107.848 70.5083 107.694 71.1238 107.387C71.7453 107.073 72.2188 106.632 72.5443 106.064C72.8757 105.496 73.0415 104.824 73.0415 104.049L73.8227 104.164H69.1352V101.27H76.7435V103.56C76.7435 105.158 76.4062 106.531 75.7314 107.68C75.0567 108.822 74.1275 109.704 72.9438 110.325C71.7601 110.941 70.4047 111.249 68.8778 111.249C67.1732 111.249 65.6758 110.873 64.3856 110.121C63.0953 109.364 62.0892 108.289 61.3671 106.898C60.651 105.502 60.2929 103.844 60.2929 101.927C60.2929 100.453 60.5059 99.1392 60.9321 97.9851C61.3641 96.825 61.9678 95.8426 62.7432 95.0376C63.5185 94.2327 64.4211 93.6201 65.4509 93.1999C66.4807 92.7797 67.5964 92.5696 68.7979 92.5696C69.8277 92.5696 70.7865 92.7205 71.6743 93.0224C72.5621 93.3183 73.3492 93.7385 74.0358 94.283C74.7282 94.8275 75.2935 95.4756 75.7314 96.2273C76.1694 96.973 76.4506 97.7957 76.5748 98.6953H72.6686ZM89.2613 92.8182V111H85.4172V92.8182H89.2613ZM107.632 92.8182V111H104.311L96.4013 99.5565H96.2681V111H92.424V92.8182H95.7976L103.646 104.253H103.805V92.8182H107.632Z" fill="black"/>
<path d="M41.4169 66.9439C40.968 66.9439 40.5817 66.853 40.2578 66.6711C39.9358 66.4874 39.6877 66.228 39.5135 65.8927C39.3393 65.5556 39.2521 65.1569 39.2521 64.6967C39.2521 64.2478 39.3393 63.8539 39.5135 63.5149C39.6877 63.1759 39.933 62.9117 40.2493 62.7223C40.5675 62.5329 40.9406 62.4382 41.3686 62.4382C41.6565 62.4382 41.9245 62.4846 42.1726 62.5774C42.4226 62.6683 42.6404 62.8056 42.826 62.9893C43.0135 63.173 43.1593 63.4041 43.2635 63.6825C43.3677 63.959 43.4197 64.2829 43.4197 64.6541V64.9865H39.7351V64.2365H42.2805C42.2805 64.0622 42.2427 63.9079 42.1669 63.7734C42.0911 63.6389 41.986 63.5338 41.8516 63.4581C41.719 63.3804 41.5646 63.3416 41.3885 63.3416C41.2048 63.3416 41.0419 63.3842 40.8999 63.4694C40.7597 63.5528 40.6499 63.6655 40.5703 63.8075C40.4908 63.9477 40.45 64.1039 40.4482 64.2763V64.9893C40.4482 65.2052 40.4879 65.3918 40.5675 65.549C40.6489 65.7062 40.7635 65.8274 40.9112 65.9126C41.0589 65.9978 41.2341 66.0405 41.4368 66.0405C41.5713 66.0405 41.6944 66.0215 41.8061 65.9836C41.9179 65.9458 42.0135 65.8889 42.093 65.8132C42.1726 65.7374 42.2332 65.6446 42.2749 65.5348L43.3942 65.6086C43.3374 65.8776 43.2209 66.1124 43.0447 66.3132C42.8705 66.5121 42.6451 66.6674 42.3686 66.7791C42.094 66.8889 41.7768 66.9439 41.4169 66.9439ZM45.4197 64.3359V66.8586H44.2095V62.495H45.3629V63.2649H45.4141C45.5107 63.0111 45.6726 62.8103 45.8999 62.6626C46.1271 62.513 46.4027 62.4382 46.7266 62.4382C47.0296 62.4382 47.2938 62.5045 47.5192 62.6371C47.7446 62.7696 47.9197 62.959 48.0447 63.2052C48.1697 63.4496 48.2322 63.7412 48.2322 64.0802V66.8586H47.022V64.2961C47.0239 64.0291 46.9557 63.8208 46.8175 63.6711C46.6792 63.5196 46.4889 63.4439 46.2464 63.4439C46.0836 63.4439 45.9396 63.4789 45.8146 63.549C45.6915 63.6191 45.5949 63.7213 45.5249 63.8558C45.4567 63.9884 45.4216 64.1484 45.4197 64.3359ZM51.5071 62.495V63.4041H48.8793V62.495H51.5071ZM49.4759 61.4496H50.6861V65.5177C50.6861 65.6295 50.7031 65.7166 50.7372 65.7791C50.7713 65.8397 50.8187 65.8823 50.8793 65.9069C50.9418 65.9316 51.0137 65.9439 51.0952 65.9439C51.152 65.9439 51.2088 65.9391 51.2656 65.9297C51.3224 65.9183 51.366 65.9098 51.3963 65.9041L51.5866 66.8047C51.526 66.8236 51.4408 66.8454 51.331 66.87C51.2211 66.8965 51.0876 66.9126 50.9304 66.9183C50.6387 66.9297 50.383 66.8908 50.1634 66.8018C49.9455 66.7128 49.776 66.5746 49.6548 66.3871C49.5336 66.1996 49.474 65.9628 49.4759 65.6768V61.4496ZM54.2372 66.9439C53.7884 66.9439 53.402 66.853 53.0781 66.6711C52.7562 66.4874 52.508 66.228 52.3338 65.8927C52.1596 65.5556 52.0724 65.1569 52.0724 64.6967C52.0724 64.2478 52.1596 63.8539 52.3338 63.5149C52.508 63.1759 52.7533 62.9117 53.0696 62.7223C53.3878 62.5329 53.7609 62.4382 54.1889 62.4382C54.4768 62.4382 54.7448 62.4846 54.9929 62.5774C55.2429 62.6683 55.4607 62.8056 55.6463 62.9893C55.8338 63.173 55.9796 63.4041 56.0838 63.6825C56.188 63.959 56.2401 64.2829 56.2401 64.6541V64.9865H52.5554V64.2365H55.1009C55.1009 64.0622 55.063 63.9079 54.9872 63.7734C54.9115 63.6389 54.8063 63.5338 54.6719 63.4581C54.5393 63.3804 54.3849 63.3416 54.2088 63.3416C54.0251 63.3416 53.8622 63.3842 53.7202 63.4694C53.58 63.5528 53.4702 63.6655 53.3906 63.8075C53.3111 63.9477 53.2704 64.1039 53.2685 64.2763V64.9893C53.2685 65.2052 53.3082 65.3918 53.3878 65.549C53.4692 65.7062 53.5838 65.8274 53.7315 65.9126C53.8793 65.9978 54.0545 66.0405 54.2571 66.0405C54.3916 66.0405 54.5147 66.0215 54.6264 65.9836C54.7382 65.9458 54.8338 65.8889 54.9134 65.8132C54.9929 65.7374 55.0535 65.6446 55.0952 65.5348L56.2145 65.6086C56.1577 65.8776 56.0412 66.1124 55.8651 66.3132C55.6908 66.5121 55.4654 66.6674 55.1889 66.7791C54.9143 66.8889 54.5971 66.9439 54.2372 66.9439ZM57.0298 66.8586V62.495H58.2031V63.2564H58.2486C58.3281 62.9855 58.4616 62.781 58.6491 62.6427C58.8366 62.5026 59.0526 62.4325 59.2969 62.4325C59.3575 62.4325 59.4228 62.4363 59.4929 62.4439C59.563 62.4514 59.6245 62.4619 59.6776 62.4751V63.549C59.6207 63.5319 59.5421 63.5168 59.4418 63.5035C59.3414 63.4903 59.2495 63.4836 59.1662 63.4836C58.9882 63.4836 58.8291 63.5225 58.6889 63.6001C58.5507 63.6759 58.4408 63.7819 58.3594 63.9183C58.2798 64.0547 58.2401 64.2119 58.2401 64.3899V66.8586H57.0298ZM62.902 68.495C62.7486 68.495 62.6046 68.4827 62.4702 68.4581C62.3376 68.4353 62.2277 68.406 62.1406 68.37L62.4134 67.4666C62.5554 67.5102 62.6832 67.5338 62.7969 67.5376C62.9124 67.5414 63.0118 67.5149 63.0952 67.4581C63.1804 67.4013 63.2495 67.3047 63.3026 67.1683L63.3736 66.9836L61.8082 62.495H63.081L63.9844 65.6996H64.0298L64.9418 62.495H66.223L64.527 67.3302C64.4455 67.5651 64.3348 67.7696 64.1946 67.9439C64.0563 68.12 63.8812 68.2554 63.669 68.3501C63.4569 68.4467 63.2012 68.495 62.902 68.495ZM68.6733 66.9439C68.232 66.9439 67.8504 66.8501 67.5284 66.6626C67.2083 66.4732 66.9612 66.21 66.7869 65.8728C66.6127 65.5338 66.5256 65.1408 66.5256 64.6939C66.5256 64.2431 66.6127 63.8492 66.7869 63.5121C66.9612 63.173 67.2083 62.9098 67.5284 62.7223C67.8504 62.5329 68.232 62.4382 68.6733 62.4382C69.1146 62.4382 69.4953 62.5329 69.8153 62.7223C70.1373 62.9098 70.3854 63.173 70.5597 63.5121C70.7339 63.8492 70.821 64.2431 70.821 64.6939C70.821 65.1408 70.7339 65.5338 70.5597 65.8728C70.3854 66.21 70.1373 66.4732 69.8153 66.6626C69.4953 66.8501 69.1146 66.9439 68.6733 66.9439ZM68.679 66.0064C68.8797 66.0064 69.0473 65.9496 69.1818 65.8359C69.3163 65.7204 69.4176 65.5632 69.4858 65.3643C69.5559 65.1655 69.5909 64.9391 69.5909 64.6853C69.5909 64.4316 69.5559 64.2052 69.4858 64.0064C69.4176 63.8075 69.3163 63.6503 69.1818 63.5348C69.0473 63.4192 68.8797 63.3615 68.679 63.3615C68.4763 63.3615 68.3059 63.4192 68.1676 63.5348C68.0313 63.6503 67.928 63.8075 67.858 64.0064C67.7898 64.2052 67.7557 64.4316 67.7557 64.6853C67.7557 64.9391 67.7898 65.1655 67.858 65.3643C67.928 65.5632 68.0313 65.7204 68.1676 65.8359C68.3059 65.9496 68.4763 66.0064 68.679 66.0064ZM74.4062 65.0007V62.495H75.6165V66.8586H74.4545V66.066H74.4091C74.3106 66.3217 74.1468 66.5272 73.9176 66.6825C73.6903 66.8378 73.4129 66.9155 73.0852 66.9155C72.7936 66.9155 72.5369 66.8492 72.3153 66.7166C72.0938 66.584 71.9205 66.3956 71.7955 66.1513C71.6723 65.9069 71.6098 65.6143 71.608 65.2734V62.495H72.8182V65.0575C72.8201 65.3151 72.8892 65.5187 73.0256 65.6683C73.1619 65.8179 73.3447 65.8927 73.5739 65.8927C73.7197 65.8927 73.8561 65.8596 73.983 65.7933C74.1098 65.7251 74.2121 65.6247 74.2898 65.4922C74.3693 65.3596 74.4081 65.1958 74.4062 65.0007ZM76.5845 66.8586V62.495H77.7578V63.2564H77.8033C77.8828 62.9855 78.0163 62.781 78.2038 62.6427C78.3913 62.5026 78.6072 62.4325 78.8516 62.4325C78.9122 62.4325 78.9775 62.4363 79.0476 62.4439C79.1177 62.4514 79.1792 62.4619 79.2322 62.4751V63.549C79.1754 63.5319 79.0968 63.5168 78.9964 63.5035C78.8961 63.4903 78.8042 63.4836 78.7209 63.4836C78.5429 63.4836 78.3838 63.5225 78.2436 63.6001C78.1054 63.6759 77.9955 63.7819 77.9141 63.9183C77.8345 64.0547 77.7947 64.2119 77.7947 64.3899V66.8586H76.5845ZM81.7095 68.495V62.495H82.9027V63.228H82.9567C83.0097 63.1105 83.0864 62.9912 83.1868 62.87C83.2891 62.7469 83.4216 62.6446 83.5845 62.5632C83.7493 62.4799 83.9538 62.4382 84.1982 62.4382C84.5163 62.4382 84.8099 62.5215 85.0788 62.6882C85.3478 62.853 85.5627 63.102 85.7237 63.4353C85.8847 63.7668 85.9652 64.1825 85.9652 64.6825C85.9652 65.1692 85.8866 65.5802 85.7294 65.9155C85.5741 66.2488 85.362 66.5016 85.093 66.674C84.826 66.8444 84.5268 66.9297 84.1953 66.9297C83.9605 66.9297 83.7607 66.8908 83.5959 66.8132C83.433 66.7355 83.2995 66.638 83.1953 66.5206C83.0911 66.4013 83.0116 66.281 82.9567 66.1598H82.9197V68.495H81.7095ZM82.8942 64.6768C82.8942 64.9363 82.9302 65.1626 83.0021 65.3558C83.0741 65.549 83.1783 65.6996 83.3146 65.8075C83.451 65.9136 83.6167 65.9666 83.8118 65.9666C84.0088 65.9666 84.1754 65.9126 84.3118 65.8047C84.4482 65.6948 84.5514 65.5433 84.6214 65.3501C84.6934 65.155 84.7294 64.9306 84.7294 64.6768C84.7294 64.4249 84.6944 64.2033 84.6243 64.0121C84.5542 63.8208 84.451 63.6711 84.3146 63.5632C84.1783 63.4552 84.0107 63.4013 83.8118 63.4013C83.6148 63.4013 83.4482 63.4533 83.3118 63.5575C83.1773 63.6617 83.0741 63.8094 83.0021 64.0007C82.9302 64.192 82.8942 64.4174 82.8942 64.6768ZM87.9822 64.3359V66.8586H86.772V61.0405H87.9482V63.2649H87.9993C88.0978 63.0073 88.2569 62.8056 88.4766 62.6598C88.6963 62.5121 88.9718 62.4382 89.3033 62.4382C89.6063 62.4382 89.8705 62.5045 90.0959 62.6371C90.3232 62.7677 90.4993 62.9562 90.6243 63.2024C90.7512 63.4467 90.8137 63.7393 90.8118 64.0802V66.8586H89.6016V64.2961C89.6035 64.0272 89.5353 63.8179 89.397 63.6683C89.2607 63.5187 89.0694 63.4439 88.8232 63.4439C88.6584 63.4439 88.5125 63.4789 88.3857 63.549C88.2607 63.6191 88.1622 63.7213 88.0902 63.8558C88.0201 63.9884 87.9841 64.1484 87.9822 64.3359ZM93.7358 66.9439C93.2945 66.9439 92.9129 66.8501 92.5909 66.6626C92.2708 66.4732 92.0237 66.21 91.8494 65.8728C91.6752 65.5338 91.5881 65.1408 91.5881 64.6939C91.5881 64.2431 91.6752 63.8492 91.8494 63.5121C92.0237 63.173 92.2708 62.9098 92.5909 62.7223C92.9129 62.5329 93.2945 62.4382 93.7358 62.4382C94.1771 62.4382 94.5578 62.5329 94.8778 62.7223C95.1998 62.9098 95.4479 63.173 95.6222 63.5121C95.7964 63.8492 95.8835 64.2431 95.8835 64.6939C95.8835 65.1408 95.7964 65.5338 95.6222 65.8728C95.4479 66.21 95.1998 66.4732 94.8778 66.6626C94.5578 66.8501 94.1771 66.9439 93.7358 66.9439ZM93.7415 66.0064C93.9422 66.0064 94.1098 65.9496 94.2443 65.8359C94.3788 65.7204 94.4801 65.5632 94.5483 65.3643C94.6184 65.1655 94.6534 64.9391 94.6534 64.6853C94.6534 64.4316 94.6184 64.2052 94.5483 64.0064C94.4801 63.8075 94.3788 63.6503 94.2443 63.5348C94.1098 63.4192 93.9422 63.3615 93.7415 63.3615C93.5388 63.3615 93.3684 63.4192 93.2301 63.5348C93.0938 63.6503 92.9905 63.8075 92.9205 64.0064C92.8523 64.2052 92.8182 64.4316 92.8182 64.6853C92.8182 64.9391 92.8523 65.1655 92.9205 65.3643C92.9905 65.5632 93.0938 65.7204 93.2301 65.8359C93.3684 65.9496 93.5388 66.0064 93.7415 66.0064ZM97.8807 64.3359V66.8586H96.6705V62.495H97.8239V63.2649H97.875C97.9716 63.0111 98.1335 62.8103 98.3608 62.6626C98.5881 62.513 98.8636 62.4382 99.1875 62.4382C99.4905 62.4382 99.7547 62.5045 99.9801 62.6371C100.205 62.7696 100.381 62.959 100.506 63.2052C100.631 63.4496 100.693 63.7412 100.693 64.0802V66.8586H99.483V64.2961C99.4848 64.0291 99.4167 63.8208 99.2784 63.6711C99.1402 63.5196 98.9498 63.4439 98.7074 63.4439C98.5445 63.4439 98.4006 63.4789 98.2756 63.549C98.1525 63.6191 98.0559 63.7213 97.9858 63.8558C97.9176 63.9884 97.8826 64.1484 97.8807 64.3359ZM103.636 66.9439C103.187 66.9439 102.8 66.853 102.477 66.6711C102.155 66.4874 101.906 66.228 101.732 65.8927C101.558 65.5556 101.471 65.1569 101.471 64.6967C101.471 64.2478 101.558 63.8539 101.732 63.5149C101.906 63.1759 102.152 62.9117 102.468 62.7223C102.786 62.5329 103.159 62.4382 103.587 62.4382C103.875 62.4382 104.143 62.4846 104.391 62.5774C104.641 62.6683 104.859 62.8056 105.045 62.9893C105.232 63.173 105.378 63.4041 105.482 63.6825C105.586 63.959 105.638 64.2829 105.638 64.6541V64.9865H101.954V64.2365H104.499C104.499 64.0622 104.461 63.9079 104.386 63.7734C104.31 63.6389 104.205 63.5338 104.07 63.4581C103.938 63.3804 103.783 63.3416 103.607 63.3416C103.424 63.3416 103.261 63.3842 103.119 63.4694C102.978 63.5528 102.869 63.6655 102.789 63.8075C102.71 63.9477 102.669 64.1039 102.667 64.2763V64.9893C102.667 65.2052 102.707 65.3918 102.786 65.549C102.868 65.7062 102.982 65.8274 103.13 65.9126C103.278 65.9978 103.453 66.0405 103.656 66.0405C103.79 66.0405 103.913 66.0215 104.025 65.9836C104.137 65.9458 104.232 65.8889 104.312 65.8132C104.391 65.7374 104.452 65.6446 104.494 65.5348L105.613 65.6086C105.556 65.8776 105.44 66.1124 105.263 66.3132C105.089 66.5121 104.864 66.6674 104.587 66.7791C104.313 66.8889 103.996 66.9439 103.636 66.9439ZM109.49 64.3359V66.8586H108.28V62.495H109.433V63.2649H109.484C109.581 63.0111 109.743 62.8103 109.97 62.6626C110.197 62.513 110.473 62.4382 110.797 62.4382C111.1 62.4382 111.364 62.5045 111.589 62.6371C111.815 62.7696 111.99 62.959 112.115 63.2052C112.24 63.4496 112.303 63.7412 112.303 64.0802V66.8586H111.092V64.2961C111.094 64.0291 111.026 63.8208 110.888 63.6711C110.75 63.5196 110.559 63.4439 110.317 63.4439C110.154 63.4439 110.01 63.4789 109.885 63.549C109.762 63.6191 109.665 63.7213 109.595 63.8558C109.527 63.9884 109.492 64.1484 109.49 64.3359ZM116.055 65.0007V62.495H117.265V66.8586H116.103V66.066H116.058C115.959 66.3217 115.795 66.5272 115.566 66.6825C115.339 66.8378 115.061 66.9155 114.734 66.9155C114.442 66.9155 114.185 66.8492 113.964 66.7166C113.742 66.584 113.569 66.3956 113.444 66.1513C113.321 65.9069 113.258 65.6143 113.256 65.2734V62.495H114.467V65.0575C114.469 65.3151 114.538 65.5187 114.674 65.6683C114.81 65.8179 114.993 65.8927 115.222 65.8927C115.368 65.8927 115.504 65.8596 115.631 65.7933C115.758 65.7251 115.861 65.6247 115.938 65.4922C116.018 65.3596 116.057 65.1958 116.055 65.0007ZM118.233 66.8586V62.495H119.386V63.2649H119.438C119.528 63.0092 119.68 62.8075 119.892 62.6598C120.104 62.5121 120.358 62.4382 120.653 62.4382C120.953 62.4382 121.207 62.513 121.418 62.6626C121.628 62.8103 121.768 63.0111 121.838 63.2649H121.884C121.973 63.0149 122.134 62.8151 122.366 62.6655C122.601 62.5139 122.879 62.4382 123.199 62.4382C123.606 62.4382 123.937 62.5679 124.19 62.8274C124.446 63.085 124.574 63.4505 124.574 63.924V66.8586H123.366V64.1626C123.366 63.9202 123.302 63.7384 123.173 63.6172C123.045 63.496 122.884 63.4353 122.69 63.4353C122.471 63.4353 122.299 63.5054 122.176 63.6456C122.053 63.7838 121.991 63.9666 121.991 64.1939V66.8586H120.818V64.1371C120.818 63.923 120.757 63.7526 120.634 63.6257C120.512 63.4988 120.352 63.4353 120.153 63.4353C120.019 63.4353 119.898 63.4694 119.79 63.5376C119.684 63.6039 119.599 63.6977 119.537 63.8189C119.474 63.9382 119.443 64.0783 119.443 64.2393V66.8586H118.233ZM125.553 66.8586V61.0405H126.763V63.228H126.8C126.853 63.1105 126.929 62.9912 127.03 62.87C127.132 62.7469 127.265 62.6446 127.428 62.5632C127.592 62.4799 127.797 62.4382 128.041 62.4382C128.359 62.4382 128.653 62.5215 128.922 62.6882C129.191 62.853 129.406 63.102 129.567 63.4353C129.728 63.7668 129.808 64.1825 129.808 64.6825C129.808 65.1692 129.73 65.5802 129.572 65.9155C129.417 66.2488 129.205 66.5016 128.936 66.674C128.669 66.8444 128.37 66.9297 128.038 66.9297C127.804 66.9297 127.604 66.8908 127.439 66.8132C127.276 66.7355 127.143 66.638 127.038 66.5206C126.934 66.4013 126.855 66.281 126.8 66.1598H126.746V66.8586H125.553ZM126.737 64.6768C126.737 64.9363 126.773 65.1626 126.845 65.3558C126.917 65.549 127.021 65.6996 127.158 65.8075C127.294 65.9136 127.46 65.9666 127.655 65.9666C127.852 65.9666 128.018 65.9126 128.155 65.8047C128.291 65.6948 128.394 65.5433 128.464 65.3501C128.536 65.155 128.572 64.9306 128.572 64.6768C128.572 64.4249 128.537 64.2033 128.467 64.0121C128.397 63.8208 128.294 63.6711 128.158 63.5632C128.021 63.4552 127.854 63.4013 127.655 63.4013C127.458 63.4013 127.291 63.4533 127.155 63.5575C127.02 63.6617 126.917 63.8094 126.845 64.0007C126.773 64.192 126.737 64.4174 126.737 64.6768ZM132.604 66.9439C132.156 66.9439 131.769 66.853 131.445 66.6711C131.123 66.4874 130.875 66.228 130.701 65.8927C130.527 65.5556 130.44 65.1569 130.44 64.6967C130.44 64.2478 130.527 63.8539 130.701 63.5149C130.875 63.1759 131.121 62.9117 131.437 62.7223C131.755 62.5329 132.128 62.4382 132.556 62.4382C132.844 62.4382 133.112 62.4846 133.36 62.5774C133.61 62.6683 133.828 62.8056 134.013 62.9893C134.201 63.173 134.347 63.4041 134.451 63.6825C134.555 63.959 134.607 64.2829 134.607 64.6541V64.9865H130.923V64.2365H133.468C133.468 64.0622 133.43 63.9079 133.354 63.7734C133.279 63.6389 133.174 63.5338 133.039 63.4581C132.906 63.3804 132.752 63.3416 132.576 63.3416C132.392 63.3416 132.229 63.3842 132.087 63.4694C131.947 63.5528 131.837 63.6655 131.758 63.8075C131.678 63.9477 131.638 64.1039 131.636 64.2763V64.9893C131.636 65.2052 131.675 65.3918 131.755 65.549C131.836 65.7062 131.951 65.8274 132.099 65.9126C132.246 65.9978 132.422 66.0405 132.624 66.0405C132.759 66.0405 132.882 66.0215 132.994 65.9836C133.105 65.9458 133.201 65.8889 133.281 65.8132C133.36 65.7374 133.421 65.6446 133.462 65.5348L134.582 65.6086C134.525 65.8776 134.408 66.1124 134.232 66.3132C134.058 66.5121 133.833 66.6674 133.556 66.7791C133.281 66.8889 132.964 66.9439 132.604 66.9439ZM135.397 66.8586V62.495H136.57V63.2564H136.616C136.695 62.9855 136.829 62.781 137.016 62.6427C137.204 62.5026 137.42 62.4325 137.664 62.4325C137.725 62.4325 137.79 62.4363 137.86 62.4439C137.93 62.4514 137.992 62.4619 138.045 62.4751V63.549C137.988 63.5319 137.909 63.5168 137.809 63.5035C137.709 63.4903 137.617 63.4836 137.533 63.4836C137.355 63.4836 137.196 63.5225 137.056 63.6001C136.918 63.6759 136.808 63.7819 136.727 63.9183C136.647 64.0547 136.607 64.2119 136.607 64.3899V66.8586H135.397Z" fill="#989694"/>
<path d="M125.999 94.8502L130.208 99.3685C130.208 99.3685 147.818 128.903 150.325 130.8C152.831 132.698 157.04 134.878 159.568 134.541C162.096 134.204 168.778 129.648 168.778 129.648L162.939 111.705L156.295 109.927L138.352 89.1359L125.999 94.8502Z" fill="#FFBE9D"/>
<path d="M129.37 98.4116C127.87 96.6064 124.015 92.9038 124.015 92.9038L122.384 91.1693C122.313 91.3132 122.253 91.4623 122.204 91.6152C122.137 91.9125 121.995 92.1876 121.791 92.4144C121.555 92.5777 121.276 92.6651 120.989 92.6651C120.702 92.6651 120.423 92.5777 120.187 92.4144C119.67 92.1266 119.237 91.7083 118.932 91.2011C118.626 90.6939 118.459 90.1155 118.447 89.5236C118.435 88.9318 118.578 88.3471 118.863 87.8278C119.147 87.3085 119.562 86.8728 120.067 86.5641C120.155 86.2451 120.307 85.9472 120.513 85.6887C121.889 83.9163 125.124 84.1555 125.124 84.1555L124.64 83.465C124.64 83.465 122.438 82.0948 118.773 84.4164C118.228 84.7736 117.57 84.9169 116.925 84.8188C116.727 84.7976 116.536 84.733 116.366 84.6296C116.196 84.5262 116.051 84.3866 115.941 84.2207C115.397 83.3127 115.913 82.6983 118.181 81.2194C120.448 79.7405 123.123 79.0446 124.819 79.6862C125.618 79.9603 126.395 80.2909 127.147 80.6757C127.147 80.6757 123.145 74.2165 122.906 73.7978C122.221 72.5853 122.188 71.2641 122.955 70.7258C123.444 70.3833 124.314 70.3072 125.157 71.6936C125.88 72.8952 134.9 84.237 134.9 84.237L138.597 89.4838L129.37 98.4116Z" fill="#FFBE9D"/>
<path d="M137.265 89.6687C136.721 90.2668 135.699 90.2124 134.965 89.8155C134.231 89.4186 133.649 88.8205 132.942 88.391C130.838 87.1024 127.957 87.6298 125.912 86.2434C125.63 86.0476 125.341 85.6997 125.466 85.4006C125.591 85.1016 125.972 85.0472 126.293 85.0363L134.449 84.6992" fill="#FFBE9D"/>
<path d="M134.438 84.6992C134.146 84.6408 133.848 84.6225 133.551 84.6448C132.981 84.6448 132.16 84.6448 131.137 84.672L127.565 84.7645L126.532 84.8025C126.324 84.7764 126.112 84.7918 125.91 84.8478C125.707 84.9038 125.518 84.9993 125.352 85.1288C125.263 85.2334 125.207 85.3622 125.192 85.4988C125.176 85.6354 125.202 85.7734 125.265 85.8954C125.371 86.0962 125.524 86.268 125.711 86.3956C126.05 86.6203 126.415 86.8029 126.799 86.9393C128.316 87.5265 129.827 87.5483 131.105 87.8745C131.709 88.002 132.291 88.2221 132.828 88.5269C133.323 88.8151 133.742 89.1848 134.166 89.4784C134.485 89.7535 134.861 89.9554 135.267 90.07C135.673 90.1846 136.099 90.209 136.515 90.1418C137.107 89.9841 137.287 89.647 137.265 89.647C137.023 89.7989 136.756 89.9058 136.477 89.9623C136.092 89.9916 135.705 89.9405 135.341 89.8123C134.977 89.684 134.643 89.4815 134.362 89.2175C133.936 88.8539 133.491 88.5127 133.03 88.1953C132.464 87.8575 131.849 87.6081 131.208 87.4558C129.881 87.1024 128.37 87.0535 126.973 86.5098C126.633 86.3745 126.308 86.2032 126.005 85.9987C125.727 85.8084 125.581 85.5257 125.717 85.406C125.853 85.2864 126.222 85.2375 126.57 85.2266L127.603 85.1722L131.175 84.9765C132.192 84.9167 133.013 84.8569 133.579 84.8025C133.868 84.8079 134.158 84.7732 134.438 84.6992Z" fill="#EB996E"/>
<path d="M125.238 84.112C124.921 83.6984 124.516 83.3604 124.053 83.1224C123.537 82.9071 122.965 82.8614 122.422 82.992C121.748 83.1608 121.106 83.4361 120.519 83.8075C119.908 84.1874 119.262 84.5061 118.589 84.759C118.02 84.9659 117.406 85.0185 116.811 84.9112C116.606 84.8707 116.414 84.7826 116.249 84.6542C116.085 84.5257 115.953 84.3605 115.865 84.1718C115.793 84.0405 115.759 83.8918 115.767 83.7423C115.767 83.7423 115.832 83.8891 115.968 84.1174C116.064 84.2734 116.193 84.4063 116.346 84.5069C116.499 84.6074 116.673 84.6731 116.854 84.6992C117.406 84.7651 117.966 84.696 118.485 84.498C119.134 84.2355 119.758 83.9152 120.35 83.5411C120.968 83.1575 121.647 82.88 122.356 82.7201C122.952 82.5879 123.576 82.6627 124.123 82.9321C124.486 83.1138 124.798 83.3828 125.031 83.7151C125.13 83.8299 125.2 83.9656 125.238 84.112Z" fill="#EB996E"/>
<path d="M122.656 73.3031C122.96 73.7073 123.229 74.1365 123.46 74.5863L125.314 77.7072L127.217 80.8063C127.509 81.2197 127.764 81.6582 127.978 82.1166C127.625 81.7545 127.311 81.3553 127.043 80.9259C126.5 80.1647 125.793 79.0827 125.059 77.8648C124.325 76.6469 123.699 75.516 123.275 74.6841C123.013 74.2506 122.805 73.7869 122.656 73.3031Z" fill="#EB996E"/>
<path d="M124.651 86.4662C124.499 86.5123 124.342 86.5397 124.183 86.5478C123.984 86.5597 123.789 86.6145 123.613 86.7083C123.437 86.8021 123.282 86.9328 123.161 87.0915C123.095 87.2045 123.06 87.3331 123.06 87.4639C123.06 87.5948 123.095 87.7233 123.161 87.8364C123.318 88.1248 123.51 88.3932 123.732 88.6356C124.013 88.9305 124.179 89.3163 124.2 89.723C124.177 89.9442 124.104 90.1573 123.986 90.3459C123.868 90.5344 123.709 90.6934 123.52 90.8105C123.33 90.9264 123.118 91.0022 122.897 91.0331C122.676 91.0639 122.452 91.0492 122.237 90.9899C121.842 90.8919 121.485 90.6802 121.209 90.3809C120.801 89.872 120.469 89.306 120.225 88.7009C120.049 88.2992 119.94 87.8711 119.904 87.434C119.886 87.2729 119.91 87.1097 119.975 86.961C120 87.114 120.017 87.2683 120.024 87.4231C120.1 87.8385 120.233 88.2411 120.421 88.6193C120.681 89.1868 121.015 89.7171 121.416 90.1961C121.655 90.4607 121.974 90.6396 122.325 90.7054C122.675 90.7712 123.038 90.7202 123.357 90.5604C123.509 90.4663 123.637 90.3383 123.731 90.1865C123.826 90.0346 123.884 89.863 123.901 89.685C123.89 89.3398 123.753 89.0105 123.514 88.7607C123.284 88.4947 123.089 88.2005 122.933 87.8853C122.858 87.7345 122.824 87.5668 122.835 87.3989C122.845 87.231 122.9 87.0687 122.993 86.9284C123.135 86.7508 123.316 86.6091 123.523 86.5147C123.73 86.4203 123.956 86.3757 124.183 86.3847C124.343 86.3815 124.502 86.4092 124.651 86.4662Z" fill="#EB996E"/>
<path d="M122.226 90.7941C122.226 90.7941 122.356 90.9029 122.411 91.1802C122.445 91.3819 122.431 91.5888 122.37 91.7842C122.31 91.9797 122.205 92.1582 122.063 92.3057C121.843 92.5174 121.572 92.668 121.277 92.7424C120.981 92.8168 120.671 92.8125 120.377 92.7297C119.669 92.5233 119.068 92.0496 118.703 91.4085C118.324 90.789 118.149 90.0665 118.202 89.3424C118.254 88.7563 118.458 88.1939 118.795 87.7113C119.02 87.3906 119.302 87.1141 119.627 86.8957C119.855 86.7435 120.002 86.6946 120.008 86.7109C119.613 87.0342 119.265 87.4112 118.975 87.8309C118.653 88.3442 118.482 88.9378 118.482 89.5436C118.482 90.1494 118.653 90.743 118.975 91.2563C119.303 91.8313 119.834 92.2635 120.464 92.4688C120.715 92.5457 120.982 92.5575 121.238 92.5033C121.495 92.4491 121.734 92.3306 121.932 92.1589C122.06 92.0357 122.161 91.8866 122.226 91.7216C122.292 91.5565 122.321 91.3793 122.313 91.2019C122.28 90.9409 122.204 90.805 122.226 90.7941Z" fill="#EB996E"/>
<path d="M129.332 92.4145C129.332 92.3873 129.523 92.2024 129.958 92.0447C130.556 91.8372 131.207 91.8372 131.806 92.0447L131.627 92.2405C131.477 91.9323 131.348 91.6144 131.241 91.289C130.817 90.1651 130.709 88.9464 130.931 87.7657C131.008 88.9255 131.209 90.0737 131.529 91.1911C131.638 91.5228 131.763 91.8381 131.888 92.1209L132.024 92.4308L131.708 92.3166C131.162 92.1201 130.571 92.088 130.006 92.2242C129.588 92.3166 129.354 92.4471 129.332 92.4145Z" fill="#EB996E"/>
<path d="M122.476 81.4424C122.523 81.653 122.519 81.8716 122.466 82.0805C122.412 82.2894 122.309 82.4825 122.166 82.644C121.747 83.2421 121.155 83.4161 121.133 83.34C121.111 83.2639 121.557 82.992 121.916 82.47C122.275 81.9481 122.405 81.437 122.476 81.4424Z" fill="#EB996E"/>
<path d="M115.506 184.959C115.506 184.959 108.438 186.493 102.092 185.541C96.1605 184.655 82.8723 185.574 82.8777 193.392C82.8777 202.092 100.597 199.96 107.508 198.579C114.418 197.198 121.302 195.942 121.302 195.942L115.506 184.959Z" fill="#455A64"/>
<path d="M99.5967 196.138C99.207 195.159 98.9209 194.142 98.7431 193.104C98.4549 192.089 98.2727 191.047 98.1993 189.994C98.2918 189.994 98.6778 191.332 99.0584 193.028C99.439 194.724 99.6891 196.116 99.5967 196.138Z" fill="#263238"/>
<path d="M102.016 196.252C101.924 196.252 101.657 194.871 101.418 193.142C101.179 191.413 101.065 189.994 101.157 189.983C101.25 189.972 101.516 191.364 101.755 193.093C101.995 194.822 102.109 196.241 102.016 196.252Z" fill="#263238"/>
<path d="M104.349 195.339C104.256 195.339 104.033 194.137 103.854 192.62C103.675 191.103 103.598 189.902 103.691 189.864C103.783 189.826 104.006 191.071 104.191 192.582C104.376 194.094 104.447 195.328 104.349 195.339Z" fill="#263238"/>
<path d="M108.019 194.425C107.937 194.463 107.432 193.447 107.105 192.093C106.854 191.286 106.765 190.438 106.844 189.597C106.942 189.597 107.111 190.685 107.437 192.011C107.682 192.803 107.876 193.609 108.019 194.425Z" fill="#263238"/>
<path d="M108.802 191.239C109.106 191.17 109.42 191.149 109.731 191.179C110.58 191.206 111.419 191.369 112.216 191.663C112.492 191.76 112.751 191.899 112.983 192.077C113.122 192.176 113.238 192.305 113.322 192.454C113.406 192.604 113.455 192.77 113.467 192.941C113.45 193.131 113.393 193.315 113.299 193.481C113.204 193.646 113.075 193.79 112.92 193.901C112.765 194.012 112.588 194.088 112.401 194.124C112.214 194.16 112.021 194.155 111.836 194.11C111.084 193.899 110.43 193.432 109.987 192.789C109.254 191.839 108.834 190.684 108.787 189.485C108.739 188.286 109.065 187.101 109.721 186.096C109.859 185.928 110.051 185.815 110.264 185.775C110.37 185.761 110.477 185.77 110.578 185.802C110.68 185.834 110.773 185.888 110.852 185.96C111.103 186.217 111.261 186.553 111.297 186.911C111.376 187.503 111.344 188.104 111.205 188.684C111.007 189.522 110.595 190.294 110.009 190.924C109.849 191.09 109.676 191.242 109.492 191.381C109.362 191.473 109.291 191.517 109.28 191.506C109.269 191.495 109.53 191.283 109.911 190.837C110.444 190.2 110.816 189.445 110.998 188.635C111.114 188.082 111.13 187.513 111.047 186.955C111.013 186.666 110.885 186.397 110.683 186.188C110.633 186.145 110.574 186.113 110.51 186.095C110.446 186.077 110.379 186.073 110.314 186.084C110.248 186.095 110.186 186.12 110.131 186.158C110.077 186.196 110.031 186.245 109.998 186.302C109.597 186.921 109.328 187.617 109.21 188.345C109.092 189.074 109.127 189.818 109.313 190.532C109.492 191.278 109.825 191.978 110.291 192.588C110.68 193.167 111.256 193.596 111.923 193.8C112.062 193.835 112.208 193.84 112.35 193.815C112.492 193.79 112.627 193.736 112.746 193.655C112.866 193.575 112.967 193.47 113.043 193.348C113.12 193.226 113.169 193.089 113.189 192.946C113.182 192.815 113.145 192.687 113.082 192.572C113.019 192.456 112.931 192.356 112.825 192.278C112.615 192.114 112.383 191.982 112.135 191.886C111.364 191.58 110.552 191.386 109.726 191.31C109.133 191.256 108.802 191.266 108.802 191.239Z" fill="#263238"/>
<path d="M120.6 194.795C120.542 194.819 120.482 194.837 120.421 194.849L119.877 194.985L117.822 195.453C116.033 195.844 113.44 196.394 110.21 197.019C106.98 197.644 103.142 198.346 98.8247 198.933C96.5645 199.3 94.2702 199.413 91.9848 199.27C90.7665 199.193 89.5626 198.963 88.4018 198.585C87.8048 198.39 87.2292 198.135 86.6837 197.824C86.1098 197.513 85.5975 197.1 85.1722 196.606L85.1993 196.633C84.959 196.417 84.7504 196.168 84.5795 195.893C84.251 195.322 84.0489 194.686 83.987 194.029C83.9251 193.373 84.0048 192.711 84.2207 192.087C84.6462 190.881 85.4416 189.841 86.4934 189.113C87.4796 188.415 88.5694 187.875 89.723 187.515C90.2667 187.352 90.8376 187.161 91.3976 187.031C91.9576 186.9 92.5122 186.77 93.0668 186.694C97.5089 185.992 101.549 186.351 104.909 186.351C106.589 186.384 108.111 186.351 109.443 186.253C110.582 186.176 111.715 186.033 112.836 185.824L114.059 185.568L114.94 185.318L115.484 185.166C115.545 185.144 115.609 185.131 115.674 185.128L115.495 185.199L114.951 185.383L114.081 185.666L112.858 185.954C111.734 186.187 110.598 186.35 109.454 186.444C108.117 186.542 106.583 186.607 104.898 186.591C101.538 186.618 97.4981 186.291 93.1158 187.004C92.572 187.08 92.0283 187.232 91.4846 187.341C90.9409 187.45 90.3972 187.662 89.8535 187.819C88.7337 188.175 87.6755 188.701 86.7163 189.38C85.7156 190.067 84.9551 191.05 84.5414 192.191C84.3399 192.768 84.2647 193.382 84.321 193.991C84.3773 194.599 84.5637 195.189 84.8677 195.719C85.018 195.966 85.2009 196.191 85.4114 196.388C85.8087 196.842 86.2838 197.221 86.8141 197.508C87.3429 197.805 87.898 198.053 88.4725 198.248C89.6076 198.615 90.7836 198.842 91.974 198.922C94.2371 199.067 96.5093 198.959 98.7486 198.601C103.055 198.03 106.904 197.351 110.128 196.763C113.353 196.176 115.957 195.676 117.74 195.301L119.806 194.893L120.35 194.795C120.433 194.779 120.518 194.779 120.6 194.795Z" fill="#263238"/>
<path d="M94.6816 198.993C94.5804 198.394 94.524 197.789 94.513 197.182C94.4315 196.062 94.2955 194.523 94.0726 192.832C93.8497 191.141 93.567 189.619 93.3495 188.521C93.1979 187.932 93.0943 187.332 93.0396 186.726C93.2846 187.285 93.4669 187.868 93.5833 188.466C93.9391 189.891 94.215 191.334 94.4097 192.789C94.6047 194.244 94.7191 195.709 94.7523 197.177C94.794 197.783 94.7703 198.392 94.6816 198.993Z" fill="#263238"/>
<g opacity="0.4">
<path d="M113.325 185.345L117.816 196.595L121.302 195.948L114.625 184.965L113.325 185.345Z" fill="black"/>
</g>
<path d="M158.905 159.095L169.453 135.558L163.336 115.364C161.483 109.241 161.916 102.653 164.554 96.8239L174.852 76.8643L184.046 73.6021L205.62 70.7258C206.001 70.8509 207.088 70.9161 213.477 73.042C218.847 74.8263 223.396 78.4835 226.292 83.3453L208.861 134.188C208.861 134.188 220.686 160.057 219.191 171.916L158.905 159.095Z" fill="black"/>
<path d="M176.581 76.3315C176.581 76.3315 164.51 79.0066 160.106 95.4756L154.669 113.01L164.57 113.619L176.581 76.3315Z" fill="#2F88FF"/>
<path d="M163.7 114.19C163.656 114.112 163.619 114.03 163.591 113.945C163.532 113.782 163.428 113.543 163.33 113.222C163.061 112.317 162.89 111.386 162.819 110.444C162.664 107.314 163.304 104.196 164.679 101.38C165.071 100.583 165.503 99.8065 165.973 99.0531C166.408 98.3191 166.826 97.6068 167.196 96.9163C167.866 95.7013 168.423 94.4273 168.86 93.1104C169.23 91.9849 169.496 91.0606 169.692 90.4244L169.92 89.6904C169.947 89.605 169.98 89.5215 170.018 89.4403C170.017 89.5312 170 89.6213 169.969 89.7067C169.92 89.9025 169.86 90.1471 169.79 90.4516C169.621 91.0932 169.376 92.0284 169.028 93.1702C168.611 94.5083 168.064 95.8029 167.397 97.0359C167.028 97.7319 166.614 98.4496 166.179 99.2108C165.744 99.972 165.31 100.711 164.918 101.527C163.565 104.311 162.912 107.383 163.015 110.476C163.069 111.408 163.211 112.333 163.439 113.239C163.543 113.551 163.63 113.868 163.7 114.19Z" fill="#263238"/>
<path d="M133.747 168.751C133.687 168.828 128.027 164.701 121.1 159.508C114.174 154.316 108.595 150.097 108.66 150.021C108.726 149.944 114.375 154.071 121.307 159.264C128.239 164.456 133.802 168.675 133.747 168.751Z" fill="#455A64"/>
<path d="M218.223 169.529L201.097 155.447C200.145 150.244 197.284 145.584 193.074 142.383C188.865 139.181 183.61 137.668 178.342 138.14C174.119 138.525 170.109 140.169 166.832 142.86L156.904 150.64C141.468 146.432 118.007 139.853 105.953 136.466C103.517 135.777 100.963 135.615 98.46 135.99C95.9569 136.365 93.5624 137.268 91.4357 138.641L91.2073 138.787C88.1238 140.783 85.7316 143.682 84.3575 147.088C82.9834 150.494 82.6945 154.241 83.5301 157.817C84.0657 160.119 85.0533 162.291 86.4357 164.207C87.8181 166.123 89.5675 167.746 91.5825 168.98C97.672 172.71 107.105 178.467 115.212 183.317L114.125 184.16L121.291 195.948L136.069 191.397C146.04 189.978 167.098 187.238 167.098 187.238L161.08 183.687L162.455 183.263C173.927 193.05 187.95 197.53 205.31 189.951C213.868 185.938 219.218 176.26 218.223 169.529Z" fill="black"/>
<path d="M188.879 167.958C188.879 167.958 188.836 168.006 188.738 168.088L188.308 168.441C187.906 168.762 187.346 169.213 186.628 169.779C186.264 170.073 185.856 170.393 185.41 170.741C184.965 171.089 184.443 171.421 183.904 171.829L182.154 173.025C181.838 173.237 181.528 173.46 181.191 173.677L180.147 174.308C178.717 175.162 177.168 176.14 175.417 177.027C174.547 177.478 173.661 177.978 172.699 178.44L169.784 179.821C165.777 181.648 161.281 183.486 156.463 185.122C146.84 188.439 137.939 190.831 131.567 192.762C129.968 193.229 128.528 193.67 127.266 194.072C126.005 194.474 124.917 194.795 124.036 195.1L121.992 195.757L121.448 195.926C121.444 195.95 121.431 195.972 121.412 195.987C121.393 196.002 121.368 196.009 121.344 196.007C121.319 196.005 121.296 195.994 121.28 195.976C121.263 195.958 121.254 195.934 121.254 195.91C121.254 195.885 121.263 195.861 121.28 195.843C121.296 195.825 121.319 195.814 121.344 195.812C121.368 195.81 121.393 195.817 121.412 195.832C121.431 195.847 121.444 195.869 121.448 195.893L121.992 195.698L124.015 194.974C124.89 194.654 125.972 194.295 127.233 193.887C128.495 193.479 129.925 193.017 131.518 192.533C137.879 190.538 146.769 188.113 156.376 184.802C161.183 183.171 165.668 181.344 169.676 179.533L172.59 178.168C173.525 177.712 174.411 177.222 175.308 176.777C177.059 175.907 178.609 174.939 180.044 174.101L181.093 173.482C181.425 173.275 181.74 173.052 182.056 172.845L183.817 171.671C184.361 171.296 184.905 170.981 185.34 170.633L186.574 169.697L188.287 168.409L188.738 168.083C188.78 168.035 188.827 167.994 188.879 167.958Z" fill="#455A64"/>
<path d="M190.157 173.471C189.992 173.591 189.808 173.685 189.613 173.748C189.265 173.906 188.749 174.118 188.102 174.357C186.418 174.979 184.692 175.478 182.937 175.852C181.18 176.23 179.4 176.484 177.608 176.613C176.923 176.657 176.363 176.679 175.977 176.679C175.775 176.699 175.571 176.686 175.374 176.641C176.104 176.514 176.841 176.425 177.581 176.374C178.94 176.222 180.843 175.956 182.861 175.521C184.878 175.086 186.715 174.553 188.02 174.129C188.719 173.869 189.433 173.649 190.157 173.471Z" fill="#455A64"/>
<path d="M164.722 144.839C164.782 144.915 153.5 153.778 139.538 164.635C125.575 175.493 114.195 184.209 114.135 184.16C114.076 184.111 125.358 175.221 139.331 164.364C153.304 153.506 164.668 144.768 164.722 144.839Z" fill="#455A64"/>
<path d="M205.283 182.872C205.251 182.753 205.238 182.63 205.245 182.507C205.245 182.225 205.245 181.877 205.218 181.458C205.218 180.544 205.169 179.223 205.087 177.598C204.68 169.104 203.109 160.707 200.417 152.641C199.873 151.092 199.46 149.847 199.139 148.993C198.998 148.602 198.878 148.27 198.786 148.003C198.738 147.89 198.703 147.771 198.682 147.65C198.682 147.65 198.753 147.759 198.856 147.976L199.275 148.939C199.639 149.781 200.118 151.016 200.667 152.554C203.515 160.598 205.096 169.036 205.354 177.565C205.403 179.196 205.403 180.523 205.354 181.436C205.354 181.855 205.321 182.203 205.31 182.486C205.316 182.615 205.306 182.744 205.283 182.872Z" fill="#455A64"/>
<path d="M161.781 182.692C161.833 182.723 161.882 182.76 161.928 182.801L162.335 183.149C162.689 183.448 163.184 183.921 163.869 184.481C165.803 186.053 167.876 187.447 170.062 188.646C173.313 190.402 176.789 191.708 180.392 192.528C180.898 192.664 181.414 192.756 181.942 192.843C182.469 192.93 182.996 193.039 183.535 193.121C184.622 193.235 185.71 193.42 186.851 193.447C189.185 193.599 191.528 193.53 193.849 193.24L195.621 192.99L197.356 192.637C198.483 192.402 199.595 192.104 200.689 191.745C202.767 191.077 204.771 190.197 206.67 189.119C209.899 187.316 212.667 184.788 214.755 181.735C216.154 179.674 217.165 177.374 217.74 174.95C217.93 174.091 218.033 173.411 218.088 172.949L218.153 172.405C218.157 172.344 218.168 172.284 218.185 172.226C218.195 172.285 218.195 172.346 218.185 172.405C218.185 172.547 218.185 172.72 218.185 172.949C218.133 173.628 218.039 174.304 217.903 174.971C217.381 177.435 216.396 179.776 214.999 181.871C212.909 184.988 210.116 187.569 206.844 189.407C204.933 190.505 202.914 191.403 200.819 192.087C199.715 192.452 198.591 192.755 197.454 192.995L195.703 193.354L193.914 193.604C191.57 193.898 189.203 193.965 186.846 193.806C185.704 193.773 184.59 193.588 183.497 193.468C182.953 193.387 182.409 193.278 181.866 193.18C181.34 193.098 180.819 192.989 180.305 192.854C176.675 192.015 173.18 190.673 169.92 188.869C167.745 187.645 165.695 186.212 163.798 184.59C163.124 184.013 162.645 183.502 162.303 183.203L161.922 182.828C161.87 182.789 161.822 182.743 161.781 182.692Z" fill="#455A64"/>
<path d="M169.882 186.183C166.908 184.6 163.57 185.536 160.726 186.493C158.834 187.134 156.866 188.124 154.946 187.58C153.554 187.189 152.521 186.063 151.456 185.084C149.304 183.107 146.778 181.58 144.027 180.594C141.276 179.608 138.356 179.183 135.438 179.343C133.771 179.419 132.197 180.131 131.039 181.333C128.12 184.492 130.322 188.608 132.932 191.266C137.591 195.987 143.736 198.956 150.33 199.672C155.767 200.216 163.243 199.487 168.757 197.128C172.155 195.67 173.9 191.663 172.117 188.428C171.605 187.479 170.828 186.699 169.882 186.183Z" fill="#455A64"/>
<g opacity="0.4">
<path d="M169.877 188.716C166.903 187.129 163.564 188.064 160.721 189.026C158.829 189.662 156.86 190.657 154.936 190.114C153.549 189.722 152.511 188.597 151.45 187.618C149.298 185.641 146.772 184.115 144.022 183.129C141.271 182.143 138.351 181.717 135.433 181.877C133.766 181.953 132.192 182.665 131.034 183.866C130.444 184.491 130.021 185.254 129.805 186.085C130.365 188.061 131.443 189.852 132.926 191.272C137.586 195.993 143.731 198.962 150.325 199.678C155.762 200.221 163.238 199.493 168.751 197.133C169.727 196.718 170.591 196.078 171.273 195.266C171.954 194.453 172.433 193.491 172.671 192.457C172.561 191.934 172.378 191.429 172.128 190.956C171.609 190.008 170.827 189.23 169.877 188.716Z" fill="black"/>
</g>
<path d="M172.693 192.474C172.562 191.846 172.315 191.249 171.965 190.712C171.539 190.096 170.998 189.568 170.372 189.157C169.559 188.602 168.628 188.245 167.653 188.113C165.446 187.852 162.89 188.782 160.041 189.548C158.638 189.924 157.105 190.489 155.425 190.282C154.584 190.174 153.775 189.892 153.049 189.456C152.327 189.004 151.645 188.491 151.01 187.923C147.65 184.781 143.395 182.765 138.836 182.154C137.643 181.98 136.43 181.98 135.237 182.154C134.257 182.3 133.312 182.628 132.453 183.122C131.814 183.513 131.24 184 130.751 184.568C130.36 185.075 129.997 185.603 129.664 186.15C129.897 185.541 130.228 184.974 130.643 184.47C131.123 183.867 131.7 183.347 132.35 182.931C133.222 182.388 134.192 182.019 135.204 181.844C136.425 181.669 137.665 181.669 138.885 181.844C140.286 182.015 141.666 182.323 143.007 182.763C144.486 183.252 145.916 183.882 147.275 184.644C147.996 185.049 148.69 185.501 149.352 185.998C150.01 186.514 150.635 187.085 151.282 187.629C151.899 188.183 152.561 188.685 153.261 189.13C153.941 189.538 154.698 189.8 155.485 189.902C157.04 190.108 158.53 189.576 159.954 189.206C162.781 188.466 165.391 187.542 167.691 187.841C168.584 187.969 169.44 188.284 170.202 188.767C170.964 189.25 171.614 189.888 172.111 190.641C172.372 191.052 172.557 191.507 172.655 191.984C172.689 192.145 172.701 192.309 172.693 192.474Z" fill="#263238"/>
<path d="M172.693 192.474C172.562 191.846 172.315 191.249 171.965 190.712C171.539 190.096 170.998 189.568 170.372 189.157C169.559 188.602 168.628 188.245 167.653 188.113C165.446 187.852 162.89 188.782 160.041 189.548C158.638 189.924 157.105 190.489 155.425 190.282C154.584 190.174 153.775 189.892 153.049 189.456C152.327 189.004 151.645 188.491 151.01 187.923C147.65 184.781 143.395 182.765 138.836 182.154C137.643 181.98 136.43 181.98 135.237 182.154C134.257 182.3 133.312 182.628 132.453 183.122C131.814 183.513 131.24 184 130.751 184.568C130.36 185.075 129.997 185.603 129.664 186.15C129.897 185.541 130.228 184.974 130.643 184.47C131.123 183.867 131.7 183.347 132.35 182.931C133.222 182.388 134.192 182.019 135.204 181.844C136.425 181.669 137.665 181.669 138.885 181.844C140.286 182.015 141.666 182.323 143.007 182.763C144.486 183.252 145.916 183.882 147.275 184.644C147.996 185.049 148.69 185.501 149.352 185.998C150.01 186.514 150.635 187.085 151.282 187.629C151.899 188.183 152.561 188.685 153.261 189.13C153.941 189.538 154.698 189.8 155.485 189.902C157.04 190.108 158.53 189.576 159.954 189.206C162.781 188.466 165.391 187.542 167.691 187.841C168.584 187.969 169.44 188.284 170.202 188.767C170.964 189.25 171.614 189.888 172.111 190.641C172.372 191.052 172.557 191.507 172.655 191.984C172.689 192.145 172.701 192.309 172.693 192.474Z" fill="#263238"/>
<path d="M135.824 191.761C136.285 191.347 136.797 190.993 137.346 190.706C139.901 189.166 142.607 187.891 145.421 186.9C145.992 186.66 146.591 186.492 147.204 186.4C146.667 186.706 146.103 186.961 145.518 187.161C144.469 187.602 143.028 188.216 141.457 188.95C139.886 189.684 138.494 190.407 137.488 190.94C136.96 191.266 136.403 191.541 135.824 191.761Z" fill="#263238"/>
<path d="M136.846 194.746C136.797 194.648 139.402 193.294 142.653 191.718C145.904 190.141 148.585 188.95 148.634 189.048C148.683 189.146 146.084 190.505 142.827 192.082C139.57 193.659 136.895 194.833 136.846 194.746Z" fill="#263238"/>
<path d="M149.161 196.024C149.102 196.116 145.937 194.224 142.093 191.799C138.249 189.374 135.172 187.335 135.231 187.243C135.291 187.151 138.456 189.037 142.3 191.462C146.144 193.887 149.221 195.926 149.161 196.024Z" fill="#263238"/>
<path d="M150.945 192.936C150.396 192.642 149.877 192.296 149.395 191.903C148.46 191.228 147.177 190.299 145.736 189.304C144.295 188.309 142.979 187.428 142.022 186.792C141.483 186.478 140.975 186.114 140.505 185.704C141.091 185.923 141.65 186.21 142.169 186.558C143.17 187.134 144.518 187.977 145.975 188.977C147.432 189.978 148.694 190.951 149.575 191.696C150.075 192.058 150.535 192.473 150.945 192.936Z" fill="#263238"/>
<path d="M173.666 70.7041C173.813 70.22 173.852 69.7097 173.781 69.2089C173.672 68.6233 173.44 68.0673 173.101 67.5778C172.621 66.9463 172.074 66.3684 171.47 65.8542C170.714 65.2005 170.06 64.4383 169.529 63.5924C168.937 62.5924 168.554 61.4825 168.403 60.3301C168.236 59.0588 168.363 57.7662 168.773 56.5514C169.23 55.2869 169.796 54.0645 170.464 52.8976C171.112 51.764 171.634 50.5624 172.019 49.3146C172.364 48.1707 172.39 46.9545 172.095 45.7968C171.492 43.5784 170.17 41.8277 169.496 40.1422C168.864 38.8294 168.674 37.3476 168.952 35.9176C169.034 35.5337 169.179 35.1661 169.382 34.8301C169.44 34.7044 169.526 34.593 169.632 34.5039C169.439 34.9759 169.286 35.4633 169.175 35.9611C169 37.3393 169.247 38.7382 169.882 39.9736C170.573 41.6048 171.937 43.2957 172.601 45.6554C172.936 46.9037 172.923 48.2201 172.563 49.4614C172.171 50.7527 171.637 51.9965 170.97 53.1695C170.316 54.3061 169.76 55.4956 169.306 56.7253C168.912 57.8572 168.781 59.0642 168.925 60.254C169.053 61.333 169.395 62.3756 169.931 63.3206C170.424 64.1393 171.032 64.8828 171.736 65.528C172.35 66.0786 172.898 66.699 173.367 67.3766C173.707 67.9071 173.923 68.5074 173.998 69.1328C174.046 69.5295 174 69.9321 173.862 70.3072C173.835 70.4551 173.767 70.5926 173.666 70.7041Z" fill="#263238"/>
<path d="M204.669 59.9441C205.081 60.9098 205.768 61.7335 206.643 62.3133C207.518 62.8931 208.545 63.2036 209.595 63.2064C210.641 63.1795 211.665 62.8999 212.579 62.3914C213.494 61.883 214.272 61.1609 214.847 60.2867C215.975 58.511 216.379 56.3707 215.978 54.3059C215.715 53.3979 215.587 52.4563 215.597 51.5112C215.755 50.1791 216.723 49.0808 217.054 47.7813C217.653 45.4488 215.94 42.9804 213.722 42.0452C211.503 41.11 208.948 41.3982 206.621 42.0452" fill="#263238"/>
<path d="M170.812 32.9216C168.67 35.0965 169.485 37.902 170.486 39.8159C171.486 41.7297 172.688 43.6708 172.709 45.8293C172.731 47.9879 171.519 50.0485 170.915 52.169C170.148 54.8765 170.374 57.7688 171.551 60.3246C172.432 62.2276 173.808 63.8696 174.699 65.7617C175.591 67.6539 175.923 70.0516 174.699 71.7426C175.273 71.6197 175.811 71.3646 176.268 70.9974C176.726 70.6301 177.092 70.1611 177.336 69.6275C177.814 68.5516 178.026 67.3771 177.956 66.2021C177.864 61.7546 175.732 57.4375 176.265 53.0226C176.575 50.4563 177.782 47.9879 177.614 45.4107C177.445 42.8335 175.923 40.5553 174.824 38.2011C173.726 35.8468 173.079 32.9216 174.542 30.7794" fill="#263238"/>
<path d="M176.075 24.4887C173.449 24.8312 170.85 26.2014 169.583 28.523C168.316 30.8447 168.751 34.1287 170.915 35.6456C172.96 37.0756 175.857 36.608 177.956 35.2596C179.542 34.2892 180.745 32.8007 181.36 31.0458C181.654 30.1709 181.734 29.2378 181.592 28.3255C181.45 27.4133 181.091 26.5486 180.544 25.8045C179.976 25.0762 179.197 24.5409 178.314 24.2714C177.43 24.0019 176.485 24.0113 175.607 24.2984" fill="#263238"/>
<path d="M173.933 24.2223C175.091 21.0307 177.929 18.6166 181.126 17.4803C184.323 16.3439 187.841 16.3602 191.179 16.9855C194.518 17.6108 197.704 18.8233 200.884 20.0249C203.195 20.9002 205.56 21.8082 207.409 23.4122C209.23 25.0646 210.598 27.1552 211.384 29.4854C212.971 33.797 213.015 36.956 211.177 41.1589C210.367 42.9857 211.025 45.0355 210.302 46.9005C209.578 48.7654 206.213 50.9837 207.257 52.6855" fill="#263238"/>
<path d="M205.62 70.7041L204.234 29.7845C204.204 28.9007 203.843 28.0604 203.222 27.4301C202.602 26.7998 201.768 26.4253 200.885 26.3809L181.909 22.6619C175.879 22.352 172.291 29.9476 172.242 35.9882C172.182 42.6922 172.372 50.8859 173.433 55.8282C175.569 65.7727 183.323 66.6317 183.323 66.6317C183.323 66.6317 183.54 70.5138 183.747 74.0153L183.421 89.4241L205.62 70.7041Z" fill="#FFBE9D"/>
<path d="M174.824 43.1978C174.841 43.5329 174.987 43.8485 175.231 44.0786C175.476 44.3086 175.799 44.4353 176.135 44.4321C176.299 44.4357 176.463 44.4065 176.616 44.3461C176.769 44.2858 176.909 44.1955 177.027 44.0806C177.145 43.9657 177.239 43.8285 177.303 43.6769C177.367 43.5254 177.401 43.3625 177.402 43.1978C177.385 42.8632 177.239 42.5482 176.994 42.319C176.75 42.0899 176.426 41.9644 176.091 41.9691C175.927 41.9647 175.763 41.9932 175.61 42.053C175.457 42.1127 175.317 42.2025 175.199 42.3169C175.081 42.4314 174.987 42.5683 174.923 42.7196C174.859 42.8708 174.825 43.0334 174.824 43.1978Z" fill="#263238"/>
<path d="M174.205 39.4952C174.373 39.6529 175.292 38.8808 176.695 38.8101C178.098 38.7394 179.131 39.3538 179.272 39.1962C179.343 39.12 179.163 38.8264 178.701 38.5274C178.084 38.1356 177.36 37.9456 176.63 37.9837C175.91 38.0202 175.221 38.2849 174.661 38.7394C174.254 39.1146 174.129 39.4245 174.205 39.4952Z" fill="#263238"/>
<path d="M187.64 43.0021C187.654 43.3377 187.799 43.6543 188.044 43.884C188.289 44.1138 188.614 44.2383 188.95 44.2309C189.114 44.2345 189.278 44.2053 189.431 44.1449C189.584 44.0845 189.723 43.9941 189.84 43.8792C189.958 43.7642 190.051 43.6269 190.115 43.4754C190.179 43.3238 190.212 43.1611 190.211 42.9967C190.197 42.6611 190.052 42.3445 189.807 42.1147C189.562 41.885 189.237 41.7605 188.901 41.7679C188.737 41.7635 188.573 41.7923 188.42 41.8524C188.266 41.9125 188.127 42.0028 188.009 42.1179C187.891 42.2331 187.798 42.3707 187.735 42.5225C187.671 42.6744 187.639 42.8375 187.64 43.0021Z" fill="#263238"/>
<path d="M187.863 39.6637C188.031 39.8268 188.95 39.0493 190.353 38.9786C191.756 38.9079 192.789 39.5223 192.925 39.3701C192.995 39.2885 192.821 38.9949 192.381 38.6959C191.761 38.3059 191.036 38.1161 190.304 38.1522C189.584 38.1883 188.895 38.453 188.336 38.9079C187.906 39.2831 187.781 39.593 187.863 39.6637Z" fill="#263238"/>
<path d="M183.372 50.2008C183.372 50.1247 182.507 50.0214 181.104 49.9181C180.746 49.9181 180.408 49.8474 180.338 49.6081C180.286 49.2447 180.349 48.8742 180.517 48.5479C180.8 47.678 181.099 46.7591 181.414 45.8022C182.659 41.8929 183.54 38.685 183.383 38.6361C183.225 38.5871 182.088 41.7189 180.843 45.6282L179.99 48.3902C179.788 48.828 179.749 49.3238 179.881 49.7876C179.94 49.9087 180.025 50.0152 180.13 50.0989C180.236 50.1827 180.359 50.2417 180.49 50.2715C180.688 50.3126 180.891 50.3291 181.094 50.3204C182.523 50.3204 183.372 50.2823 183.372 50.2008Z" fill="#263238"/>
<path d="M183.323 66.6317C188.05 66.4476 192.633 64.955 196.562 62.3201C196.562 62.3201 193.544 69.3883 183.459 69.0077L183.323 66.6317Z" fill="#EB996E"/>
<path d="M187.025 35.6457C187.183 36.0154 188.559 35.7653 190.19 35.874C191.821 35.9828 193.164 36.3525 193.36 36.0045C193.447 35.836 193.196 35.4934 192.647 35.1563C191.917 34.748 191.102 34.5118 190.267 34.4657C189.431 34.4195 188.596 34.5646 187.825 34.8899C187.243 35.1618 186.96 35.4717 187.025 35.6457Z" fill="#263238"/>
<path d="M174.536 36.1132C174.797 36.4123 175.732 36.0317 176.88 35.9555C178.027 35.8794 179.006 36.0534 179.212 35.7109C179.299 35.5478 179.131 35.2433 178.668 34.966C178.079 34.6395 177.407 34.4956 176.736 34.5528C176.065 34.6099 175.426 34.8654 174.901 35.2868C174.536 35.6348 174.422 35.9827 174.536 36.1132Z" fill="#263238"/>
<path d="M184.16 53.3815C184.389 53.0585 184.696 52.7991 185.053 52.6278C185.409 52.4566 185.804 52.3792 186.199 52.4029C186.485 52.4127 186.765 52.4805 187.024 52.602C187.283 52.7235 187.515 52.8962 187.705 53.1097C187.89 53.315 188.007 53.5721 188.041 53.8464C188.076 54.1206 188.024 54.3987 187.895 54.6429C187.7 54.8858 187.437 55.0647 187.14 55.1567C186.842 55.2488 186.524 55.2497 186.226 55.1595C185.604 54.9771 185.024 54.6741 184.519 54.2678C184.368 54.1727 184.237 54.0489 184.133 53.9035C184.085 53.8327 184.06 53.7495 184.06 53.6643C184.06 53.5791 184.085 53.4958 184.133 53.425" fill="#EB996E"/>
<path d="M187.292 50.9566C187.085 50.9566 187.156 52.3593 186.009 53.4196C184.861 54.4798 183.366 54.4037 183.366 54.5994C183.366 54.6864 183.714 54.855 184.345 54.8386C185.166 54.8033 185.949 54.4821 186.558 53.9306C187.14 53.3968 187.492 52.6582 187.542 51.87C187.564 51.2828 187.39 50.9457 187.292 50.9566Z" fill="#263238"/>
<path d="M173.764 26.9137C174.417 30.0563 179.462 30.2956 182.578 29.5072C183.707 30.796 185.143 31.7798 186.753 32.368C188.362 32.9561 190.094 33.1297 191.788 32.8727C192.24 32.7588 192.712 32.7588 193.164 32.8727C193.604 33.0957 193.979 33.4292 194.251 33.8405C195.686 35.5383 197.698 36.6444 199.9 36.9451C200.233 38.5168 201.026 39.9535 202.18 41.0713C203.334 42.1891 204.795 42.9371 206.376 43.2195C206.376 43.2195 207.376 42.6758 206.789 38.6198C206.202 34.5637 206.164 26.1144 206.164 26.1144L194.904 21.7647L181.637 20.0575C181.637 20.0575 172.655 21.5853 173.764 26.9137Z" fill="#263238"/>
<path d="M211.047 41.621C210.895 40.6605 210.611 39.7255 210.204 38.8426C209.71 37.8501 208.989 36.9877 208.1 36.3252C206.948 35.4662 205.566 34.9719 204.131 34.9061H203.957L203.902 34.7322C203.426 32.9922 202.43 31.4388 201.048 30.2792C199.591 29.1265 197.296 28.648 195.507 29.6648L195.208 29.8333L195.078 29.5071L194.931 29.1482C194.338 27.833 193.396 26.7053 192.208 25.8876C191.019 25.07 189.629 24.5936 188.189 24.5104C187.538 24.4917 186.887 24.5446 186.248 24.6681C185.595 24.815 184.917 24.815 184.263 24.6681C183.666 24.459 183.132 24.0994 182.714 23.6242C182.359 23.2334 181.961 22.8832 181.528 22.5802C180.855 22.1543 180.097 21.8784 179.307 21.7715C178.517 21.6645 177.713 21.729 176.95 21.9604C176.385 22.1597 175.839 22.4109 175.319 22.7107C175.319 22.7107 175.423 22.5857 175.662 22.3845C176.03 22.1175 176.432 21.9016 176.858 21.7429C177.658 21.4507 178.513 21.3425 179.36 21.4263C180.207 21.5101 181.025 21.7837 181.751 22.2268C182.714 22.7705 183.328 23.9015 184.394 24.1951C185.46 24.4887 186.77 23.8471 188.2 23.9395C189.755 24.0123 191.258 24.5162 192.543 25.3948C193.828 26.2733 194.843 27.492 195.475 28.9145L195.638 29.3059L195.208 29.1482C197.285 27.9793 199.803 28.561 201.396 29.8333C202.862 31.0704 203.907 32.7331 204.386 34.5908L204.158 34.4114C205.685 34.5019 207.148 35.0579 208.35 36.0044C209.265 36.725 209.991 37.6582 210.465 38.723C210.772 39.3957 210.968 40.1136 211.047 40.8489C211.093 41.1042 211.093 41.3657 211.047 41.621Z" fill="#455A64"/>
<path d="M193.12 31.9919C192.875 32.1524 192.599 32.2615 192.31 32.3127C191.537 32.5132 190.738 32.6029 189.94 32.5791C188.598 32.5456 187.277 32.2351 186.061 31.6672C184.844 31.0993 183.759 30.2861 182.871 29.2788L183.241 29.3495L182.92 29.5126C181.533 30.1847 179.975 30.4197 178.451 30.1868C177.217 29.9859 176.055 29.4731 175.075 28.697C174.423 28.181 173.87 27.5509 173.443 26.8375C173.263 26.5909 173.14 26.3065 173.085 26.0057C173.177 25.9404 173.704 27.1692 175.33 28.3599C176.381 29.1176 177.618 29.5754 178.909 29.6846C180.2 29.7938 181.496 29.5502 182.659 28.9798L182.953 28.8275L183.17 28.7188L183.323 28.8928C185.017 30.8004 187.389 31.971 189.934 32.155C191.913 32.3073 193.093 31.8777 193.12 31.9919Z" fill="#455A64"/>
<path d="M187.14 26.3809C187.14 26.5549 185.672 26.5114 183.986 27.0116C182.301 27.5118 181.088 28.3002 180.985 28.1588C180.881 28.0174 182.001 26.9572 183.823 26.4407C185.644 25.9242 187.178 26.2286 187.14 26.3809Z" fill="#455A64"/>
<path d="M183.323 26.2666C183.198 26.3808 182.665 25.9839 181.991 25.5544C181.316 25.1249 180.74 24.7986 180.789 24.6355C180.838 24.4724 181.566 24.5757 182.311 25.0542C183.056 25.5326 183.442 26.1633 183.323 26.2666Z" fill="#455A64"/>
<path d="M199.237 31.2198C199.183 31.3829 197.889 31.0458 196.296 31.1872C194.703 31.3286 193.479 31.856 193.403 31.7037C193.327 31.5515 194.49 30.7359 196.247 30.6163C198.003 30.4967 199.302 31.0893 199.237 31.2198Z" fill="#455A64"/>
<path d="M202.315 36.4286C202.315 36.5809 200.433 36.7712 198.215 36.1187C195.997 35.4663 194.485 34.3136 194.578 34.194C194.67 34.0744 196.252 34.9443 198.383 35.5478C200.515 36.1514 202.32 36.2547 202.315 36.4286Z" fill="#455A64"/>
<path d="M209.383 39.8811C209.252 40.0062 208.268 39.0166 206.664 38.5708C205.06 38.1249 203.723 38.3859 203.685 38.2174C203.647 38.0488 205.06 37.4671 206.833 37.9999C208.605 38.5327 209.519 39.7887 209.383 39.8811Z" fill="#455A64"/>
<path d="M208.382 25.4891C208.333 25.4891 208.203 25.1629 207.839 24.6464C207.264 23.9495 206.539 23.3919 205.718 23.0152C203.652 22.0148 200.395 21.3841 196.856 21.5418C193.814 21.7309 190.809 22.3045 187.912 23.249C185.666 23.945 184.301 24.4561 184.269 24.3745C184.542 24.1631 184.849 23.9994 185.177 23.8906C185.78 23.6188 186.661 23.249 187.776 22.8467C190.683 21.7704 193.734 21.131 196.828 20.9492C200.466 20.7915 203.788 21.4929 205.914 22.6455C206.769 23.0856 207.497 23.7369 208.029 24.5376C208.226 24.8193 208.348 25.1469 208.382 25.4891Z" fill="#455A64"/>
<path d="M209.47 30.8773C209.361 30.9262 209.051 29.6648 207.768 28.1588C206.046 26.2129 203.749 24.8648 201.211 24.3093C198.649 23.8091 196.021 23.7558 193.441 24.1516C191.446 24.4126 190.211 24.6518 190.179 24.5594C190.146 24.467 191.364 24.1081 193.365 23.7384C195.994 23.2104 198.701 23.2104 201.33 23.7384C203.993 24.3085 206.378 25.7794 208.083 27.9032C208.584 28.5479 208.98 29.2671 209.258 30.0346C209.384 30.2984 209.456 30.585 209.47 30.8773Z" fill="#455A64"/>
<path d="M172.166 37.1844C172.166 37.2387 171.236 36.9886 170.236 35.9066C169.569 35.2046 169.082 34.3511 168.818 33.4196C168.554 32.488 168.519 31.5062 168.718 30.5586C168.917 29.6109 169.343 28.7257 169.96 27.9791C170.577 27.2324 171.365 26.6467 172.258 26.2721C173.612 25.6795 174.553 25.8208 174.542 25.8752C174.531 25.9296 173.656 26.0002 172.438 26.6473C171.642 27.0365 170.946 27.6022 170.402 28.3012C169.858 29.0003 169.481 29.8143 169.3 30.6812C169.119 31.548 169.137 32.4448 169.355 33.3033C169.573 34.1618 169.984 34.9592 170.556 35.6348C171.41 36.7113 172.226 37.0702 172.166 37.1844Z" fill="#455A64"/>
<path d="M213.977 50.6249C213.917 50.5325 214.934 49.9997 216.369 48.9231C217.2 48.303 217.889 47.5135 218.392 46.6069C218.689 46.0713 218.859 45.4746 218.89 44.8628C218.92 44.251 218.809 43.6405 218.566 43.0782C218.071 41.9337 217.142 41.0323 215.983 40.5717C215.017 40.2253 213.973 40.1593 212.971 40.3814C211.231 40.7729 210.383 41.6102 210.323 41.5123C210.264 41.4145 210.476 41.2622 210.867 40.9686C211.46 40.5215 212.134 40.1929 212.852 40.0008C213.935 39.6945 215.086 39.7248 216.152 40.0878C216.805 40.3281 217.402 40.6989 217.906 41.1775C218.411 41.6561 218.813 42.2326 219.088 42.8716C219.366 43.5139 219.49 44.2124 219.449 44.9111C219.408 45.6098 219.205 46.2893 218.854 46.8951C218.292 47.8528 217.521 48.6707 216.598 49.2874C215.995 49.6998 215.361 50.0634 214.7 50.3748C214.26 50.5597 213.993 50.663 213.977 50.6249Z" fill="#263238"/>
<path d="M214.445 50.663C214.643 50.9255 214.798 51.2171 214.907 51.5275C215.271 52.3412 215.585 53.1765 215.847 54.0285C216.256 55.303 216.469 56.6321 216.478 57.9704C216.505 59.6465 216.034 61.2928 215.124 62.7007C214.653 63.4046 214.04 64.0026 213.325 64.4566C212.61 64.9106 211.808 65.2107 210.97 65.3377C210.279 65.4386 209.573 65.374 208.911 65.149C208.25 64.924 207.651 64.5452 207.164 64.0437C206.501 63.389 206.086 62.5241 205.99 61.597C205.939 61.2637 205.982 60.9227 206.115 60.6129C206.169 60.6129 206.115 60.9717 206.218 61.5698C206.441 62.5989 207.048 63.5047 207.914 64.1034C208.78 64.7021 209.842 64.949 210.883 64.794C211.638 64.6617 212.358 64.3788 213 63.9621C213.643 63.5455 214.195 63.0037 214.624 62.369C215.468 61.0552 215.917 59.5266 215.918 57.965C215.93 56.6803 215.767 55.3999 215.434 54.159C214.869 52.0168 214.363 50.7173 214.445 50.663Z" fill="#263238"/>
<path d="M198.911 31.9158C197.66 34.406 198.617 37.4236 199.9 39.9029C201.184 42.3822 202.82 44.8343 202.923 47.6181C203.108 52.2886 198.933 56.4154 199.509 61.0478C199.706 62.4292 200.313 63.7198 201.252 64.7529C202.19 65.7861 203.416 66.5143 204.772 66.8437C202.565 65.354 202.363 62.108 203.206 59.5852C204.049 57.0624 208.132 50.4128 208.725 47.8139C210.715 39.1145 209.867 38.0869 206.822 35.0258" fill="#263238"/>
<path d="M207.295 38.125C207.295 38.1957 206.68 38.3425 205.664 38.1957C204.343 37.9928 203.113 37.4008 202.131 36.4952C201.149 35.5896 200.46 34.4116 200.151 33.112C199.928 32.117 200.02 31.4808 200.091 31.4808C200.161 31.4808 200.254 32.0789 200.569 32.976C200.962 34.1445 201.642 35.1953 202.548 36.0315C203.453 36.8677 204.555 37.4624 205.751 37.7607C206.702 38.0162 207.295 38.0325 207.295 38.125Z" fill="#455A64"/>
<path d="M203.685 64.0708C203.685 64.0708 203.565 64.0164 203.375 63.8696C203.1 63.6467 202.854 63.3911 202.641 63.1084C201.852 62.0474 201.437 60.7548 201.461 59.433C201.467 58.5097 201.7 57.6022 202.141 56.7905C202.681 55.9106 203.333 55.1046 204.082 54.3928C204.862 53.6404 205.5 52.7524 205.963 51.7721C206.426 50.7127 206.639 49.5614 206.588 48.4065C206.535 47.2581 206.207 46.1392 205.631 45.1442C205.062 44.2041 204.41 43.3162 203.685 42.4909C202.403 41.0694 201.339 39.4663 200.526 37.7335C199.983 36.5537 199.664 35.2835 199.585 33.9873C199.534 33.5158 199.567 33.0389 199.683 32.5791C199.813 32.5791 199.509 34.6561 200.917 37.5486C201.765 39.2172 202.841 40.7597 204.114 42.1321C204.877 42.9728 205.56 43.8829 206.153 44.8506C206.784 45.9321 207.142 47.1505 207.197 48.4011C207.253 49.6502 207.019 50.8954 206.512 52.0385C206.012 53.0781 205.325 54.0164 204.484 54.806C203.759 55.4771 203.12 56.235 202.581 57.0624C202.164 57.7977 201.928 58.6212 201.89 59.4656C201.832 60.7114 202.163 61.9446 202.836 62.9942C203.326 63.7119 203.723 64.0273 203.685 64.0708Z" fill="#455A64"/>
<path d="M208.333 37.7988C208.333 37.7716 208.6 37.9456 208.97 38.3425C209.487 38.9104 209.91 39.5586 210.22 40.2618C211.206 42.6247 211.318 45.2618 210.535 47.6997C209.728 50.0854 208.44 52.28 206.751 54.1481C205.501 55.589 204.62 56.3719 204.576 56.323C204.533 56.274 205.278 55.3715 206.43 53.8763C207.965 51.977 209.155 49.8241 209.948 47.5149C210.678 45.2074 210.63 42.7243 209.812 40.4466C209.149 38.7013 208.241 37.8749 208.333 37.7988Z" fill="#455A64"/>
<path d="M166.631 112.32L161.014 101.989C160.831 101.651 160.561 101.368 160.23 101.171C159.9 100.974 159.523 100.87 159.139 100.869H119.165C118.777 100.869 118.396 100.976 118.065 101.177C117.733 101.378 117.463 101.667 117.284 102.011L156.904 128.653L174.439 130.67C174.623 130.317 174.722 129.925 174.728 129.527C174.734 129.128 174.646 128.734 174.471 128.375L166.631 112.32Z" fill="#263238"/>
<g opacity="0.3">
<path d="M208.926 136.025C201.907 132.964 193.833 132.519 187.232 128.631C184.709 127.147 182.474 125.195 179.892 123.814C177.309 122.433 174.177 121.639 171.453 122.726C168.729 123.814 166.663 127.892 168.077 130.458C168.621 131.828 171.203 133.106 172.666 132.981C174.129 132.856 175.515 132.252 176.978 132.067C180.109 131.67 183.116 133.214 185.938 134.628C192.026 137.666 198.315 140.284 204.761 142.463C206.262 142.969 207.844 143.458 209.415 143.224C210.987 142.99 212.531 141.805 212.64 140.217C212.732 138.233 210.731 136.825 208.926 136.025Z" fill="black"/>
</g>
<path d="M174.438 130.626L160.422 103.175C160.239 102.814 159.959 102.512 159.615 102.302C159.27 102.092 158.874 101.981 158.47 101.984H117.088L132.508 129.751L174.438 130.626Z" fill="#455A64"/>
<path d="M142.001 111.858C142.208 112.024 142.46 112.125 142.724 112.149C142.989 112.172 143.255 112.116 143.488 111.988C143.721 111.861 143.91 111.667 144.033 111.431C144.156 111.195 144.206 110.929 144.177 110.665C144.148 110.4 144.041 110.151 143.871 109.947C143.7 109.744 143.473 109.596 143.217 109.521C142.962 109.447 142.691 109.45 142.438 109.53C142.184 109.61 141.96 109.764 141.794 109.971C141.683 110.108 141.601 110.266 141.551 110.435C141.501 110.604 141.486 110.782 141.505 110.957C141.524 111.133 141.578 111.302 141.663 111.457C141.748 111.611 141.863 111.748 142.001 111.858Z" fill="#EBEBEB"/>
<path d="M178.413 116.305L174.248 113.086C173.404 112.039 172.335 111.194 171.122 110.613C169.908 110.033 168.58 109.732 167.234 109.732H164.967L163.417 111.472C163.417 111.472 152.315 111.955 151.907 113.326V113.766V114.027L161.406 114.663C161.406 114.663 153.326 114.663 152.842 114.663C152.358 114.663 150.586 114.527 150.618 115.479C150.651 116.256 151.57 116.871 152.967 117.072C153.544 117.159 160.541 117.768 160.541 117.768L152.837 117.697C151.972 117.697 152.087 119.073 152.598 119.247C153 119.388 162.868 122.264 162.868 122.264C162.868 122.264 161.237 123.379 159.856 123.281C158.475 123.183 156.181 121.443 155.697 122.264C155.213 123.085 155.311 123.569 155.599 123.765C157.06 124.584 158.579 125.295 160.144 125.891C161.232 126.184 169.898 127.56 169.898 127.56L177.103 126.636L178.413 116.305Z" fill="#FFBE9D"/>
<path d="M159.639 111.607C160.934 111.481 162.236 111.433 163.537 111.466C164.837 111.42 166.139 111.453 167.435 111.564C166.14 111.694 164.838 111.743 163.537 111.711C162.237 111.757 160.935 111.722 159.639 111.607Z" fill="#EB996E"/>
<path d="M178.413 116.305L208.986 122.123L212.052 83.6879C212.052 83.6879 220.295 76.7556 224.656 81.4859C226.263 83.2451 227.486 85.321 228.244 87.5803C229.003 89.8397 229.28 92.2326 229.06 94.6056C228.777 97.3949 226.004 130.24 223.699 135.797C220.474 143.567 212.221 143.154 209.916 142.588C207.61 142.023 174.732 126.472 174.732 126.472L178.413 116.305Z" fill="#FFBE9D"/>
<path d="M210.921 83.4868C209.834 92.1861 207.73 105.447 207.61 114.19C207.61 114.549 228.635 116.305 228.635 116.305C228.635 116.305 229.723 96.5032 228.94 90.4843C228.043 83.6499 222.927 78.9359 222.927 78.9359H216.331L210.921 83.4868Z" fill="#2F88FF"/>
<path d="M228.636 116.305C228.494 116.312 228.353 116.312 228.211 116.305L226.988 116.207L222.497 115.805L207.599 114.348H207.463V114.206C207.463 113.94 207.501 113.663 207.523 113.358C207.947 107.312 208.333 101.842 208.611 97.8461C208.763 95.8833 208.888 94.2902 208.975 93.1484C209.024 92.6047 209.057 92.1915 209.089 91.8761C209.098 91.7265 209.116 91.5777 209.144 91.4303C209.158 91.5786 209.158 91.7279 209.144 91.8761C209.144 92.1969 209.111 92.621 209.084 93.1593C209.018 94.2956 208.926 95.8778 208.812 97.8624C208.551 101.859 208.197 107.328 207.806 113.374C207.806 113.668 207.768 113.956 207.746 114.228L207.621 114.076L222.519 115.593L226.999 116.088L228.217 116.234C228.358 116.245 228.498 116.269 228.636 116.305Z" fill="#263238"/>
</svg>
