<svg width="21" height="20" viewBox="0 0 21 20" fill="none" xmlns="http://www.w3.org/2000/svg">
<path d="M15.8051 15.3816L18.6666 18.2431C18.859 18.4366 18.967 18.6984 18.967 18.9713C18.967 19.2442 18.859 19.5061 18.6666 19.6996C18.473 19.892 18.2112 20 17.9383 20C17.6654 20 17.4036 19.892 17.21 19.6996L14.5345 17.0344C13.6515 17.8516 12.5495 18.3937 11.3632 18.5943V9.33846C11.3632 9.06449 11.2543 8.80174 11.0606 8.60801C10.8669 8.41428 10.6041 8.30545 10.3302 8.30545C10.0562 8.30545 9.79343 8.41428 9.5997 8.60801C9.40597 8.80174 9.29714 9.06449 9.29714 9.33846V18.5943C8.11067 18.3943 7.00843 17.8521 6.12578 17.0344L3.45027 19.6996C3.25672 19.892 2.9949 20 2.722 20C2.44909 20 2.18727 19.892 1.99372 19.6996C1.80132 19.5061 1.69333 19.2442 1.69333 18.9713C1.69333 18.6984 1.80132 18.4366 1.99372 18.2431L4.85517 15.3816C4.53005 14.772 4.31004 14.112 4.20437 13.4292H1.03302C0.759043 13.4292 0.496291 13.3204 0.302563 13.1266C0.108835 12.9329 0 12.6702 0 12.3962C0 12.1222 0.108835 11.8595 0.302563 11.6657C0.496291 11.472 0.759043 11.3632 1.03302 11.3632H4.13206V8.68766L0.960704 5.5163C0.768304 5.32276 0.660311 5.06094 0.660311 4.78803C0.660311 4.51512 0.768304 4.2533 0.960704 4.05975C1.15425 3.86735 1.41607 3.75936 1.68898 3.75936C1.96189 3.75936 2.22371 3.86735 2.41726 4.05975L4.58659 6.22908H16.0737L18.2431 4.05975C18.4366 3.86735 18.6984 3.75936 18.9713 3.75936C19.2442 3.75936 19.5061 3.86735 19.6996 4.05975C19.892 4.2533 20 4.51512 20 4.78803C20 5.06094 19.892 5.32276 19.6996 5.5163L16.5282 8.68766V11.3632H19.6273C19.9013 11.3632 20.164 11.472 20.3577 11.6657C20.5515 11.8595 20.6603 12.1222 20.6603 12.3962C20.6603 12.6702 20.5515 12.9329 20.3577 13.1266C20.164 13.3204 19.9013 13.4292 19.6273 13.4292H16.4559C16.3526 14.1213 16.1254 14.7825 15.8051 15.3816ZM15.4952 5.16508H5.16508C5.16508 3.79521 5.70925 2.48146 6.67789 1.51282C7.64653 0.544176 8.96029 0 10.3302 0C11.7 0 13.0138 0.544176 13.9824 1.51282C14.9511 2.48146 15.4952 3.79521 15.4952 5.16508Z" fill="white"/>
</svg>
