<svg width="22" height="27" viewBox="0 0 22 27" fill="none" xmlns="http://www.w3.org/2000/svg">
<path d="M18.5724 9.1702L17.3223 8.40389C16.0684 7.63509 15.4421 7.25006 14.7496 7.25006C14.057 7.25006 13.4308 7.63509 12.1769 8.40389L10.9268 9.1702C9.74049 9.89775 9.14794 10.2615 8.82417 10.8478C8.49915 11.4354 8.49915 12.1417 8.49915 13.5555V20.8873C8.49915 23.2987 8.49915 24.5038 9.2317 25.2526C9.96425 26.0014 11.1418 26.0014 13.4995 26.0014H15.9997C18.3574 26.0014 19.5349 26.0014 20.2675 25.2514C21 24.5038 21 23.2987 21 20.8885V13.5555C21 12.1417 21 11.4341 20.675 10.8478C20.35 10.2615 19.7587 9.89775 18.5724 9.1702Z" stroke="white" stroke-width="2" stroke-linecap="round" stroke-linejoin="round"/>
<path d="M13.4995 7.38509C12.7007 6.61878 12.2244 6.21625 11.6206 6.06499C10.9205 5.88873 10.1855 6.08624 8.71411 6.48127L7.24901 6.8738C5.85766 7.24883 5.16136 7.43384 4.67882 7.89512C4.19504 8.35766 4.00752 9.0127 3.63375 10.324L1.69111 17.122C1.05356 19.3572 0.733538 20.4748 1.27608 21.3561C1.74111 22.1124 3.60374 23.0437 5.37512 23.5012" stroke="white" stroke-width="2" stroke-linecap="round" stroke-linejoin="round"/>
<path d="M14.1183 11.0003C15.1696 10.3003 16.1034 9.17897 16.6835 7.78387C17.8811 4.90241 17.1173 1.94594 14.9796 1.18214C12.8407 0.417083 10.1355 2.13221 8.93793 5.01367C8.74366 5.47817 8.59666 5.96106 8.49915 6.45502" stroke="white" stroke-width="2" stroke-linecap="round" stroke-linejoin="round"/>
</svg>
