<svg width="18" height="22" viewBox="0 0 18 22" fill="none" xmlns="http://www.w3.org/2000/svg">
<path d="M15.0569 7.53578L14.0569 6.92277C13.0539 6.30776 12.5529 5.99976 11.9989 5.99976C11.4448 5.99976 10.9438 6.30776 9.94082 6.92277L8.94081 7.53578C7.99179 8.11779 7.51779 8.40879 7.25878 8.8778C6.99878 9.34781 6.99878 9.91281 6.99878 11.0438V16.9089C6.99878 18.8379 6.99878 19.802 7.58479 20.401C8.1708 21 9.11281 21 10.9988 21H12.9989C14.8849 21 15.8269 21 16.4129 20.4C16.9989 19.802 16.9989 18.8379 16.9989 16.9099V11.0438C16.9989 9.91281 16.9989 9.34681 16.7389 8.8778C16.4789 8.40879 16.0059 8.11779 15.0569 7.53578Z" stroke="white" stroke-width="2" stroke-linecap="round" stroke-linejoin="round"/>
<path d="M10.999 6.10779C10.36 5.49478 9.97898 5.17277 9.49597 5.05177C8.93596 4.91077 8.34796 5.06877 7.17094 5.38477L5.99892 5.69878C4.8859 5.99878 4.3289 6.14679 3.94289 6.51579C3.55588 6.8858 3.40588 7.4098 3.10688 8.45882L1.55285 13.8969C1.04285 15.6849 0.786843 16.5789 1.22085 17.284C1.59285 17.889 3.08288 18.634 4.4999 19" stroke="white" stroke-width="2" stroke-linecap="round" stroke-linejoin="round"/>
<path d="M11.4938 8.99982C12.3349 8.43981 13.0819 7.5428 13.5459 6.42678C14.5039 4.12175 13.8929 1.75671 12.1829 1.1457C10.4718 0.533693 8.3078 1.90571 7.34978 4.21075C7.19438 4.58233 7.07678 4.96862 6.99878 5.36377" stroke="white" stroke-width="2" stroke-linecap="round" stroke-linejoin="round"/>
</svg>
