<svg width="20" height="21" viewBox="0 0 20 21" fill="none" xmlns="http://www.w3.org/2000/svg">
<mask id="path-1-inside-1_142_1883" fill="white">
<path d="M19.0909 1.86312e-05H12.7273C12.2068 -0.00211368 11.7021 0.178844 11.3016 0.511228C10.9011 0.843612 10.6302 1.30625 10.5364 1.8182L9.7 6.40911C9.6422 6.72896 9.65539 7.05761 9.73865 7.3718C9.82191 7.68599 9.9732 7.97804 10.1818 8.22729C10.3916 8.47667 10.6531 8.67739 10.9482 8.81554C11.2434 8.95369 11.565 9.02595 11.8909 9.02729H14.5455L14.3182 9.62729C14.1504 10.0722 14.0921 10.5509 14.1483 11.023C14.2044 11.4952 14.3733 11.9469 14.6408 12.34C14.9082 12.7332 15.2663 13.0562 15.6848 13.2818C16.1034 13.5074 16.57 13.629 17.0455 13.6364C17.2219 13.6378 17.3949 13.5878 17.5434 13.4926C17.6919 13.3973 17.8095 13.2609 17.8818 13.1L19.9182 8.50002C19.9646 8.39981 19.9923 8.29199 20 8.18184V0.90911C20 0.668004 19.9042 0.436773 19.7337 0.266285C19.5632 0.0957975 19.332 1.86312e-05 19.0909 1.86312e-05ZM18.1818 7.93638L16.5182 11.6909C16.3558 11.6026 16.2159 11.4782 16.1091 11.3273C16.0021 11.1758 15.9345 11.0002 15.9122 10.8161C15.89 10.632 15.9139 10.4453 15.9818 10.2727L16.3273 9.36366C16.4182 9.12788 16.4491 8.87324 16.4174 8.62256C16.3857 8.37188 16.2922 8.13298 16.1455 7.92729C16.0009 7.72239 15.8087 7.55573 15.5854 7.44169C15.3621 7.32766 15.1144 7.26968 14.8636 7.27275H11.8727C11.8123 7.27291 11.7526 7.26 11.6977 7.23489C11.6428 7.20978 11.5939 7.17307 11.5545 7.12729C11.484 7.03035 11.4546 6.90945 11.4727 6.79093L12.3091 2.24547C12.3052 2.18913 12.3132 2.1326 12.3327 2.07959C12.3522 2.02659 12.3828 1.97832 12.4223 1.93796C12.4618 1.89759 12.5094 1.86605 12.5619 1.84541C12.6145 1.82477 12.6709 1.8155 12.7273 1.8182H18.1818V7.93638ZM8.12727 10.9546H5.5L5.72727 10.3546C5.89264 9.90708 5.94753 9.42629 5.88729 8.95305C5.82705 8.47981 5.65345 8.0281 5.38126 7.63632C5.10906 7.24453 4.74631 6.92425 4.32382 6.70268C3.90133 6.48111 3.4316 6.36481 2.95455 6.36366C2.77813 6.36226 2.60512 6.41223 2.45661 6.50747C2.3081 6.60271 2.19051 6.7391 2.11818 6.90002L0.0818182 11.5C0.029723 11.6143 0.00186483 11.7381 0 11.8637V19.1364C0 19.3775 0.0957789 19.6087 0.266267 19.7792C0.436754 19.9497 0.667985 20.0455 0.909091 20.0455H7.27273C7.7932 20.0476 8.29785 19.8666 8.69837 19.5343C9.0989 19.2019 9.36978 18.7392 9.46364 18.2273L10.3 13.6818C10.3578 13.362 10.3446 13.0333 10.2613 12.7191C10.1781 12.405 10.0268 12.1129 9.81818 11.8637C9.62106 11.5966 9.36717 11.3765 9.07478 11.2193C8.7824 11.0621 8.45879 10.9717 8.12727 10.9546ZM7.69091 17.8455C7.6753 17.9434 7.62387 18.032 7.5466 18.0942C7.46933 18.1563 7.37173 18.1876 7.27273 18.1818H1.81818V12.0637L3.48182 8.30911C3.64419 8.39746 3.78414 8.52186 3.89091 8.67275C3.99789 8.82419 4.06554 8.99986 4.08776 9.18394C4.10997 9.36802 4.08606 9.55474 4.01818 9.72729L3.67273 10.6364C3.58185 10.8722 3.55089 11.1268 3.58262 11.3775C3.61435 11.6282 3.70778 11.8671 3.85455 12.0727C3.99704 12.281 4.18837 12.4512 4.41182 12.5685C4.63526 12.6857 4.88402 12.7465 5.13636 12.7455H8.12727C8.18767 12.7453 8.24738 12.7582 8.30231 12.7833C8.35723 12.8084 8.40607 12.8451 8.44545 12.8909C8.51603 12.9879 8.54543 13.1088 8.52727 13.2273L7.69091 17.8455Z"/>
</mask>
<path d="M19.0909 1.86312e-05H12.7273C12.2068 -0.00211368 11.7021 0.178844 11.3016 0.511228C10.9011 0.843612 10.6302 1.30625 10.5364 1.8182L9.7 6.40911C9.6422 6.72896 9.65539 7.05761 9.73865 7.3718C9.82191 7.68599 9.9732 7.97804 10.1818 8.22729C10.3916 8.47667 10.6531 8.67739 10.9482 8.81554C11.2434 8.95369 11.565 9.02595 11.8909 9.02729H14.5455L14.3182 9.62729C14.1504 10.0722 14.0921 10.5509 14.1483 11.023C14.2044 11.4952 14.3733 11.9469 14.6408 12.34C14.9082 12.7332 15.2663 13.0562 15.6848 13.2818C16.1034 13.5074 16.57 13.629 17.0455 13.6364C17.2219 13.6378 17.3949 13.5878 17.5434 13.4926C17.6919 13.3973 17.8095 13.2609 17.8818 13.1L19.9182 8.50002C19.9646 8.39981 19.9923 8.29199 20 8.18184V0.90911C20 0.668004 19.9042 0.436773 19.7337 0.266285C19.5632 0.0957975 19.332 1.86312e-05 19.0909 1.86312e-05ZM18.1818 7.93638L16.5182 11.6909C16.3558 11.6026 16.2159 11.4782 16.1091 11.3273C16.0021 11.1758 15.9345 11.0002 15.9122 10.8161C15.89 10.632 15.9139 10.4453 15.9818 10.2727L16.3273 9.36366C16.4182 9.12788 16.4491 8.87324 16.4174 8.62256C16.3857 8.37188 16.2922 8.13298 16.1455 7.92729C16.0009 7.72239 15.8087 7.55573 15.5854 7.44169C15.3621 7.32766 15.1144 7.26968 14.8636 7.27275H11.8727C11.8123 7.27291 11.7526 7.26 11.6977 7.23489C11.6428 7.20978 11.5939 7.17307 11.5545 7.12729C11.484 7.03035 11.4546 6.90945 11.4727 6.79093L12.3091 2.24547C12.3052 2.18913 12.3132 2.1326 12.3327 2.07959C12.3522 2.02659 12.3828 1.97832 12.4223 1.93796C12.4618 1.89759 12.5094 1.86605 12.5619 1.84541C12.6145 1.82477 12.6709 1.8155 12.7273 1.8182H18.1818V7.93638ZM8.12727 10.9546H5.5L5.72727 10.3546C5.89264 9.90708 5.94753 9.42629 5.88729 8.95305C5.82705 8.47981 5.65345 8.0281 5.38126 7.63632C5.10906 7.24453 4.74631 6.92425 4.32382 6.70268C3.90133 6.48111 3.4316 6.36481 2.95455 6.36366C2.77813 6.36226 2.60512 6.41223 2.45661 6.50747C2.3081 6.60271 2.19051 6.7391 2.11818 6.90002L0.0818182 11.5C0.029723 11.6143 0.00186483 11.7381 0 11.8637V19.1364C0 19.3775 0.0957789 19.6087 0.266267 19.7792C0.436754 19.9497 0.667985 20.0455 0.909091 20.0455H7.27273C7.7932 20.0476 8.29785 19.8666 8.69837 19.5343C9.0989 19.2019 9.36978 18.7392 9.46364 18.2273L10.3 13.6818C10.3578 13.362 10.3446 13.0333 10.2613 12.7191C10.1781 12.405 10.0268 12.1129 9.81818 11.8637C9.62106 11.5966 9.36717 11.3765 9.07478 11.2193C8.7824 11.0621 8.45879 10.9717 8.12727 10.9546ZM7.69091 17.8455C7.6753 17.9434 7.62387 18.032 7.5466 18.0942C7.46933 18.1563 7.37173 18.1876 7.27273 18.1818H1.81818V12.0637L3.48182 8.30911C3.64419 8.39746 3.78414 8.52186 3.89091 8.67275C3.99789 8.82419 4.06554 8.99986 4.08776 9.18394C4.10997 9.36802 4.08606 9.55474 4.01818 9.72729L3.67273 10.6364C3.58185 10.8722 3.55089 11.1268 3.58262 11.3775C3.61435 11.6282 3.70778 11.8671 3.85455 12.0727C3.99704 12.281 4.18837 12.4512 4.41182 12.5685C4.63526 12.6857 4.88402 12.7465 5.13636 12.7455H8.12727C8.18767 12.7453 8.24738 12.7582 8.30231 12.7833C8.35723 12.8084 8.40607 12.8451 8.44545 12.8909C8.51603 12.9879 8.54543 13.1088 8.52727 13.2273L7.69091 17.8455Z" fill="white"/>
<path d="M19.0909 1.86312e-05V-1.99998V1.86312e-05ZM12.7273 1.86312e-05L12.7191 2.00002H12.7273V1.86312e-05ZM10.5364 1.8182L8.56915 1.45756L8.56875 1.45974L10.5364 1.8182ZM9.7 6.40911L7.73238 6.05065L7.73188 6.05343L9.7 6.40911ZM10.1818 8.22729L8.64812 9.51096L8.65129 9.51472L10.1818 8.22729ZM11.8909 9.02729L11.8826 11.0273H11.8909V9.02729ZM14.5455 9.02729L16.4158 9.73575L17.4417 7.02729H14.5455V9.02729ZM14.3182 9.62729L12.4479 8.91884L12.4468 8.92153L14.3182 9.62729ZM15.6848 13.2818L14.7358 15.0423L15.6848 13.2818ZM17.0455 13.6364L17.0146 15.6361L17.0221 15.6363L17.0297 15.6363L17.0455 13.6364ZM17.8818 13.1L19.706 13.92L19.7106 13.9096L17.8818 13.1ZM19.9182 8.50002L18.1031 7.66014L18.0961 7.67522L18.0894 7.69043L19.9182 8.50002ZM20 8.18184L21.9951 8.32172L22 8.25186V8.18184H20ZM18.1818 7.93638L20.0104 8.7466L20.1818 8.35964V7.93638H18.1818ZM16.5182 11.6909L15.5623 13.4477L17.4679 14.4846L18.3467 12.5012L16.5182 11.6909ZM16.1091 11.3273L14.4756 12.4813L14.4765 12.4826L16.1091 11.3273ZM15.9818 10.2727L17.843 11.005L17.8472 10.9941L17.8514 10.9832L15.9818 10.2727ZM16.3273 9.36366L14.4611 8.64433L14.4577 8.65322L16.3273 9.36366ZM16.1455 7.92729L14.5111 9.0801L14.5174 9.08892L16.1455 7.92729ZM14.8636 7.27275V9.27275H14.8759L14.8881 9.2726L14.8636 7.27275ZM11.8727 7.27275V5.27274L11.8671 5.27275L11.8727 7.27275ZM11.5545 7.12729L9.93762 8.30438L9.98542 8.37005L10.0384 8.43163L11.5545 7.12729ZM11.4727 6.79093L9.50575 6.429L9.50033 6.45844L9.4958 6.48802L11.4727 6.79093ZM12.3091 2.24547L14.2761 2.6074L14.3218 2.35889L14.3043 2.10682L12.3091 2.24547ZM12.7273 1.8182L12.6316 3.81591L12.6794 3.8182H12.7273V1.8182ZM18.1818 1.8182H20.1818V-0.181799H18.1818V1.8182ZM8.12727 10.9546L8.23041 8.95722L8.17887 8.95456H8.12727V10.9546ZM5.5 10.9546L3.62968 10.2461L2.60375 12.9546H5.5V10.9546ZM5.72727 10.3546L7.59759 11.063L7.60047 11.0554L7.60328 11.0478L5.72727 10.3546ZM2.95455 6.36366L2.93874 8.36362L2.94971 8.36365L2.95455 6.36366ZM2.11818 6.90002L0.293953 6.08007L0.289368 6.09043L2.11818 6.90002ZM0.0818182 11.5L1.9016 12.3297L1.90617 12.3197L1.91063 12.3096L0.0818182 11.5ZM0 11.8637L-1.99978 11.834L-2 11.8488V11.8637H0ZM0 19.1364H-2H0ZM7.27273 20.0455L7.28092 18.0455H7.27273V20.0455ZM9.46364 18.2273L7.49666 17.8654L7.49642 17.8667L9.46364 18.2273ZM10.3 13.6818L12.267 14.0438L12.2681 14.0375L10.3 13.6818ZM9.81818 11.8637L8.20897 13.0513L8.24526 13.1005L8.28449 13.1473L9.81818 11.8637ZM7.69091 17.8455L5.72292 17.4891L5.71916 17.5098L5.71584 17.5306L7.69091 17.8455ZM7.27273 18.1818L7.38857 16.1852L7.3307 16.1818H7.27273V18.1818ZM1.81818 18.1818H-0.181818V20.1818H1.81818V18.1818ZM1.81818 12.0637L-0.010353 11.2534L-0.181818 11.6404V12.0637H1.81818ZM3.48182 8.30911L4.43772 6.55233L2.53213 5.51547L1.65328 7.49889L3.48182 8.30911ZM3.89091 8.67275L5.52442 7.51877L5.5235 7.51747L3.89091 8.67275ZM4.01818 9.72729L2.15703 8.99509L2.15276 9.00595L2.14861 9.01686L4.01818 9.72729ZM3.67273 10.6364L5.53891 11.3557L5.54229 11.3468L3.67273 10.6364ZM3.85455 12.0727L5.50514 10.9434L5.49404 10.9271L5.48262 10.9111L3.85455 12.0727ZM5.13636 12.7455V10.7455L5.12814 10.7455L5.13636 12.7455ZM8.12727 12.7455V14.7455L8.13287 14.7455L8.12727 12.7455ZM8.44545 12.8909L10.0624 11.7138L10.0146 11.6482L9.9616 11.5866L8.44545 12.8909ZM8.52727 13.2273L10.4953 13.5837L10.5001 13.557L10.5042 13.5302L8.52727 13.2273ZM19.0909 -1.99998H12.7273V2.00002H19.0909V-1.99998ZM12.7355 -1.99996C11.7457 -2.00402 10.7861 -1.6599 10.0244 -1.02783L12.5789 2.05028C12.6182 2.01759 12.6679 1.99979 12.7191 2L12.7355 -1.99996ZM10.0244 -1.02783C9.26275 -0.395753 8.74762 0.484025 8.56915 1.45756L12.5036 2.17884C12.5128 2.12848 12.5395 2.08298 12.5789 2.05028L10.0244 -1.02783ZM8.56875 1.45974L7.73239 6.05065L11.6676 6.76757L12.504 2.17666L8.56875 1.45974ZM7.73188 6.05343C7.62196 6.66167 7.64705 7.28664 7.80538 7.88412L11.6719 6.85948C11.6637 6.82858 11.6624 6.79625 11.6681 6.76479L7.73188 6.05343ZM7.80538 7.88412C7.96371 8.48159 8.25141 9.03697 8.64813 9.51095L11.7155 6.94363C11.695 6.91912 11.6801 6.89039 11.6719 6.85948L7.80538 7.88412ZM8.65129 9.51472C9.04789 9.98621 9.54236 10.3657 10.1004 10.6269L11.7961 7.00416C11.7639 6.98906 11.7353 6.96712 11.7123 6.93986L8.65129 9.51472ZM10.1004 10.6269C10.6584 10.8881 11.2665 11.0247 11.8826 11.0273L11.8992 7.02731C11.8636 7.02716 11.8284 7.01926 11.7961 7.00416L10.1004 10.6269ZM11.8909 11.0273H14.5455V7.02729H11.8909V11.0273ZM12.6751 8.31884L12.4479 8.91884L16.1885 10.3357L16.4158 9.73575L12.6751 8.31884ZM12.4468 8.92153C12.1658 9.66665 12.0682 10.4684 12.1623 11.2592L16.1343 10.7869C16.116 10.6334 16.135 10.4777 16.1895 10.3331L12.4468 8.92153ZM12.1623 11.2592C12.2563 12.05 12.5392 12.8065 12.9871 13.465L16.2944 11.2151C16.2075 11.0873 16.1525 10.9404 16.1343 10.7869L12.1623 11.2592ZM12.9871 13.465C13.435 14.1234 14.0348 14.6644 14.7358 15.0423L16.6339 11.5213C16.4978 11.448 16.3814 11.3429 16.2944 11.2151L12.9871 13.465ZM14.7358 15.0423C15.4368 15.4202 16.2184 15.6239 17.0146 15.6361L17.0763 11.6366C16.9217 11.6342 16.77 11.5947 16.6339 11.5213L14.7358 15.0423ZM17.0297 15.6363C17.5942 15.6408 18.1478 15.4809 18.6231 15.1761L16.4637 11.809C16.6419 11.6947 16.8496 11.6348 17.0613 11.6364L17.0297 15.6363ZM18.6231 15.1761C19.0983 14.8713 19.4746 14.4349 19.706 13.92L16.0576 12.2801C16.1444 12.087 16.2855 11.9233 16.4637 11.809L18.6231 15.1761ZM19.7106 13.9096L21.747 9.30961L18.0894 7.69043L16.053 12.2904L19.7106 13.9096ZM21.7333 9.3399C21.8817 9.01923 21.9704 8.6742 21.9951 8.32172L18.0049 8.04195C18.0142 7.90977 18.0474 7.78039 18.1031 7.66014L21.7333 9.3399ZM22 8.18184V0.90911H18V8.18184H22ZM22 0.90911C22 0.137575 21.6935 -0.602365 21.1479 -1.14793L18.3195 1.6805C18.1149 1.47591 18 1.19843 18 0.90911H22ZM21.1479 -1.14793C20.6024 -1.69349 19.8624 -1.99998 19.0909 -1.99998V2.00002C18.8016 2.00002 18.5241 1.88509 18.3195 1.6805L21.1479 -1.14793ZM16.3533 7.12616L14.6896 10.8807L18.3467 12.5012L20.0104 8.7466L16.3533 7.12616ZM17.4741 9.93415C17.5803 9.99194 17.6718 10.0733 17.7417 10.172L14.4765 12.4826C14.7599 12.883 15.1313 13.2132 15.5623 13.4477L17.4741 9.93415ZM17.7426 10.1733C17.827 10.2927 17.8803 10.4313 17.8978 10.5765L13.9267 11.0557C13.9886 11.5691 14.1772 12.059 14.4756 12.4813L17.7426 10.1733ZM17.8978 10.5765C17.9154 10.7216 17.8965 10.8689 17.843 11.005L14.1207 9.54054C13.9314 10.0217 13.8647 10.5424 13.9267 11.0557L17.8978 10.5765ZM17.8514 10.9832L18.1968 10.0741L14.4577 8.65322L14.1123 9.56231L17.8514 10.9832ZM18.1934 10.083C18.4033 9.53845 18.4748 8.95036 18.4016 8.3714L14.4332 8.87372C14.4234 8.79613 14.433 8.71731 14.4611 8.64433L18.1934 10.083ZM18.4016 8.3714C18.3283 7.79244 18.1125 7.24072 17.7735 6.76566L14.5174 9.08892C14.472 9.02525 14.443 8.95131 14.4332 8.87372L18.4016 8.3714ZM17.7798 6.7745C17.4482 6.30443 17.0073 5.92209 16.4949 5.66048L14.6758 9.22291C14.6102 9.18937 14.5536 9.14035 14.5111 9.08008L17.7798 6.7745ZM16.4949 5.66048C15.9826 5.39888 15.4144 5.26585 14.8392 5.2729L14.8881 9.2726C14.8144 9.2735 14.7415 9.25644 14.6758 9.22291L16.4949 5.66048ZM14.8636 5.27275H11.8727V9.27275H14.8636V5.27275ZM11.8671 5.27275C12.0956 5.27211 12.3214 5.32096 12.5292 5.41594L10.8662 9.05384C11.1838 9.19904 11.5291 9.27372 11.8783 9.27274L11.8671 5.27275ZM12.5292 5.41594C12.737 5.51092 12.9217 5.64977 13.0707 5.82295L10.0384 8.43163C10.2662 8.69638 10.5486 8.90865 10.8662 9.05384L12.5292 5.41594ZM13.1715 5.9502C13.4114 6.2798 13.5114 6.69085 13.4497 7.09384L9.4958 6.48802C9.39773 7.12805 9.55654 7.7809 9.93762 8.30438L13.1715 5.9502ZM13.4397 7.15285L14.2761 2.6074L10.3421 1.88355L9.50575 6.429L13.4397 7.15285ZM14.3043 2.10682C14.3199 2.3322 14.2877 2.55833 14.2097 2.77033L10.4558 1.38886C10.3388 1.70687 10.2904 2.04606 10.3139 2.38413L14.3043 2.10682ZM14.2097 2.77033C14.1317 2.98233 14.0096 3.17542 13.8516 3.33688L10.9929 0.539031C10.7559 0.78122 10.5728 1.07085 10.4558 1.38886L14.2097 2.77033ZM13.8516 3.33688C13.6936 3.49834 13.5032 3.6245 13.2929 3.70706L11.831 -0.0162351C11.5156 0.107611 11.23 0.29685 10.9929 0.539031L13.8516 3.33688ZM13.2929 3.70706C13.0826 3.78962 12.8572 3.82672 12.6316 3.81591L12.823 -0.179508C12.4845 -0.195726 12.1464 -0.140082 11.831 -0.0162351L13.2929 3.70706ZM12.7273 3.8182H18.1818V-0.181799H12.7273V3.8182ZM16.1818 1.8182V7.93638H20.1818V1.8182H16.1818ZM8.12727 8.95456H5.5V12.9546H8.12727V8.95456ZM7.37032 11.663L7.59759 11.063L3.85695 9.64611L3.62968 10.2461L7.37032 11.663ZM7.60328 11.0478C7.88024 10.2984 7.97217 9.4931 7.87128 8.7005L3.9033 9.2056C3.92288 9.35948 3.90504 9.51581 3.85127 9.66131L7.60328 11.0478ZM7.87128 8.7005C7.77038 7.90789 7.47964 7.15135 7.02375 6.49518L3.73876 8.77746C3.82727 8.90485 3.88371 9.05172 3.9033 9.2056L7.87128 8.7005ZM7.02375 6.49518C6.56786 5.839 5.96031 5.30257 5.25271 4.93148L3.39493 8.47388C3.5323 8.54593 3.65025 8.65007 3.73876 8.77746L7.02375 6.49518ZM5.25271 4.93148C4.54511 4.56038 3.75839 4.36559 2.95938 4.36366L2.94971 8.36365C3.10482 8.36403 3.25756 8.40184 3.39493 8.47388L5.25271 4.93148ZM2.97035 4.36372C2.40581 4.35926 1.85217 4.51916 1.37694 4.82393L3.53627 8.19102C3.35806 8.3053 3.15045 8.36527 2.93874 8.36359L2.97035 4.36372ZM1.37694 4.82393C0.901715 5.12869 0.525433 5.56515 0.293983 6.08008L3.94238 7.71996C3.85559 7.91306 3.71448 8.07673 3.53627 8.19102L1.37694 4.82393ZM0.289368 6.09043L-1.747 10.6904L1.91063 12.3096L3.947 7.70961L0.289368 6.09043ZM-1.73796 10.6703C-1.90467 11.036 -1.99381 11.4322 -1.99978 11.834L1.99978 11.8934C1.99754 12.044 1.96411 12.1926 1.9016 12.3297L-1.73796 10.6703ZM-2 11.8637V19.1364H2V11.8637H-2ZM-2 19.1364C-2 19.9079 -1.69351 20.6479 -1.14795 21.1934L1.68048 18.365C1.88507 18.5696 2 18.8471 2 19.1364H-2ZM-1.14795 21.1934C-0.602384 21.739 0.137556 22.0455 0.909091 22.0455V18.0455C1.19841 18.0455 1.47589 18.1604 1.68048 18.365L-1.14795 21.1934ZM0.909091 22.0455H7.27273V18.0455H0.909091V22.0455ZM7.26453 22.0455C8.25429 22.0495 9.21395 21.7054 9.9756 21.0733L7.42115 17.9952C7.38175 18.0279 7.33212 18.0457 7.28092 18.0455L7.26453 22.0455ZM9.9756 21.0733C10.7373 20.4412 11.2524 19.5615 11.4309 18.5879L7.49642 17.8667C7.48719 17.917 7.46054 17.9625 7.42115 17.9952L9.9756 21.0733ZM11.4306 18.5892L12.267 14.0438L8.33302 13.3199L7.49666 17.8654L11.4306 18.5892ZM12.2681 14.0375C12.378 13.4293 12.3529 12.8043 12.1946 12.2068L8.32808 13.2315C8.33627 13.2624 8.33757 13.2947 8.33188 13.3262L12.2681 14.0375ZM12.1946 12.2068C12.0363 11.6094 11.7486 11.054 11.3519 10.58L8.28449 13.1473C8.30501 13.1718 8.31989 13.2006 8.32808 13.2315L12.1946 12.2068ZM11.4274 10.676C11.0547 10.171 10.5747 9.75495 10.0219 9.45774L8.12771 12.9808C8.15967 12.998 8.18742 13.0221 8.20897 13.0513L11.4274 10.676ZM10.0219 9.45774C9.46904 9.16053 8.85721 8.98959 8.23041 8.95722L8.02414 12.9519C8.06038 12.9538 8.09575 12.9637 8.12771 12.9808L10.0219 9.45774ZM5.71584 17.5306C5.77828 17.1389 5.98399 16.7844 6.29308 16.5358L8.80012 19.6526C9.26375 19.2797 9.57232 18.7479 9.66598 18.1603L5.71584 17.5306ZM6.29308 16.5358C6.60217 16.2872 6.99258 16.1622 7.38857 16.1852L7.15688 20.1785C7.75087 20.2129 8.33649 20.0255 8.80012 19.6526L6.29308 16.5358ZM7.27273 16.1818H1.81818V20.1818H7.27273V16.1818ZM3.81818 18.1818V12.0637H-0.181818V18.1818H3.81818ZM3.64672 12.8739L5.31035 9.11933L1.65328 7.49889L-0.010353 11.2534L3.64672 12.8739ZM2.52592 10.0659C2.41971 10.0081 2.32817 9.92672 2.25832 9.82802L5.5235 7.51747C5.2401 7.11699 4.86866 6.78682 4.43772 6.55233L2.52592 10.0659ZM2.2574 9.82672C2.17303 9.70729 2.11969 9.56875 2.10217 9.42358L6.07335 8.9443C6.01139 8.43096 5.82276 7.94109 5.52442 7.51877L2.2574 9.82672ZM2.10217 9.42358C2.08464 9.27841 2.1035 9.13116 2.15703 8.99509L5.87933 10.4595C6.06863 9.97833 6.1353 9.45764 6.07335 8.9443L2.10217 9.42358ZM2.14861 9.01686L1.80316 9.92595L5.54229 11.3468L5.88775 10.4377L2.14861 9.01686ZM1.80656 9.91706C1.59667 10.4616 1.52517 11.0497 1.59845 11.6286L5.56678 11.1263C5.57661 11.2039 5.56702 11.2827 5.53889 11.3557L1.80656 9.91706ZM1.59845 11.6286C1.67174 12.2076 1.88752 12.7593 2.22647 13.2344L5.48262 10.9111C5.52804 10.9748 5.55696 11.0487 5.56678 11.1263L1.59845 11.6286ZM2.20395 13.2021C2.53086 13.6799 2.96979 14.0704 3.48239 14.3394L5.34124 10.7975C5.40696 10.832 5.46323 10.8821 5.50514 10.9434L2.20395 13.2021ZM3.48239 14.3394C3.995 14.6084 4.56568 14.7478 5.14459 14.7455L5.12814 10.7455C5.20236 10.7452 5.27552 10.7631 5.34124 10.7975L3.48239 14.3394ZM5.13636 14.7455H8.12727V10.7455H5.13636V14.7455ZM8.13287 14.7455C7.90444 14.7461 7.67856 14.6973 7.47079 14.6023L9.13383 10.9644C8.8162 10.8192 8.4709 10.7445 8.12168 10.7455L8.13287 14.7455ZM7.47079 14.6023C7.26302 14.5073 7.07829 14.3684 6.92931 14.1953L9.9616 11.5866C9.73385 11.3218 9.45145 11.1096 9.13383 10.9644L7.47079 14.6023ZM6.82853 14.068C6.58859 13.7384 6.4886 13.3274 6.55034 12.9244L10.5042 13.5302C10.6023 12.8902 10.4435 12.2373 10.0624 11.7138L6.82853 14.068ZM6.55929 12.8709L5.72292 17.4891L9.6589 18.2019L10.4953 13.5837L6.55929 12.8709Z" fill="white" mask="url(#path-1-inside-1_142_1883)"/>
</svg>
