<svg width="23" height="22" viewBox="0 0 23 22" fill="none" xmlns="http://www.w3.org/2000/svg">
<path d="M13.7778 1L21.5556 8.77778M13.7778 8.77778L21.5556 1M1.55556 4.88889C1.55556 5.39959 1.65614 5.90528 1.85158 6.3771C2.04701 6.84892 2.33347 7.27763 2.69458 7.63875C3.0557 7.99987 3.48441 8.28632 3.95623 8.48175C4.42805 8.67719 4.93375 8.77778 5.44444 8.77778C5.95514 8.77778 6.46084 8.67719 6.93266 8.48175C7.40448 8.28632 7.83319 7.99987 8.1943 7.63875C8.55542 7.27763 8.84187 6.84892 9.03731 6.3771C9.23274 5.90528 9.33333 5.39959 9.33333 4.88889C9.33333 4.37819 9.23274 3.8725 9.03731 3.40068C8.84187 2.92885 8.55542 2.50015 8.1943 2.13903C7.83319 1.77791 7.40448 1.49146 6.93266 1.29602C6.46084 1.10059 5.95514 1 5.44444 1C4.93375 1 4.42805 1.10059 3.95623 1.29602C3.48441 1.49146 3.0557 1.77791 2.69458 2.13903C2.33347 2.50015 2.04701 2.92885 1.85158 3.40068C1.65614 3.8725 1.55556 4.37819 1.55556 4.88889ZM1 21H9.88889L5.44444 13.2222L1 21ZM13.7778 13.2222H21.5556V21H13.7778V13.2222Z" stroke="white" stroke-width="2" stroke-linecap="round" stroke-linejoin="round"/>
</svg>
