<svg width="350" height="550" viewBox="0 0 350 550" fill="none" xmlns="http://www.w3.org/2000/svg">
<g filter="url(#filter0_d_142_1516)">
<circle cx="175" cy="114" r="50" fill="#2F88FF"/>
</g>
<path d="M200 104.897C200 104.897 189.279 103.613 186.833 104.897C184.386 106.181 186.833 122.669 186.833 122.669L177.291 132.233C176.423 133.1 175.022 133.1 174.132 132.233L150.644 108.7C149.732 107.788 149.799 106.298 150.778 105.431C157.428 99.5588 166.147 96 175.711 96C184.964 96 193.439 99.3586 200 104.897ZM193.505 127.139C192.282 127.139 191.281 128.14 191.281 129.364C191.281 130.587 192.282 131.588 193.505 131.588C194.729 131.588 195.729 130.587 195.729 129.364C195.729 128.14 194.729 127.139 193.505 127.139ZM193.505 109.345C192.282 109.345 191.281 110.346 191.281 111.57V120.467C191.281 121.69 192.282 122.691 193.505 122.691C194.729 122.691 195.729 121.69 195.729 120.467V111.57C195.729 110.346 194.729 109.345 193.505 109.345Z" fill="white"/>
<path d="M41.1543 512.266C39.7576 512.266 38.5561 511.97 37.5499 511.379C36.5497 510.781 35.7803 509.952 35.2417 508.893C34.709 507.833 34.4427 506.614 34.4427 505.235C34.4427 503.838 34.712 502.613 35.2506 501.56C35.7951 500.5 36.5675 499.675 37.5677 499.083C38.5679 498.485 39.7576 498.186 41.1366 498.186C42.3262 498.186 43.3679 498.402 44.2616 498.834C45.1553 499.266 45.8626 499.873 46.3834 500.654C46.9042 501.435 47.1913 502.353 47.2445 503.406H43.6756C43.575 502.726 43.3087 502.178 42.8766 501.764C42.4505 501.344 41.8912 501.134 41.1987 501.134C40.6128 501.134 40.1008 501.293 39.6629 501.613C39.2308 501.927 38.8935 502.385 38.6508 502.989C38.4081 503.593 38.2868 504.324 38.2868 505.182C38.2868 506.052 38.4052 506.792 38.6419 507.401C38.8846 508.011 39.2249 508.475 39.6629 508.795C40.1008 509.115 40.6128 509.275 41.1987 509.275C41.6308 509.275 42.0185 509.186 42.3617 509.008C42.7109 508.831 42.998 508.573 43.2229 508.236C43.4537 507.893 43.6046 507.481 43.6756 507.002H47.2445C47.1854 508.043 46.9013 508.961 46.3923 509.754C45.8892 510.541 45.1938 511.157 44.306 511.6C43.4182 512.044 42.3676 512.266 41.1543 512.266ZM55.8272 512.266C54.4482 512.266 53.2556 511.973 52.2494 511.387C51.2492 510.796 50.4768 509.973 49.9323 508.919C49.3878 507.86 49.1155 506.632 49.1155 505.235C49.1155 503.826 49.3878 502.595 49.9323 501.542C50.4768 500.482 51.2492 499.66 52.2494 499.074C53.2556 498.482 54.4482 498.186 55.8272 498.186C57.2062 498.186 58.3958 498.482 59.3961 499.074C60.4022 499.66 61.1776 500.482 61.7221 501.542C62.2666 502.595 62.5388 503.826 62.5388 505.235C62.5388 506.632 62.2666 507.86 61.7221 508.919C61.1776 509.973 60.4022 510.796 59.3961 511.387C58.3958 511.973 57.2062 512.266 55.8272 512.266ZM55.8449 509.337C56.4723 509.337 56.9961 509.159 57.4163 508.804C57.8365 508.443 58.1532 507.952 58.3663 507.33C58.5852 506.709 58.6947 506.002 58.6947 505.208C58.6947 504.415 58.5852 503.708 58.3663 503.087C58.1532 502.465 57.8365 501.974 57.4163 501.613C56.9961 501.252 56.4723 501.071 55.8449 501.071C55.2117 501.071 54.679 501.252 54.2469 501.613C53.8208 501.974 53.4982 502.465 53.2793 503.087C53.0662 503.708 52.9597 504.415 52.9597 505.208C52.9597 506.002 53.0662 506.709 53.2793 507.33C53.4982 507.952 53.8208 508.443 54.2469 508.804C54.679 509.159 55.2117 509.337 55.8449 509.337ZM68.78 504.116V512H64.998V498.364H68.6024V500.77H68.7622C69.0641 499.976 69.5701 499.349 70.2803 498.887C70.9905 498.42 71.8517 498.186 72.8638 498.186C73.8107 498.186 74.6364 498.393 75.3407 498.808C76.045 499.222 76.5925 499.814 76.9831 500.583C77.3737 501.347 77.569 502.258 77.569 503.317V512H73.7871V503.992C73.793 503.158 73.5799 502.507 73.1479 502.039C72.7158 501.566 72.121 501.329 71.3634 501.329C70.8544 501.329 70.4046 501.438 70.014 501.657C69.6293 501.876 69.3274 502.196 69.1084 502.616C68.8954 503.03 68.7859 503.531 68.78 504.116ZM84.3317 504.116V512H80.5498V498.364H84.1542V500.77H84.314C84.6158 499.976 85.1218 499.349 85.8321 498.887C86.5423 498.42 87.4035 498.186 88.4155 498.186C89.3625 498.186 90.1881 498.393 90.8924 498.808C91.5968 499.222 92.1442 499.814 92.5348 500.583C92.9255 501.347 93.1208 502.258 93.1208 503.317V512H89.3388V503.992C89.3447 503.158 89.1317 502.507 88.6996 502.039C88.2676 501.566 87.6727 501.329 86.9152 501.329C86.4062 501.329 85.9564 501.438 85.5657 501.657C85.181 501.876 84.8792 502.196 84.6602 502.616C84.4471 503.03 84.3376 503.531 84.3317 504.116ZM102.316 512.266C100.913 512.266 99.7059 511.982 98.6938 511.414C97.6877 510.84 96.9124 510.029 96.3679 508.982C95.8233 507.928 95.5511 506.682 95.5511 505.244C95.5511 503.841 95.8233 502.61 96.3679 501.551C96.9124 500.491 97.6788 499.666 98.6672 499.074C99.6615 498.482 100.827 498.186 102.165 498.186C103.065 498.186 103.902 498.331 104.678 498.621C105.459 498.905 106.139 499.334 106.719 499.908C107.305 500.482 107.761 501.205 108.087 502.075C108.412 502.939 108.575 503.951 108.575 505.111V506.15H97.0603V503.806H105.015C105.015 503.261 104.896 502.779 104.66 502.359C104.423 501.938 104.095 501.61 103.674 501.373C103.26 501.131 102.778 501.009 102.227 501.009C101.653 501.009 101.144 501.142 100.7 501.409C100.262 501.669 99.919 502.021 99.6704 502.465C99.4218 502.903 99.2946 503.391 99.2887 503.93V506.158C99.2887 506.833 99.413 507.416 99.6615 507.907C99.916 508.399 100.274 508.777 100.736 509.044C101.197 509.31 101.745 509.443 102.378 509.443C102.798 509.443 103.183 509.384 103.532 509.266C103.881 509.147 104.18 508.97 104.429 508.733C104.678 508.496 104.867 508.206 104.997 507.863L108.495 508.094C108.317 508.934 107.953 509.668 107.403 510.295C106.859 510.917 106.154 511.402 105.29 511.751C104.432 512.095 103.441 512.266 102.316 512.266ZM117.204 512.266C115.807 512.266 114.606 511.97 113.6 511.379C112.6 510.781 111.83 509.952 111.292 508.893C110.759 507.833 110.492 506.614 110.492 505.235C110.492 503.838 110.762 502.613 111.3 501.56C111.845 500.5 112.617 499.675 113.617 499.083C114.618 498.485 115.807 498.186 117.186 498.186C118.376 498.186 119.418 498.402 120.311 498.834C121.205 499.266 121.912 499.873 122.433 500.654C122.954 501.435 123.241 502.353 123.294 503.406H119.725C119.625 502.726 119.359 502.178 118.926 501.764C118.5 501.344 117.941 501.134 117.249 501.134C116.663 501.134 116.151 501.293 115.713 501.613C115.281 501.927 114.943 502.385 114.701 502.989C114.458 503.593 114.337 504.324 114.337 505.182C114.337 506.052 114.455 506.792 114.692 507.401C114.934 508.011 115.275 508.475 115.713 508.795C116.151 509.115 116.663 509.275 117.249 509.275C117.681 509.275 118.068 509.186 118.412 509.008C118.761 508.831 119.048 508.573 119.273 508.236C119.504 507.893 119.654 507.481 119.725 507.002H123.294C123.235 508.043 122.951 508.961 122.442 509.754C121.939 510.541 121.244 511.157 120.356 511.6C119.468 512.044 118.417 512.266 117.204 512.266ZM132.969 498.364V501.205H124.757V498.364H132.969ZM126.621 495.097H130.403V507.81C130.403 508.159 130.457 508.431 130.563 508.626C130.67 508.816 130.818 508.949 131.007 509.026C131.202 509.103 131.427 509.141 131.682 509.141C131.859 509.141 132.037 509.127 132.214 509.097C132.392 509.061 132.528 509.035 132.623 509.017L133.218 511.831C133.028 511.891 132.762 511.959 132.419 512.036C132.075 512.118 131.658 512.169 131.167 512.186C130.255 512.222 129.456 512.101 128.77 511.822C128.089 511.544 127.559 511.112 127.181 510.526C126.802 509.94 126.615 509.201 126.621 508.307V495.097ZM135.433 512V498.364H139.215V512H135.433ZM137.332 496.606C136.77 496.606 136.288 496.419 135.885 496.047C135.489 495.668 135.291 495.215 135.291 494.688C135.291 494.167 135.489 493.721 135.885 493.348C136.288 492.969 136.77 492.779 137.332 492.779C137.895 492.779 138.374 492.969 138.771 493.348C139.173 493.721 139.374 494.167 139.374 494.688C139.374 495.215 139.173 495.668 138.771 496.047C138.374 496.419 137.895 496.606 137.332 496.606ZM148.405 512.266C147.026 512.266 145.834 511.973 144.828 511.387C143.827 510.796 143.055 509.973 142.51 508.919C141.966 507.86 141.694 506.632 141.694 505.235C141.694 503.826 141.966 502.595 142.51 501.542C143.055 500.482 143.827 499.66 144.828 499.074C145.834 498.482 147.026 498.186 148.405 498.186C149.784 498.186 150.974 498.482 151.974 499.074C152.98 499.66 153.756 500.482 154.3 501.542C154.845 502.595 155.117 503.826 155.117 505.235C155.117 506.632 154.845 507.86 154.3 508.919C153.756 509.973 152.98 510.796 151.974 511.387C150.974 511.973 149.784 512.266 148.405 512.266ZM148.423 509.337C149.05 509.337 149.574 509.159 149.994 508.804C150.415 508.443 150.731 507.952 150.944 507.33C151.163 506.709 151.273 506.002 151.273 505.208C151.273 504.415 151.163 503.708 150.944 503.087C150.731 502.465 150.415 501.974 149.994 501.613C149.574 501.252 149.05 501.071 148.423 501.071C147.79 501.071 147.257 501.252 146.825 501.613C146.399 501.974 146.076 502.465 145.857 503.087C145.644 503.708 145.538 504.415 145.538 505.208C145.538 506.002 145.644 506.709 145.857 507.33C146.076 507.952 146.399 508.443 146.825 508.804C147.257 509.159 147.79 509.337 148.423 509.337ZM161.358 504.116V512H157.576V498.364H161.181V500.77H161.34C161.642 499.976 162.148 499.349 162.858 498.887C163.569 498.42 164.43 498.186 165.442 498.186C166.389 498.186 167.215 498.393 167.919 498.808C168.623 499.222 169.171 499.814 169.561 500.583C169.952 501.347 170.147 502.258 170.147 503.317V512H166.365V503.992C166.371 503.158 166.158 502.507 165.726 502.039C165.294 501.566 164.699 501.329 163.942 501.329C163.433 501.329 162.983 501.438 162.592 501.657C162.207 501.876 161.906 502.196 161.687 502.616C161.473 503.03 161.364 503.531 161.358 504.116ZM178.914 512V498.364H182.696V512H178.914ZM180.814 496.606C180.252 496.606 179.769 496.419 179.367 496.047C178.97 495.668 178.772 495.215 178.772 494.688C178.772 494.167 178.97 493.721 179.367 493.348C179.769 492.969 180.252 492.779 180.814 492.779C181.376 492.779 181.856 492.969 182.252 493.348C182.655 493.721 182.856 494.167 182.856 494.688C182.856 495.215 182.655 495.668 182.252 496.047C181.856 496.419 181.376 496.606 180.814 496.606ZM189.508 504.116V512H185.726V498.364H189.33V500.77H189.49C189.792 499.976 190.298 499.349 191.008 498.887C191.718 498.42 192.579 498.186 193.591 498.186C194.538 498.186 195.364 498.393 196.068 498.808C196.773 499.222 197.32 499.814 197.711 500.583C198.101 501.347 198.297 502.258 198.297 503.317V512H194.515V503.992C194.521 503.158 194.307 502.507 193.875 502.039C193.443 501.566 192.849 501.329 192.091 501.329C191.582 501.329 191.132 501.438 190.742 501.657C190.357 501.876 190.055 502.196 189.836 502.616C189.623 503.03 189.513 503.531 189.508 504.116ZM208.53 498.364V501.205H200.318V498.364H208.53ZM202.183 495.097H205.965V507.81C205.965 508.159 206.018 508.431 206.125 508.626C206.231 508.816 206.379 508.949 206.568 509.026C206.764 509.103 206.989 509.141 207.243 509.141C207.421 509.141 207.598 509.127 207.776 509.097C207.953 509.061 208.09 509.035 208.184 509.017L208.779 511.831C208.59 511.891 208.323 511.959 207.98 512.036C207.637 512.118 207.22 512.169 206.728 512.186C205.817 512.222 205.018 512.101 204.331 511.822C203.651 511.544 203.121 511.112 202.742 510.526C202.363 509.94 202.177 509.201 202.183 508.307V495.097ZM217.062 512.266C215.659 512.266 214.452 511.982 213.44 511.414C212.434 510.84 211.658 510.029 211.114 508.982C210.569 507.928 210.297 506.682 210.297 505.244C210.297 503.841 210.569 502.61 211.114 501.551C211.658 500.491 212.425 499.666 213.413 499.074C214.408 498.482 215.574 498.186 216.911 498.186C217.811 498.186 218.648 498.331 219.424 498.621C220.205 498.905 220.885 499.334 221.466 499.908C222.051 500.482 222.507 501.205 222.833 502.075C223.158 502.939 223.321 503.951 223.321 505.111V506.15H211.806V503.806H219.761C219.761 503.261 219.643 502.779 219.406 502.359C219.169 501.938 218.841 501.61 218.42 501.373C218.006 501.131 217.524 501.009 216.973 501.009C216.399 501.009 215.89 501.142 215.446 501.409C215.008 501.669 214.665 502.021 214.417 502.465C214.168 502.903 214.041 503.391 214.035 503.93V506.158C214.035 506.833 214.159 507.416 214.408 507.907C214.662 508.399 215.02 508.777 215.482 509.044C215.943 509.31 216.491 509.443 217.124 509.443C217.544 509.443 217.929 509.384 218.278 509.266C218.628 509.147 218.926 508.97 219.175 508.733C219.424 508.496 219.613 508.206 219.743 507.863L223.241 508.094C223.064 508.934 222.7 509.668 222.149 510.295C221.605 510.917 220.9 511.402 220.036 511.751C219.178 512.095 218.187 512.266 217.062 512.266ZM225.789 512V498.364H229.456V500.743H229.598C229.846 499.897 230.263 499.257 230.849 498.825C231.435 498.387 232.11 498.168 232.874 498.168C233.063 498.168 233.267 498.18 233.486 498.204C233.705 498.228 233.897 498.26 234.063 498.301V501.657C233.886 501.604 233.64 501.557 233.326 501.515C233.013 501.474 232.726 501.453 232.465 501.453C231.909 501.453 231.412 501.574 230.974 501.817C230.542 502.054 230.198 502.385 229.944 502.811C229.695 503.238 229.571 503.729 229.571 504.285V512H225.789ZM236.019 512V498.364H239.685V500.743H239.827C240.076 499.897 240.493 499.257 241.079 498.825C241.665 498.387 242.34 498.168 243.103 498.168C243.292 498.168 243.497 498.18 243.716 498.204C243.935 498.228 244.127 498.26 244.293 498.301V501.657C244.115 501.604 243.869 501.557 243.556 501.515C243.242 501.474 242.955 501.453 242.695 501.453C242.138 501.453 241.641 501.574 241.203 501.817C240.771 502.054 240.428 502.385 240.173 502.811C239.925 503.238 239.8 503.729 239.8 504.285V512H236.019ZM254.993 506.194V498.364H258.775V512H255.144V509.523H255.002C254.694 510.322 254.182 510.964 253.466 511.45C252.755 511.935 251.888 512.178 250.864 512.178C249.953 512.178 249.151 511.97 248.459 511.556C247.766 511.142 247.225 510.553 246.834 509.789C246.449 509.026 246.254 508.112 246.248 507.046V498.364H250.03V506.371C250.036 507.176 250.252 507.813 250.678 508.28C251.104 508.748 251.675 508.982 252.391 508.982C252.847 508.982 253.273 508.878 253.67 508.671C254.066 508.458 254.386 508.144 254.629 507.73C254.877 507.315 254.999 506.804 254.993 506.194ZM261.8 517.114V498.364H265.528V500.654H265.697C265.863 500.287 266.103 499.914 266.416 499.536C266.736 499.151 267.15 498.831 267.659 498.577C268.174 498.316 268.813 498.186 269.577 498.186C270.571 498.186 271.488 498.446 272.329 498.967C273.169 499.482 273.841 500.261 274.344 501.302C274.847 502.338 275.099 503.637 275.099 505.2C275.099 506.721 274.853 508.005 274.362 509.053C273.877 510.094 273.214 510.884 272.373 511.423C271.539 511.956 270.604 512.222 269.568 512.222C268.834 512.222 268.21 512.101 267.695 511.858C267.186 511.615 266.768 511.31 266.443 510.944C266.117 510.571 265.869 510.195 265.697 509.816H265.582V517.114H261.8ZM265.502 505.182C265.502 505.993 265.614 506.7 265.839 507.304C266.064 507.907 266.39 508.378 266.816 508.715C267.242 509.047 267.76 509.212 268.369 509.212C268.985 509.212 269.506 509.044 269.932 508.706C270.358 508.363 270.681 507.89 270.9 507.286C271.124 506.676 271.237 505.975 271.237 505.182C271.237 504.395 271.127 503.702 270.908 503.104C270.689 502.507 270.367 502.039 269.941 501.702C269.515 501.364 268.991 501.196 268.369 501.196C267.754 501.196 267.233 501.358 266.807 501.684C266.387 502.009 266.064 502.471 265.839 503.069C265.614 503.667 265.502 504.371 265.502 505.182ZM284.873 498.364V501.205H276.661V498.364H284.873ZM278.526 495.097H282.308V507.81C282.308 508.159 282.361 508.431 282.467 508.626C282.574 508.816 282.722 508.949 282.911 509.026C283.107 509.103 283.331 509.141 283.586 509.141C283.764 509.141 283.941 509.127 284.119 509.097C284.296 509.061 284.432 509.035 284.527 509.017L285.122 511.831C284.932 511.891 284.666 511.959 284.323 512.036C283.98 512.118 283.562 512.169 283.071 512.186C282.16 512.222 281.361 512.101 280.674 511.822C279.993 511.544 279.464 511.112 279.085 510.526C278.706 509.94 278.52 509.201 278.526 508.307V495.097ZM293.405 512.266C292.002 512.266 290.795 511.982 289.783 511.414C288.777 510.84 288.001 510.029 287.457 508.982C286.912 507.928 286.64 506.682 286.64 505.244C286.64 503.841 286.912 502.61 287.457 501.551C288.001 500.491 288.768 499.666 289.756 499.074C290.75 498.482 291.916 498.186 293.254 498.186C294.154 498.186 294.991 498.331 295.766 498.621C296.548 498.905 297.228 499.334 297.808 499.908C298.394 500.482 298.85 501.205 299.175 502.075C299.501 502.939 299.664 503.951 299.664 505.111V506.15H288.149V503.806H296.104C296.104 503.261 295.985 502.779 295.749 502.359C295.512 501.938 295.183 501.61 294.763 501.373C294.349 501.131 293.867 501.009 293.316 501.009C292.742 501.009 292.233 501.142 291.789 501.409C291.351 501.669 291.008 502.021 290.759 502.465C290.511 502.903 290.383 503.391 290.378 503.93V506.158C290.378 506.833 290.502 507.416 290.75 507.907C291.005 508.399 291.363 508.777 291.825 509.044C292.286 509.31 292.834 509.443 293.467 509.443C293.887 509.443 294.272 509.384 294.621 509.266C294.97 509.147 295.269 508.97 295.518 508.733C295.766 508.496 295.956 508.206 296.086 507.863L299.584 508.094C299.406 508.934 299.042 509.668 298.492 510.295C297.947 510.917 297.243 511.402 296.379 511.751C295.521 512.095 294.529 512.266 293.405 512.266ZM307.157 512.222C306.121 512.222 305.183 511.956 304.342 511.423C303.508 510.884 302.845 510.094 302.354 509.053C301.868 508.005 301.626 506.721 301.626 505.2C301.626 503.637 301.877 502.338 302.38 501.302C302.883 500.261 303.552 499.482 304.387 498.967C305.227 498.446 306.148 498.186 307.148 498.186C307.911 498.186 308.548 498.316 309.057 498.577C309.571 498.831 309.986 499.151 310.299 499.536C310.619 499.914 310.862 500.287 311.027 500.654H311.143V493.818H314.916V512H311.187V509.816H311.027C310.85 510.195 310.598 510.571 310.273 510.944C309.953 511.31 309.536 511.615 309.021 511.858C308.512 512.101 307.891 512.222 307.157 512.222ZM308.355 509.212C308.965 509.212 309.48 509.047 309.9 508.715C310.326 508.378 310.652 507.907 310.876 507.304C311.107 506.7 311.223 505.993 311.223 505.182C311.223 504.371 311.11 503.667 310.885 503.069C310.66 502.471 310.335 502.009 309.909 501.684C309.483 501.358 308.965 501.196 308.355 501.196C307.734 501.196 307.21 501.364 306.784 501.702C306.358 502.039 306.035 502.507 305.816 503.104C305.597 503.702 305.488 504.395 305.488 505.182C305.488 505.975 305.597 506.676 305.816 507.286C306.041 507.89 306.364 508.363 306.784 508.706C307.21 509.044 307.734 509.212 308.355 509.212Z" fill="black"/>
<path d="M110.114 541V532.818H112.383V541H110.114ZM111.254 531.763C110.917 531.763 110.627 531.652 110.386 531.428C110.148 531.201 110.029 530.929 110.029 530.613C110.029 530.3 110.148 530.032 110.386 529.809C110.627 529.581 110.917 529.468 111.254 529.468C111.591 529.468 111.879 529.581 112.117 529.809C112.358 530.032 112.479 530.3 112.479 530.613C112.479 530.929 112.358 531.201 112.117 531.428C111.879 531.652 111.591 531.763 111.254 531.763ZM116.47 536.27V541H114.201V532.818H116.364V534.262H116.459C116.641 533.786 116.944 533.409 117.37 533.132C117.796 532.852 118.313 532.712 118.92 532.712C119.489 532.712 119.984 532.836 120.407 533.085C120.829 533.333 121.158 533.688 121.392 534.15C121.626 534.608 121.744 535.155 121.744 535.79V541H119.474V536.195C119.478 535.695 119.35 535.304 119.091 535.023C118.832 534.739 118.475 534.597 118.02 534.597C117.715 534.597 117.445 534.663 117.211 534.794C116.98 534.926 116.799 535.118 116.667 535.37C116.539 535.618 116.474 535.918 116.47 536.27ZM127.884 532.818V534.523H122.957V532.818H127.884ZM124.075 530.858H126.345V538.486C126.345 538.695 126.376 538.859 126.44 538.976C126.504 539.089 126.593 539.169 126.707 539.216C126.824 539.262 126.959 539.285 127.112 539.285C127.218 539.285 127.325 539.276 127.431 539.258C127.538 539.237 127.619 539.221 127.676 539.21L128.033 540.899C127.919 540.934 127.76 540.975 127.554 541.021C127.348 541.071 127.097 541.101 126.803 541.112C126.256 541.133 125.776 541.06 125.364 540.893C124.956 540.727 124.638 540.467 124.411 540.116C124.184 539.764 124.072 539.32 124.075 538.784V530.858ZM133.003 541.16C132.161 541.16 131.437 540.989 130.83 540.648C130.226 540.304 129.761 539.817 129.434 539.189C129.107 538.557 128.944 537.809 128.944 536.946C128.944 536.105 129.107 535.366 129.434 534.73C129.761 534.095 130.221 533.599 130.814 533.244C131.41 532.889 132.11 532.712 132.912 532.712C133.452 532.712 133.955 532.799 134.42 532.973C134.889 533.143 135.297 533.401 135.645 533.745C135.996 534.089 136.27 534.523 136.465 535.045C136.661 535.563 136.758 536.17 136.758 536.866V537.49H129.849V536.083H134.622C134.622 535.757 134.551 535.467 134.409 535.215C134.267 534.963 134.07 534.766 133.818 534.624C133.569 534.478 133.28 534.406 132.95 534.406C132.605 534.406 132.3 534.485 132.033 534.645C131.771 534.801 131.565 535.013 131.416 535.279C131.266 535.542 131.19 535.835 131.186 536.158V537.495C131.186 537.9 131.261 538.25 131.41 538.544C131.563 538.839 131.778 539.066 132.055 539.226C132.332 539.386 132.66 539.466 133.04 539.466C133.292 539.466 133.523 539.43 133.733 539.359C133.942 539.288 134.121 539.182 134.271 539.04C134.42 538.898 134.533 538.724 134.612 538.518L136.71 538.656C136.604 539.161 136.385 539.601 136.055 539.977C135.728 540.35 135.306 540.641 134.787 540.851C134.272 541.057 133.678 541.16 133.003 541.16ZM138.239 541V532.818H140.439V534.246H140.524C140.673 533.738 140.924 533.354 141.275 533.095C141.627 532.832 142.032 532.701 142.49 532.701C142.603 532.701 142.726 532.708 142.857 532.722C142.989 532.737 143.104 532.756 143.204 532.781V534.794C143.097 534.762 142.95 534.734 142.761 534.709C142.573 534.684 142.401 534.672 142.245 534.672C141.911 534.672 141.613 534.745 141.35 534.89C141.091 535.032 140.885 535.231 140.732 535.487C140.583 535.743 140.508 536.037 140.508 536.371V541H138.239ZM146.646 536.27V541H144.377V532.818H146.539V534.262H146.635C146.816 533.786 147.12 533.409 147.546 533.132C147.972 532.852 148.489 532.712 149.096 532.712C149.664 532.712 150.16 532.836 150.582 533.085C151.005 533.333 151.333 533.688 151.568 534.15C151.802 534.608 151.919 535.155 151.919 535.79V541H149.65V536.195C149.654 535.695 149.526 535.304 149.267 535.023C149.007 534.739 148.651 534.597 148.196 534.597C147.891 534.597 147.621 534.663 147.386 534.794C147.155 534.926 146.974 535.118 146.843 535.37C146.715 535.618 146.649 535.918 146.646 536.27ZM157.436 541.16C156.595 541.16 155.87 540.989 155.263 540.648C154.659 540.304 154.194 539.817 153.868 539.189C153.541 538.557 153.378 537.809 153.378 536.946C153.378 536.105 153.541 535.366 153.868 534.73C154.194 534.095 154.654 533.599 155.247 533.244C155.844 532.889 156.543 532.712 157.346 532.712C157.886 532.712 158.388 532.799 158.853 532.973C159.322 533.143 159.731 533.401 160.079 533.745C160.43 534.089 160.704 534.523 160.899 535.045C161.094 535.563 161.192 536.17 161.192 536.866V537.49H154.283V536.083H159.056C159.056 535.757 158.985 535.467 158.843 535.215C158.701 534.963 158.504 534.766 158.251 534.624C158.003 534.478 157.713 534.406 157.383 534.406C157.039 534.406 156.733 534.485 156.467 534.645C156.204 534.801 155.998 535.013 155.849 535.279C155.7 535.542 155.624 535.835 155.62 536.158V537.495C155.62 537.9 155.695 538.25 155.844 538.544C155.996 538.839 156.211 539.066 156.488 539.226C156.765 539.386 157.094 539.466 157.474 539.466C157.726 539.466 157.957 539.43 158.166 539.359C158.376 539.288 158.555 539.182 158.704 539.04C158.853 538.898 158.967 538.724 159.045 538.518L161.144 538.656C161.037 539.161 160.819 539.601 160.489 539.977C160.162 540.35 159.739 540.641 159.221 540.851C158.706 541.057 158.111 541.16 157.436 541.16ZM167.025 532.818V534.523H162.097V532.818H167.025ZM163.216 530.858H165.485V538.486C165.485 538.695 165.517 538.859 165.581 538.976C165.645 539.089 165.734 539.169 165.847 539.216C165.965 539.262 166.099 539.285 166.252 539.285C166.359 539.285 166.465 539.276 166.572 539.258C166.678 539.237 166.76 539.221 166.817 539.21L167.174 540.899C167.06 540.934 166.9 540.975 166.694 541.021C166.488 541.071 166.238 541.101 165.943 541.112C165.396 541.133 164.917 541.06 164.505 540.893C164.097 540.727 163.779 540.467 163.552 540.116C163.324 539.764 163.212 539.32 163.216 538.784V530.858ZM174.244 536.27V541H171.974V532.818H174.137V534.262H174.233C174.414 533.786 174.718 533.409 175.144 533.132C175.57 532.852 176.087 532.712 176.694 532.712C177.262 532.712 177.757 532.836 178.18 533.085C178.603 533.333 178.931 533.688 179.165 534.15C179.4 534.608 179.517 535.155 179.517 535.79V541H177.248V536.195C177.251 535.695 177.124 535.304 176.864 535.023C176.605 534.739 176.248 534.597 175.794 534.597C175.488 534.597 175.218 534.663 174.984 534.794C174.753 534.926 174.572 535.118 174.441 535.37C174.313 535.618 174.247 535.918 174.244 536.27ZM185.002 541.16C184.175 541.16 183.459 540.984 182.856 540.632C182.255 540.277 181.792 539.784 181.465 539.152C181.139 538.516 180.975 537.779 180.975 536.941C180.975 536.096 181.139 535.357 181.465 534.725C181.792 534.089 182.255 533.596 182.856 533.244C183.459 532.889 184.175 532.712 185.002 532.712C185.83 532.712 186.543 532.889 187.144 533.244C187.747 533.596 188.212 534.089 188.539 534.725C188.866 535.357 189.029 536.096 189.029 536.941C189.029 537.779 188.866 538.516 188.539 539.152C188.212 539.784 187.747 540.277 187.144 540.632C186.543 540.984 185.83 541.16 185.002 541.16ZM185.013 539.402C185.389 539.402 185.704 539.295 185.956 539.082C186.208 538.866 186.398 538.571 186.526 538.198C186.657 537.825 186.723 537.401 186.723 536.925C186.723 536.449 186.657 536.025 186.526 535.652C186.398 535.279 186.208 534.984 185.956 534.768C185.704 534.551 185.389 534.443 185.013 534.443C184.633 534.443 184.313 534.551 184.054 534.768C183.798 534.984 183.605 535.279 183.473 535.652C183.346 536.025 183.282 536.449 183.282 536.925C183.282 537.401 183.346 537.825 183.473 538.198C183.605 538.571 183.798 538.866 184.054 539.082C184.313 539.295 184.633 539.402 185.013 539.402ZM194.857 532.818V534.523H189.929V532.818H194.857ZM191.048 530.858H193.317V538.486C193.317 538.695 193.349 538.859 193.413 538.976C193.477 539.089 193.566 539.169 193.679 539.216C193.797 539.262 193.932 539.285 194.084 539.285C194.191 539.285 194.297 539.276 194.404 539.258C194.51 539.237 194.592 539.221 194.649 539.21L195.006 540.899C194.892 540.934 194.732 540.975 194.526 541.021C194.32 541.071 194.07 541.101 193.775 541.112C193.228 541.133 192.749 541.06 192.337 540.893C191.929 540.727 191.611 540.467 191.384 540.116C191.156 539.764 191.044 539.32 191.048 538.784V530.858ZM204.206 532.818V534.523H199.157V532.818H204.206ZM200.312 541V532.227C200.312 531.634 200.428 531.142 200.659 530.751C200.893 530.361 201.213 530.068 201.617 529.873C202.022 529.677 202.482 529.58 202.997 529.58C203.345 529.58 203.663 529.606 203.951 529.659C204.242 529.713 204.458 529.761 204.6 529.803L204.196 531.508C204.107 531.479 203.997 531.453 203.865 531.428C203.738 531.403 203.606 531.391 203.471 531.391C203.137 531.391 202.905 531.469 202.773 531.625C202.642 531.778 202.576 531.993 202.576 532.27V541H200.312ZM208.996 541.16C208.169 541.16 207.453 540.984 206.85 540.632C206.25 540.277 205.786 539.784 205.459 539.152C205.133 538.516 204.969 537.779 204.969 536.941C204.969 536.096 205.133 535.357 205.459 534.725C205.786 534.089 206.25 533.596 206.85 533.244C207.453 532.889 208.169 532.712 208.996 532.712C209.824 532.712 210.538 532.889 211.138 533.244C211.741 533.596 212.207 534.089 212.533 534.725C212.86 535.357 213.023 536.096 213.023 536.941C213.023 537.779 212.86 538.516 212.533 539.152C212.207 539.784 211.741 540.277 211.138 540.632C210.538 540.984 209.824 541.16 208.996 541.16ZM209.007 539.402C209.383 539.402 209.698 539.295 209.95 539.082C210.202 538.866 210.392 538.571 210.52 538.198C210.651 537.825 210.717 537.401 210.717 536.925C210.717 536.449 210.651 536.025 210.52 535.652C210.392 535.279 210.202 534.984 209.95 534.768C209.698 534.551 209.383 534.443 209.007 534.443C208.627 534.443 208.307 534.551 208.048 534.768C207.792 534.984 207.599 535.279 207.468 535.652C207.34 536.025 207.276 536.449 207.276 536.925C207.276 537.401 207.34 537.825 207.468 538.198C207.599 538.571 207.792 538.866 208.048 539.082C208.307 539.295 208.627 539.402 209.007 539.402ZM219.746 537.516V532.818H222.015V541H219.836V539.514H219.751C219.566 539.993 219.259 540.379 218.829 540.67C218.403 540.961 217.883 541.107 217.269 541.107C216.722 541.107 216.241 540.982 215.825 540.734C215.41 540.485 215.085 540.132 214.85 539.674C214.62 539.216 214.502 538.667 214.499 538.028V532.818H216.768V537.623C216.772 538.106 216.901 538.488 217.157 538.768C217.413 539.049 217.755 539.189 218.185 539.189C218.458 539.189 218.714 539.127 218.952 539.002C219.19 538.875 219.382 538.686 219.527 538.438C219.676 538.189 219.749 537.882 219.746 537.516ZM226.099 536.27V541H223.83V532.818H225.992V534.262H226.088C226.269 533.786 226.573 533.409 226.999 533.132C227.425 532.852 227.942 532.712 228.549 532.712C229.117 532.712 229.613 532.836 230.035 533.085C230.458 533.333 230.787 533.688 231.021 534.15C231.255 534.608 231.372 535.155 231.372 535.79V541H229.103V536.195C229.107 535.695 228.979 535.304 228.72 535.023C228.461 534.739 228.104 534.597 227.649 534.597C227.344 534.597 227.074 534.663 226.839 534.794C226.609 534.926 226.428 535.118 226.296 535.37C226.168 535.618 226.103 535.918 226.099 536.27ZM236.176 541.133C235.554 541.133 234.992 540.973 234.487 540.654C233.987 540.331 233.589 539.857 233.294 539.232C233.003 538.603 232.857 537.832 232.857 536.92C232.857 535.982 233.008 535.203 233.31 534.581C233.612 533.956 234.013 533.489 234.514 533.18C235.018 532.868 235.57 532.712 236.17 532.712C236.629 532.712 237.01 532.79 237.316 532.946C237.625 533.099 237.873 533.29 238.061 533.521C238.253 533.749 238.399 533.972 238.498 534.192H238.568V530.091H240.831V541H238.594V539.69H238.498C238.392 539.917 238.241 540.142 238.045 540.366C237.854 540.586 237.603 540.769 237.294 540.915C236.989 541.06 236.616 541.133 236.176 541.133ZM236.895 539.327C237.261 539.327 237.57 539.228 237.822 539.029C238.077 538.827 238.273 538.544 238.408 538.182C238.546 537.82 238.615 537.396 238.615 536.909C238.615 536.423 238.548 536 238.413 535.641C238.278 535.283 238.083 535.006 237.827 534.81C237.571 534.615 237.261 534.517 236.895 534.517C236.522 534.517 236.208 534.619 235.952 534.821C235.696 535.023 235.503 535.304 235.371 535.663C235.24 536.021 235.174 536.437 235.174 536.909C235.174 537.385 235.24 537.806 235.371 538.172C235.506 538.534 235.7 538.818 235.952 539.024C236.208 539.226 236.522 539.327 236.895 539.327Z" fill="#989694"/>
<path d="M110.58 5.81818H115.321L120.328 18.0341H120.541L125.548 5.81818H130.289V24H126.56V12.1658H126.409L121.704 23.9112H119.165L114.46 12.1214H114.309V24H110.58V5.81818ZM135.72 29.1136C135.241 29.1136 134.791 29.0752 134.371 28.9982C133.956 28.9272 133.613 28.8355 133.341 28.723L134.193 25.8999C134.637 26.036 135.036 26.11 135.392 26.1218C135.753 26.1336 136.063 26.0508 136.324 25.8732C136.59 25.6957 136.806 25.3938 136.972 24.9677L137.194 24.3906L132.302 10.3636H136.279L139.103 20.3778H139.245L142.094 10.3636H146.098L140.798 25.4737C140.544 26.2076 140.197 26.8468 139.759 27.3913C139.327 27.9418 138.78 28.3649 138.117 28.6609C137.454 28.9627 136.655 29.1136 135.72 29.1136ZM153.198 8.98757V5.81818H168.131V8.98757H162.564V24H158.765V8.98757H153.198ZM172.552 24.2575C171.682 24.2575 170.907 24.1065 170.226 23.8047C169.545 23.4969 169.007 23.0442 168.61 22.4464C168.22 21.8427 168.024 21.091 168.024 20.1914C168.024 19.4338 168.163 18.7976 168.442 18.2827C168.72 17.7678 169.099 17.3535 169.578 17.0398C170.057 16.7261 170.602 16.4893 171.211 16.3295C171.827 16.1697 172.472 16.0573 173.147 15.9922C173.94 15.9093 174.579 15.8324 175.064 15.7614C175.55 15.6844 175.902 15.572 176.121 15.424C176.34 15.276 176.449 15.0571 176.449 14.767V14.7138C176.449 14.1515 176.272 13.7165 175.917 13.4087C175.568 13.101 175.07 12.9471 174.425 12.9471C173.745 12.9471 173.203 13.098 172.801 13.3999C172.398 13.6958 172.132 14.0687 172.002 14.5185L168.504 14.2344C168.681 13.4058 169.03 12.6896 169.551 12.0859C170.072 11.4763 170.744 11.0088 171.567 10.6832C172.395 10.3518 173.354 10.1861 174.443 10.1861C175.201 10.1861 175.926 10.2749 176.618 10.4524C177.316 10.63 177.935 10.9052 178.474 11.2781C179.018 11.6509 179.447 12.1303 179.761 12.7163C180.075 13.2963 180.231 13.9917 180.231 14.8026V24H176.645V22.109H176.538C176.319 22.5352 176.026 22.911 175.659 23.2365C175.292 23.5561 174.851 23.8076 174.336 23.9911C173.822 24.1687 173.227 24.2575 172.552 24.2575ZM173.635 21.6474C174.191 21.6474 174.683 21.5379 175.109 21.3189C175.535 21.094 175.869 20.7921 176.112 20.4134C176.355 20.0346 176.476 19.6055 176.476 19.1261V17.679C176.358 17.7559 176.195 17.8269 175.988 17.892C175.787 17.9512 175.559 18.0075 175.304 18.0607C175.05 18.1081 174.795 18.1525 174.541 18.1939C174.286 18.2294 174.055 18.262 173.848 18.2915C173.404 18.3567 173.017 18.4602 172.685 18.6023C172.354 18.7443 172.096 18.9367 171.913 19.1793C171.729 19.4161 171.638 19.712 171.638 20.0671C171.638 20.582 171.824 20.9756 172.197 21.2479C172.576 21.5142 173.055 21.6474 173.635 21.6474ZM189.309 29.3977C188.084 29.3977 187.033 29.229 186.157 28.8917C185.287 28.5603 184.595 28.1075 184.08 27.5334C183.565 26.9593 183.231 26.3142 183.077 25.598L186.575 25.1275C186.681 25.3997 186.85 25.6542 187.081 25.891C187.311 26.1277 187.616 26.3171 187.995 26.4592C188.38 26.6071 188.847 26.6811 189.398 26.6811C190.22 26.6811 190.898 26.4799 191.431 26.0774C191.969 25.6809 192.239 25.015 192.239 24.0799V21.5852H192.079C191.913 21.964 191.665 22.3221 191.333 22.6594C191.002 22.9968 190.576 23.272 190.055 23.4851C189.534 23.6982 188.912 23.8047 188.19 23.8047C187.166 23.8047 186.234 23.5679 185.394 23.0945C184.559 22.6151 183.893 21.8841 183.396 20.9016C182.905 19.9132 182.659 18.6644 182.659 17.1552C182.659 15.6104 182.911 14.3202 183.414 13.2844C183.917 12.2487 184.586 11.4734 185.42 10.9585C186.261 10.4435 187.181 10.1861 188.181 10.1861C188.945 10.1861 189.584 10.3163 190.099 10.5767C190.614 10.8312 191.028 11.1508 191.342 11.5355C191.662 11.9143 191.907 12.2872 192.079 12.6541H192.221V10.3636H195.976V24.1332C195.976 25.2932 195.692 26.2638 195.124 27.0451C194.556 27.8263 193.769 28.4123 192.762 28.8029C191.762 29.1995 190.611 29.3977 189.309 29.3977ZM189.389 20.9638C189.998 20.9638 190.513 20.8129 190.934 20.511C191.36 20.2032 191.685 19.7653 191.91 19.1971C192.141 18.623 192.256 17.9364 192.256 17.1374C192.256 16.3384 192.144 15.646 191.919 15.06C191.694 14.4682 191.369 14.0095 190.942 13.6839C190.516 13.3584 189.998 13.1957 189.389 13.1957C188.767 13.1957 188.244 13.3643 187.817 13.7017C187.391 14.0331 187.069 14.4948 186.85 15.0866C186.631 15.6785 186.521 16.3621 186.521 17.1374C186.521 17.9246 186.631 18.6052 186.85 19.1793C187.075 19.7475 187.397 20.1884 187.817 20.5021C188.244 20.8099 188.767 20.9638 189.389 20.9638ZM204.843 24V5.81818H212.123C213.46 5.81818 214.576 6.01645 215.47 6.413C216.363 6.80954 217.035 7.35997 217.485 8.06428C217.935 8.76267 218.16 9.56759 218.16 10.479C218.16 11.1893 218.018 11.8137 217.734 12.3523C217.449 12.8849 217.059 13.3229 216.562 13.6662C216.07 14.0036 215.508 14.2433 214.875 14.3853V14.5629C215.567 14.5924 216.215 14.7878 216.819 15.1488C217.429 15.5098 217.923 16.0159 218.302 16.6669C218.681 17.312 218.87 18.0814 218.87 18.9751C218.87 19.9399 218.63 20.801 218.151 21.5586C217.677 22.3103 216.976 22.9051 216.047 23.343C215.118 23.781 213.972 24 212.611 24H204.843ZM208.687 20.8572H211.821C212.892 20.8572 213.673 20.6531 214.165 20.2447C214.656 19.8304 214.902 19.2799 214.902 18.5934C214.902 18.0903 214.78 17.6464 214.538 17.2617C214.295 16.877 213.949 16.5752 213.499 16.3562C213.055 16.1372 212.525 16.0277 211.91 16.0277H208.687V20.8572ZM208.687 13.4265H211.537C212.064 13.4265 212.531 13.3348 212.94 13.1513C213.354 12.9619 213.679 12.6955 213.916 12.3523C214.159 12.009 214.28 11.5977 214.28 11.1183C214.28 10.4613 214.046 9.93158 213.579 9.52912C213.117 9.12666 212.46 8.92543 211.608 8.92543H208.687V13.4265ZM227.461 24.2663C226.082 24.2663 224.89 23.9734 223.884 23.3874C222.883 22.7956 222.111 21.9729 221.567 20.9194C221.022 19.86 220.75 18.6319 220.75 17.2351C220.75 15.8265 221.022 14.5954 221.567 13.5419C222.111 12.4825 222.883 11.6598 223.884 11.0739C224.89 10.482 226.082 10.1861 227.461 10.1861C228.84 10.1861 230.03 10.482 231.03 11.0739C232.037 11.6598 232.812 12.4825 233.356 13.5419C233.901 14.5954 234.173 15.8265 234.173 17.2351C234.173 18.6319 233.901 19.86 233.356 20.9194C232.812 21.9729 232.037 22.7956 231.03 23.3874C230.03 23.9734 228.84 24.2663 227.461 24.2663ZM227.479 21.3366C228.107 21.3366 228.63 21.1591 229.051 20.804C229.471 20.4429 229.787 19.9517 230.001 19.3303C230.22 18.7088 230.329 18.0015 230.329 17.2085C230.329 16.4154 230.22 15.7081 230.001 15.0866C229.787 14.4652 229.471 13.974 229.051 13.6129C228.63 13.2519 228.107 13.0714 227.479 13.0714C226.846 13.0714 226.313 13.2519 225.881 13.6129C225.455 13.974 225.133 14.4652 224.914 15.0866C224.7 15.7081 224.594 16.4154 224.594 17.2085C224.594 18.0015 224.7 18.7088 224.914 19.3303C225.133 19.9517 225.455 20.4429 225.881 20.804C226.313 21.1591 226.846 21.3366 227.479 21.3366ZM242.794 24.2663C241.414 24.2663 240.222 23.9734 239.216 23.3874C238.215 22.7956 237.443 21.9729 236.899 20.9194C236.354 19.86 236.082 18.6319 236.082 17.2351C236.082 15.8265 236.354 14.5954 236.899 13.5419C237.443 12.4825 238.215 11.6598 239.216 11.0739C240.222 10.482 241.414 10.1861 242.794 10.1861C244.173 10.1861 245.362 10.482 246.362 11.0739C247.369 11.6598 248.144 12.4825 248.688 13.5419C249.233 14.5954 249.505 15.8265 249.505 17.2351C249.505 18.6319 249.233 19.86 248.688 20.9194C248.144 21.9729 247.369 22.7956 246.362 23.3874C245.362 23.9734 244.173 24.2663 242.794 24.2663ZM242.811 21.3366C243.439 21.3366 243.962 21.1591 244.383 20.804C244.803 20.4429 245.119 19.9517 245.333 19.3303C245.552 18.7088 245.661 18.0015 245.661 17.2085C245.661 16.4154 245.552 15.7081 245.333 15.0866C245.119 14.4652 244.803 13.974 244.383 13.6129C243.962 13.2519 243.439 13.0714 242.811 13.0714C242.178 13.0714 241.645 13.2519 241.213 13.6129C240.787 13.974 240.465 14.4652 240.246 15.0866C240.032 15.7081 239.926 16.4154 239.926 17.2085C239.926 18.0015 240.032 18.7088 240.246 19.3303C240.465 19.9517 240.787 20.4429 241.213 20.804C241.645 21.1591 242.178 21.3366 242.811 21.3366ZM255.391 20.076L255.4 15.5394H255.95L260.318 10.3636H264.66L258.791 17.2173H257.895L255.391 20.076ZM251.964 24V5.81818H255.746V24H251.964ZM260.487 24L256.474 18.0607L258.996 15.3885L264.917 24H260.487Z" fill="black"/>
<path d="M99.0568 10.5358L98.0568 9.92276C97.0538 9.30776 96.5528 8.99976 95.9988 8.99976C95.4448 8.99976 94.9438 9.30776 93.9408 9.92276L92.9408 10.5358C91.9918 11.1178 91.5178 11.4088 91.2588 11.8778C90.9988 12.3478 90.9988 12.9128 90.9988 14.0438V19.9088C90.9988 21.8378 90.9988 22.8018 91.5848 23.4008C92.1708 23.9998 93.1128 23.9998 94.9988 23.9998H96.9988C98.8848 23.9998 99.8268 23.9998 100.413 23.3998C100.999 22.8018 100.999 21.8378 100.999 19.9098V14.0438C100.999 12.9128 100.999 12.3468 100.739 11.8778C100.479 11.4088 100.006 11.1178 99.0568 10.5358Z" stroke="black" stroke-width="2" stroke-linecap="round" stroke-linejoin="round"/>
<path d="M94.9988 9.10765C94.3598 8.49465 93.9788 8.17265 93.4958 8.05165C92.9358 7.91065 92.3478 8.06865 91.1708 8.38465L89.9988 8.69865C88.8858 8.99865 88.3288 9.14665 87.9428 9.51565C87.5558 9.88565 87.4058 10.4096 87.1068 11.4586L85.5528 16.8966C85.0428 18.6846 84.7868 19.5786 85.2208 20.2836C85.5928 20.8886 87.0828 21.6336 88.4998 21.9996" stroke="black" stroke-width="2" stroke-linecap="round" stroke-linejoin="round"/>
<path d="M95.4938 11.9997C96.3348 11.4397 97.0818 10.5427 97.5458 9.4267C98.5038 7.1217 97.8928 4.7567 96.1828 4.1457C94.4718 3.5337 92.3078 4.9057 91.3498 7.2107C91.1944 7.58228 91.0768 7.96856 90.9988 8.3637" stroke="black" stroke-width="2" stroke-linecap="round" stroke-linejoin="round"/>
<path d="M175 451.723C271.65 451.723 350 447.175 350 441.564C350 435.954 271.65 431.405 175 431.405C78.3502 431.405 0 435.954 0 441.564C0 447.175 78.3502 451.723 175 451.723Z" fill="#F5F5F5"/>
<path d="M31.211 370.586C31.4006 371.906 27.7993 372.767 24.893 373.279C25.1277 375.675 26.6982 378.089 28.9456 380.351C31.7345 378.789 35.7058 376.761 36.4369 377.236C37.168 377.712 33.1696 380.404 30.6243 381.939C32.4438 383.517 34.3709 384.969 36.3918 386.283C37.6373 385.125 39.0995 384.111 40.0021 384.658C40.9047 385.206 40.661 387.018 40.2097 388.625C43.2423 390.42 45.5078 391.452 45.5078 391.452C46.389 388.653 47.0647 385.795 47.5295 382.899C47.3851 382.594 47.2317 382.289 47.0873 382.002C46.5999 380.88 47.0873 380.395 47.8816 380.207C48.1113 378.159 48.1294 376.093 47.9357 374.042C44.5059 373.333 40.336 372.004 41.8975 369.958C42.8001 368.729 44.6052 368.585 46.3562 368.899C46.1096 368.491 45.8256 368.107 45.5078 367.75C39.271 360.912 34.9206 367.75 34.9206 367.75C31.3103 364.744 26.1927 365.561 25.0916 370.254C27.0772 369.725 30.9764 368.953 31.211 370.586Z" fill="#263238"/>
<path opacity="0.3" d="M31.211 370.586C31.4006 371.906 27.7993 372.767 24.893 373.279C25.1277 375.675 26.6982 378.089 28.9456 380.351C31.7345 378.789 35.7058 376.761 36.4369 377.236C37.168 377.712 33.1696 380.404 30.6243 381.939C32.4438 383.517 34.3709 384.969 36.3918 386.283C37.6373 385.125 39.0995 384.111 40.0021 384.658C40.9047 385.206 40.661 387.018 40.2097 388.625C43.2423 390.42 45.5078 391.452 45.5078 391.452C46.389 388.653 47.0647 385.795 47.5295 382.899C47.3851 382.594 47.2317 382.289 47.0873 382.002C46.5999 380.88 47.0873 380.395 47.8816 380.207C48.1113 378.159 48.1294 376.093 47.9357 374.042C44.5059 373.333 40.336 372.004 41.8975 369.958C42.8001 368.729 44.6052 368.585 46.3562 368.899C46.1096 368.491 45.8256 368.107 45.5078 367.75C39.271 360.912 34.9206 367.75 34.9206 367.75C31.3103 364.744 26.1927 365.561 25.0916 370.254C27.0772 369.725 30.9764 368.953 31.211 370.586Z" fill="white"/>
<path d="M38.9912 420.825L38.0886 420.753C38.0886 420.295 41.7801 374.517 31.4457 370.2C30.9539 369.97 30.4148 369.856 29.8712 369.868C29.3276 369.881 28.7943 370.019 28.3137 370.272C24.5951 372.246 22.799 380.225 22.781 380.323L21.8784 380.126C21.9506 379.785 23.7738 371.627 27.8805 369.5C28.4787 369.186 29.1414 369.014 29.8174 368.995C30.4935 368.976 31.1648 369.112 31.7796 369.393C42.7369 373.934 39.1536 418.913 38.9912 420.825Z" fill="#263238"/>
<path d="M40.2999 419.81C40.1104 417.746 35.8954 369.312 43.7839 364.169C45.6703 362.94 47.3942 362.671 48.7932 363.398C52.5208 365.264 53.0082 373.189 53.0262 373.521L52.1237 373.575C52.1237 373.494 51.6453 365.83 48.387 364.196C47.2588 363.631 45.8778 363.873 44.2803 364.923C36.8431 369.769 41.1484 419.227 41.1935 419.73L40.2999 419.81Z" fill="#263238"/>
<path d="M41.4823 423.75C41.4281 422.171 40.1284 385.098 47.3039 381.849C47.9738 381.539 48.7039 381.378 49.443 381.378C50.1821 381.378 50.9122 381.539 51.5821 381.849C56.5101 384.003 59.5518 393.13 59.7052 393.516L58.8027 393.794C58.8027 393.704 55.752 384.658 51.194 382.666C50.6429 382.404 50.04 382.269 49.4294 382.269C48.8189 382.269 48.216 382.404 47.6649 382.666C42.1592 385.161 41.9697 413.179 42.3668 423.714L41.4823 423.75Z" fill="#263238"/>
<path d="M39.6591 422.054L38.7565 421.955C40.0201 410.917 42.4481 381.517 38.4948 377.981C38.3019 377.75 38.0457 377.58 37.7574 377.49C37.469 377.401 37.1608 377.397 36.8702 377.478C34.1985 378.528 32.61 388.086 32.2129 391.685L31.3103 391.586C31.4637 390.204 32.9079 378.062 36.5452 376.671C36.9872 376.525 37.4623 376.51 37.9126 376.628C38.3629 376.746 38.769 376.992 39.0815 377.335C44.1991 381.867 39.8396 420.412 39.6591 422.054Z" fill="#263238"/>
<path d="M24.5951 401.135H57.0156L54.3078 437.248H27.3028L24.5951 401.135Z" fill="#407BFF"/>
<path opacity="0.2" d="M34.4422 401.135L35.3448 437.248H54.3079L57.0156 401.135H34.4422Z" fill="white"/>
<path d="M29.0087 387.88C28.6748 388.777 26.1566 388.068 24.18 387.368C23.494 388.93 23.6565 390.958 24.2341 393.121C26.4905 393.121 29.6496 393.184 29.9384 393.749C30.2272 394.314 26.8245 394.584 24.7215 394.647C25.3002 396.241 25.9877 397.794 26.7794 399.295C27.9527 399.008 29.2073 398.873 29.5503 399.511C29.8932 400.148 29.1441 401.198 28.3137 402.032C29.5774 404.141 30.6063 405.622 30.6063 405.622C32.1168 404.198 33.5196 402.665 34.8032 401.036C34.8032 400.803 34.8032 400.561 34.8032 400.318C34.8935 399.421 35.3538 399.322 35.9044 399.502C36.7488 398.319 37.4687 397.053 38.0525 395.723C36.1842 394.108 34.0722 391.873 35.7419 391.147C36.7438 390.707 37.863 391.209 38.8558 392.044C38.8505 391.708 38.8081 391.374 38.7294 391.048C37.2402 384.703 32.1948 387.458 32.1948 387.458C30.9944 384.362 27.5736 383.132 25.2811 385.663C26.7613 385.941 29.4239 386.794 29.0087 387.88Z" fill="#263238"/>
<path opacity="0.3" d="M29.0087 387.88C28.6748 388.777 26.1566 388.068 24.18 387.368C23.494 388.93 23.6565 390.958 24.2341 393.121C26.4905 393.121 29.6496 393.184 29.9384 393.749C30.2272 394.314 26.8245 394.584 24.7215 394.647C25.3002 396.241 25.9877 397.794 26.7794 399.295C27.9527 399.008 29.2073 398.873 29.5503 399.511C29.8932 400.148 29.1441 401.198 28.3137 402.032C29.5774 404.141 30.6063 405.622 30.6063 405.622C32.1168 404.198 33.5196 402.665 34.8032 401.036C34.8032 400.803 34.8032 400.561 34.8032 400.318C34.8935 399.421 35.3538 399.322 35.9044 399.502C36.7488 398.319 37.4687 397.053 38.0525 395.723C36.1842 394.108 34.0722 391.873 35.7419 391.147C36.7438 390.707 37.863 391.209 38.8558 392.044C38.8505 391.708 38.8081 391.374 38.7294 391.048C37.2402 384.703 32.1948 387.458 32.1948 387.458C30.9944 384.362 27.5736 383.132 25.2811 385.663C26.7613 385.941 29.4239 386.794 29.0087 387.88Z" fill="white"/>
<path d="M53.0894 392.17C52.0776 392.253 51.0801 392.461 50.1199 392.789C49.8661 392.103 49.72 391.383 49.6867 390.653C49.4791 384.155 54.1995 386.893 56.6365 384.981C57.198 384.491 57.857 384.123 58.5707 383.902C59.2844 383.681 60.0369 383.611 60.7793 383.698C60.5624 384.053 60.3752 384.425 60.2197 384.811C60.1622 384.953 60.1376 385.106 60.1475 385.258C60.1574 385.411 60.2017 385.56 60.277 385.693C60.3524 385.827 60.4569 385.942 60.5829 386.03C60.7089 386.118 60.8531 386.176 61.0049 386.202C61.6147 386.313 62.2441 386.238 62.8101 385.986C62.9757 385.889 63.1327 385.778 63.2794 385.654C63.6723 386.34 63.9756 387.073 64.182 387.835C64.4292 388.743 64.5685 389.677 64.5972 390.617C64.2276 390.698 63.863 390.8 63.5051 390.922C63.3633 390.983 63.2373 391.076 63.1368 391.192C63.0362 391.309 62.9636 391.447 62.9245 391.596C62.8853 391.744 62.8807 391.9 62.9109 392.051C62.9412 392.201 63.0054 392.343 63.0989 392.466C63.4908 392.853 63.9455 393.171 64.4438 393.408C64.28 394.451 64.0047 395.474 63.6224 396.459H63.2885C63.0507 396.506 62.8157 396.566 62.5845 396.639C62.452 396.674 62.3222 396.719 62.1963 396.773C62.0357 396.843 61.8953 396.952 61.7881 397.09C61.6808 397.228 61.6102 397.391 61.5826 397.563C61.557 397.74 61.5795 397.921 61.6478 398.087C61.716 398.252 61.8275 398.397 61.9707 398.505C62.1244 398.618 62.2874 398.717 62.4581 398.802C61.8315 399.874 60.9399 400.77 59.8677 401.404C58.9193 400.974 57.997 400.488 57.1058 399.95C57.3044 399.69 57.503 399.43 57.6835 399.161C57.8954 398.867 57.9946 398.507 57.9633 398.146C57.9411 397.966 57.8828 397.791 57.792 397.632C57.7012 397.474 57.5795 397.335 57.4342 397.224C57.2888 397.113 57.1227 397.032 56.9454 396.985C56.7682 396.939 56.5834 396.928 56.4018 396.953C56.0438 397.001 55.7194 397.188 55.4993 397.473C55.2826 397.796 55.0389 398.102 54.8043 398.371C53.5574 397.456 52.4402 396.378 51.4828 395.167H51.5821C52.1729 395.01 52.7773 394.907 53.3872 394.862C53.7535 394.815 54.0862 394.626 54.3122 394.336C54.5381 394.046 54.6388 393.678 54.5922 393.314C54.5455 392.95 54.3552 392.619 54.0632 392.394C53.7713 392.169 53.4015 392.069 53.0352 392.116L53.0894 392.17Z" fill="#263238"/>
<path opacity="0.5" d="M53.0894 392.17C52.0776 392.253 51.0801 392.461 50.1199 392.789C49.8661 392.103 49.72 391.383 49.6867 390.653C49.4791 384.155 54.1995 386.893 56.6365 384.981C57.198 384.491 57.857 384.123 58.5707 383.902C59.2844 383.681 60.0369 383.611 60.7793 383.698C60.5624 384.053 60.3752 384.425 60.2197 384.811C60.1622 384.953 60.1376 385.106 60.1475 385.258C60.1574 385.411 60.2017 385.56 60.277 385.693C60.3524 385.827 60.4569 385.942 60.5829 386.03C60.7089 386.118 60.8531 386.176 61.0049 386.202C61.6147 386.313 62.2441 386.238 62.8101 385.986C62.9757 385.889 63.1327 385.778 63.2794 385.654C63.6723 386.34 63.9756 387.073 64.182 387.835C64.4292 388.743 64.5685 389.677 64.5972 390.617C64.2276 390.698 63.863 390.8 63.5051 390.922C63.3633 390.983 63.2373 391.076 63.1368 391.192C63.0362 391.309 62.9636 391.447 62.9245 391.596C62.8853 391.744 62.8807 391.9 62.9109 392.051C62.9412 392.201 63.0054 392.343 63.0989 392.466C63.4908 392.853 63.9455 393.171 64.4438 393.408C64.28 394.451 64.0047 395.474 63.6224 396.459H63.2885C63.0507 396.506 62.8157 396.566 62.5845 396.639C62.452 396.674 62.3222 396.719 62.1963 396.773C62.0357 396.843 61.8953 396.952 61.7881 397.09C61.6808 397.228 61.6102 397.391 61.5826 397.563C61.557 397.74 61.5795 397.921 61.6478 398.087C61.716 398.252 61.8275 398.397 61.9707 398.505C62.1244 398.618 62.2874 398.717 62.4581 398.802C61.8315 399.874 60.9399 400.77 59.8677 401.404C58.9193 400.974 57.997 400.488 57.1058 399.95C57.3044 399.69 57.503 399.43 57.6835 399.161C57.8954 398.867 57.9946 398.507 57.9633 398.146C57.9411 397.966 57.8828 397.791 57.792 397.632C57.7012 397.474 57.5795 397.335 57.4342 397.224C57.2888 397.113 57.1227 397.032 56.9454 396.985C56.7682 396.939 56.5834 396.928 56.4018 396.953C56.0438 397.001 55.7194 397.188 55.4993 397.473C55.2826 397.796 55.0389 398.102 54.8043 398.371C53.5574 397.456 52.4402 396.378 51.4828 395.167H51.5821C52.1729 395.01 52.7773 394.907 53.3872 394.862C53.7535 394.815 54.0862 394.626 54.3122 394.336C54.5381 394.046 54.6388 393.678 54.5922 393.314C54.5455 392.95 54.3552 392.619 54.0632 392.394C53.7713 392.169 53.4015 392.069 53.0352 392.116L53.0894 392.17Z" fill="white"/>
<path d="M54.9577 369.752C55.5179 369.357 56.124 369.032 56.7629 368.782C56.5957 368.311 56.3551 367.869 56.0498 367.472C53.288 363.963 52.0424 367.472 49.8943 367.526C49.3885 367.515 48.886 367.61 48.4196 367.805C47.9531 368 47.533 368.29 47.1866 368.657C47.4576 368.748 47.7203 368.862 47.9718 368.998C48.0664 369.046 48.1486 369.115 48.212 369.2C48.2754 369.285 48.3183 369.384 48.3375 369.488C48.3567 369.592 48.3516 369.699 48.3226 369.8C48.2936 369.902 48.2416 369.996 48.1704 370.075C47.8995 370.407 47.5299 370.646 47.1144 370.757C46.9823 370.77 46.8493 370.77 46.7172 370.757C46.8176 371.286 46.9813 371.801 47.2046 372.291C47.4785 372.875 47.8176 373.426 48.2155 373.934C48.4434 373.815 48.6785 373.71 48.9195 373.62C49.0217 373.59 49.1295 373.583 49.2346 373.6C49.3398 373.618 49.4396 373.659 49.5265 373.72C49.6134 373.781 49.6852 373.862 49.7364 373.955C49.7876 374.048 49.8169 374.151 49.8221 374.257C49.7881 374.63 49.6872 374.995 49.5242 375.334C50.0809 375.811 50.6858 376.229 51.3294 376.581L51.5279 376.464C51.6723 376.384 51.8258 376.312 51.9792 376.24C52.0655 376.199 52.1564 376.169 52.25 376.15C52.3646 376.118 52.4856 376.114 52.6021 376.139C52.7187 376.164 52.8272 376.217 52.9179 376.294C53.007 376.378 53.0729 376.483 53.1092 376.599C53.1456 376.715 53.1512 376.839 53.1255 376.958C53.0969 377.085 53.0545 377.208 52.9991 377.326C53.8014 377.617 54.6656 377.697 55.5083 377.559C55.8163 376.92 56.0875 376.264 56.3206 375.594C56.104 375.552 55.8874 375.498 55.6708 375.432C55.4276 375.373 55.2153 375.226 55.0751 375.02C54.9397 374.806 54.8943 374.548 54.9487 374.302C54.9729 374.18 55.0223 374.064 55.0937 373.962C55.1652 373.86 55.2572 373.774 55.3639 373.709C55.5772 373.58 55.8318 373.535 56.0769 373.584L56.8531 373.772C57.1055 372.748 57.2179 371.694 57.1871 370.64H57.1239C56.7343 370.82 56.3626 371.037 56.0137 371.286C55.8007 371.421 55.5426 371.466 55.2964 371.411C55.0501 371.356 54.8357 371.206 54.7005 370.995C54.5652 370.783 54.5202 370.526 54.5752 370.281C54.6302 370.036 54.7808 369.823 54.9938 369.689L54.9577 369.752Z" fill="#263238"/>
<path opacity="0.3" d="M54.9577 369.752C55.5179 369.357 56.124 369.032 56.7629 368.782C56.5957 368.311 56.3551 367.869 56.0498 367.472C53.288 363.963 52.0424 367.472 49.8943 367.526C49.3885 367.515 48.886 367.61 48.4196 367.805C47.9531 368 47.533 368.29 47.1866 368.657C47.4576 368.748 47.7203 368.862 47.9718 368.998C48.0664 369.046 48.1486 369.115 48.212 369.2C48.2754 369.285 48.3183 369.384 48.3375 369.488C48.3567 369.592 48.3516 369.699 48.3226 369.8C48.2936 369.902 48.2416 369.996 48.1704 370.075C47.8995 370.407 47.5299 370.646 47.1144 370.757C46.9823 370.77 46.8493 370.77 46.7172 370.757C46.8176 371.286 46.9813 371.801 47.2046 372.291C47.4785 372.875 47.8176 373.426 48.2155 373.934C48.4434 373.815 48.6785 373.71 48.9195 373.62C49.0217 373.59 49.1295 373.583 49.2346 373.6C49.3398 373.618 49.4396 373.659 49.5265 373.72C49.6134 373.781 49.6852 373.862 49.7364 373.955C49.7876 374.048 49.8169 374.151 49.8221 374.257C49.7881 374.63 49.6872 374.995 49.5242 375.334C50.0809 375.811 50.6858 376.229 51.3294 376.581L51.5279 376.464C51.6723 376.384 51.8258 376.312 51.9792 376.24C52.0655 376.199 52.1564 376.169 52.25 376.15C52.3646 376.118 52.4856 376.114 52.6021 376.139C52.7187 376.164 52.8272 376.217 52.9179 376.294C53.007 376.378 53.0729 376.483 53.1092 376.599C53.1456 376.715 53.1512 376.839 53.1255 376.958C53.0969 377.085 53.0545 377.208 52.9991 377.326C53.8014 377.617 54.6656 377.697 55.5083 377.559C55.8163 376.92 56.0875 376.264 56.3206 375.594C56.104 375.552 55.8874 375.498 55.6708 375.432C55.4276 375.373 55.2153 375.226 55.0751 375.02C54.9397 374.806 54.8943 374.548 54.9487 374.302C54.9729 374.18 55.0223 374.064 55.0937 373.962C55.1652 373.86 55.2572 373.774 55.3639 373.709C55.5772 373.58 55.8318 373.535 56.0769 373.584L56.8531 373.772C57.1055 372.748 57.2179 371.694 57.1871 370.64H57.1239C56.7343 370.82 56.3626 371.037 56.0137 371.286C55.8007 371.421 55.5426 371.466 55.2964 371.411C55.0501 371.356 54.8357 371.206 54.7005 370.995C54.5652 370.783 54.5202 370.526 54.5752 370.281C54.6302 370.036 54.7808 369.823 54.9938 369.689L54.9577 369.752Z" fill="white"/>
<path d="M28.5394 376.258C28.3499 377.577 31.9511 378.448 34.8574 378.95C34.6137 381.346 33.0523 383.769 30.7958 386.031C28.0159 384.469 24.0356 382.441 23.3045 382.908C22.5734 383.375 26.5808 386.076 29.1261 387.62C27.3086 389.205 25.3847 390.665 23.3676 391.99C22.1131 390.823 20.6599 389.809 19.7574 390.357C18.8548 390.904 19.0985 392.726 19.5407 394.323C16.5171 396.118 14.2426 397.15 14.2426 397.15C13.3614 394.352 12.6857 391.493 12.2209 388.598C12.3743 388.302 12.5277 387.996 12.6631 387.7C13.1505 386.578 12.6631 386.103 11.8689 385.905C11.6571 383.859 11.6571 381.796 11.8689 379.749C15.2986 379.031 19.4685 377.712 17.9071 375.666C17.0045 374.427 15.1994 374.293 13.4484 374.598C13.6888 374.188 13.97 373.803 14.2878 373.449C20.5336 366.611 24.884 373.449 24.884 373.449C28.4943 370.443 33.6028 371.259 34.704 375.953C32.6732 375.405 28.7831 374.634 28.5394 376.258Z" fill="#263238"/>
<path opacity="0.5" d="M28.5394 376.258C28.3499 377.577 31.9511 378.448 34.8574 378.95C34.6137 381.346 33.0523 383.769 30.7958 386.031C28.0159 384.469 24.0356 382.441 23.3045 382.908C22.5734 383.375 26.5808 386.076 29.1261 387.62C27.3086 389.205 25.3847 390.665 23.3676 391.99C22.1131 390.823 20.6599 389.809 19.7574 390.357C18.8548 390.904 19.0985 392.726 19.5407 394.323C16.5171 396.118 14.2426 397.15 14.2426 397.15C13.3614 394.352 12.6857 391.493 12.2209 388.598C12.3743 388.302 12.5277 387.996 12.6631 387.7C13.1505 386.578 12.6631 386.103 11.8689 385.905C11.6571 383.859 11.6571 381.796 11.8689 379.749C15.2986 379.031 19.4685 377.712 17.9071 375.666C17.0045 374.427 15.1994 374.293 13.4484 374.598C13.6888 374.188 13.97 373.803 14.2878 373.449C20.5336 366.611 24.884 373.449 24.884 373.449C28.4943 370.443 33.6028 371.259 34.704 375.953C32.6732 375.405 28.7831 374.634 28.5394 376.258Z" fill="white"/>
<path d="M210.561 432.922V325.562H205.678V432.922L199.415 435.345V437.248H207.547H208.693H216.816V435.345L210.561 432.922Z" fill="#263238"/>
<path d="M300.873 432.922V325.562H295.99V432.922L289.735 435.345V437.248H297.858H299.005H307.137V435.345L300.873 432.922Z" fill="#263238"/>
<path opacity="0.5" d="M216.825 435.345V437.248H199.415V435.345L205.678 432.913V325.562H210.561V432.913L216.825 435.345Z" fill="white"/>
<path opacity="0.5" d="M307.137 435.345V437.248H289.735V435.345L295.99 432.913V325.562H300.873V432.913L307.137 435.345Z" fill="white"/>
<path opacity="0.2" d="M205.678 325.562H210.561V335.864L205.678 335.317V325.562Z" fill="black"/>
<path opacity="0.2" d="M300.873 325.562V345.934L295.99 345.386V325.562H300.873Z" fill="black"/>
<path d="M315.675 227.328H190.876V332.086H315.675V227.328Z" fill="#263238"/>
<path d="M315.801 319.163H190.741V332.095H315.801V319.163Z" fill="#407BFF"/>
<path d="M315.801 227.328H190.741V240.26H315.801V227.328Z" fill="#407BFF"/>
<g opacity="0.7">
<path d="M203.404 319.163L194.126 332.086H190.876V327.33L196.743 319.163H203.404Z" fill="white"/>
<path d="M206.978 332.086H200.308L209.596 319.163H216.257L206.978 332.086Z" fill="white"/>
<path d="M219.831 332.086H213.161L222.448 319.163H229.109L219.831 332.086Z" fill="white"/>
<path d="M232.683 332.086H226.013L235.301 319.163H241.962L232.683 332.086Z" fill="white"/>
<path d="M245.536 332.086H238.875L248.154 319.163H254.824L245.536 332.086Z" fill="white"/>
<path d="M258.389 332.086H251.728L261.006 319.163H267.676L258.389 332.086Z" fill="white"/>
<path d="M271.241 332.086H264.58L273.868 319.163H280.529L271.241 332.086Z" fill="white"/>
<path d="M284.103 332.086H277.433L286.721 319.163H293.382L284.103 332.086Z" fill="white"/>
<path d="M296.956 332.086H290.286L299.573 319.163H306.234L296.956 332.086Z" fill="white"/>
<path d="M315.675 319.163V323.919L309.808 332.086H303.147L312.426 319.163H315.675Z" fill="white"/>
</g>
<g opacity="0.7">
<path d="M203.404 227.328L194.126 240.26H190.876V235.495L196.743 227.328H203.404Z" fill="white"/>
<path d="M206.978 240.26H200.308L209.596 227.328H216.257L206.978 240.26Z" fill="white"/>
<path d="M219.831 240.26H213.161L222.448 227.328H229.109L219.831 240.26Z" fill="white"/>
<path d="M232.683 240.26H226.013L235.301 227.328H241.962L232.683 240.26Z" fill="white"/>
<path d="M245.536 240.26H238.875L248.154 227.328H254.824L245.536 240.26Z" fill="white"/>
<path d="M258.389 240.26H251.728L261.006 227.328H267.676L258.389 240.26Z" fill="white"/>
<path d="M271.241 240.26H264.58L273.868 227.328H280.529L271.241 240.26Z" fill="white"/>
<path d="M284.103 240.26H277.433L286.721 227.328H293.382L284.103 240.26Z" fill="white"/>
<path d="M296.956 240.26H290.286L299.573 227.328H306.234L296.956 240.26Z" fill="white"/>
<path d="M315.675 227.328V232.094L309.808 240.26H303.147L312.426 227.328H315.675Z" fill="white"/>
</g>
<g opacity="0.6">
<path d="M237.278 294.914H231.113V302.839H226.6V294.914H208.549V291.693L225.129 270.603H230.129L214.244 290.957H226.699V283.957H231.05V290.957H237.278V294.914Z" fill="white"/>
<path d="M240.048 286.721C240.048 276.221 245.699 270.235 253.298 270.235C260.898 270.235 266.503 276.221 266.503 286.721C266.503 297.221 260.844 303.207 253.298 303.207C245.753 303.207 240.048 297.221 240.048 286.721ZM261.864 286.721C261.864 278.473 258.344 274.336 253.298 274.336C248.253 274.336 244.688 278.473 244.688 286.721C244.688 294.968 248.208 299.105 253.298 299.105C258.389 299.105 261.864 294.959 261.864 286.721Z" fill="white"/>
<path d="M299.149 294.914H292.984V302.839H288.472V294.914H270.42V291.693L287 270.603H292.01L276.124 290.957H288.58V283.957H292.93V290.957H299.095L299.149 294.914Z" fill="white"/>
</g>
<g opacity="0.6">
<path d="M237.891 256.271V257.877H231.14V249.199H237.729V250.814H233.144V252.699H237.196V254.26H233.144V256.271H237.891Z" fill="white"/>
<path d="M245.058 257.877L243.37 255.463H241.52V257.877H239.498V249.199H243.271C245.608 249.199 247.061 250.401 247.061 252.349C247.075 252.928 246.909 253.496 246.586 253.978C246.263 254.46 245.799 254.831 245.256 255.041L247.215 257.832L245.058 257.877ZM243.162 250.841H241.52V253.865H243.162C244.399 253.865 245.022 253.291 245.022 252.349C245.022 251.406 244.399 250.841 243.162 250.841Z" fill="white"/>
<path d="M254.21 257.877L252.531 255.463H250.672V257.877H248.65V249.199H252.432C254.76 249.199 256.223 250.401 256.223 252.349C256.235 252.927 256.069 253.496 255.746 253.977C255.423 254.459 254.959 254.83 254.417 255.041L256.367 257.832L254.21 257.877ZM252.314 250.841H250.672V253.865H252.314C253.551 253.865 254.174 253.291 254.174 252.349C254.174 251.406 253.524 250.841 252.314 250.841Z" fill="white"/>
<path d="M257.261 253.542C257.206 252.592 257.44 251.647 257.932 250.83C258.424 250.013 259.152 249.361 260.02 248.96C260.889 248.559 261.858 248.426 262.804 248.578C263.749 248.731 264.626 249.162 265.322 249.817C266.018 250.471 266.501 251.317 266.708 252.247C266.914 253.177 266.835 254.147 266.481 255.032C266.127 255.917 265.514 256.675 264.721 257.21C263.929 257.744 262.993 258.03 262.035 258.03C261.421 258.065 260.806 257.975 260.228 257.766C259.65 257.556 259.121 257.231 258.673 256.811C258.226 256.391 257.87 255.884 257.627 255.322C257.384 254.76 257.26 254.154 257.261 253.542ZM264.761 253.542C264.745 253.014 264.573 252.501 264.266 252.069C263.959 251.637 263.53 251.305 263.034 251.113C262.538 250.922 261.997 250.88 261.477 250.993C260.957 251.106 260.482 251.368 260.112 251.748C259.741 252.127 259.491 252.607 259.393 253.127C259.295 253.647 259.353 254.184 259.56 254.671C259.767 255.159 260.114 255.574 260.558 255.867C261.001 256.159 261.521 256.315 262.053 256.316C262.418 256.322 262.779 256.254 263.116 256.116C263.453 255.978 263.758 255.773 264.012 255.513C264.266 255.253 264.463 254.944 264.592 254.605C264.721 254.266 264.778 253.904 264.761 253.542Z" fill="white"/>
<path d="M273.886 257.877L272.198 255.463H270.339V257.877H268.326V249.199H272.099C274.427 249.199 275.89 250.401 275.89 252.349C275.903 252.928 275.737 253.496 275.414 253.978C275.091 254.46 274.627 254.831 274.085 255.041L276.043 257.832L273.886 257.877ZM271.991 250.841H270.339V253.865H271.991C273.218 253.865 273.841 253.291 273.841 252.349C273.841 251.406 273.218 250.841 271.991 250.841Z" fill="white"/>
</g>
<path d="M270.447 446.841C299.648 446.841 323.32 444.852 323.32 442.399C323.32 439.945 299.648 437.957 270.447 437.957C241.246 437.957 217.574 439.945 217.574 442.399C217.574 444.852 241.246 446.841 270.447 446.841Z" fill="#263238"/>
<path d="M203.142 436.332L190.651 374.472H185.867L173.366 436.332L164.187 441.923V443.574H212.024V441.923L203.142 436.332Z" fill="#407BFF"/>
<path opacity="0.2" d="M212.024 441.923H164.187V444.005H212.024V441.923Z" fill="white"/>
<path opacity="0.2" d="M190.651 374.472H185.867L173.222 436.153H202.989L190.651 374.472Z" fill="white"/>
<path opacity="0.6" d="M198.99 416.131L196.147 401.934H180.235L177.32 416.131H198.99Z" fill="white"/>
<path d="M99.5809 184H61.014C59.9654 183.999 58.9269 184.203 57.9579 184.601C56.9888 185 56.1081 185.584 55.3663 186.321C54.6244 187.057 54.0359 187.932 53.6344 188.895C53.2329 189.859 53.0262 190.891 53.0262 191.934V205.395C53.0262 207.501 53.8677 209.522 55.3657 211.011C56.8637 212.501 58.8955 213.337 61.014 213.337H86.647L98.3805 225.803L92.0625 213.337H99.6261C101.745 213.337 103.776 212.501 105.274 211.011C106.772 209.522 107.614 207.501 107.614 205.395V191.934C107.614 190.887 107.406 189.851 107.001 188.885C106.597 187.919 106.004 187.042 105.258 186.305C104.511 185.567 103.625 184.984 102.651 184.589C101.677 184.193 100.633 183.993 99.5809 184Z" fill="#407BFF"/>
<path opacity="0.7" d="M99.5809 184H61.014C59.9654 183.999 58.9269 184.203 57.9579 184.601C56.9888 185 56.1081 185.584 55.3663 186.321C54.6244 187.057 54.0359 187.932 53.6344 188.895C53.2329 189.859 53.0262 190.891 53.0262 191.934V205.395C53.0262 207.501 53.8677 209.522 55.3657 211.011C56.8637 212.501 58.8955 213.337 61.014 213.337H86.647L98.3805 225.803L92.0625 213.337H99.6261C101.745 213.337 103.776 212.501 105.274 211.011C106.772 209.522 107.614 207.501 107.614 205.395V191.934C107.614 190.887 107.406 189.851 107.001 188.885C106.597 187.919 106.004 187.042 105.258 186.305C104.511 185.567 103.625 184.984 102.651 184.589C101.677 184.193 100.633 183.993 99.5809 184Z" fill="white"/>
<path d="M62.9004 197.928C62.8662 197.022 63.105 196.127 63.5862 195.357C64.0674 194.587 64.7691 193.977 65.6011 193.606C66.4331 193.235 67.3577 193.12 68.2561 193.275C69.1545 193.43 69.9858 193.849 70.6433 194.477C71.3009 195.105 71.7548 195.914 71.9467 196.8C72.1387 197.687 72.0599 198.61 71.7206 199.451C71.3812 200.293 70.7968 201.014 70.0422 201.523C69.2876 202.032 68.3973 202.306 67.4854 202.308C66.8911 202.336 66.2972 202.243 65.7401 202.036C65.1829 201.828 64.6743 201.509 64.2452 201.099C63.816 200.689 63.4755 200.197 63.2442 199.652C63.013 199.106 62.896 198.52 62.9004 197.928ZM70.8159 197.928C70.8249 197.267 70.6357 196.619 70.2724 196.065C69.9092 195.511 69.3883 195.077 68.7762 194.819C68.1641 194.561 67.4885 194.489 66.8356 194.614C66.1826 194.739 65.5817 195.054 65.1096 195.52C64.6375 195.985 64.3155 196.58 64.1846 197.228C64.0538 197.877 64.12 198.549 64.3748 199.16C64.6297 199.77 65.0616 200.292 65.6156 200.658C66.1695 201.023 66.8205 201.217 67.4854 201.213C67.9239 201.225 68.3602 201.149 68.7681 200.989C69.1759 200.828 69.5468 200.587 69.8582 200.28C70.1696 199.973 70.415 199.606 70.5796 199.202C70.7443 198.798 70.8247 198.365 70.8159 197.928Z" fill="#407BFF"/>
<path d="M73.1536 198.969C73.141 198.299 73.3294 197.641 73.6946 197.078C74.0597 196.515 74.5853 196.073 75.2042 195.807C75.8231 195.542 76.5073 195.467 77.1697 195.59C77.8322 195.713 78.4428 196.029 78.9237 196.498C79.4047 196.968 79.7342 197.569 79.8704 198.225C80.0065 198.881 79.9431 199.563 79.6882 200.183C79.4333 200.803 78.9985 201.334 78.4391 201.708C77.8797 202.081 77.2211 202.281 76.5473 202.281C76.1013 202.302 75.6558 202.232 75.2386 202.073C74.8214 201.915 74.4415 201.673 74.1229 201.362C73.8042 201.051 73.5537 200.678 73.3869 200.267C73.2201 199.855 73.1406 199.413 73.1536 198.969ZM78.7405 198.969C78.7211 198.541 78.5753 198.127 78.3214 197.78C78.0675 197.433 77.7166 197.168 77.3124 197.017C76.9081 196.867 76.4683 196.838 76.0476 196.934C75.627 197.03 75.2439 197.247 74.9462 197.558C74.6484 197.868 74.449 198.259 74.3728 198.681C74.2966 199.104 74.3469 199.539 74.5175 199.934C74.6881 200.328 74.9714 200.663 75.3322 200.899C75.6931 201.134 76.1156 201.259 76.5473 201.258C76.8465 201.265 77.1439 201.21 77.4205 201.096C77.697 200.982 77.9465 200.812 78.153 200.596C78.3595 200.381 78.5185 200.125 78.6196 199.844C78.7208 199.564 78.762 199.266 78.7405 198.969Z" fill="#407BFF"/>
<path d="M88.3529 198.969C88.3759 199.407 88.3067 199.845 88.1498 200.255C87.9928 200.665 87.7516 201.037 87.4415 201.349C87.1314 201.661 86.7593 201.905 86.349 202.065C85.9386 202.226 85.4991 202.299 85.0585 202.281C84.6234 202.294 84.1912 202.206 83.7964 202.024C83.4015 201.841 83.0549 201.57 82.7841 201.231V204.578H81.6017V195.73H82.7299V196.753C83.0019 196.399 83.3555 196.116 83.7608 195.927C84.1661 195.738 84.6112 195.649 85.0585 195.667C85.4987 195.648 85.938 195.72 86.3483 195.879C86.7587 196.039 87.1309 196.282 87.4411 196.593C87.7514 196.904 87.9928 197.276 88.1498 197.685C88.3068 198.095 88.376 198.532 88.3529 198.969ZM87.1615 198.969C87.1421 198.541 86.9966 198.128 86.7431 197.781C86.4896 197.434 86.1392 197.169 85.7355 197.018C85.3318 196.867 84.8924 196.838 84.472 196.933C84.0515 197.029 83.6685 197.244 83.3703 197.554C83.0722 197.864 82.8721 198.254 82.7948 198.676C82.7176 199.098 82.7666 199.533 82.9358 199.927C83.105 200.322 83.387 200.658 83.7467 200.895C84.1064 201.131 84.528 201.257 84.9593 201.258C85.2559 201.26 85.5497 201.201 85.8223 201.085C86.095 200.969 86.3407 200.798 86.544 200.583C86.7472 200.368 86.9038 200.114 87.0039 199.837C87.1039 199.559 87.1453 199.264 87.1254 198.969H87.1615Z" fill="#407BFF"/>
<path d="M89.1292 201.527L89.6165 200.63C90.2989 201.07 91.0954 201.304 91.9091 201.303C93.0012 201.303 93.4525 200.971 93.4525 200.405C93.4525 198.952 89.3367 200.208 89.3367 197.623C89.3367 196.466 90.3837 195.685 92.0445 195.685C92.8734 195.67 93.6919 195.871 94.4182 196.268L93.9128 197.166C93.3507 196.817 92.698 196.639 92.0354 196.654C90.9975 196.654 90.492 197.031 90.492 197.552C90.492 199.077 94.6258 197.83 94.6258 200.352C94.6258 201.527 93.5427 202.272 91.8098 202.272C90.8614 202.296 89.9276 202.037 89.1292 201.527Z" fill="#407BFF"/>
<path d="M95.8443 201.5C95.8442 201.395 95.8654 201.292 95.9065 201.195C95.9477 201.099 96.0079 201.011 96.0838 200.938C96.1596 200.866 96.2493 200.809 96.3478 200.771C96.4462 200.733 96.5512 200.716 96.6566 200.719C96.7604 200.717 96.8636 200.736 96.96 200.774C97.0564 200.812 97.1439 200.87 97.2173 200.943C97.2908 201.016 97.3485 201.103 97.3871 201.199C97.4257 201.294 97.4443 201.397 97.4418 201.5C97.443 201.603 97.4235 201.705 97.3845 201.8C97.3455 201.896 97.2877 201.982 97.2145 202.055C97.1414 202.128 97.0543 202.185 96.9585 202.224C96.8627 202.263 96.76 202.282 96.6566 202.281C96.5515 202.283 96.447 202.265 96.3492 202.227C96.2513 202.189 96.162 202.132 96.0865 202.059C96.0109 201.987 95.9506 201.9 95.909 201.804C95.8674 201.708 95.8454 201.605 95.8443 201.5ZM95.9526 193.648H97.3786L97.144 199.508H96.2414L95.9526 193.648Z" fill="#407BFF"/>
<path d="M46.1305 437.293L51.925 440.613L60.1294 427.538L54.3259 424.226L46.1305 437.293Z" fill="#FFB573"/>
<path opacity="0.2" d="M54.3259 424.226L60.1204 427.547L55.8874 434.286L50.0928 430.966L54.3259 424.226Z" fill="black"/>
<path d="M53.6219 436.44H45.4987C45.3658 436.441 45.2372 436.487 45.1339 436.57C45.0306 436.653 44.9587 436.769 44.9301 436.898L43.6123 442.812C43.5613 443.067 43.6131 443.333 43.7565 443.551C43.8999 443.769 44.1236 443.922 44.3795 443.978H44.5961C47.2226 443.934 49.109 443.781 52.4305 443.781C54.4613 443.781 60.5536 443.987 63.3967 443.987C66.2398 443.987 66.5738 441.232 65.4275 440.981C60.2738 439.859 56.4018 438.289 54.7411 436.844C54.4348 436.57 54.0335 436.425 53.6219 436.44Z" fill="#263238"/>
<path d="M54.0551 437.364C54.0244 437.356 53.997 437.338 53.9761 437.315C53.9552 437.291 53.9419 437.261 53.9378 437.23C53.9321 437.2 53.936 437.169 53.949 437.142C53.962 437.114 53.9833 437.092 54.01 437.077C54.2537 436.925 56.4108 435.605 57.1509 435.982C57.2338 436.022 57.3034 436.084 57.3515 436.162C57.3995 436.24 57.4239 436.331 57.4217 436.422C57.4464 436.579 57.4284 436.741 57.3697 436.889C57.3111 437.037 57.2137 437.167 57.0878 437.266C56.7128 437.523 56.2601 437.643 55.8061 437.607C55.2153 437.589 54.6282 437.508 54.0551 437.364ZM54.5154 437.14C55.2958 437.403 56.1476 437.361 56.8982 437.023C56.9746 436.951 57.0331 436.863 57.0691 436.765C57.1051 436.667 57.1177 436.562 57.1058 436.458C57.1058 436.332 57.0426 436.269 57.0065 436.269C56.9384 436.252 56.867 436.252 56.7989 436.269C55.9989 436.418 55.2337 436.713 54.5425 437.14H54.5154Z" fill="#407BFF"/>
<path d="M54.0551 437.391C54.0316 437.376 54.0125 437.354 53.9998 437.329C53.9872 437.304 53.9813 437.276 53.9829 437.248C53.9829 437.158 54.1544 435.246 54.8855 434.618C54.9792 434.542 55.0875 434.485 55.2038 434.451C55.3201 434.417 55.442 434.407 55.5624 434.421C55.6818 434.421 55.7974 434.462 55.8896 434.537C55.9818 434.612 56.0448 434.717 56.0679 434.834C56.2033 435.534 54.8674 436.996 54.1815 437.373H54.1093L54.0551 437.391ZM55.1292 434.807C54.6596 435.405 54.3828 436.131 54.3349 436.889C55.0299 436.368 55.8783 435.264 55.7881 434.834C55.7881 434.789 55.7881 434.672 55.5624 434.672H55.4812C55.3457 434.672 55.2144 434.719 55.1111 434.807H55.1292Z" fill="#407BFF"/>
<path d="M139.61 438.836L146.497 438.047L144.511 423.329L137.615 424.118L139.61 438.836Z" fill="#FFB573"/>
<path opacity="0.2" d="M137.615 424.118L144.511 423.329L145.531 430.921L138.644 431.711L137.615 424.118Z" fill="black"/>
<path d="M146.65 436.44H138.527C138.394 436.439 138.264 436.485 138.161 436.568C138.057 436.651 137.985 436.768 137.958 436.898L136.641 442.812C136.613 442.938 136.61 443.068 136.633 443.195C136.657 443.322 136.705 443.444 136.775 443.552C136.846 443.661 136.937 443.754 137.044 443.827C137.151 443.901 137.272 443.952 137.399 443.979H137.615C140.242 443.934 142.128 443.781 145.459 443.781C147.49 443.781 153.582 443.987 156.425 443.987C159.268 443.987 159.593 441.232 158.447 440.981C153.293 439.859 149.421 438.289 147.769 436.844C147.461 436.573 147.061 436.429 146.65 436.44Z" fill="#263238"/>
<path d="M147.101 437.364C147.071 437.356 147.043 437.338 147.022 437.315C147.002 437.291 146.988 437.261 146.984 437.23C146.978 437.199 146.982 437.167 146.997 437.139C147.012 437.111 147.036 437.089 147.065 437.077C147.3 436.925 149.457 435.605 150.197 435.982C150.281 436.021 150.351 436.083 150.399 436.162C150.447 436.24 150.471 436.33 150.468 436.422C150.494 436.579 150.477 436.739 150.42 436.887C150.363 437.036 150.267 437.166 150.143 437.266C149.765 437.524 149.309 437.644 148.852 437.607C148.262 437.588 147.675 437.507 147.101 437.364ZM147.562 437.14C148.342 437.403 149.194 437.361 149.945 437.023C150.024 436.953 150.085 436.865 150.122 436.767C150.16 436.669 150.173 436.562 150.161 436.458C150.161 436.332 150.098 436.269 150.053 436.269C149.988 436.252 149.919 436.252 149.854 436.269C149.042 436.413 148.264 436.708 147.562 437.14Z" fill="#407BFF"/>
<path d="M147.065 437.391C147.039 437.377 147.018 437.357 147.004 437.331C146.989 437.306 146.982 437.277 146.984 437.248C146.984 437.158 147.156 435.246 147.887 434.618C147.978 434.54 148.084 434.482 148.199 434.448C148.314 434.414 148.436 434.405 148.555 434.421C148.675 434.42 148.792 434.461 148.886 434.536C148.979 434.611 149.044 434.716 149.069 434.833C149.204 435.533 147.869 436.996 147.183 437.373H147.101L147.065 437.391ZM148.13 434.807C147.663 435.406 147.39 436.132 147.345 436.889C148.031 436.368 148.879 435.264 148.798 434.833C148.798 434.789 148.798 434.672 148.564 434.672H148.491C148.359 434.674 148.232 434.722 148.13 434.807Z" fill="#407BFF"/>
<path d="M146.406 427.887L134.835 425.141C134.835 425.141 126.451 364.762 106.729 337.399C104.42 334.068 101.624 331.098 98.4347 328.586C97.2072 343.753 95.727 359.889 94.5085 368.477C91.4217 389.612 61.5194 430.328 61.5194 430.328L51.0496 425.958C51.0496 425.958 75.0851 381.714 76.2404 360.939C77.504 338.386 78.0455 298.827 78.0997 294.196H113.625C116.946 312.495 142.309 354.369 146.406 427.887Z" fill="#263238"/>
<path opacity="0.3" d="M146.406 427.887L134.835 425.141C134.835 425.141 126.451 364.762 106.729 337.399C104.42 334.068 101.624 331.098 98.4347 328.586C97.2072 343.753 95.727 359.889 94.5085 368.477C91.4217 389.612 61.5194 430.328 61.5194 430.328L51.0496 425.958C51.0496 425.958 75.0851 381.714 76.2404 360.939C77.504 338.386 78.0455 298.827 78.0997 294.196H113.625C116.946 312.495 142.309 354.369 146.406 427.887Z" fill="white"/>
<path d="M134.962 255.257C134.908 266.08 134.474 276.894 133.915 287.699L133.834 286.802C134.601 291.639 135.278 296.494 135.919 301.349C136.559 306.204 137.092 311.095 137.498 315.995L132.832 316.893C129.953 307.505 127.57 297.984 125.34 288.435C124.97 277.334 125.097 266.196 125.34 255.086L134.926 255.257H134.962Z" fill="#FFB573"/>
<path d="M134.267 252.439C137.182 254.234 133.788 273.169 134.492 287.376C134.62 288.802 134.846 290.217 135.169 291.612L125.358 292.707C124.749 290.438 124.284 288.133 123.968 285.805C123.49 279.182 123.968 260.453 123.968 260.453L134.267 252.439Z" fill="#407BFF"/>
<path opacity="0.7" d="M134.492 287.376C134.62 288.802 134.846 290.217 135.169 291.612L125.358 292.707C124.753 290.437 124.292 288.132 123.977 285.805C123.851 284.1 123.788 281.588 123.77 278.805C123.77 274.605 123.77 269.777 123.86 266.134C123.914 262.804 123.977 260.462 123.977 260.462L134.276 252.448C137.173 254.243 133.788 273.17 134.492 287.376Z" fill="white"/>
<path d="M137.354 314.712L139.222 323.83L131.045 324.162C131.045 324.162 128.842 317.969 132.967 314.425L137.354 314.712Z" fill="#FFB573"/>
<path d="M137.336 330.184L131.18 328.981L131.045 324.162L139.222 323.83L137.336 330.184Z" fill="#FFB573"/>
<path d="M124.501 291.073L135.169 289.395L135.467 292.321L125.214 293.389L124.501 291.073Z" fill="#407BFF"/>
<path opacity="0.6" d="M124.501 291.073L135.169 289.395L135.467 292.321L125.214 293.389L124.501 291.073Z" fill="white"/>
<path opacity="0.1" d="M123.761 278.805C123.761 274.605 123.761 269.777 123.851 266.134C124.603 264.431 125.638 262.865 126.911 261.503C127.906 267.459 126.793 273.574 123.761 278.805Z" fill="black"/>
<path d="M147.905 429.889L133.039 427.69L133.5 423.598L148.961 425.617L147.905 429.889Z" fill="#263238"/>
<path d="M62.3678 432.877L48.9646 427.582L50.5622 423.598L64.5701 428.839L62.3678 432.877Z" fill="#263238"/>
<path opacity="0.3" d="M106.729 337.381C104.419 334.051 101.624 331.08 98.4347 328.568L99.4185 316.004C99.4185 316.004 105.565 326.037 106.729 337.381Z" fill="black"/>
<path d="M134.267 252.439C120.891 274.507 114.952 301.546 114.952 301.546L108.417 312.701L103.904 300.137L102.794 299.976L101.169 299.734L99.5087 299.482L96.097 298.944L94.3731 298.657C93.7954 298.567 93.2268 298.468 92.6492 298.36L90.9433 298.055L89.2555 297.741C87.7121 297.445 86.2048 297.14 84.7426 296.844L83.9845 296.673C82.9375 296.431 81.9356 296.189 81.006 295.937C80.0763 295.686 79.2008 295.435 78.4697 295.184L77.9101 294.995C79.1828 286.016 81.3352 277.182 84.3365 268.619C84.7877 267.336 85.239 266.107 85.7174 264.913C87.4613 260.426 89.5119 256.064 91.8549 251.855L91.9993 251.595C96.1511 244.2 104.563 240.978 109.618 242.253C114.395 243.638 119.09 245.292 123.68 247.207C127.317 248.724 130.854 250.472 134.267 252.439Z" fill="#407BFF"/>
<path opacity="0.7" d="M134.267 252.439C120.891 274.507 114.952 301.546 114.952 301.546L108.417 312.701L103.904 300.137L102.794 299.976L101.169 299.734L99.5087 299.482L96.097 298.944L94.3731 298.657C93.7954 298.567 93.2268 298.468 92.6492 298.36L90.9433 298.055L89.2555 297.741C87.7121 297.445 86.2048 297.14 84.7426 296.844L83.9845 296.673C82.9375 296.431 81.9356 296.189 81.006 295.937C80.0763 295.686 79.2008 295.444 78.4697 295.184L77.9101 294.995C79.1828 286.016 81.3352 277.182 84.3365 268.619C84.7877 267.336 85.239 266.107 85.7174 264.913C87.4613 260.426 89.5119 256.064 91.8549 251.855L91.9993 251.595C96.1511 244.2 104.563 240.978 109.618 242.253C114.395 243.638 119.09 245.292 123.68 247.207C127.317 248.724 130.854 250.472 134.267 252.439Z" fill="white"/>
<path opacity="0.1" d="M112.804 267.857C112.804 267.857 112.425 269.867 111.964 272.703C111.373 275.837 110.466 278.904 109.257 281.857C108.534 283.32 105.565 289.153 106.134 291.728C106.702 294.304 103.913 300.075 103.913 300.075L102.803 299.913C103.489 296.727 105.791 286.452 107.036 285.222C108.507 283.804 110.8 277.531 110.322 275.171C109.843 272.811 112.804 267.857 112.804 267.857Z" fill="black"/>
<path d="M103.029 314.712L104.906 323.83L96.7288 324.162C96.7288 324.162 94.5175 317.969 98.6423 314.425L103.029 314.712Z" fill="#FFB573"/>
<path d="M103.02 330.184L96.8642 328.981L96.7288 324.162L104.906 323.83L103.02 330.184Z" fill="#FFB573"/>
<path d="M108.21 242.648C109.112 245.187 116.333 254.314 116.333 254.314L122.651 247.135C122.177 246.727 121.785 246.234 121.495 245.681C121.182 245.102 121.04 244.447 121.085 243.792C121.129 243.136 121.359 242.506 121.748 241.975C122.08 241.545 122.468 241.161 122.903 240.835C122.974 240.786 123.04 240.732 123.102 240.673L119.943 228.899C117.975 233.449 112.876 241.903 108.21 242.648Z" fill="#FFB573"/>
<path opacity="0.2" d="M121.532 245.708C121.219 245.129 121.076 244.474 121.121 243.818C121.166 243.163 121.396 242.533 121.784 242.001C122.116 241.571 122.505 241.188 122.94 240.862L118.219 232.641C115.25 239.165 119.04 243.724 121.532 245.708Z" fill="black"/>
<path d="M133.175 218.973C133.175 218.973 135.738 227.876 131.37 231.995C127.001 236.114 124.781 219.198 124.781 219.198L133.175 218.973Z" fill="#FFB573"/>
<path opacity="0.4" d="M133.175 218.973C133.175 218.973 135.738 227.876 131.37 231.995C127.001 236.114 124.781 219.198 124.781 219.198L133.175 218.973Z" fill="black"/>
<path d="M118.21 241.014C119.418 242.381 121.044 243.314 122.838 243.671C124.632 244.028 126.495 243.788 128.138 242.989C130.289 242 131.978 240.231 132.859 238.044C132.982 237.751 133.091 237.451 133.184 237.147C134.853 231.286 133.969 217.484 127.976 218.606C123.066 219.503 118.048 218.48 115.963 222.985C115.353 224.268 115.065 225.678 115.123 227.095C115.232 233.647 114.997 237.523 118.21 241.014Z" fill="#FFB573"/>
<path d="M129.23 229.751C129.801 231.416 130.603 232.993 131.613 234.436C131.232 234.684 130.801 234.846 130.351 234.911C129.9 234.976 129.441 234.942 129.005 234.813L129.23 229.751Z" fill="#ED893E"/>
<path d="M127.046 225.067C126.989 225.055 126.931 225.058 126.876 225.076C126.82 225.093 126.77 225.124 126.73 225.166C126.476 225.47 126.153 225.71 125.787 225.865C125.422 226.021 125.024 226.089 124.627 226.063C124.545 226.053 124.462 226.075 124.396 226.126C124.33 226.176 124.287 226.25 124.275 226.332C124.269 226.372 124.271 226.413 124.28 226.453C124.29 226.492 124.308 226.529 124.332 226.562C124.357 226.595 124.387 226.622 124.422 226.643C124.458 226.663 124.497 226.677 124.537 226.682C125.037 226.725 125.539 226.648 126.003 226.457C126.466 226.267 126.876 225.968 127.2 225.587C127.258 225.529 127.29 225.45 127.29 225.367C127.29 225.285 127.258 225.206 127.2 225.148L127.046 225.067Z" fill="#263238"/>
<path d="M131.036 224.681C130.974 224.658 130.907 224.658 130.846 224.681C130.776 224.725 130.726 224.796 130.707 224.876C130.689 224.957 130.703 225.042 130.747 225.112C131.008 225.539 131.37 225.898 131.8 226.157C132.231 226.417 132.718 226.569 133.22 226.602C133.261 226.603 133.303 226.596 133.341 226.581C133.38 226.566 133.416 226.544 133.446 226.516C133.476 226.488 133.5 226.454 133.517 226.416C133.534 226.378 133.544 226.338 133.545 226.296C133.543 226.213 133.509 226.133 133.45 226.074C133.392 226.014 133.313 225.978 133.229 225.973C132.833 225.938 132.452 225.811 132.115 225.602C131.777 225.393 131.494 225.108 131.288 224.771C131.256 224.738 131.216 224.713 131.172 224.697C131.129 224.681 131.082 224.676 131.036 224.681Z" fill="#263238"/>
<path d="M116.333 231.645C115.701 231.825 115.665 234.634 116.333 237.182L115.213 237.496C113.961 235.729 113.044 233.749 112.506 231.654C111.089 226.323 110.89 222.868 111.405 220.203L120.295 219.063L120.665 221.962C120.184 222.2 119.809 222.607 119.611 223.104C119.413 223.601 119.406 224.152 119.591 224.654C120.557 227.086 119.185 230.882 117.316 232.408C117.335 232.444 117.235 231.349 116.333 231.645Z" fill="#FFB573"/>
<path opacity="0.4" d="M116.333 231.645C115.701 231.825 115.665 234.634 116.333 237.182L115.213 237.496C113.961 235.729 113.044 233.749 112.506 231.654C111.089 226.323 110.89 222.868 111.405 220.203L120.295 219.063L120.665 221.962C120.184 222.2 119.809 222.607 119.611 223.104C119.413 223.601 119.406 224.152 119.591 224.654C120.557 227.086 119.185 230.882 117.316 232.408C117.335 232.444 117.235 231.349 116.333 231.645Z" fill="black"/>
<path d="M112.009 232.345C112.683 233.862 113.932 235.052 115.484 235.657C117.551 236.438 118.788 234.652 118.382 232.605C118.011 230.811 116.504 228.118 114.347 228.253C113.877 228.279 113.421 228.422 113.021 228.669C112.621 228.916 112.289 229.259 112.057 229.666C111.824 230.073 111.698 230.531 111.69 230.999C111.681 231.468 111.791 231.93 112.009 232.345Z" fill="#FFB573"/>
<path d="M113.183 217.555C113.183 217.555 112.109 215.707 114.455 213.508C116.802 211.309 126.64 210.412 129.582 212.225C132.525 214.037 134.935 212.7 134.781 211.507C135.07 211.861 135.241 212.296 135.27 212.751C135.299 213.206 135.185 213.659 134.944 214.046C134.944 214.046 136.83 213.948 137.751 216.739C137.405 216.68 137.051 216.699 136.714 216.793C136.376 216.888 136.065 217.056 135.801 217.286C136.145 217.636 136.395 218.065 136.531 218.535C136.666 219.005 136.682 219.501 136.577 219.978C136.002 219.396 135.245 219.025 134.429 218.928C134.676 219.622 135.046 220.267 135.521 220.831C135.521 220.831 131.622 221.262 129.601 219.79C129.996 220.458 130.524 221.038 131.153 221.495C131.153 221.495 124.835 222.662 122.723 220.167C122.403 220.604 122.182 221.104 122.075 221.634C121.967 222.164 121.976 222.71 122.1 223.236C121.568 223.252 121.038 223.156 120.545 222.955C120.052 222.754 119.607 222.453 119.239 222.07C117.71 223.319 115.846 224.096 113.878 224.304C114.223 223.928 114.526 223.516 114.78 223.075C114.78 223.075 111.531 224.968 109.365 223.532C109.647 223.072 109.832 222.559 109.906 222.025L109.058 222.446C109.058 222.446 109.022 217.735 113.183 217.555Z" fill="#263238"/>
<path d="M124.763 231.771C124.562 231.829 124.357 231.871 124.149 231.896C124.107 231.899 124.066 231.885 124.034 231.859C124.002 231.832 123.982 231.794 123.977 231.753C123.975 231.733 123.976 231.712 123.982 231.693C123.987 231.673 123.997 231.655 124.009 231.639C124.022 231.624 124.038 231.61 124.055 231.601C124.073 231.591 124.093 231.584 124.113 231.582C124.636 231.581 125.144 231.41 125.561 231.096C125.978 230.782 126.28 230.341 126.423 229.841C126.426 229.82 126.432 229.8 126.443 229.782C126.453 229.763 126.467 229.747 126.484 229.735C126.501 229.722 126.52 229.713 126.541 229.708C126.562 229.703 126.583 229.703 126.604 229.707C126.624 229.71 126.644 229.717 126.661 229.728C126.679 229.739 126.694 229.753 126.705 229.77C126.717 229.787 126.725 229.805 126.73 229.825C126.734 229.845 126.734 229.866 126.73 229.886C126.61 230.35 126.362 230.772 126.015 231.105C125.667 231.438 125.234 231.668 124.763 231.771Z" fill="#ED893E"/>
<path d="M132.579 231.717C131.442 231.573 130.927 230.066 130.9 230.003C130.893 229.983 130.89 229.963 130.891 229.942C130.893 229.922 130.898 229.901 130.907 229.883C130.917 229.865 130.93 229.848 130.945 229.835C130.961 229.822 130.98 229.811 131 229.805C131.04 229.793 131.084 229.797 131.122 229.815C131.161 229.833 131.191 229.865 131.207 229.904C131.207 229.904 131.676 231.286 132.615 231.403C132.655 231.409 132.691 231.431 132.716 231.462C132.741 231.494 132.753 231.533 132.75 231.573C132.749 231.594 132.744 231.615 132.735 231.633C132.725 231.652 132.712 231.669 132.696 231.682C132.68 231.696 132.661 231.706 132.641 231.712C132.621 231.718 132.6 231.719 132.579 231.717Z" fill="#ED893E"/>
<path d="M125.088 229.312C125.024 229.841 125.322 230.29 125.683 230.308C126.044 230.326 126.333 229.895 126.36 229.366C126.387 228.836 126.108 228.379 125.765 228.37C125.422 228.361 125.106 228.773 125.088 229.312Z" fill="#263238"/>
<path d="M131.171 229.554C131.117 230.084 131.424 230.532 131.776 230.55C132.128 230.568 132.426 230.138 132.453 229.599C132.48 229.061 132.2 228.621 131.848 228.612C131.496 228.603 131.198 229.052 131.171 229.554Z" fill="#263238"/>
<path d="M124.519 229.339C125.284 229.371 126.045 229.22 126.739 228.899C127.389 228.414 126.189 227.939 125.602 227.939C125.015 227.939 124.122 228.872 124.519 229.339Z" fill="#FFB573"/>
<path d="M130.873 229.231C131.585 229.504 132.354 229.599 133.112 229.509C133.888 229.258 132.904 228.432 132.344 228.244C131.785 228.055 130.648 228.657 130.873 229.231Z" fill="#FFB573"/>
<path d="M129.492 239.004C129.492 239.004 128.698 239.327 127.687 239.659C125.882 240.261 123.273 240.889 123.12 239.794C123.096 239.645 123.104 239.494 123.143 239.348C123.182 239.203 123.251 239.067 123.346 238.95C124.122 237.891 126.712 237.505 128.427 237.326C128.464 237.618 128.546 237.903 128.671 238.17C128.865 238.515 129.149 238.803 129.492 239.004Z" fill="#263238"/>
<path d="M127.678 239.659C125.873 240.261 123.264 240.889 123.111 239.794C123.087 239.645 123.095 239.494 123.134 239.348C123.173 239.203 123.242 239.067 123.337 238.95C124.871 238.843 126.956 238.861 127.678 239.659Z" fill="#A02724"/>
<path d="M121.152 227.939C121.152 227.939 122.055 230.308 121.152 230.308C120.25 230.308 121.152 227.939 121.152 227.939Z" fill="white"/>
<path d="M119.618 229.985C119.618 229.985 120.521 232.354 119.618 232.354C118.715 232.354 119.618 229.985 119.618 229.985Z" fill="white"/>
<path d="M131.857 222.375C131.857 222.375 133.292 224.483 132.38 224.681C131.469 224.878 131.857 222.375 131.857 222.375Z" fill="white"/>
<path d="M132.796 233.754C132.796 233.754 133.626 236.168 132.687 236.123C131.749 236.079 132.796 233.754 132.796 233.754Z" fill="white"/>
<path d="M106.991 240.871C106.991 240.871 111.504 254.332 114.275 259.448L114.871 258.82C114.871 258.82 109.87 244.658 109.103 240.871H106.991Z" fill="#407BFF"/>
<path d="M121.189 247.404C120.971 251.648 119.733 255.778 117.578 259.448V260.453C117.578 260.453 121.189 257.438 122.254 248.472L121.189 247.404Z" fill="#407BFF"/>
<path d="M113.815 259.169L114.717 257.599C116.342 259.663 117.723 258.55 117.723 258.55L118.318 259.807L116.748 264.123H115.123L113.815 259.169Z" fill="#407BFF"/>
<path d="M116.649 261.961C116.649 261.961 116.035 276.517 116.649 284.953C117.037 290.338 117.452 300.039 117.181 302.615L114.735 304.481L112.813 301.547C112.813 301.547 114.329 297.553 113.616 287.439C112.903 277.325 115.511 262.311 115.511 262.311L116.649 261.961Z" fill="#407BFF"/>
<path d="M103.949 241.678L108.823 239.112L115.475 245.25L115.791 253.22L120.539 246.749L123.445 245.277L125.548 248.786L122.894 253.004L121.189 250.823L115.484 255.643L111.278 248.993L108.453 250.518L103.949 241.678Z" fill="#407BFF"/>
<path opacity="0.6" d="M103.949 241.678L108.823 239.112L115.475 245.25L115.791 253.22L120.539 246.749L123.445 245.277L125.548 248.786L122.894 253.004L121.189 250.823L115.484 255.643L111.278 248.993L108.453 250.518L103.949 241.678Z" fill="white"/>
<path opacity="0.1" d="M115.484 255.643L120.692 249.011L122.894 253.004L121.189 250.824L115.484 255.643Z" fill="black"/>
<path opacity="0.1" d="M115.484 255.643L113.11 247.072L108.453 250.518L111.278 248.993L115.484 255.643Z" fill="black"/>
<path opacity="0.1" d="M100.845 294.169L92.5409 295.067C92.5409 295.067 83.6595 281.668 84.3455 268.566C84.7968 267.282 85.2481 266.053 85.7264 264.859C87.4703 260.373 89.521 256.01 91.8639 251.801C92.5165 251.192 93.2234 250.642 93.976 250.159L102.559 262.885C102.559 262.885 103.11 283.625 100.845 294.169Z" fill="black"/>
<path d="M100.637 255.257C100.583 266.08 100.159 276.894 99.59 287.699L99.5177 286.802C100.276 291.636 100.968 296.485 101.594 301.349C102.216 306.222 102.776 311.095 103.173 315.995L98.5159 316.893C95.6277 307.505 93.2449 297.984 91.0245 288.435C90.6545 277.334 90.7808 266.196 91.0245 255.086L100.601 255.257H100.637Z" fill="#FFB573"/>
<path d="M96.7107 248.086C101.35 250.096 102.758 257.572 102.758 257.572C102.758 257.572 100.402 286.191 100.52 287.376C100.637 288.561 100.845 290.813 100.845 290.813L90.9162 292.707C90.9162 292.707 90.0858 287.376 89.6075 276.49C89.1291 265.604 89.6075 256.531 91.8639 252.52C94.1203 248.508 96.7107 248.086 96.7107 248.086Z" fill="#407BFF"/>
<path opacity="0.7" d="M96.7107 248.086C101.35 250.096 102.758 257.572 102.758 257.572C102.758 257.572 100.402 286.191 100.52 287.376C100.637 288.561 100.845 290.813 100.845 290.813L90.9162 292.707C90.9162 292.707 90.0858 287.376 89.6075 276.49C89.1291 265.604 89.6075 256.531 91.8639 252.52C94.1203 248.508 96.7107 248.086 96.7107 248.086Z" fill="white"/>
<path d="M89.3999 291.046L101.594 289.036L100.845 292.114L90.7628 294.178L89.3999 291.046Z" fill="#407BFF"/>
<path opacity="0.6" d="M89.3999 291.046L101.594 289.036L100.845 292.114L90.7628 294.178L89.3999 291.046Z" fill="white"/>
<path d="M155.441 335.658L153.465 364.169C153.412 364.633 153.18 365.058 152.818 365.355C152.456 365.651 151.992 365.796 151.524 365.758L114.446 363.73C113.983 363.707 113.547 363.507 113.228 363.173C112.909 362.839 112.731 362.396 112.731 361.935L114.708 333.432C114.76 332.969 114.992 332.544 115.355 332.247C115.717 331.951 116.181 331.806 116.649 331.844L153.735 333.872C153.965 333.878 154.192 333.929 154.402 334.022C154.612 334.114 154.802 334.248 154.96 334.414C155.119 334.579 155.243 334.775 155.325 334.988C155.408 335.202 155.447 335.429 155.441 335.658Z" fill="#263238"/>
<path d="M136.189 360.248L152.86 357.277C152.86 357.277 161.299 373.431 166.254 377.828L147.742 384.631C147.742 384.631 138.978 374.167 136.189 360.248Z" fill="#407BFF"/>
<path opacity="0.7" d="M136.189 360.248L152.86 357.277C152.86 357.277 161.299 373.431 166.254 377.828L147.742 384.631C147.742 384.631 138.978 374.167 136.189 360.248Z" fill="white"/>
<path d="M135.765 344.704C138.888 346.562 148.175 361.387 148.175 361.387L167.635 350.708C167.635 350.708 157.707 341.446 154.602 340.289C151.497 339.131 135.765 344.704 135.765 344.704Z" fill="#407BFF"/>
<path opacity="0.6" d="M135.494 344.704C138.671 346.562 148.13 361.387 148.13 361.387L167.897 350.708C167.897 350.708 157.851 341.419 154.647 340.262C151.443 339.104 135.494 344.704 135.494 344.704Z" fill="white"/>
<path d="M123.752 339.723C123.752 339.723 127.416 348.141 128.265 355.877L153.862 351.39C153.862 351.39 150.071 341.428 148.446 339.723C146.822 338.018 123.752 339.723 123.752 339.723Z" fill="#407BFF"/>
<path opacity="0.7" d="M123.752 339.723C123.752 339.723 127.416 348.141 128.265 355.877L153.862 351.39C153.862 351.39 150.071 341.428 148.446 339.723C146.822 338.018 123.752 339.723 123.752 339.723Z" fill="white"/>
<path d="M143.762 334.249C142.769 329.879 137.444 326.172 133.247 325.517C130.196 325.059 127.687 331.009 126.929 333.334L125.873 333.02C125.99 332.643 128.761 323.749 133.364 324.431C137.967 325.113 143.69 329.143 144.791 334.007L143.762 334.249Z" fill="#263238"/>
<path d="M117.912 331.916C118.395 331.972 118.848 332.175 119.211 332.496C119.575 332.817 119.83 333.241 119.943 333.711L122.425 346.625C122.524 347.005 122.742 347.346 123.046 347.597C123.351 347.848 123.727 347.998 124.122 348.025L157.517 349.82C157.685 349.85 157.857 349.838 158.019 349.787C158.181 349.735 158.328 349.644 158.447 349.523C158.565 349.401 158.652 349.253 158.699 349.09C158.747 348.927 158.753 348.756 158.718 348.59L156.226 335.631C156.1 335.156 155.828 334.732 155.448 334.419C155.067 334.105 154.598 333.917 154.105 333.881L117.055 331.862L117.912 331.916Z" fill="#263238"/>
<path opacity="0.1" d="M117.912 331.916C118.395 331.972 118.848 332.175 119.211 332.496C119.575 332.817 119.83 333.241 119.943 333.711L122.425 346.625C122.524 347.005 122.742 347.346 123.046 347.597C123.351 347.848 123.727 347.998 124.122 348.025L157.517 349.82C157.685 349.85 157.857 349.838 158.019 349.787C158.181 349.735 158.328 349.644 158.447 349.523C158.565 349.401 158.652 349.253 158.699 349.09C158.747 348.927 158.753 348.756 158.718 348.59L156.226 335.631C156.1 335.156 155.828 334.732 155.448 334.419C155.067 334.105 154.598 333.917 154.105 333.881L117.055 331.862L117.912 331.916Z" fill="white"/>
<path d="M144.728 352.422H144.683L142.2 352.278C141.978 352.253 141.769 352.163 141.599 352.019C141.428 351.875 141.305 351.684 141.244 351.471L140.838 349.909C140.805 349.804 140.798 349.693 140.819 349.585C140.839 349.477 140.886 349.376 140.955 349.29C141.02 349.212 141.103 349.151 141.198 349.113C141.292 349.075 141.395 349.062 141.496 349.075L143.979 349.218C144.2 349.242 144.409 349.33 144.579 349.472C144.75 349.615 144.874 349.804 144.935 350.017L145.341 351.587C145.374 351.691 145.381 351.801 145.36 351.907C145.34 352.014 145.293 352.114 145.224 352.198C145.164 352.27 145.088 352.328 145.002 352.367C144.916 352.406 144.822 352.425 144.728 352.422ZM144.728 352.009C144.764 352.014 144.801 352.01 144.836 351.998C144.871 351.985 144.902 351.965 144.926 351.937C144.945 351.898 144.955 351.855 144.955 351.812C144.955 351.768 144.945 351.725 144.926 351.686L144.52 350.125C144.481 349.994 144.405 349.876 144.301 349.787C144.197 349.698 144.069 349.641 143.933 349.622L141.451 349.478C141.415 349.475 141.378 349.48 141.344 349.493C141.31 349.505 141.279 349.525 141.253 349.55C141.234 349.59 141.225 349.632 141.225 349.676C141.225 349.719 141.234 349.762 141.253 349.802L141.668 351.372C141.704 351.502 141.779 351.618 141.882 351.706C141.984 351.794 142.111 351.849 142.246 351.866L144.728 352.009Z" fill="#263238"/>
<g opacity="0.5">
<path d="M144.728 352.422H144.683L142.2 352.278C141.978 352.253 141.769 352.163 141.599 352.019C141.428 351.875 141.305 351.684 141.244 351.471L140.838 349.909C140.805 349.804 140.798 349.693 140.819 349.585C140.839 349.477 140.886 349.376 140.955 349.29C141.02 349.212 141.103 349.151 141.198 349.113C141.292 349.075 141.395 349.062 141.496 349.075L143.979 349.218C144.2 349.242 144.409 349.33 144.579 349.472C144.75 349.615 144.874 349.804 144.935 350.017L145.341 351.587C145.374 351.691 145.381 351.801 145.36 351.907C145.34 352.014 145.293 352.114 145.224 352.198C145.164 352.27 145.088 352.328 145.002 352.367C144.916 352.406 144.822 352.425 144.728 352.422ZM144.728 352.009C144.764 352.014 144.801 352.01 144.836 351.998C144.871 351.985 144.902 351.965 144.926 351.937C144.945 351.898 144.955 351.855 144.955 351.812C144.955 351.768 144.945 351.725 144.926 351.686L144.52 350.125C144.481 349.994 144.405 349.876 144.301 349.787C144.197 349.698 144.069 349.641 143.933 349.622L141.451 349.478C141.415 349.475 141.378 349.48 141.344 349.493C141.31 349.505 141.279 349.525 141.253 349.55C141.234 349.59 141.225 349.632 141.225 349.676C141.225 349.719 141.234 349.762 141.253 349.802L141.668 351.372C141.704 351.502 141.779 351.618 141.882 351.706C141.984 351.794 142.111 351.849 142.246 351.866L144.728 352.009Z" fill="white"/>
</g>
<defs>
<filter id="filter0_d_142_1516" x="121" y="64" width="108" height="108" filterUnits="userSpaceOnUse" color-interpolation-filters="sRGB">
<feFlood flood-opacity="0" result="BackgroundImageFix"/>
<feColorMatrix in="SourceAlpha" type="matrix" values="0 0 0 0 0 0 0 0 0 0 0 0 0 0 0 0 0 0 127 0" result="hardAlpha"/>
<feOffset dy="4"/>
<feGaussianBlur stdDeviation="2"/>
<feComposite in2="hardAlpha" operator="out"/>
<feColorMatrix type="matrix" values="0 0 0 0 0 0 0 0 0 0 0 0 0 0 0 0 0 0 0.25 0"/>
<feBlend mode="normal" in2="BackgroundImageFix" result="effect1_dropShadow_142_1516"/>
<feBlend mode="normal" in="SourceGraphic" in2="effect1_dropShadow_142_1516" result="shape"/>
</filter>
</defs>
</svg>
