<svg width="141" height="180" viewBox="0 0 141 180" fill="none" xmlns="http://www.w3.org/2000/svg">
<path d="M73.5978 114.963C74.0341 111.5 75.5004 108.248 77.8067 105.628C78.3928 105.01 80.6411 104.073 81.9197 103.242C88.1745 99.1392 100.705 94.0139 100.705 94.0139L104.573 97.3811C104.573 97.3811 96.944 104.755 92.4048 108.292C91.5097 108.996 90.4761 109.837 89.3893 110.732C87.4073 112.373 78.1157 118.5 76.3469 120.045L73.5978 114.963Z" fill="#E8BFBF"/>
<path d="M111.723 92.1068L104.573 97.4346L100.567 94.483C101.596 93.1812 102.702 91.9429 103.881 90.7749C104.243 90.4231 104.531 90.0024 104.729 89.5377C104.927 89.0729 105.029 88.5734 105.031 88.0684C104.951 86.4205 105.319 84.7816 106.097 83.3266C106.095 83.2983 106.095 83.2698 106.097 83.2414C106.461 82.7285 106.964 82.3301 107.547 82.0925C108.13 81.8549 108.768 81.7881 109.387 81.8999C110.006 82.0116 110.581 82.2973 111.043 82.7236C111.506 83.1499 111.838 83.699 112 84.307L113.066 88.1216C113.261 88.8442 113.238 89.6086 112.999 90.318C112.76 91.0274 112.316 91.6499 111.723 92.1068Z" fill="#E8BFBF"/>
<path d="M75.8777 116.391L73.9917 118.117C73.4056 117.648 72.4786 116.891 71.3065 115.911C62.1214 108.292 39.0948 89.7945 48.2692 84.52C56.1437 79.9914 64.4976 93.8329 68.6639 97.9992C70.62 100.085 72.316 102.4 73.7146 104.893C75.6753 108.431 77.1244 112.704 75.8777 116.391Z" fill="#263238"/>
<path d="M73.7043 103.242C70.4368 105.632 67.6739 108.645 65.5741 112.107C66.3435 114.625 67.6431 116.949 69.3854 118.923C71.1278 120.897 73.2726 122.475 75.6755 123.551C78.346 117.495 79.4911 110.876 79.0107 104.275C77.3485 103.892 75.3665 103.604 73.7043 103.242Z" fill="#263238"/>
<path d="M23.1438 83.4434C19.8513 84.5089 16.0898 83.6459 13.9801 86.3843C11.8703 89.1228 11.2416 92.7137 11.2416 96.1661C11.4357 100.968 12.1721 105.733 13.4366 110.37C14.7579 116.053 16.0827 121.718 17.4111 127.365C18.3169 131.244 17.3579 149.263 18.3275 149.561C18.3275 149.561 48.4507 148.975 56.0054 147.909C56.0054 147.909 56.6554 129.39 57.2628 123.082C57.4013 121.686 59.5217 115.74 59.7668 114.249C60.9496 107.216 58.6373 102.261 56.2079 95.5481C56.2079 95.5481 50.8801 84.818 48.2695 84.5196C43.6344 83.9975 32.2969 80.4492 23.1438 83.4434Z" fill="#263238"/>
<path d="M21.8543 92.3196C21.7478 91.7016 16.3987 80.8969 11.2734 88.4517C4.14487 98.958 3.66536 112.15 3.66536 112.15C3.66536 112.15 -0.714062 124.936 2.33342 127.771C5.3809 130.605 8.72673 132.374 10.8578 130.786C12.362 129.473 13.5619 127.847 14.3742 126.023C14.3742 126.023 23.751 103.316 21.8543 92.3196Z" fill="#263238"/>
<path d="M21.5243 79.437C21.0045 79.9047 20.5987 80.4851 20.3379 81.1339C20.0772 81.7826 19.9683 82.4825 20.0197 83.1798C20.0712 83.8771 20.2815 84.5534 20.6346 85.1569C20.9877 85.7603 21.4743 86.275 22.057 86.6614C21.7445 87.757 21.7475 88.9186 22.0658 90.0126C22.384 91.1066 23.0046 92.0885 23.8562 92.8454C24.7077 93.6024 25.7557 94.1036 26.8794 94.2914C28.0032 94.4792 29.1571 94.346 30.2085 93.9072C29.3134 95.5268 30.3257 97.6686 31.8921 98.6702C33.5443 99.5246 35.3618 100.012 37.2198 100.098C39.0852 100.187 40.8749 100.862 42.3345 102.027L48.0245 93.8326C48.8603 92.831 49.4024 91.6177 49.5909 90.3269C49.6442 89.0376 48.6639 87.6097 47.3746 87.7056C48.0209 87.0082 48.3809 86.0928 48.3828 85.1419C48.3846 84.191 48.0283 83.2743 47.3848 82.5743C46.7412 81.8742 45.8575 81.4423 44.9098 81.3644C43.962 81.2866 43.0198 81.5685 42.2706 82.1541C42.3617 81.5953 42.2872 81.0219 42.0562 80.505C41.8251 79.988 41.4477 79.55 40.9706 79.2452C40.0023 78.6611 38.9035 78.3278 37.7739 78.2755L21.5243 79.437Z" fill="#263238"/>
<path d="M24.9444 65.5317C26.4255 70.9661 28.2263 80.9929 24.6354 84.9568C31.216 87.7973 37.1397 91.9653 42.0358 97.2C43.3293 96.0106 44.2164 94.4451 44.572 92.7243C44.9277 91.0036 44.7337 89.2146 44.0178 87.61C43.5991 86.591 42.9796 85.6668 42.196 84.8924C41.4125 84.118 40.481 83.5093 39.4572 83.1027C35.4933 81.4191 35.4614 77.5299 36.122 73.7898L24.9444 65.5317Z" fill="#E8BFBF"/>
<path opacity="0.2" d="M27.1823 74.7913L30.9223 75.8035C32.5257 76.2393 34.202 76.3372 35.8452 76.0912C35.7072 77.2433 35.8273 78.4117 36.1968 79.5116C34.945 79.995 33.5796 80.1043 32.2668 79.8262C30.954 79.5482 29.7503 78.8947 28.8019 77.9453C28.1101 76.9791 27.5644 75.9164 27.1823 74.7913Z" fill="black"/>
<path d="M17.6884 60.8964C21.6416 69.2504 23.144 72.8733 29.239 75.5371C38.4241 79.5543 47.8009 72.8413 46.4157 63.4751C45.1583 55.0466 38.8929 42.7821 29.1431 42.7394C26.9967 42.7195 24.8807 43.248 22.9958 44.2749C21.1108 45.3018 19.5193 46.793 18.3721 48.6072C17.2248 50.4215 16.5599 52.4986 16.4403 54.6418C16.3206 56.7849 16.7502 58.9232 17.6884 60.8538V60.8964Z" fill="#E8BFBF"/>
<path d="M22.0357 44.9344C19.1481 43.5918 15.5678 44.6893 13.1597 46.7991C10.7515 48.9089 9.22778 51.9564 7.83191 54.8866C6.99114 56.4456 6.34689 58.1027 5.91391 59.8202C5.48294 61.558 5.71866 63.3942 6.57457 64.9668C7.03113 65.7015 7.65556 66.3174 8.39652 66.7639C9.13748 67.2103 9.97382 67.4745 10.8368 67.5348C11.3676 67.5675 11.8794 67.7445 12.317 68.0469C12.7545 68.3492 13.1012 68.7653 13.3195 69.2503C13.5382 70.1464 13.5382 71.082 13.3195 71.9781C13.1168 72.8473 13.1168 73.7515 13.3195 74.6207C13.61 75.3042 14.0866 75.8924 14.6952 76.3181C15.3037 76.7439 16.0196 76.9901 16.7612 77.0288C18.2452 77.07 19.7237 76.8314 21.1194 76.3256C21.5445 76.1804 22.0007 76.1512 22.4409 76.2411C22.881 76.331 23.2892 76.5367 23.6234 76.837C23.7941 76.9938 23.938 77.1773 24.0496 77.3804C24.1583 77.5653 24.3161 77.7165 24.5055 77.8171C24.6948 77.9178 24.9084 77.9641 25.1224 77.9508C25.3365 77.9376 25.5427 77.8654 25.7182 77.7421C25.8937 77.6189 26.0317 77.4494 26.1168 77.2526C27.4061 74.1838 25.5307 69.2929 22.739 65.5315C21.2579 63.5496 21.3325 64.0504 20.7571 61.6423C20.2669 59.639 21.0021 57.5505 21.8972 55.6965C23.1013 53.2137 24.6357 50.8056 24.1562 47.8433C24.0659 47.2226 23.8256 46.6332 23.4561 46.1263C23.0866 45.6194 22.5991 45.2103 22.0357 44.9344Z" fill="#263238"/>
<path d="M17.9333 69.453C19.2493 70.8493 21.066 71.6657 22.984 71.7226C25.5306 71.7865 26.1806 69.3571 24.9446 67.2792C23.879 65.4145 21.1725 63.1449 18.8709 64.0826C16.5693 65.0203 16.3349 67.6628 17.9333 69.453Z" fill="#E8BFBF"/>
<path d="M33.5755 59.4157C33.8738 60.1402 34.4599 60.5345 34.9181 60.3427C35.3763 60.1509 35.4935 59.4583 35.2377 58.7444C34.982 58.0305 34.364 57.6788 33.8952 57.8173C33.4263 57.9559 33.3304 58.7124 33.5755 59.4157Z" fill="#263238"/>
<path d="M41.4072 56.0484C41.6949 56.7837 42.2809 57.1673 42.7391 56.9861C43.1973 56.805 43.3145 56.1017 43.0588 55.3878C42.8031 54.6739 42.185 54.3222 41.7268 54.4608C41.2687 54.5993 41.1301 55.3558 41.4072 56.0484Z" fill="#263238"/>
<path d="M41.5244 54.5884L43.0055 53.427C43.0055 53.427 42.6859 55.0786 41.5244 54.5884Z" fill="#263238"/>
<path d="M39.3828 57.6147C41.1943 59.4049 42.5794 59.7459 44.5188 60.9606C44.4997 61.4498 44.3252 61.9202 44.0205 62.3035C43.7159 62.6867 43.2969 62.9629 42.8245 63.0917L39.3828 57.6147Z" fill="#ED847E"/>
<path d="M41.9936 66.512C42.3328 66.3876 42.6608 66.2343 42.9739 66.0539C43.0232 66.0268 43.0598 65.9814 43.0757 65.9275C43.0917 65.8737 43.0857 65.8157 43.0591 65.7662C43.0283 65.718 42.981 65.6828 42.9261 65.6671C42.8711 65.6514 42.8124 65.6563 42.7608 65.6809C41.9456 66.1544 41.0293 66.4266 40.0878 66.4747C39.1464 66.5229 38.207 66.3457 37.3478 65.9579C37.2954 65.9317 37.2348 65.927 37.179 65.945C37.1232 65.9629 37.0767 66.002 37.0494 66.0539C37.0345 66.0788 37.0249 66.1066 37.0212 66.1354C37.0174 66.1642 37.0196 66.1935 37.0276 66.2214C37.0356 66.2494 37.0492 66.2754 37.0676 66.2979C37.086 66.3204 37.1088 66.3389 37.1347 66.3522C37.8929 66.7018 38.7135 66.8961 39.548 66.9235C40.3825 66.951 41.214 66.8111 41.9936 66.512Z" fill="#263238"/>
<path d="M33.3199 53.6081C33.3146 53.7059 33.279 53.7995 33.2178 53.876C33.1567 53.9524 33.0731 54.0078 32.9789 54.0344C30.933 54.6417 30.0273 57.231 30.0273 57.231C30.0084 57.2884 29.9784 57.3415 29.939 57.3873C29.8996 57.433 29.8516 57.4706 29.7976 57.4978C29.7437 57.525 29.685 57.5413 29.6247 57.5458C29.5645 57.5503 29.504 57.5429 29.4466 57.524C29.3892 57.5052 29.3361 57.4751 29.2904 57.4357C29.2446 57.3963 29.207 57.3483 29.1798 57.2944C29.1526 57.2404 29.1363 57.1817 29.1318 57.1215C29.1273 57.0612 29.1347 57.0007 29.1536 56.9433C29.2282 56.8368 30.2191 53.8639 32.7125 53.118C32.8311 53.0878 32.9568 53.1041 33.0637 53.1635C33.1707 53.2229 33.2509 53.321 33.2879 53.4376C33.3131 53.4908 33.3241 53.5495 33.3199 53.6081Z" fill="#263238"/>
<path d="M42.7498 52.3509C42.6704 52.4073 42.5755 52.4376 42.4781 52.4376C42.3807 52.4376 42.2857 52.4073 42.2064 52.3509C40.5441 51.0083 37.8909 51.7435 37.8802 51.7542C37.8222 51.7721 37.7611 51.7784 37.7006 51.7726C37.6401 51.7667 37.5814 51.7489 37.5278 51.7202C37.4743 51.6914 37.427 51.6523 37.3887 51.6051C37.3504 51.5578 37.3219 51.5035 37.3048 51.4451C37.2714 51.3279 37.285 51.2022 37.3427 51.0948C37.4004 50.9874 37.4976 50.9066 37.6138 50.8697C37.7417 50.8697 40.8105 49.996 42.7818 51.6156C42.8742 51.6944 42.9333 51.8053 42.9471 51.9259C42.961 52.0466 42.9285 52.168 42.8563 52.2656C42.8262 52.3002 42.7901 52.329 42.7498 52.3509Z" fill="#263238"/>
<path d="M33.7461 57.9341L35.2272 56.7833C35.2272 56.7833 34.8862 58.4349 33.7461 57.9341Z" fill="#263238"/>
<path d="M22.6749 43.5387C21.5089 43.6414 20.3813 44.0074 19.3772 44.6091C18.3732 45.2108 17.5187 46.0325 16.8783 47.0124C16.0259 48.3336 15.7275 50.3369 16.9849 51.2746C17.6262 51.6659 18.3647 51.8689 19.116 51.8606C22.3126 52.1483 26.3511 49.6443 26.3511 49.6443C25.1044 44.3165 36.2181 40.2461 41.695 48.4509C43.304 50.859 42.8671 52.6065 45.5417 53.7253C46.799 54.2475 48.4613 54.0983 49.2711 55.2065C50.6031 57.0285 48.0351 60.1187 49.6654 61.685C50.7842 62.7506 53.3202 62.3457 53.48 63.8907C53.544 64.6153 53.0751 65.6595 53.7677 65.8726C54.1513 65.9899 54.5136 65.6382 54.7587 65.3186C55.4245 64.6034 55.9136 63.7421 56.1865 62.8038C56.3166 62.3348 56.2878 61.8359 56.1047 61.3849C55.9216 60.9339 55.5945 60.5561 55.1742 60.3105C54.4923 60.0014 52.6915 60.3105 52.8087 61.0777C52.5327 59.3877 52.4434 57.6725 52.5423 55.963C52.8407 54.5352 54.2046 53.2885 53.789 51.8819C53.3735 50.4754 51.5727 49.7508 50.0276 49.559C48.4826 49.3672 46.7244 49.1435 45.7654 47.9074C44.8064 46.6714 45.19 44.5403 44.849 42.8247C44.5638 41.7525 44.029 40.763 43.2882 39.9371C42.5475 39.1111 41.6218 38.4722 40.5868 38.0724C34.3534 35.3978 24.7954 35.7814 22.6749 43.5387Z" fill="#263238"/>
<path d="M40.2245 71.925L18.9135 82.6338C15.5252 84.3316 12.8955 87.2368 11.5426 90.7769C10.1896 94.3171 10.2115 98.2356 11.6038 101.76L21.8544 127.973C23.2375 131.495 25.8848 134.374 29.2783 136.047C32.6718 137.72 36.5675 138.067 40.2032 137.02L63.1126 130.413C65.1442 129.83 67.0317 128.83 68.6541 127.475C70.2764 126.121 71.5979 124.442 72.5339 122.547C73.4698 120.652 73.9996 118.583 74.0892 116.471C74.1788 114.359 73.8262 112.252 73.0542 110.285L61.1733 80.0019C60.4076 78.0321 59.2392 76.2439 57.7428 74.7517C56.2464 73.2594 54.455 72.0959 52.4832 71.3356C50.5113 70.5754 48.4025 70.2351 46.2916 70.3366C44.1808 70.4381 42.1143 70.9791 40.2245 71.925ZM36.6975 116.934C34.9961 117.601 33.1351 117.748 31.3499 117.357C29.5647 116.967 27.9356 116.055 26.6685 114.738C25.4014 113.421 24.5534 111.758 24.2317 109.959C23.91 108.16 24.129 106.306 24.8611 104.632C25.5932 102.958 26.8055 101.538 28.3445 100.552C29.8836 99.5671 31.6804 99.0604 33.5075 99.0963C35.3346 99.1323 37.11 99.7093 38.6091 100.754C40.1083 101.8 41.2637 103.266 41.9294 104.968C42.3777 106.099 42.5979 107.309 42.5773 108.526C42.5568 109.743 42.2959 110.944 41.8097 112.06C41.3236 113.176 40.6216 114.184 39.7443 115.028C38.867 115.872 37.8316 116.534 36.6975 116.977V116.934Z" fill="#407BFF"/>
<path d="M40.2245 71.925L18.9135 82.6338C15.5252 84.3316 12.8955 87.2368 11.5426 90.7769C10.1896 94.3171 10.2115 98.2356 11.6038 101.76L21.8544 127.973C23.2375 131.495 25.8848 134.374 29.2783 136.047C32.6718 137.72 36.5675 138.067 40.2032 137.02L63.1126 130.413C65.1442 129.83 67.0317 128.83 68.6541 127.475C70.2764 126.121 71.5979 124.442 72.5339 122.547C73.4698 120.652 73.9996 118.583 74.0892 116.471C74.1788 114.359 73.8262 112.252 73.0542 110.285L61.1733 80.0019C60.4076 78.0321 59.2392 76.2439 57.7428 74.7517C56.2464 73.2594 54.455 72.0959 52.4832 71.3356C50.5113 70.5754 48.4025 70.2351 46.2916 70.3366C44.1808 70.4381 42.1143 70.9791 40.2245 71.925ZM36.6975 116.934C34.9961 117.601 33.1351 117.748 31.3499 117.357C29.5647 116.967 27.9356 116.055 26.6685 114.738C25.4014 113.421 24.5534 111.758 24.2317 109.959C23.91 108.16 24.129 106.306 24.8611 104.632C25.5932 102.958 26.8055 101.538 28.3445 100.552C29.8836 99.5671 31.6804 99.0604 33.5075 99.0963C35.3346 99.1323 37.11 99.7093 38.6091 100.754C40.1083 101.8 41.2637 103.266 41.9294 104.968C42.3777 106.099 42.5979 107.309 42.5773 108.526C42.5568 109.743 42.2959 110.944 41.8097 112.06C41.3236 113.176 40.6216 114.184 39.7443 115.028C38.867 115.872 37.8316 116.534 36.6975 116.977V116.934Z" fill="#407BFF"/>
<path opacity="0.1" d="M73.0541 110.285L61.1732 80.0019C60.4076 78.0321 59.2392 76.2439 57.7428 74.7517C56.2464 73.2594 54.455 72.0959 52.4831 71.3356C50.5113 70.5754 48.4025 70.2351 46.2916 70.3366C44.1807 70.4381 42.1143 70.9791 40.2245 71.925L34.0336 75.1216L29.878 77.2527L18.9241 82.7617C15.564 84.4556 12.9538 87.3383 11.6009 90.8496C10.2479 94.3609 10.249 98.2499 11.6038 101.76L21.8544 127.973C23.2375 131.495 25.8847 134.374 29.2783 136.047C32.6718 137.72 36.5674 138.067 40.2032 137.02L63.1232 130.413C64.9372 129.89 66.6362 129.03 68.1313 127.877C69.2546 127.031 70.2489 126.026 71.0829 124.894C72.6297 122.829 73.6228 120.402 73.9679 117.846C74.3129 115.289 73.9983 112.686 73.0541 110.285ZM36.6975 116.955C34.9969 117.619 33.1376 117.765 31.3544 117.373C29.5712 116.981 27.9441 116.07 26.6784 114.754C25.4128 113.438 24.5654 111.777 24.2432 109.98C23.9211 108.183 24.1386 106.331 24.8684 104.657C25.5981 102.984 26.8074 101.564 28.3434 100.577C29.8795 99.5904 31.6735 99.0809 33.4989 99.113C35.3244 99.1451 37.0994 99.7173 38.5998 100.757C40.1003 101.798 41.2589 103.259 41.9294 104.957C42.3793 106.089 42.6007 107.3 42.581 108.518C42.5613 109.736 42.3009 110.938 41.8146 112.056C41.3283 113.173 40.6258 114.183 39.7476 115.027C38.8694 115.872 37.8328 116.534 36.6975 116.977V116.955Z" fill="white"/>
<path d="M40.4376 73.9707L20.4585 84.0082C17.289 85.5995 14.8283 88.3175 13.5588 91.6292C12.2893 94.9408 12.3027 98.6072 13.5964 101.909L23.2396 126.481C24.5285 129.792 27.0081 132.502 30.1917 134.079C33.3754 135.656 37.0335 135.986 40.4483 135.005L61.9298 128.804C63.8316 128.256 65.598 127.316 67.1161 126.046C68.6342 124.776 69.8706 123.203 70.7461 121.428C71.6216 119.653 72.1171 117.715 72.2008 115.737C72.2844 113.76 71.9545 111.786 71.2321 109.944L60.0971 81.5148C59.3754 79.6691 58.2765 77.9943 56.8707 76.5974C55.4649 75.2005 53.7832 74.1122 51.933 73.4022C50.0827 72.6922 48.1047 72.3761 46.1253 72.4739C44.146 72.5718 42.2088 73.0816 40.4376 73.9707ZM24.7207 111.744C24.0547 110.043 23.9079 108.183 24.2991 106.398C24.6902 104.614 25.6017 102.985 26.9182 101.719C28.2347 100.452 29.8972 99.6043 31.6955 99.2825C33.4938 98.9606 35.3472 99.1792 37.0213 99.9105C38.6955 100.642 40.1152 101.853 41.101 103.391C42.0869 104.929 42.5945 106.725 42.5599 108.552C42.5252 110.378 41.9498 112.153 40.9063 113.653C39.8628 115.153 38.3982 116.309 36.6975 116.976C35.5678 117.421 34.3614 117.639 33.1474 117.616C31.9335 117.594 30.7359 117.332 29.6233 116.846C28.5106 116.36 27.5049 115.659 26.6636 114.784C25.8223 113.908 25.1621 112.876 24.7207 111.744Z" fill="#407BFF"/>
<path opacity="0.1" d="M40.4376 73.9707L20.4585 84.0082C17.289 85.5995 14.8283 88.3175 13.5588 91.6292C12.2893 94.9408 12.3027 98.6072 13.5964 101.909L23.2396 126.481C24.5285 129.792 27.0081 132.502 30.1917 134.079C33.3754 135.656 37.0335 135.986 40.4483 135.005L61.9298 128.804C63.8316 128.256 65.598 127.316 67.1161 126.046C68.6342 124.776 69.8706 123.203 70.7461 121.428C71.6216 119.653 72.1171 117.715 72.2008 115.737C72.2844 113.76 71.9545 111.786 71.2321 109.944L60.0971 81.5148C59.3754 79.6691 58.2765 77.9943 56.8707 76.5974C55.4649 75.2005 53.7832 74.1122 51.933 73.4022C50.0827 72.6922 48.1047 72.3761 46.1253 72.4739C44.146 72.5718 42.2088 73.0816 40.4376 73.9707ZM24.7207 111.744C24.0547 110.043 23.9079 108.183 24.2991 106.398C24.6902 104.614 25.6017 102.985 26.9182 101.719C28.2347 100.452 29.8972 99.6043 31.6955 99.2825C33.4938 98.9606 35.3472 99.1792 37.0213 99.9105C38.6955 100.642 40.1152 101.853 41.101 103.391C42.0869 104.929 42.5945 106.725 42.5599 108.552C42.5252 110.378 41.9498 112.153 40.9063 113.653C39.8628 115.153 38.3982 116.309 36.6975 116.976C35.5678 117.421 34.3614 117.639 33.1474 117.616C31.9335 117.594 30.7359 117.332 29.6233 116.846C28.5106 116.36 27.5049 115.659 26.6636 114.784C25.8223 113.908 25.1621 112.876 24.7207 111.744Z" fill="#407BFF"/>
<path d="M139.726 64.4658L139.118 65.5313L138.778 66.1494L137.808 67.9075L138.213 72.4148C138.234 72.6055 138.213 72.7986 138.149 72.9796C138.083 73.1756 137.976 73.3552 137.834 73.506C137.692 73.6567 137.52 73.7752 137.328 73.8533L128.911 77.1459C128.718 77.2225 128.511 77.2547 128.304 77.2399C128.097 77.2251 127.897 77.1639 127.717 77.0606C127.598 77.001 127.49 76.9218 127.397 76.8262L122.634 71.9779L115.858 74.6312L116.838 77.1352L110.072 79.7778L111.681 83.9015L106.704 85.8514C106.506 85.9285 106.293 85.9626 106.08 85.9516C105.867 85.9406 105.658 85.8847 105.468 85.7875C105.339 85.7256 105.22 85.6428 105.117 85.5424L102.25 82.8466L95.4735 85.4891L97.0931 89.6128L89.9752 92.4046L91.5949 96.5389C91.6586 96.6998 91.6898 96.8716 91.6867 97.0446C91.6837 97.2176 91.6464 97.3882 91.577 97.5467C91.5077 97.7052 91.4076 97.8484 91.2827 97.968C91.1577 98.0877 91.0103 98.1814 90.849 98.2438L71.36 105.873L62.8995 84.2957L133.418 56.6873L134.483 57.252L138.053 59.0954C138.524 59.3291 138.943 59.6558 139.284 60.0558C139.625 60.4558 139.882 60.9209 140.038 61.4228C140.194 61.9248 140.247 62.4533 140.194 62.9763C140.14 63.4993 139.981 64.006 139.726 64.4658Z" fill="#407BFF"/>
<g opacity="0.1">
<path d="M139.726 64.4658L139.118 65.5313L138.778 66.1494L137.808 67.9075L138.213 72.4148C138.234 72.6055 138.213 72.7986 138.149 72.9796C138.083 73.1756 137.976 73.3552 137.834 73.506C137.692 73.6567 137.52 73.7752 137.328 73.8533L128.911 77.1459C128.718 77.2225 128.511 77.2547 128.304 77.2399C128.097 77.2251 127.897 77.1639 127.717 77.0606C127.598 77.001 127.49 76.9218 127.397 76.8262L122.634 71.9779L115.858 74.6312L116.838 77.1352L110.072 79.7778L111.681 83.9015L106.704 85.8514C106.506 85.9285 106.293 85.9626 106.08 85.9516C105.867 85.9406 105.658 85.8847 105.468 85.7875C105.339 85.7256 105.22 85.6428 105.117 85.5424L102.25 82.8466L95.4735 85.4891L97.0931 89.6128L89.9752 92.4046L91.5949 96.5389C91.6586 96.6998 91.6898 96.8716 91.6867 97.0446C91.6837 97.2176 91.6464 97.3882 91.577 97.5467C91.5077 97.7052 91.4076 97.8484 91.2827 97.968C91.1577 98.0877 91.0103 98.1814 90.849 98.2438L71.36 105.873L62.8995 84.2957L133.418 56.6873L134.483 57.252L138.053 59.0954C138.524 59.3291 138.943 59.6558 139.284 60.0558C139.625 60.4558 139.882 60.9209 140.038 61.4228C140.194 61.9248 140.247 62.4533 140.194 62.9763C140.14 63.4993 139.981 64.006 139.726 64.4658Z" fill="white"/>
</g>
<path d="M139.449 62.0364L64.0505 91.5522L61.8555 86.0114L133.738 57.8701L137.318 59.7029C138.682 60.4061 139.46 61.0561 139.449 62.0364Z" fill="#407BFF"/>
<path opacity="0.1" d="M139.449 62.0364L64.0505 91.5522L61.8555 86.0114L133.738 57.8701L137.318 59.7029C138.682 60.4061 139.46 61.0561 139.449 62.0364Z" fill="black"/>
<path d="M138 66.1921L137.275 67.833C137.269 67.8611 137.269 67.8902 137.275 67.9183L137.691 72.3723C137.718 72.531 137.718 72.6931 137.691 72.8518C137.684 72.8785 137.67 72.9031 137.652 72.9235C137.633 72.9439 137.61 72.9595 137.584 72.969L128.431 76.5706C128.408 76.5837 128.383 76.5906 128.356 76.5906C128.33 76.5906 128.305 76.5837 128.282 76.5706C128.191 76.5157 128.108 76.4475 128.037 76.3681L122.794 71.1043C122.768 71.086 122.736 71.0762 122.704 71.0762C122.671 71.0762 122.64 71.086 122.613 71.1043L115.154 74.0239C115.113 74.0426 115.081 74.0759 115.063 74.1173C115.045 74.1586 115.044 74.2051 115.058 74.2477L115.943 76.496C115.951 76.5169 115.956 76.5394 115.956 76.5621C115.955 76.5847 115.951 76.6072 115.942 76.628C115.933 76.6488 115.92 76.6677 115.904 76.6834C115.887 76.6992 115.868 76.7115 115.847 76.7197L109.507 79.2131C109.486 79.2213 109.466 79.2337 109.45 79.2495C109.434 79.2652 109.421 79.284 109.412 79.3049C109.403 79.3257 109.398 79.3481 109.398 79.3708C109.398 79.3935 109.402 79.4159 109.411 79.4369L110.935 83.3048C110.945 83.3256 110.951 83.3483 110.951 83.3715C110.952 83.3946 110.948 83.4176 110.938 83.4389C110.929 83.4602 110.916 83.4792 110.898 83.4947C110.881 83.5102 110.861 83.5218 110.839 83.5286L106.193 85.3614C106.17 85.3745 106.145 85.3814 106.118 85.3814C106.092 85.3814 106.066 85.3745 106.044 85.3614C105.946 85.3061 105.857 85.238 105.777 85.1589L102.368 82.0262C102.342 82.0112 102.312 82.0033 102.282 82.0033C102.252 82.0033 102.223 82.0112 102.197 82.0262L94.8129 84.9352C94.7907 84.942 94.7704 84.9536 94.7532 84.9691C94.736 84.9846 94.7223 85.0036 94.7132 85.0249C94.7041 85.0462 94.6997 85.0692 94.7003 85.0923C94.701 85.1154 94.7067 85.1382 94.717 85.1589L96.2727 89.1228C96.283 89.1435 96.2886 89.1662 96.2893 89.1894C96.2899 89.2125 96.2855 89.2355 96.2764 89.2568C96.2673 89.2781 96.2537 89.2971 96.2365 89.3126C96.2193 89.3281 96.1989 89.3397 96.1768 89.3465L67.8224 100.503C67.7814 100.517 67.7365 100.515 67.6968 100.497C67.6572 100.479 67.6259 100.447 67.6093 100.407L64.6897 93.2358C64.675 93.1933 64.6767 93.1468 64.6945 93.1054C64.7122 93.064 64.7447 93.0308 64.7856 93.012L138.671 63.9331C138.703 63.9211 138.738 63.919 138.771 63.927C138.804 63.935 138.834 63.9528 138.857 63.9781C138.88 64.0033 138.895 64.0349 138.9 64.0686C138.904 64.1024 138.899 64.1369 138.884 64.1675L138 66.1921Z" fill="#407BFF"/>
<path opacity="0.1" d="M138 66.1921L137.275 67.833C137.269 67.8611 137.269 67.8902 137.275 67.9183L137.691 72.3723C137.718 72.531 137.718 72.6931 137.691 72.8518C137.684 72.8785 137.67 72.9031 137.652 72.9235C137.633 72.9439 137.61 72.9595 137.584 72.969L128.431 76.5706C128.408 76.5837 128.383 76.5906 128.356 76.5906C128.33 76.5906 128.305 76.5837 128.282 76.5706C128.191 76.5157 128.108 76.4475 128.037 76.3681L122.794 71.1043C122.768 71.086 122.736 71.0762 122.704 71.0762C122.671 71.0762 122.64 71.086 122.613 71.1043L115.154 74.0239C115.113 74.0426 115.081 74.0759 115.063 74.1173C115.045 74.1586 115.044 74.2051 115.058 74.2477L115.943 76.496C115.951 76.5169 115.956 76.5394 115.956 76.5621C115.955 76.5847 115.951 76.6072 115.942 76.628C115.933 76.6488 115.92 76.6677 115.904 76.6834C115.887 76.6992 115.868 76.7115 115.847 76.7197L109.507 79.2131C109.486 79.2213 109.466 79.2337 109.45 79.2495C109.434 79.2652 109.421 79.284 109.412 79.3049C109.403 79.3257 109.398 79.3481 109.398 79.3708C109.398 79.3935 109.402 79.4159 109.411 79.4369L110.935 83.3048C110.945 83.3256 110.951 83.3483 110.951 83.3715C110.952 83.3946 110.948 83.4176 110.938 83.4389C110.929 83.4602 110.916 83.4792 110.898 83.4947C110.881 83.5102 110.861 83.5218 110.839 83.5286L106.193 85.3614C106.17 85.3745 106.145 85.3814 106.118 85.3814C106.092 85.3814 106.066 85.3745 106.044 85.3614C105.946 85.3061 105.857 85.238 105.777 85.1589L102.368 82.0262C102.342 82.0112 102.312 82.0033 102.282 82.0033C102.252 82.0033 102.223 82.0112 102.197 82.0262L94.8129 84.9352C94.7907 84.942 94.7704 84.9536 94.7532 84.9691C94.736 84.9846 94.7223 85.0036 94.7132 85.0249C94.7041 85.0462 94.6997 85.0692 94.7003 85.0923C94.701 85.1154 94.7067 85.1382 94.717 85.1589L96.2727 89.1228C96.283 89.1435 96.2886 89.1662 96.2893 89.1894C96.2899 89.2125 96.2855 89.2355 96.2764 89.2568C96.2673 89.2781 96.2537 89.2971 96.2365 89.3126C96.2193 89.3281 96.1989 89.3397 96.1768 89.3465L67.8224 100.503C67.7814 100.517 67.7365 100.515 67.6968 100.497C67.6572 100.479 67.6259 100.447 67.6093 100.407L64.6897 93.2358C64.675 93.1933 64.6767 93.1468 64.6945 93.1054C64.7122 93.064 64.7447 93.0308 64.7856 93.012L138.671 63.9331C138.703 63.9211 138.738 63.919 138.771 63.927C138.804 63.935 138.834 63.9528 138.857 63.9781C138.88 64.0033 138.895 64.0349 138.9 64.0686C138.904 64.1024 138.899 64.1369 138.884 64.1675L138 66.1921Z" fill="black"/>
<path opacity="0.3" d="M29.3879 97.4981C27.2567 98.3356 25.4216 99.7861 24.1144 101.666C22.8072 103.546 22.0867 105.772 22.0438 108.061C22.0009 110.351 22.6376 112.602 23.8735 114.529C25.1094 116.457 26.889 117.975 28.9873 118.892C31.0857 119.809 33.4087 120.083 35.6629 119.68C37.917 119.277 40.0011 118.215 41.6518 116.628C43.3025 115.041 44.4458 113 44.9371 110.763C45.4284 108.527 45.2458 106.195 44.4122 104.062C43.8602 102.642 43.0329 101.345 41.9779 100.245C40.9229 99.1461 39.6611 98.2661 38.2648 97.6561C36.8686 97.0461 35.3656 96.7182 33.8422 96.691C32.3187 96.6639 30.805 96.9382 29.3879 97.4981ZM36.6976 116.998C34.9962 117.665 33.1352 117.812 31.35 117.421C29.5648 117.03 27.9356 116.119 26.6686 114.802C25.4015 113.485 24.5535 111.822 24.2318 110.023C23.9101 108.224 24.1291 106.37 24.8612 104.696C25.5933 103.021 26.8055 101.602 28.3446 100.616C29.8837 99.6309 31.6804 99.1242 33.5076 99.1601C35.3347 99.1961 37.1101 99.7731 38.6092 100.818C40.1083 101.863 41.2638 103.33 41.9295 105.032C42.8149 107.31 42.7614 109.846 41.7808 112.085C40.8002 114.323 38.9724 116.082 36.6976 116.976V116.998Z" fill="white"/>
<path opacity="0.1" d="M71.0935 124.883C70.2634 126.015 69.2727 127.02 68.1526 127.866L29.8673 77.1565C29.8673 77.1565 33.2451 75.4623 34.0123 74.9508C34.0183 75.0073 34.0365 75.0618 34.0656 75.1106C35.7065 78.6589 65.7977 117.743 71.0935 124.883Z" fill="white"/>
<path opacity="0.1" d="M65.5423 129.465C65.3079 129.571 54.1516 132.97 54.1516 132.97L41.7166 116.508C43.593 114.632 44.7687 112.169 45.0472 109.531C45.3257 106.893 44.69 104.239 43.2464 102.013C41.8028 99.7871 39.6389 98.1243 37.1164 97.3025C34.594 96.4807 31.8658 96.5498 29.3881 97.4982C28.8738 97.6906 28.378 97.9296 27.907 98.2121L16.9105 83.646C16.9105 83.646 26.5751 79.0428 27.6406 78.3182C27.9283 80.3748 65.5423 129.039 65.5423 129.465Z" fill="white"/>
<path d="M19.9258 49.4845C19.3007 50.2263 18.8541 51.1017 18.6205 52.0432C18.3869 52.9847 18.3725 53.9673 18.5784 54.9153C18.7842 55.8633 19.2049 56.7514 19.8079 57.5113C20.411 58.2711 21.1804 58.8825 22.0569 59.2982C22.9733 59.7244 23.9749 59.9269 24.8699 60.3637C25.3372 60.5523 25.7497 60.8549 26.0698 61.2439C26.39 61.633 26.6076 62.096 26.7027 62.5908C26.8092 63.6563 25.9888 64.7219 26.074 65.7874C26.1655 66.2863 26.3595 66.7607 26.6438 67.1807C26.9281 67.6008 27.2965 67.9572 27.7256 68.2275C28.5886 68.7669 29.3174 69.4957 29.8567 70.3586C29.9779 70.5778 30.0526 70.8196 30.0761 71.0689C30.0997 71.3182 30.0716 71.5697 29.9936 71.8077C29.9156 72.0457 29.7894 72.265 29.6228 72.452C29.4563 72.639 29.253 72.7897 29.0256 72.8947C28.9107 73.0978 28.8504 73.3272 28.8504 73.5606C28.8504 73.794 28.9107 74.0234 29.0256 74.2266C29.1624 74.3651 29.3415 74.4539 29.5346 74.479C29.7276 74.5041 29.9235 74.464 30.0911 74.3651C30.8488 73.8915 31.4777 73.2381 31.922 72.463C32.3663 71.6878 32.6122 70.8149 32.6378 69.9218C32.6277 69.0368 32.3685 68.1725 31.8898 67.4281C31.4111 66.6837 30.7323 66.0892 29.9313 65.7128C29.8298 65.394 29.7936 65.0579 29.8247 64.7247C29.8558 64.3916 29.9537 64.0681 30.1125 63.7735C30.592 62.5588 31.0821 61.3334 31.5723 60.1187C31.6509 59.8207 31.6641 59.5092 31.6107 59.2057C31.5574 58.9021 31.4388 58.6138 31.2633 58.3605C30.8997 57.9947 30.4593 57.7144 29.9739 57.54L26.8306 56.1974C25.6478 55.686 22.1208 50.9762 26.2978 49.6017C26.0466 49.0685 25.6529 48.6152 25.1603 48.2918C24.6676 47.9683 24.0951 47.7874 23.506 47.7689C22.8138 47.7354 22.1241 47.8747 21.4991 48.1742C20.874 48.4736 20.3334 48.9239 19.9258 49.4845Z" fill="#263238"/>
<path d="M25.6265 44.4128L25.3069 48.1315C26.3724 46.4267 28.2798 43.1128 28.2158 43.2407C27.3954 43.6882 26.447 43.9652 25.6265 44.4128Z" fill="#263238"/>
<path d="M27.0328 46.4476L31.4016 42.4092C30.833 42.2122 30.2204 42.1797 29.6342 42.3154C29.0479 42.4511 28.5119 42.7496 28.0877 43.1764C28.1197 43.0805 27.4377 45.1476 27.0328 46.4476Z" fill="#263238"/>
<path d="M18.1567 147.259C12.4773 154.313 14.3633 159.716 6.52087 172.204C16.4199 179.535 27.2672 180.728 40.7464 179.663C42.3448 176.839 43.1439 173.898 44.7422 171.074C47.0225 173.909 48.8553 176.285 51.1356 179.13C58.2002 178.064 66.5967 176.029 72.1802 172.428C67.2467 166.77 64.1779 159.705 61.0239 153.472C59.5428 150.541 60.1608 149.316 56.2289 145.48C43.7087 146.055 31.295 146.354 18.7854 146.94C19.1264 146.993 17.8264 147.238 18.1567 147.259Z" fill="#263238"/>
<path d="M19.7233 146.077L18.9455 149.369C18.8283 149.636 19.1373 149.881 19.5528 149.849L54.0661 148.325C54.1975 148.341 54.3303 148.31 54.4413 148.238C54.5523 148.166 54.6344 148.057 54.6734 147.931L54.8546 144.66C54.8546 144.446 54.5669 144.255 54.2046 144.287L20.3094 145.778C20.1943 145.774 20.08 145.799 19.9773 145.851C19.8747 145.903 19.7872 145.981 19.7233 146.077Z" fill="#407BFF"/>
<path d="M19.7233 146.077L18.9455 149.369C18.8283 149.636 19.1373 149.881 19.5528 149.849L54.0661 148.325C54.1975 148.341 54.3303 148.31 54.4413 148.238C54.5523 148.166 54.6344 148.057 54.6734 147.931L54.8546 144.66C54.8546 144.446 54.5669 144.255 54.2046 144.287L20.3094 145.778C20.1943 145.774 20.08 145.799 19.9773 145.851C19.8747 145.903 19.7872 145.981 19.7233 146.077Z" fill="#407BFF"/>
<path d="M27.3209 149.86H26.3193C26.1275 149.86 25.9676 149.774 25.9783 149.657L26.2447 145.395C26.2447 145.267 26.4258 145.16 26.6176 145.16L27.6299 145.107C27.811 145.107 27.9709 145.192 27.9602 145.32L27.6938 149.583C27.6832 149.71 27.5127 149.849 27.3209 149.86Z" fill="#263238"/>
<path d="M52.2332 148.783H51.2316C51.0398 148.783 50.88 148.698 50.8906 148.581L51.157 144.318C51.157 144.191 51.3382 144.073 51.53 144.073H52.5316C52.7234 144.073 52.8726 144.159 52.8619 144.276L52.5955 148.538C52.5955 148.645 52.4357 148.772 52.2332 148.783Z" fill="#263238"/>
<path d="M31.7747 129.167C31.8386 129.476 34.5131 133.738 36.6229 133.429C36.9229 133.387 37.2286 133.426 37.5091 133.54C37.7897 133.654 38.0353 133.84 38.2212 134.079C39.063 135.144 39.5745 135.805 40.1392 136.53C40.587 137.101 41.2161 137.504 41.9231 137.67C42.63 137.837 43.3726 137.758 44.0285 137.446C44.4228 137.265 44.817 137.062 45.2113 136.849C45.8478 136.517 46.3537 135.979 46.6475 135.324C46.9413 134.669 47.006 133.934 46.8309 133.237C46.4401 131.666 45.8341 130.156 45.0301 128.751C44.7926 128.251 44.4245 127.824 43.9646 127.515C41.7498 126.668 39.4309 126.123 37.0705 125.895C35.259 125.97 33.4902 128.399 31.7747 129.167Z" fill="#E8BFBF"/>
<path d="M37.1772 125.767C37.1772 125.767 8.8548 117.19 2.73853 122.901C-0.85238 126.257 0.841849 129.433 2.85574 131.425C4.34752 132.949 7.59745 132.576 9.72855 132.491L32.0412 130.296L37.1772 125.767Z" fill="#E8BFBF"/>
<path d="M20.8955 121.846C20.7682 121.084 20.4531 120.365 19.9788 119.755C19.5044 119.145 18.8857 118.662 18.1783 118.351C16.7597 117.75 15.2508 117.39 13.7137 117.286L3.05813 115.932C1.14321 118.294 0.0674651 121.225 0 124.265C0.0755029 127.205 1.15039 130.031 3.04748 132.278C4.75236 128.985 7.00066 125.597 10.3252 123.956C13.6497 122.315 17.2513 121.186 20.8955 121.846Z" fill="#263238"/>
<path opacity="0.1" d="M13.5964 70.1135C13.5964 70.0495 13.5964 70.0176 13.5964 70.0069C13.8202 69.943 13.7882 69.9856 13.5964 70.1135Z" fill="white"/>
<path d="M83.9657 24.2517L91.8508 38.8924L124.052 11.5503C124.108 11.5012 124.144 11.4326 124.152 11.3583C124.161 11.284 124.141 11.2092 124.096 11.1489C124.052 11.0886 123.987 11.0471 123.913 11.0326C123.84 11.0181 123.764 11.0318 123.7 11.0708L93.513 30.9966L88.8672 21.9181L83.9657 24.2517Z" fill="#407BFF"/>
<path d="M66.1711 53.4161L79.1922 38.8927C77.2404 36.9923 75.6824 34.7257 74.6073 32.2227C73.5322 29.7196 72.9611 27.0292 72.9267 24.3052C72.9267 10.9006 86.9494 0 104.19 0C121.431 0 135.464 10.9006 135.464 24.3052C135.464 37.7099 121.431 48.5998 104.19 48.5998C98.1223 48.652 92.1327 47.2296 86.7363 44.4548L66.1711 53.4161ZM104.19 1.40653C87.7166 1.40653 74.3546 11.6891 74.3546 24.3266C74.398 26.9787 74.9806 29.5943 76.0668 32.0141C77.1531 34.434 78.7204 36.6075 80.6733 38.4025L81.1422 38.8607L71.4989 49.6121L86.8535 42.9418L87.1519 43.1016C92.4073 45.8634 98.2639 47.2837 104.201 47.2359C120.685 47.2359 134.089 36.964 134.089 24.3266C134.089 11.6891 120.674 1.40653 104.19 1.40653Z" fill="#407BFF"/>
</svg>
