<svg width="30" height="37" viewBox="0 0 30 37" fill="none" xmlns="http://www.w3.org/2000/svg">
<path fill-rule="evenodd" clip-rule="evenodd" d="M5.72225 9.27582V9.99836H2.79109C2.36858 9.99809 1.96008 10.1499 1.64025 10.426C1.32042 10.702 1.11061 11.084 1.04918 11.502L0.625424 14.4176C-0.208475 20.1089 -0.208475 25.8914 0.625424 31.5827C0.807187 32.8221 1.39681 33.9656 2.30111 34.8324C3.2054 35.6992 4.37279 36.2399 5.61875 36.369L6.84706 36.4979C12.268 37.0603 17.732 37.0603 23.153 36.4979L24.3832 36.369C25.6289 36.2395 26.7958 35.6986 27.6997 34.8318C28.6036 33.965 29.1929 32.8218 29.3746 31.5827C30.2085 25.8914 30.2085 20.1089 29.3746 14.4176L28.9489 11.502C28.8875 11.084 28.6777 10.702 28.3578 10.426C28.038 10.1499 27.6295 9.99809 27.207 9.99836H24.2739V9.27582C24.2739 6.81572 23.2966 4.45638 21.5571 2.71683C19.8175 0.977272 17.4582 0 14.9981 0C12.538 0 10.1786 0.977272 8.43907 2.71683C6.69952 4.45638 5.72225 6.81572 5.72225 9.27582ZM16.5798 3.13035C15.6423 2.88906 14.662 2.86547 13.7139 3.06136C12.7658 3.25725 11.8751 3.66743 11.1099 4.26053C10.3448 4.85362 9.72543 5.6139 9.29931 6.48319C8.87319 7.35247 8.65158 8.30772 8.65145 9.27582V9.99836H21.3447V9.27582C21.3445 7.86809 20.8763 6.50037 20.0137 5.38786C19.1511 4.27535 17.9432 3.4812 16.5798 3.13035ZM8.65145 12.9276C8.65145 12.5391 8.49715 12.1666 8.22248 11.8919C7.94781 11.6173 7.57529 11.463 7.18685 11.463C6.79841 11.463 6.42588 11.6173 6.15122 11.8919C5.87655 12.1666 5.72225 12.5391 5.72225 12.9276V16.8332C5.72225 17.2216 5.87655 17.5941 6.15122 17.8688C6.42588 18.1435 6.79841 18.2978 7.18685 18.2978C7.57529 18.2978 7.94781 18.1435 8.22248 17.8688C8.49715 17.5941 8.65145 17.2216 8.65145 16.8332V12.9276ZM24.2739 12.9276C24.2739 12.5391 24.1196 12.1666 23.8449 11.8919C23.5703 11.6173 23.1977 11.463 22.8093 11.463C22.4209 11.463 22.0483 11.6173 21.7737 11.8919C21.499 12.1666 21.3447 12.5391 21.3447 12.9276V16.8332C21.3447 17.2216 21.499 17.5941 21.7737 17.8688C22.0483 18.1435 22.4209 18.2978 22.8093 18.2978C23.1977 18.2978 23.5703 18.1435 23.8449 17.8688C24.1196 17.5941 24.2739 17.2216 24.2739 16.8332V12.9276Z" fill="#FFB573"/>
</svg>
