<svg width="357" height="141" viewBox="0 0 357 141" fill="none" xmlns="http://www.w3.org/2000/svg">
<path d="M260.807 0H0V129.577H260.807V0Z" fill="white"/>
<path d="M232.936 48.6349H23.6243C21.9697 48.6349 20.6284 49.9762 20.6284 51.6307V77.109C20.6284 78.7636 21.9697 80.1048 23.6243 80.1048H232.936C234.591 80.1048 235.932 78.7636 235.932 77.109V51.6307C235.932 49.9762 234.591 48.6349 232.936 48.6349Z" fill="#FAFAFA"/>
<path d="M34.8355 57.3125H33.9438V71.9927H34.8355V57.3125Z" fill="#407BFF"/>
<path d="M37.4435 98.0472C37.3725 97.3311 37.0677 96.7747 36.5291 96.3782C35.9905 95.9817 35.2596 95.7834 34.3363 95.7834C33.7089 95.7834 33.1792 95.8722 32.7472 96.0497C32.3151 96.2214 31.9837 96.4611 31.7528 96.7688C31.5279 97.0766 31.4155 97.4258 31.4155 97.8164C31.4036 98.1419 31.4717 98.426 31.6197 98.6687C31.7736 98.9113 31.9837 99.1214 32.25 99.299C32.5163 99.4706 32.8241 99.6216 33.1733 99.7518C33.5225 99.8761 33.8954 99.9826 34.2919 100.071L35.9254 100.462C36.7185 100.64 37.4465 100.876 38.1094 101.172C38.7723 101.468 39.3464 101.832 39.8317 102.264C40.317 102.696 40.6928 103.205 40.9592 103.791C41.2314 104.377 41.3705 105.049 41.3764 105.806C41.3705 106.919 41.0864 107.884 40.5241 108.701C39.9678 109.511 39.1629 110.142 38.1094 110.592C37.0618 111.036 35.7982 111.257 34.3185 111.257C32.8507 111.257 31.5723 111.033 30.4833 110.583C29.4002 110.133 28.5539 109.467 27.9442 108.585C27.3406 107.697 27.0239 106.6 26.9943 105.292H30.7141C30.7556 105.901 30.9302 106.41 31.2379 106.819C31.5516 107.221 31.9689 107.526 32.4897 107.733C33.0165 107.934 33.6113 108.035 34.2741 108.035C34.9252 108.035 35.4904 107.94 35.9698 107.751C36.4551 107.561 36.831 107.298 37.0973 106.961C37.3636 106.623 37.4968 106.236 37.4968 105.798C37.4968 105.389 37.3755 105.046 37.1328 104.768C36.8961 104.49 36.5469 104.253 36.0852 104.058C35.6295 103.862 35.0702 103.685 34.4073 103.525L32.4276 103.028C30.8946 102.655 29.6843 102.072 28.7965 101.279C27.9087 100.486 27.4678 99.4174 27.4737 98.0739C27.4678 96.973 27.7608 96.0112 28.3526 95.1886C28.9504 94.3659 29.7701 93.7237 30.8118 93.2621C31.8535 92.8004 33.0372 92.5696 34.3629 92.5696C35.7124 92.5696 36.8902 92.8004 37.8963 93.2621C38.9084 93.7237 39.6955 94.3659 40.2578 95.1886C40.8201 96.0112 41.1101 96.9641 41.1278 98.0472H37.4435ZM47.8062 92.8182V111H43.9621V92.8182H47.8062ZM63.025 98.6953C62.9007 98.2633 62.7261 97.8815 62.5012 97.5501C62.2763 97.2127 62.0011 96.9286 61.6756 96.6978C61.356 96.4611 60.9891 96.2805 60.5748 96.1562C60.1664 96.032 59.7136 95.9698 59.2164 95.9698C58.2872 95.9698 57.4705 96.2006 56.7662 96.6623C56.0678 97.1239 55.5233 97.7957 55.1326 98.6776C54.742 99.5535 54.5467 100.625 54.5467 101.891C54.5467 103.158 54.7391 104.235 55.1238 105.123C55.5085 106.011 56.053 106.688 56.7573 107.156C57.4616 107.618 58.2931 107.848 59.252 107.848C60.122 107.848 60.8648 107.694 61.4803 107.387C62.1017 107.073 62.5752 106.632 62.9007 106.064C63.2322 105.496 63.3979 104.824 63.3979 104.049L64.1792 104.164H59.4917V101.27H67.1V103.56C67.1 105.158 66.7626 106.531 66.0879 107.68C65.4132 108.822 64.484 109.704 63.3002 110.325C62.1165 110.941 60.7612 111.249 59.2342 111.249C57.5297 111.249 56.0323 110.873 54.742 110.121C53.4518 109.364 52.4456 108.289 51.7235 106.898C51.0074 105.502 50.6493 103.844 50.6493 101.927C50.6493 100.453 50.8624 99.1392 51.2885 97.9851C51.7206 96.825 52.3243 95.8426 53.0996 95.0376C53.8749 94.2327 54.7775 93.6201 55.8074 93.1999C56.8372 92.7797 57.9528 92.5696 59.1543 92.5696C60.1841 92.5696 61.1429 92.7205 62.0307 93.0224C62.9185 93.3183 63.7057 93.7385 64.3922 94.283C65.0847 94.8275 65.6499 95.4756 66.0879 96.2273C66.5259 96.973 66.807 97.7957 66.9313 98.6953H63.025ZM85.1952 92.8182V111H81.8749L73.9648 99.5565H73.8316V111H69.9875V92.8182H73.3611L81.2091 104.253H81.3689V92.8182H85.1952ZM105.388 92.8182H109.232V104.626C109.232 105.951 108.915 107.112 108.282 108.106C107.655 109.1 106.776 109.875 105.645 110.432C104.515 110.982 103.198 111.257 101.695 111.257C100.185 111.257 98.8656 110.982 97.7352 110.432C96.6047 109.875 95.7258 109.1 95.0985 108.106C94.4711 107.112 94.1574 105.951 94.1574 104.626V92.8182H98.0015V104.297C98.0015 104.99 98.1524 105.605 98.4543 106.144C98.762 106.682 99.1941 107.106 99.7504 107.413C100.307 107.721 100.955 107.875 101.695 107.875C102.44 107.875 103.089 107.721 103.639 107.413C104.195 107.106 104.624 106.682 104.926 106.144C105.234 105.605 105.388 104.99 105.388 104.297V92.8182ZM112.395 111V92.8182H119.568C120.947 92.8182 122.122 93.0816 123.093 93.6083C124.063 94.1291 124.803 94.8542 125.312 95.7834C125.827 96.7067 126.084 97.772 126.084 98.9794C126.084 100.187 125.824 101.252 125.303 102.175C124.782 103.099 124.028 103.818 123.039 104.333C122.057 104.848 120.867 105.105 119.47 105.105H114.898V102.025H118.849C119.589 102.025 120.198 101.897 120.678 101.643C121.163 101.382 121.524 101.024 121.761 100.569C122.003 100.107 122.125 99.5772 122.125 98.9794C122.125 98.3757 122.003 97.849 121.761 97.3991C121.524 96.9434 121.163 96.5913 120.678 96.3427C120.192 96.0882 119.577 95.9609 118.831 95.9609H116.239V111H112.395Z" fill="black"/>
<path d="M41.4169 66.9439C40.968 66.9439 40.5817 66.853 40.2578 66.6711C39.9358 66.4874 39.6877 66.228 39.5135 65.8927C39.3393 65.5556 39.2521 65.1569 39.2521 64.6967C39.2521 64.2478 39.3393 63.8539 39.5135 63.5149C39.6877 63.1759 39.933 62.9117 40.2493 62.7223C40.5675 62.5329 40.9406 62.4382 41.3686 62.4382C41.6565 62.4382 41.9245 62.4846 42.1726 62.5774C42.4226 62.6683 42.6404 62.8056 42.826 62.9893C43.0135 63.173 43.1593 63.4041 43.2635 63.6825C43.3677 63.959 43.4197 64.2829 43.4197 64.6541V64.9865H39.7351V64.2365H42.2805C42.2805 64.0622 42.2427 63.9079 42.1669 63.7734C42.0911 63.6389 41.986 63.5338 41.8516 63.4581C41.719 63.3804 41.5646 63.3416 41.3885 63.3416C41.2048 63.3416 41.0419 63.3842 40.8999 63.4694C40.7597 63.5528 40.6499 63.6655 40.5703 63.8075C40.4908 63.9477 40.45 64.1039 40.4482 64.2763V64.9893C40.4482 65.2052 40.4879 65.3918 40.5675 65.549C40.6489 65.7062 40.7635 65.8274 40.9112 65.9126C41.0589 65.9978 41.2341 66.0405 41.4368 66.0405C41.5713 66.0405 41.6944 66.0215 41.8061 65.9836C41.9179 65.9458 42.0135 65.8889 42.093 65.8132C42.1726 65.7374 42.2332 65.6446 42.2749 65.5348L43.3942 65.6086C43.3374 65.8776 43.2209 66.1124 43.0447 66.3132C42.8705 66.5121 42.6451 66.6674 42.3686 66.7791C42.094 66.8889 41.7768 66.9439 41.4169 66.9439ZM45.4197 64.3359V66.8586H44.2095V62.495H45.3629V63.2649H45.4141C45.5107 63.0111 45.6726 62.8103 45.8999 62.6626C46.1271 62.513 46.4027 62.4382 46.7266 62.4382C47.0296 62.4382 47.2938 62.5045 47.5192 62.6371C47.7446 62.7696 47.9197 62.959 48.0447 63.2052C48.1697 63.4496 48.2322 63.7412 48.2322 64.0802V66.8586H47.022V64.2961C47.0239 64.0291 46.9557 63.8208 46.8175 63.6711C46.6792 63.5196 46.4889 63.4439 46.2464 63.4439C46.0836 63.4439 45.9396 63.4789 45.8146 63.549C45.6915 63.6191 45.5949 63.7213 45.5249 63.8558C45.4567 63.9884 45.4216 64.1484 45.4197 64.3359ZM51.5071 62.495V63.4041H48.8793V62.495H51.5071ZM49.4759 61.4496H50.6861V65.5177C50.6861 65.6295 50.7031 65.7166 50.7372 65.7791C50.7713 65.8397 50.8187 65.8823 50.8793 65.9069C50.9418 65.9316 51.0137 65.9439 51.0952 65.9439C51.152 65.9439 51.2088 65.9391 51.2656 65.9297C51.3224 65.9183 51.366 65.9098 51.3963 65.9041L51.5866 66.8047C51.526 66.8236 51.4408 66.8454 51.331 66.87C51.2211 66.8965 51.0876 66.9126 50.9304 66.9183C50.6387 66.9297 50.383 66.8908 50.1634 66.8018C49.9455 66.7128 49.776 66.5746 49.6548 66.3871C49.5336 66.1996 49.474 65.9628 49.4759 65.6768V61.4496ZM54.2372 66.9439C53.7884 66.9439 53.402 66.853 53.0781 66.6711C52.7562 66.4874 52.508 66.228 52.3338 65.8927C52.1596 65.5556 52.0724 65.1569 52.0724 64.6967C52.0724 64.2478 52.1596 63.8539 52.3338 63.5149C52.508 63.1759 52.7533 62.9117 53.0696 62.7223C53.3878 62.5329 53.7609 62.4382 54.1889 62.4382C54.4768 62.4382 54.7448 62.4846 54.9929 62.5774C55.2429 62.6683 55.4607 62.8056 55.6463 62.9893C55.8338 63.173 55.9796 63.4041 56.0838 63.6825C56.188 63.959 56.2401 64.2829 56.2401 64.6541V64.9865H52.5554V64.2365H55.1009C55.1009 64.0622 55.063 63.9079 54.9872 63.7734C54.9115 63.6389 54.8063 63.5338 54.6719 63.4581C54.5393 63.3804 54.3849 63.3416 54.2088 63.3416C54.0251 63.3416 53.8622 63.3842 53.7202 63.4694C53.58 63.5528 53.4702 63.6655 53.3906 63.8075C53.3111 63.9477 53.2704 64.1039 53.2685 64.2763V64.9893C53.2685 65.2052 53.3082 65.3918 53.3878 65.549C53.4692 65.7062 53.5838 65.8274 53.7315 65.9126C53.8793 65.9978 54.0545 66.0405 54.2571 66.0405C54.3916 66.0405 54.5147 66.0215 54.6264 65.9836C54.7382 65.9458 54.8338 65.8889 54.9134 65.8132C54.9929 65.7374 55.0535 65.6446 55.0952 65.5348L56.2145 65.6086C56.1577 65.8776 56.0412 66.1124 55.8651 66.3132C55.6908 66.5121 55.4654 66.6674 55.1889 66.7791C54.9143 66.8889 54.5971 66.9439 54.2372 66.9439ZM57.0298 66.8586V62.495H58.2031V63.2564H58.2486C58.3281 62.9855 58.4616 62.781 58.6491 62.6427C58.8366 62.5026 59.0526 62.4325 59.2969 62.4325C59.3575 62.4325 59.4228 62.4363 59.4929 62.4439C59.563 62.4514 59.6245 62.4619 59.6776 62.4751V63.549C59.6207 63.5319 59.5421 63.5168 59.4418 63.5035C59.3414 63.4903 59.2495 63.4836 59.1662 63.4836C58.9882 63.4836 58.8291 63.5225 58.6889 63.6001C58.5507 63.6759 58.4408 63.7819 58.3594 63.9183C58.2798 64.0547 58.2401 64.2119 58.2401 64.3899V66.8586H57.0298ZM62.902 68.495C62.7486 68.495 62.6046 68.4827 62.4702 68.4581C62.3376 68.4353 62.2277 68.406 62.1406 68.37L62.4134 67.4666C62.5554 67.5102 62.6832 67.5338 62.7969 67.5376C62.9124 67.5414 63.0118 67.5149 63.0952 67.4581C63.1804 67.4013 63.2495 67.3047 63.3026 67.1683L63.3736 66.9836L61.8082 62.495H63.081L63.9844 65.6996H64.0298L64.9418 62.495H66.223L64.527 67.3302C64.4455 67.5651 64.3348 67.7696 64.1946 67.9439C64.0563 68.12 63.8812 68.2554 63.669 68.3501C63.4569 68.4467 63.2012 68.495 62.902 68.495ZM68.6733 66.9439C68.232 66.9439 67.8504 66.8501 67.5284 66.6626C67.2083 66.4732 66.9612 66.21 66.7869 65.8728C66.6127 65.5338 66.5256 65.1408 66.5256 64.6939C66.5256 64.2431 66.6127 63.8492 66.7869 63.5121C66.9612 63.173 67.2083 62.9098 67.5284 62.7223C67.8504 62.5329 68.232 62.4382 68.6733 62.4382C69.1146 62.4382 69.4953 62.5329 69.8153 62.7223C70.1373 62.9098 70.3854 63.173 70.5597 63.5121C70.7339 63.8492 70.821 64.2431 70.821 64.6939C70.821 65.1408 70.7339 65.5338 70.5597 65.8728C70.3854 66.21 70.1373 66.4732 69.8153 66.6626C69.4953 66.8501 69.1146 66.9439 68.6733 66.9439ZM68.679 66.0064C68.8797 66.0064 69.0473 65.9496 69.1818 65.8359C69.3163 65.7204 69.4176 65.5632 69.4858 65.3643C69.5559 65.1655 69.5909 64.9391 69.5909 64.6853C69.5909 64.4316 69.5559 64.2052 69.4858 64.0064C69.4176 63.8075 69.3163 63.6503 69.1818 63.5348C69.0473 63.4192 68.8797 63.3615 68.679 63.3615C68.4763 63.3615 68.3059 63.4192 68.1676 63.5348C68.0313 63.6503 67.928 63.8075 67.858 64.0064C67.7898 64.2052 67.7557 64.4316 67.7557 64.6853C67.7557 64.9391 67.7898 65.1655 67.858 65.3643C67.928 65.5632 68.0313 65.7204 68.1676 65.8359C68.3059 65.9496 68.4763 66.0064 68.679 66.0064ZM74.4062 65.0007V62.495H75.6165V66.8586H74.4545V66.066H74.4091C74.3106 66.3217 74.1468 66.5272 73.9176 66.6825C73.6903 66.8378 73.4129 66.9155 73.0852 66.9155C72.7936 66.9155 72.5369 66.8492 72.3153 66.7166C72.0938 66.584 71.9205 66.3956 71.7955 66.1513C71.6723 65.9069 71.6098 65.6143 71.608 65.2734V62.495H72.8182V65.0575C72.8201 65.3151 72.8892 65.5187 73.0256 65.6683C73.1619 65.8179 73.3447 65.8927 73.5739 65.8927C73.7197 65.8927 73.8561 65.8596 73.983 65.7933C74.1098 65.7251 74.2121 65.6247 74.2898 65.4922C74.3693 65.3596 74.4081 65.1958 74.4062 65.0007ZM76.5845 66.8586V62.495H77.7578V63.2564H77.8033C77.8828 62.9855 78.0163 62.781 78.2038 62.6427C78.3913 62.5026 78.6072 62.4325 78.8516 62.4325C78.9122 62.4325 78.9775 62.4363 79.0476 62.4439C79.1177 62.4514 79.1792 62.4619 79.2322 62.4751V63.549C79.1754 63.5319 79.0968 63.5168 78.9964 63.5035C78.8961 63.4903 78.8042 63.4836 78.7209 63.4836C78.5429 63.4836 78.3838 63.5225 78.2436 63.6001C78.1054 63.6759 77.9955 63.7819 77.9141 63.9183C77.8345 64.0547 77.7947 64.2119 77.7947 64.3899V66.8586H76.5845ZM81.7095 68.495V62.495H82.9027V63.228H82.9567C83.0097 63.1105 83.0864 62.9912 83.1868 62.87C83.2891 62.7469 83.4216 62.6446 83.5845 62.5632C83.7493 62.4799 83.9538 62.4382 84.1982 62.4382C84.5163 62.4382 84.8099 62.5215 85.0788 62.6882C85.3478 62.853 85.5627 63.102 85.7237 63.4353C85.8847 63.7668 85.9652 64.1825 85.9652 64.6825C85.9652 65.1692 85.8866 65.5802 85.7294 65.9155C85.5741 66.2488 85.362 66.5016 85.093 66.674C84.826 66.8444 84.5268 66.9297 84.1953 66.9297C83.9605 66.9297 83.7607 66.8908 83.5959 66.8132C83.433 66.7355 83.2995 66.638 83.1953 66.5206C83.0911 66.4013 83.0116 66.281 82.9567 66.1598H82.9197V68.495H81.7095ZM82.8942 64.6768C82.8942 64.9363 82.9302 65.1626 83.0021 65.3558C83.0741 65.549 83.1783 65.6996 83.3146 65.8075C83.451 65.9136 83.6167 65.9666 83.8118 65.9666C84.0088 65.9666 84.1754 65.9126 84.3118 65.8047C84.4482 65.6948 84.5514 65.5433 84.6214 65.3501C84.6934 65.155 84.7294 64.9306 84.7294 64.6768C84.7294 64.4249 84.6944 64.2033 84.6243 64.0121C84.5542 63.8208 84.451 63.6711 84.3146 63.5632C84.1783 63.4552 84.0107 63.4013 83.8118 63.4013C83.6148 63.4013 83.4482 63.4533 83.3118 63.5575C83.1773 63.6617 83.0741 63.8094 83.0021 64.0007C82.9302 64.192 82.8942 64.4174 82.8942 64.6768ZM87.9822 64.3359V66.8586H86.772V61.0405H87.9482V63.2649H87.9993C88.0978 63.0073 88.2569 62.8056 88.4766 62.6598C88.6963 62.5121 88.9718 62.4382 89.3033 62.4382C89.6063 62.4382 89.8705 62.5045 90.0959 62.6371C90.3232 62.7677 90.4993 62.9562 90.6243 63.2024C90.7512 63.4467 90.8137 63.7393 90.8118 64.0802V66.8586H89.6016V64.2961C89.6035 64.0272 89.5353 63.8179 89.397 63.6683C89.2607 63.5187 89.0694 63.4439 88.8232 63.4439C88.6584 63.4439 88.5125 63.4789 88.3857 63.549C88.2607 63.6191 88.1622 63.7213 88.0902 63.8558C88.0201 63.9884 87.9841 64.1484 87.9822 64.3359ZM93.7358 66.9439C93.2945 66.9439 92.9129 66.8501 92.5909 66.6626C92.2708 66.4732 92.0237 66.21 91.8494 65.8728C91.6752 65.5338 91.5881 65.1408 91.5881 64.6939C91.5881 64.2431 91.6752 63.8492 91.8494 63.5121C92.0237 63.173 92.2708 62.9098 92.5909 62.7223C92.9129 62.5329 93.2945 62.4382 93.7358 62.4382C94.1771 62.4382 94.5578 62.5329 94.8778 62.7223C95.1998 62.9098 95.4479 63.173 95.6222 63.5121C95.7964 63.8492 95.8835 64.2431 95.8835 64.6939C95.8835 65.1408 95.7964 65.5338 95.6222 65.8728C95.4479 66.21 95.1998 66.4732 94.8778 66.6626C94.5578 66.8501 94.1771 66.9439 93.7358 66.9439ZM93.7415 66.0064C93.9422 66.0064 94.1098 65.9496 94.2443 65.8359C94.3788 65.7204 94.4801 65.5632 94.5483 65.3643C94.6184 65.1655 94.6534 64.9391 94.6534 64.6853C94.6534 64.4316 94.6184 64.2052 94.5483 64.0064C94.4801 63.8075 94.3788 63.6503 94.2443 63.5348C94.1098 63.4192 93.9422 63.3615 93.7415 63.3615C93.5388 63.3615 93.3684 63.4192 93.2301 63.5348C93.0938 63.6503 92.9905 63.8075 92.9205 64.0064C92.8523 64.2052 92.8182 64.4316 92.8182 64.6853C92.8182 64.9391 92.8523 65.1655 92.9205 65.3643C92.9905 65.5632 93.0938 65.7204 93.2301 65.8359C93.3684 65.9496 93.5388 66.0064 93.7415 66.0064ZM97.8807 64.3359V66.8586H96.6705V62.495H97.8239V63.2649H97.875C97.9716 63.0111 98.1335 62.8103 98.3608 62.6626C98.5881 62.513 98.8636 62.4382 99.1875 62.4382C99.4905 62.4382 99.7547 62.5045 99.9801 62.6371C100.205 62.7696 100.381 62.959 100.506 63.2052C100.631 63.4496 100.693 63.7412 100.693 64.0802V66.8586H99.483V64.2961C99.4848 64.0291 99.4167 63.8208 99.2784 63.6711C99.1402 63.5196 98.9498 63.4439 98.7074 63.4439C98.5445 63.4439 98.4006 63.4789 98.2756 63.549C98.1525 63.6191 98.0559 63.7213 97.9858 63.8558C97.9176 63.9884 97.8826 64.1484 97.8807 64.3359ZM103.636 66.9439C103.187 66.9439 102.8 66.853 102.477 66.6711C102.155 66.4874 101.906 66.228 101.732 65.8927C101.558 65.5556 101.471 65.1569 101.471 64.6967C101.471 64.2478 101.558 63.8539 101.732 63.5149C101.906 63.1759 102.152 62.9117 102.468 62.7223C102.786 62.5329 103.159 62.4382 103.587 62.4382C103.875 62.4382 104.143 62.4846 104.391 62.5774C104.641 62.6683 104.859 62.8056 105.045 62.9893C105.232 63.173 105.378 63.4041 105.482 63.6825C105.586 63.959 105.638 64.2829 105.638 64.6541V64.9865H101.954V64.2365H104.499C104.499 64.0622 104.461 63.9079 104.386 63.7734C104.31 63.6389 104.205 63.5338 104.07 63.4581C103.938 63.3804 103.783 63.3416 103.607 63.3416C103.424 63.3416 103.261 63.3842 103.119 63.4694C102.978 63.5528 102.869 63.6655 102.789 63.8075C102.71 63.9477 102.669 64.1039 102.667 64.2763V64.9893C102.667 65.2052 102.707 65.3918 102.786 65.549C102.868 65.7062 102.982 65.8274 103.13 65.9126C103.278 65.9978 103.453 66.0405 103.656 66.0405C103.79 66.0405 103.913 66.0215 104.025 65.9836C104.137 65.9458 104.232 65.8889 104.312 65.8132C104.391 65.7374 104.452 65.6446 104.494 65.5348L105.613 65.6086C105.556 65.8776 105.44 66.1124 105.263 66.3132C105.089 66.5121 104.864 66.6674 104.587 66.7791C104.313 66.8889 103.996 66.9439 103.636 66.9439ZM109.49 64.3359V66.8586H108.28V62.495H109.433V63.2649H109.484C109.581 63.0111 109.743 62.8103 109.97 62.6626C110.197 62.513 110.473 62.4382 110.797 62.4382C111.1 62.4382 111.364 62.5045 111.589 62.6371C111.815 62.7696 111.99 62.959 112.115 63.2052C112.24 63.4496 112.303 63.7412 112.303 64.0802V66.8586H111.092V64.2961C111.094 64.0291 111.026 63.8208 110.888 63.6711C110.75 63.5196 110.559 63.4439 110.317 63.4439C110.154 63.4439 110.01 63.4789 109.885 63.549C109.762 63.6191 109.665 63.7213 109.595 63.8558C109.527 63.9884 109.492 64.1484 109.49 64.3359ZM116.055 65.0007V62.495H117.265V66.8586H116.103V66.066H116.058C115.959 66.3217 115.795 66.5272 115.566 66.6825C115.339 66.8378 115.061 66.9155 114.734 66.9155C114.442 66.9155 114.185 66.8492 113.964 66.7166C113.742 66.584 113.569 66.3956 113.444 66.1513C113.321 65.9069 113.258 65.6143 113.256 65.2734V62.495H114.467V65.0575C114.469 65.3151 114.538 65.5187 114.674 65.6683C114.81 65.8179 114.993 65.8927 115.222 65.8927C115.368 65.8927 115.504 65.8596 115.631 65.7933C115.758 65.7251 115.861 65.6247 115.938 65.4922C116.018 65.3596 116.057 65.1958 116.055 65.0007ZM118.233 66.8586V62.495H119.386V63.2649H119.438C119.528 63.0092 119.68 62.8075 119.892 62.6598C120.104 62.5121 120.358 62.4382 120.653 62.4382C120.953 62.4382 121.207 62.513 121.418 62.6626C121.628 62.8103 121.768 63.0111 121.838 63.2649H121.884C121.973 63.0149 122.134 62.8151 122.366 62.6655C122.601 62.5139 122.879 62.4382 123.199 62.4382C123.606 62.4382 123.937 62.5679 124.19 62.8274C124.446 63.085 124.574 63.4505 124.574 63.924V66.8586H123.366V64.1626C123.366 63.9202 123.302 63.7384 123.173 63.6172C123.045 63.496 122.884 63.4353 122.69 63.4353C122.471 63.4353 122.299 63.5054 122.176 63.6456C122.053 63.7838 121.991 63.9666 121.991 64.1939V66.8586H120.818V64.1371C120.818 63.923 120.757 63.7526 120.634 63.6257C120.512 63.4988 120.352 63.4353 120.153 63.4353C120.019 63.4353 119.898 63.4694 119.79 63.5376C119.684 63.6039 119.599 63.6977 119.537 63.8189C119.474 63.9382 119.443 64.0783 119.443 64.2393V66.8586H118.233ZM125.553 66.8586V61.0405H126.763V63.228H126.8C126.853 63.1105 126.929 62.9912 127.03 62.87C127.132 62.7469 127.265 62.6446 127.428 62.5632C127.592 62.4799 127.797 62.4382 128.041 62.4382C128.359 62.4382 128.653 62.5215 128.922 62.6882C129.191 62.853 129.406 63.102 129.567 63.4353C129.728 63.7668 129.808 64.1825 129.808 64.6825C129.808 65.1692 129.73 65.5802 129.572 65.9155C129.417 66.2488 129.205 66.5016 128.936 66.674C128.669 66.8444 128.37 66.9297 128.038 66.9297C127.804 66.9297 127.604 66.8908 127.439 66.8132C127.276 66.7355 127.143 66.638 127.038 66.5206C126.934 66.4013 126.855 66.281 126.8 66.1598H126.746V66.8586H125.553ZM126.737 64.6768C126.737 64.9363 126.773 65.1626 126.845 65.3558C126.917 65.549 127.021 65.6996 127.158 65.8075C127.294 65.9136 127.46 65.9666 127.655 65.9666C127.852 65.9666 128.018 65.9126 128.155 65.8047C128.291 65.6948 128.394 65.5433 128.464 65.3501C128.536 65.155 128.572 64.9306 128.572 64.6768C128.572 64.4249 128.537 64.2033 128.467 64.0121C128.397 63.8208 128.294 63.6711 128.158 63.5632C128.021 63.4552 127.854 63.4013 127.655 63.4013C127.458 63.4013 127.291 63.4533 127.155 63.5575C127.02 63.6617 126.917 63.8094 126.845 64.0007C126.773 64.192 126.737 64.4174 126.737 64.6768ZM132.604 66.9439C132.156 66.9439 131.769 66.853 131.445 66.6711C131.123 66.4874 130.875 66.228 130.701 65.8927C130.527 65.5556 130.44 65.1569 130.44 64.6967C130.44 64.2478 130.527 63.8539 130.701 63.5149C130.875 63.1759 131.121 62.9117 131.437 62.7223C131.755 62.5329 132.128 62.4382 132.556 62.4382C132.844 62.4382 133.112 62.4846 133.36 62.5774C133.61 62.6683 133.828 62.8056 134.013 62.9893C134.201 63.173 134.347 63.4041 134.451 63.6825C134.555 63.959 134.607 64.2829 134.607 64.6541V64.9865H130.923V64.2365H133.468C133.468 64.0622 133.43 63.9079 133.354 63.7734C133.279 63.6389 133.174 63.5338 133.039 63.4581C132.906 63.3804 132.752 63.3416 132.576 63.3416C132.392 63.3416 132.229 63.3842 132.087 63.4694C131.947 63.5528 131.837 63.6655 131.758 63.8075C131.678 63.9477 131.638 64.1039 131.636 64.2763V64.9893C131.636 65.2052 131.675 65.3918 131.755 65.549C131.836 65.7062 131.951 65.8274 132.099 65.9126C132.246 65.9978 132.422 66.0405 132.624 66.0405C132.759 66.0405 132.882 66.0215 132.994 65.9836C133.105 65.9458 133.201 65.8889 133.281 65.8132C133.36 65.7374 133.421 65.6446 133.462 65.5348L134.582 65.6086C134.525 65.8776 134.408 66.1124 134.232 66.3132C134.058 66.5121 133.833 66.6674 133.556 66.7791C133.281 66.8889 132.964 66.9439 132.604 66.9439ZM135.397 66.8586V62.495H136.57V63.2564H136.616C136.695 62.9855 136.829 62.781 137.016 62.6427C137.204 62.5026 137.42 62.4325 137.664 62.4325C137.725 62.4325 137.79 62.4363 137.86 62.4439C137.93 62.4514 137.992 62.4619 138.045 62.4751V63.549C137.988 63.5319 137.909 63.5168 137.809 63.5035C137.709 63.4903 137.617 63.4836 137.533 63.4836C137.355 63.4836 137.196 63.5225 137.056 63.6001C136.918 63.6759 136.808 63.7819 136.727 63.9183C136.647 64.0547 136.607 64.2119 136.607 64.3899V66.8586H135.397Z" fill="#989694"/>
<path d="M481.892 135.546C481.892 135.636 417.663 135.714 338.453 135.714C259.242 135.714 195 135.636 195 135.546C195 135.456 259.216 135.379 338.453 135.379C417.689 135.379 481.892 135.456 481.892 135.546Z" fill="#263238"/>
<path d="M242.757 78.1509L238.573 77.6481C235.238 79.8747 231.19 80.7731 227.225 80.1668C223.261 79.5605 219.667 77.4932 217.149 74.3714C214.631 71.2496 213.372 67.299 213.62 63.296C213.867 59.2931 215.602 55.5274 218.485 52.7391C221.367 49.9507 225.189 48.3414 229.198 48.2274C233.207 48.1135 237.113 49.5031 240.15 52.1232C243.186 54.7432 245.133 58.4043 245.607 62.3867C246.081 66.3691 245.048 70.3849 242.712 73.6447L242.757 78.1509Z" fill="white"/>
<path d="M242.757 78.1508C242.757 78.1508 242.757 78.0412 242.757 77.8478C242.757 77.6544 242.757 77.345 242.757 76.9711C242.757 76.2039 242.719 75.0822 242.693 73.6381L242.79 73.6832C242.784 73.6889 242.778 73.6934 242.77 73.6965C242.763 73.6995 242.755 73.7011 242.748 73.7011C242.74 73.7011 242.732 73.6995 242.725 73.6965C242.718 73.6934 242.711 73.6889 242.706 73.6832C242.698 73.6731 242.694 73.6606 242.694 73.6478C242.694 73.6349 242.698 73.6225 242.706 73.6123C244.212 71.4934 245.179 69.0395 245.523 66.4629C245.743 64.7793 245.697 63.0717 245.388 61.4022C245.027 59.5043 244.326 57.6872 243.318 56.0386C242.19 54.2257 240.719 52.6511 238.986 51.4034C237.117 50.042 234.967 49.1148 232.694 48.6893C230.278 48.2427 227.792 48.3485 225.422 48.9987C222.936 49.6896 220.659 50.9852 218.795 52.7701C217.84 53.6727 216.998 54.688 216.287 55.7936C215.965 56.3544 215.642 56.9089 215.359 57.4891L214.978 58.3723L214.791 58.8106L214.65 59.2684C213.876 61.6278 213.656 64.1335 214.005 66.5918C214.334 68.8998 215.18 71.1036 216.48 73.0386C217.673 74.825 219.207 76.3585 220.993 77.5513C222.599 78.6345 224.388 79.4166 226.273 79.8592L227.601 80.0913C228.039 80.1557 228.471 80.1686 228.89 80.2073C229.709 80.2606 230.531 80.2455 231.347 80.1622C233.926 79.8987 236.404 79.0139 238.567 77.5835H238.606L241.687 77.9896L242.499 78.0992L242.783 78.1444H242.519L241.719 78.0606L238.593 77.7124H238.631C236.463 79.1776 233.968 80.0875 231.366 80.362C230.54 80.4521 229.707 80.4736 228.878 80.4265C228.452 80.3878 228.007 80.3814 227.588 80.3169L226.196 80.0526C224.269 79.6289 222.438 78.8531 220.793 77.764C218.975 76.5522 217.415 74.9921 216.203 73.1739C214.878 71.2035 214.012 68.9608 213.67 66.6112C213.311 64.1104 213.532 61.5608 214.314 59.1588L214.456 58.6946L214.65 58.2433L215.03 57.3472C215.314 56.7541 215.675 56.1868 215.984 55.6195C216.707 54.4983 217.564 53.4699 218.537 52.5573C220.43 50.7269 222.75 49.3975 225.287 48.6893C227.711 48.0341 230.252 47.9372 232.72 48.4056C235.029 48.8474 237.211 49.7965 239.108 51.1842C240.864 52.4554 242.354 54.0586 243.492 55.9032C244.509 57.578 245.212 59.4239 245.568 61.3506C245.875 63.0533 245.912 64.7938 245.678 66.508C245.312 69.1081 244.314 71.5786 242.77 73.7026L242.686 73.6188C242.692 73.6131 242.698 73.6086 242.706 73.6055C242.713 73.6025 242.72 73.6009 242.728 73.6009C242.736 73.6009 242.744 73.6025 242.751 73.6055C242.758 73.6086 242.765 73.6131 242.77 73.6188C242.774 73.6314 242.774 73.6448 242.77 73.6574C242.77 75.1144 242.77 76.2361 242.77 77.0291C242.77 77.3965 242.77 77.6738 242.77 77.8865C242.77 78.0992 242.757 78.1508 242.757 78.1508Z" fill="#263238"/>
<path d="M222.586 65.2767L224.597 63.1235L228.729 66.5532L236.349 58.7075L238.354 60.7253L228.568 70.5824L222.586 65.2767Z" fill="#FF725E"/>
<path d="M268.415 28.9559C268.618 28.324 268.965 27.7478 269.428 27.2724C269.891 26.797 270.458 26.4354 271.084 26.2161C271.6 26.042 272.193 25.926 272.483 25.4747C272.645 25.1248 272.745 24.7498 272.78 24.3659C272.863 24.085 273.002 23.8238 273.189 23.5976C273.375 23.3715 273.605 23.1849 273.864 23.0491C274.124 22.9133 274.408 22.8309 274.7 22.8068C274.992 22.7827 275.286 22.8174 275.565 22.9089C275.819 23.0497 276.096 23.1437 276.383 23.1861C277.563 23.1861 277.737 20.9555 278.917 21.0007C278.57 21.3683 278.344 21.8344 278.272 22.3352C278.244 22.5842 278.299 22.8357 278.43 23.0495C278.561 23.2634 278.76 23.4272 278.994 23.5149C280.245 23.8566 280.845 21.4326 282.128 21.5809C282.824 21.6647 283.333 22.5286 284.016 22.3738C284.271 22.2816 284.507 22.144 284.713 21.9677C285.107 21.7393 285.573 21.6688 286.016 21.7705C286.46 21.8722 286.849 22.1385 287.104 22.5157C287.511 23.1603 287.575 24.1983 288.323 24.4045C288.562 24.4327 288.804 24.4093 289.033 24.3359C289.262 24.2625 289.473 24.1408 289.651 23.9791C289.955 24.6235 290.108 25.3294 290.096 26.042C290.819 26.1187 291.484 26.4725 291.951 27.029C292.419 27.5856 292.653 28.3016 292.603 29.0269C293.376 29.1401 294.119 29.4052 294.789 29.8069C295.122 30.0114 295.391 30.3054 295.565 30.6552C295.74 31.0051 295.812 31.3969 295.775 31.7861C295.724 31.9554 295.698 32.1313 295.698 32.3082C295.735 32.4973 295.822 32.6732 295.949 32.8175C296.464 33.3466 296.916 33.9327 297.297 34.5646C297.6 35.2415 297.464 36.2085 296.774 36.4986C296.613 36.5631 296.42 36.5953 296.33 36.7436C296.281 36.8657 296.281 37.0018 296.33 37.1239C296.519 37.6211 296.787 38.0847 297.123 38.4971C297.457 38.9158 297.621 39.4455 297.58 39.9798C297.49 40.5085 296.936 40.9597 296.426 40.7277C296.974 41.3723 297.529 42.017 298.077 42.6617C298.405 43.0485 298.721 43.532 298.592 44.0155C298.38 44.6602 297.458 44.6602 296.897 44.3314C296.336 44.0026 295.943 43.403 295.369 43.042C295.124 42.9309 294.89 42.7948 294.673 42.6359C294.512 42.4876 294.383 42.2878 294.176 42.2426C293.757 42.1395 293.532 42.7777 293.732 43.1452C294.015 43.4689 294.383 43.7058 294.795 43.8285C295.189 44.0155 295.588 44.3443 295.556 44.7697C295.556 44.976 295.421 45.163 295.408 45.3693C295.369 46.0913 296.459 46.2332 296.871 46.8198C296.987 47.0588 297.048 47.3212 297.048 47.587C297.048 47.8528 296.987 48.1151 296.871 48.3541C296.665 48.9601 296.027 49.6822 295.517 49.2889C295.337 49.1535 295.259 48.915 295.098 48.7603C294.889 48.6015 294.643 48.4974 294.383 48.4573C293.753 48.2704 293.191 47.9055 292.765 47.4065C293.551 47.7739 294.454 48.3219 294.447 49.1858C294.406 49.5462 294.31 49.8983 294.164 50.2301C293.944 50.8748 293.964 51.6355 293.751 52.3189C293.673 52.6634 293.487 52.9741 293.22 53.2059C292.954 53.4377 292.62 53.5786 292.268 53.6082C292.51 53.8701 292.657 54.2055 292.685 54.5608C292.714 54.9161 292.623 55.2706 292.426 55.5678C292.229 55.8649 291.938 56.0874 291.6 56.1997C291.261 56.3119 290.895 56.3074 290.56 56.1869C290.385 56.0975 290.195 56.0448 289.999 56.0322C289.791 56.0747 289.598 56.1752 289.445 56.3223C288.928 56.6918 288.319 56.9114 287.685 56.9569C287.052 57.0024 286.418 56.872 285.854 56.5801L286.324 56.1031C285.164 56.6016 283.904 56.8224 282.643 56.7478C281.399 56.5673 280.174 55.5874 280.161 54.3302C280.161 53.7887 280.335 53.1376 279.929 52.7701C279.772 52.6666 279.595 52.5971 279.41 52.566C279.225 52.5349 279.035 52.5429 278.853 52.5896L274.166 53.1376C273.416 53.2946 272.637 53.2411 271.916 52.9829C271.741 52.9114 271.582 52.8062 271.448 52.6732C271.314 52.5402 271.207 52.3821 271.134 52.2079C271.061 52.0337 271.023 51.8468 271.022 51.6578C271.021 51.4689 271.058 51.2817 271.129 51.1069C270.514 50.6395 269.778 50.3557 269.008 50.2881C268.151 50.2108 267.287 50.4106 266.43 50.3784C265.999 50.3949 265.572 50.2923 265.195 50.0819C264.819 49.8715 264.508 49.5614 264.296 49.1858C263.967 48.3864 264.741 47.2517 265.547 47.5676C264.87 46.4588 262.762 47.4 262.02 46.3299C261.414 45.4596 262.375 44.3958 262.665 43.3644C262.381 43.1 261.943 43.0485 261.646 42.797C261.034 42.2555 261.408 41.2369 261.911 40.5987C262.413 39.9605 263.071 39.2449 262.884 38.452C262.697 37.659 261.659 37.1175 261.737 36.2859C261.764 36.0557 261.878 35.8445 262.055 35.695C262.232 35.5454 262.459 35.4686 262.691 35.48C262.568 33.8748 265.592 33.6492 265.721 32.0504C265.721 31.9237 265.677 31.8009 265.598 31.7022C265.531 31.6146 265.442 31.5458 265.34 31.5024C264.846 31.337 264.332 31.2331 263.812 31.1929C263.297 31.0834 262.755 30.7546 262.704 30.2388C262.652 29.7231 263.496 29.3234 263.716 29.8005C263.792 29.6433 263.904 29.5057 264.041 29.3981C264.179 29.2906 264.34 29.2159 264.511 29.1799C264.682 29.1438 264.859 29.1473 265.028 29.19C265.198 29.2328 265.355 29.3137 265.489 29.4265C265.585 29.1591 265.77 28.9326 266.012 28.7848C266.255 28.6371 266.541 28.5769 266.823 28.6143C267.384 28.7045 267.916 28.9253 268.377 29.2589" fill="#263238"/>
<path d="M282.024 40.6761C280.625 38.987 278.421 38.1683 276.261 37.7944C275.361 37.5811 274.421 37.5944 273.528 37.8331C273.084 37.9614 272.688 38.2165 272.388 38.567C272.088 38.9175 271.897 39.3481 271.839 39.8058L272.657 41.0951C273.605 43.345 276.222 44.3185 278.066 45.9108C278.865 46.6071 279.697 47.516 280.761 47.4451C281.32 47.376 281.834 47.1028 282.205 46.678C283.713 45.105 283.423 42.3716 282.024 40.6761Z" fill="#FF725E"/>
<path d="M287.407 50.5911C287.561 49.4513 287.31 48.2937 286.697 47.3203C286.085 46.347 285.149 45.62 284.055 45.2661C284.313 43.8478 283.204 42.4747 281.876 41.9202C280.548 41.3658 279.052 41.4496 277.615 41.5334C276.469 40.2913 274.89 39.5361 273.204 39.4234C271.517 39.3107 269.852 39.849 268.551 40.9274C265.856 39.522 262.459 40.8952 260.292 43.0226C259.805 43.5834 259.238 44.0699 258.61 44.4667C258.113 44.6881 257.603 44.8776 257.082 45.034C254.278 46.0848 252.672 49.3211 252.956 52.2995C253.04 52.7718 253.059 53.2531 253.014 53.7306C252.841 54.3357 252.592 54.9163 252.273 55.4584C252 56.082 251.864 56.7568 251.874 57.4373C251.884 58.1179 252.04 58.7884 252.331 59.4037C252.834 60.4417 253.736 61.3378 253.807 62.4917C253.839 63.0719 253.652 63.6521 253.743 64.2259C254.007 65.8763 256.321 66.4694 256.811 68.0939C256.914 68.4227 256.927 68.7386 256.998 69.0996C257.154 69.7889 257.555 70.3982 258.126 70.8145C258.558 71.1368 259.106 71.3495 259.416 71.8072C259.583 72.1795 259.702 72.5716 259.77 72.9741C260.054 73.9347 263.709 76.2684 264.708 76.3328L287.137 64.5482C287.877 63.904 288.399 63.0454 288.63 62.0913C288.861 61.1372 288.79 60.1349 288.426 59.2232C288.266 58.9405 288.186 58.6197 288.194 58.2949C288.274 58.0265 288.41 57.7781 288.594 57.5664C289.612 56.0257 288.729 53.9627 287.704 52.409C287.548 52.2028 287.428 51.9718 287.349 51.7257C287.293 51.3474 287.313 50.9617 287.407 50.5911Z" fill="#263238"/>
<path d="M281.032 54.0595C279.858 51.9237 278.131 50.1441 276.03 48.9085C273.93 47.6728 271.535 47.027 269.099 47.039C266.858 47.1624 264.665 47.7369 262.652 48.728C260.734 49.5328 259.106 50.9021 257.984 52.6541C256.908 53.6082 254.613 60.1516 256.785 64.761C259.203 69.8733 262.375 76.0234 264.953 79.408C270.214 86.177 276.422 83.9916 276.422 83.9916L279.188 89.7163L286.924 96.2791L293.828 85.0231L295.33 82.5927L281.032 54.0595Z" fill="#AE7461"/>
<path d="M274.875 72.4197C274.712 72.1844 274.492 71.9939 274.236 71.8659C273.981 71.738 273.696 71.6766 273.41 71.6875C273.124 71.6984 272.846 71.7813 272.6 71.9284C272.355 72.0756 272.151 72.2822 272.006 72.5293C271.632 73.174 271.877 73.8831 272.335 74.5729C272.863 74.8566 273.302 75.1725 273.856 74.9597L274.114 74.8501C274.531 74.6445 274.855 74.2903 275.023 73.8573C275.109 73.6222 275.14 73.3705 275.115 73.1214C275.089 72.8723 275.007 72.6324 274.875 72.4197Z" fill="#6F4439"/>
<path d="M262.42 69.8411C262.555 70.0903 262.783 70.2769 263.054 70.3612C263.324 70.4455 263.617 70.4208 263.87 70.2923C263.996 70.2348 264.11 70.1528 264.204 70.051C264.298 69.9492 264.371 69.8297 264.418 69.6995C264.465 69.5693 264.486 69.431 264.48 69.2926C264.473 69.1542 264.439 69.0185 264.38 68.8934C264.244 68.6441 264.017 68.4576 263.746 68.3733C263.475 68.289 263.182 68.3137 262.929 68.4421C262.803 68.4997 262.69 68.5817 262.596 68.6835C262.502 68.7853 262.429 68.9047 262.381 69.0349C262.334 69.1651 262.313 69.3034 262.32 69.4419C262.326 69.5803 262.36 69.716 262.42 69.8411Z" fill="#263238"/>
<path d="M260.067 66.6693C260.254 66.7273 260.711 65.799 261.704 65.2381C262.697 64.6772 263.761 64.7739 263.799 64.5934C263.799 64.5096 263.58 64.3485 263.123 64.2904C262.512 64.2283 261.897 64.3566 261.363 64.6579C260.829 64.9478 260.4 65.3991 260.138 65.9472C259.957 66.3598 259.977 66.6435 260.067 66.6693Z" fill="#263238"/>
<path d="M270.511 71.4528C269.876 71.5776 269.261 71.7834 268.68 72.0652C268.402 72.1877 268.125 72.2715 267.983 72.1168C267.817 71.8573 267.729 71.5548 267.732 71.2465C267.629 70.4793 267.526 69.6735 267.41 68.8289C266.92 65.3993 266.417 62.6465 266.275 62.6659C266.133 62.6852 266.423 65.4766 266.92 68.9063C267.042 69.7444 267.165 70.5502 267.281 71.3174C267.288 71.7227 267.442 72.1117 267.713 72.4133C267.801 72.4867 267.905 72.5383 268.017 72.5641C268.129 72.5898 268.246 72.589 268.357 72.5616C268.523 72.5178 268.683 72.4551 268.834 72.3746C269.428 72.1362 269.991 71.8266 270.511 71.4528Z" fill="#263238"/>
<path d="M276.442 83.9723C279.972 82.096 282.913 79.2775 284.938 75.8301C284.938 75.8301 285.17 82.5153 277.363 85.9127L276.442 83.9723Z" fill="#6F4439"/>
<path d="M258.681 64.5161C258.99 64.6708 259.686 64.0712 260.615 63.6458C261.543 63.2203 262.465 63.0398 262.549 62.7045C262.549 62.5434 262.343 62.3564 261.904 62.2791C261.298 62.2025 260.682 62.3033 260.131 62.5692C259.572 62.8175 259.099 63.2257 258.771 63.7425C258.545 64.1357 258.539 64.4387 258.681 64.5161Z" fill="#263238"/>
<path d="M273.785 64.0004C273.916 64.2522 273.943 64.5453 273.859 64.8165C273.776 65.0877 273.59 65.3155 273.341 65.4509C273.222 65.5226 273.091 65.5701 272.955 65.5905C272.818 65.6109 272.678 65.6037 272.544 65.5695C272.411 65.5353 272.285 65.4746 272.175 65.3912C272.065 65.3077 271.972 65.2031 271.903 65.0834C271.774 64.832 271.747 64.5401 271.829 64.2694C271.91 63.9988 272.094 63.7705 272.341 63.6329C272.46 63.5601 272.592 63.5118 272.729 63.4908C272.866 63.4699 273.006 63.4768 273.141 63.5111C273.276 63.5453 273.402 63.6063 273.513 63.6903C273.624 63.7744 273.716 63.8798 273.785 64.0004Z" fill="#263238"/>
<path d="M274.295 59.3523C274.237 59.5392 273.225 59.3523 272.187 59.8938C271.149 60.4353 270.639 61.3314 270.459 61.2605C270.375 61.2283 270.388 60.9381 270.594 60.532C270.884 59.9913 271.334 59.5542 271.884 59.2813C272.426 59.0054 273.043 58.9105 273.644 59.0106C274.101 59.0944 274.321 59.2685 274.295 59.3523Z" fill="#263238"/>
<path d="M272.122 55.3167C272.038 55.6584 271.11 55.8131 270.137 56.2902C269.163 56.7672 268.428 57.3474 268.112 57.1991C267.97 57.1218 267.977 56.8188 268.222 56.4126C268.573 55.8883 269.065 55.4729 269.64 55.2135C270.203 54.9355 270.834 54.8258 271.458 54.8977C271.922 54.9686 272.161 55.1555 272.122 55.3167Z" fill="#263238"/>
<path d="M283.713 61.744C283.41 61.1896 283.327 59.5392 283.829 59.1653C285.157 58.1338 287.852 56.8058 289.915 60.4933C292.732 65.5282 287.091 67.3204 287.001 67.185C286.911 67.0497 284.758 63.6522 283.713 61.744Z" fill="#AE7461"/>
<path d="M287.362 64.5806C287.362 64.5806 287.485 64.5806 287.672 64.5806C287.923 64.5475 288.154 64.4209 288.316 64.226C288.735 63.7361 288.71 62.6401 288.226 61.7182C288.001 61.2764 287.676 60.8925 287.278 60.5965C287.143 60.4651 286.978 60.3687 286.797 60.3159C286.616 60.2631 286.425 60.2554 286.24 60.2935C286.125 60.3233 286.024 60.3925 285.955 60.4891C285.885 60.5857 285.852 60.7035 285.86 60.8222C285.86 61.0027 285.957 61.0865 285.937 61.1058C285.918 61.1251 285.783 61.1058 285.705 60.8544C285.656 60.7147 285.656 60.5621 285.705 60.4224C285.792 60.2426 285.941 60.1005 286.124 60.0228C286.355 59.95 286.599 59.9368 286.836 59.9841C287.073 60.0314 287.294 60.1379 287.478 60.2935C287.935 60.6127 288.309 61.0372 288.568 61.5313C289.103 62.5628 289.116 63.8005 288.503 64.4194C288.39 64.534 288.252 64.6218 288.101 64.6765C287.949 64.7311 287.787 64.7512 287.627 64.7353C287.44 64.6708 287.349 64.5806 287.362 64.5806Z" fill="#6F4439"/>
<path d="M255.709 65.4444C256.068 64.9179 256.27 64.3003 256.291 63.6635C256.313 63.0267 256.154 62.3968 255.831 61.8471C256.618 61.6795 256.824 60.4289 256.901 59.623C256.979 58.8172 257.295 58.2563 256.901 57.5665C256.804 57.4394 256.744 57.2876 256.727 57.1281C256.727 56.8767 256.927 56.6833 257.101 56.4835C257.545 56.0119 257.862 55.4367 258.026 54.8104C258.189 54.1842 258.193 53.527 258.036 52.8991C259.388 52.7734 260.688 52.315 261.82 51.5646C262.293 51.7986 262.818 51.9091 263.345 51.8858C263.872 51.8625 264.385 51.7062 264.835 51.4314C265.285 51.1566 265.659 50.7723 265.921 50.3143C266.183 49.8563 266.325 49.3394 266.333 48.8119C266.673 49.0257 267.055 49.1641 267.453 49.2175C267.852 49.2708 268.257 49.238 268.641 49.1213C269.408 48.8802 270.135 48.5284 270.801 48.0769C271.048 48.8349 271.56 49.4784 272.243 49.8893C272.926 50.3002 273.735 50.4509 274.52 50.3139C274.622 50.2696 274.732 50.2467 274.843 50.2467C274.954 50.2467 275.063 50.2696 275.165 50.3139C275.346 50.4429 275.365 50.7007 275.397 50.9199C275.457 51.2658 275.587 51.5957 275.779 51.8895C275.972 52.1833 276.222 52.4347 276.514 52.6285C276.807 52.8222 277.136 52.9542 277.482 53.0162C277.827 53.0783 278.182 53.0691 278.524 52.9893C278.424 53.2658 278.389 53.5612 278.421 53.8532C278.453 54.1453 278.551 54.4262 278.707 54.6748C278.864 54.9234 279.075 55.133 279.325 55.2877C279.574 55.4425 279.856 55.5383 280.148 55.568C280.393 55.568 280.703 55.568 280.793 55.8066C280.816 55.8976 280.816 55.9927 280.793 56.0838C280.635 56.784 280.678 57.5145 280.915 58.1918C281.048 58.5241 281.304 58.7929 281.628 58.9428C281.953 59.0927 282.324 59.1123 282.663 58.9977C282.559 59.2257 282.502 59.4724 282.497 59.7229C282.491 59.9733 282.537 60.2223 282.63 60.4546C282.685 60.5652 282.763 60.6619 282.861 60.7375C282.958 60.8131 283.071 60.8656 283.191 60.8911C283.312 60.9165 283.437 60.9143 283.556 60.8844C283.675 60.8546 283.787 60.798 283.881 60.719C284.016 60.5578 286.26 58.6753 286.292 58.4626C286.653 55.7356 283.675 54.5946 282.205 52.248C280.684 49.9368 278.65 48.0085 276.261 46.6135C275.282 45.9958 274.226 45.5081 273.121 45.163C271.843 44.8457 270.532 44.6727 269.215 44.6473C267.502 44.4643 265.77 44.5645 264.09 44.9438C261.008 45.8012 258.713 48.3541 256.818 50.9328C256.06 51.8864 255.436 52.9382 254.961 54.0595C254.491 55.4429 254.273 56.8992 254.316 58.3595C254.206 60.4776 254.536 62.5957 255.283 64.5805" fill="#263238"/>
<path d="M253.743 64.226C253.706 63.9953 253.706 63.7603 253.743 63.5297C253.743 63.3041 253.801 63.0269 253.807 62.6916C253.811 62.3137 253.732 61.9396 253.575 61.5957C253.373 61.1622 253.136 60.746 252.866 60.3515C252.535 59.8828 252.27 59.3709 252.079 58.83C251.76 57.8475 251.76 56.7891 252.079 55.8065C252.21 55.4504 252.37 55.1055 252.556 54.7751C252.747 54.438 252.882 54.0722 252.956 53.692C252.998 53.2859 252.985 52.8762 252.917 52.4736C252.71 50.6369 253.168 48.7868 254.207 47.2582C254.486 46.8471 254.81 46.4687 255.174 46.13C255.552 45.7868 255.973 45.4922 256.424 45.2532C256.655 45.1328 256.891 45.0252 257.134 44.9309C257.379 44.8407 257.63 44.7698 257.875 44.6859C258.373 44.5364 258.834 44.2838 259.229 43.9446C259.635 43.6093 259.989 43.1967 260.389 42.8293C260.791 42.4482 261.222 42.0991 261.679 41.7849C262.147 41.4699 262.641 41.1939 263.155 40.9597C263.682 40.7264 264.23 40.5451 264.792 40.4182C265.95 40.1471 267.163 40.2463 268.261 40.7019L268.589 40.8501H268.493C269.156 40.2845 269.927 39.8591 270.759 39.5998C271.591 39.3405 272.467 39.2527 273.334 39.3416C275.003 39.4554 276.561 40.2192 277.673 41.469L277.608 41.4368C278.37 41.3778 279.134 41.367 279.897 41.4045C280.641 41.4377 281.373 41.606 282.057 41.901C282.704 42.2175 283.254 42.7031 283.649 43.3063C284.049 43.8809 284.21 44.5879 284.1 45.279L284.049 45.1952C285.111 45.5309 286.023 46.2262 286.627 47.1615C287.191 47.9874 287.488 48.966 287.478 49.9658C287.475 50.1947 287.456 50.4231 287.42 50.6492C287.374 50.862 287.339 51.0772 287.317 51.2938C287.298 51.496 287.329 51.6998 287.407 51.8869C287.492 52.068 287.593 52.2407 287.71 52.4027C288.116 53.007 288.452 53.6559 288.71 54.3367C288.92 54.8903 289.023 55.4788 289.013 56.0708C288.999 56.5101 288.884 56.9402 288.677 57.328C288.51 57.6439 288.316 57.8373 288.239 57.9726C288.194 58.0539 288.159 58.1405 288.136 58.2305C288.144 58.1374 288.173 58.0472 288.22 57.9662C288.291 57.7921 288.478 57.5923 288.639 57.2828C288.835 56.8991 288.94 56.4758 288.948 56.0451C288.954 55.4627 288.846 54.8847 288.632 54.3431C288.373 53.6617 288.036 53.0126 287.627 52.4091C287.509 52.2408 287.403 52.0641 287.311 51.8805C287.225 51.677 287.19 51.4559 287.208 51.2358C287.208 51.0102 287.272 50.7974 287.304 50.5911C287.339 50.3779 287.358 50.1625 287.362 49.9465C287.363 48.9729 287.069 48.0221 286.518 47.2195C285.923 46.314 285.032 45.6439 283.997 45.3242H283.933V45.2597C284.033 44.6033 283.876 43.9337 283.494 43.3901C283.105 42.8162 282.568 42.3575 281.941 42.0621C281.272 41.7774 280.558 41.6158 279.833 41.5851C279.076 41.5467 278.318 41.5596 277.563 41.6238H277.525V41.5915C276.391 40.3709 274.834 39.6296 273.172 39.5193C271.509 39.4091 269.868 39.9382 268.583 40.9984L268.538 41.0371H268.48L268.17 40.8953C267.105 40.4544 265.928 40.3574 264.805 40.618C264.255 40.7445 263.718 40.9215 263.2 41.1467C262.697 41.3804 262.212 41.652 261.749 41.959C261.293 42.2657 260.862 42.6085 260.46 42.984C260.067 43.345 259.706 43.7576 259.293 44.1057C259.093 44.278 258.877 44.4313 258.649 44.5635C258.411 44.6879 258.163 44.7915 257.907 44.8729C257.656 44.9567 257.411 45.0276 257.172 45.1179C256.934 45.2066 256.702 45.3099 256.476 45.4273C256.037 45.6577 255.63 45.9437 255.264 46.2783C254.907 46.6076 254.587 46.9751 254.31 47.3742C253.785 48.1429 253.407 49.0018 253.195 49.9078C252.989 50.7511 252.935 51.6241 253.033 52.4865C253.088 52.9016 253.088 53.322 253.033 53.7371C252.954 54.131 252.813 54.5097 252.614 54.8589C252.427 55.182 252.267 55.5206 252.137 55.871C252.022 56.2049 251.947 56.5511 251.912 56.9025C251.839 57.5531 251.903 58.2118 252.099 58.8365C252.283 59.3724 252.542 59.8801 252.866 60.345C253.132 60.744 253.365 61.1645 253.562 61.6021C253.717 61.9601 253.794 62.3469 253.788 62.7368C253.788 63.072 253.73 63.3492 253.71 63.5748C253.696 63.7443 253.696 63.9147 253.71 64.0841C253.736 64.1615 253.749 64.2195 253.743 64.226Z" fill="#455A64"/>
<path d="M265.559 41.1145C265.398 41.124 265.237 41.124 265.076 41.1145C264.633 41.132 264.196 41.228 263.787 41.3981C263.179 41.6344 262.648 42.0337 262.252 42.5521C261.773 43.1862 261.507 43.9557 261.492 44.7504C261.484 44.9882 261.504 45.2261 261.55 45.4596C261.564 45.5642 261.6 45.6646 261.657 45.7536C261.714 45.8427 261.789 45.9183 261.878 45.9753L262.098 46.0785L261.865 46.1365C261.259 46.2779 260.732 46.6503 260.396 47.1744C260.133 47.596 260.013 48.0911 260.054 48.5862C260.078 48.9138 260.165 49.2335 260.312 49.5275C260.415 49.7337 260.492 49.8369 260.479 49.8434L260.415 49.7789C260.356 49.7087 260.305 49.6332 260.26 49.5532C260.084 49.2607 259.976 48.9325 259.944 48.5927C259.887 48.0716 260.003 47.5461 260.273 47.097C260.623 46.5317 261.181 46.1265 261.827 45.9689V46.13C261.712 46.0615 261.614 45.9679 261.54 45.8563C261.467 45.7447 261.419 45.6179 261.401 45.4854C261.351 45.2395 261.329 44.9885 261.337 44.7375C261.352 43.9028 261.637 43.0955 262.149 42.4361C262.568 41.9053 263.126 41.5013 263.761 41.2692C264.182 41.1048 264.631 41.0238 265.082 41.0307C265.206 41.0314 265.328 41.0422 265.45 41.0629C265.521 41.1016 265.559 41.108 265.559 41.1145Z" fill="#455A64"/>
<path d="M276.964 42.4296C276.952 42.5255 276.926 42.619 276.886 42.7068C276.79 42.9555 276.671 43.1949 276.532 43.4224C276.314 43.7648 276.026 44.0571 275.687 44.2798C275.252 44.5606 274.728 44.6687 274.217 44.5828L274.321 44.5055C274.321 44.6022 274.321 44.6989 274.288 44.7956C274.256 44.8923 274.243 44.989 274.224 45.0921C274.073 45.6468 273.785 46.1545 273.386 46.5684C273.069 46.9109 272.688 47.1871 272.264 47.3807C271.98 47.5107 271.678 47.5976 271.368 47.6386C271.255 47.6596 271.139 47.6596 271.026 47.6386C271.437 47.5707 271.836 47.4471 272.212 47.2711C272.613 47.0695 272.972 46.7939 273.27 46.4588C273.639 46.0567 273.909 45.573 274.056 45.047C274.056 44.9503 274.101 44.86 274.114 44.7698C274.127 44.6795 274.114 44.5828 274.114 44.4926V44.3959H274.204C274.674 44.4753 275.156 44.3788 275.558 44.1251C275.887 43.9229 276.17 43.6552 276.39 43.3386C276.809 42.81 276.931 42.4167 276.964 42.4296Z" fill="#455A64"/>
<path d="M282.211 45.6658C282.211 45.6658 282.211 45.6658 282.25 45.7625C282.265 45.8651 282.265 45.9693 282.25 46.0719C282.208 46.4537 282.024 46.8056 281.734 47.0583C281.295 47.4158 280.763 47.6396 280.2 47.7029C279.89 47.7481 279.555 47.8061 279.226 47.8254C278.857 47.8653 278.485 47.774 278.176 47.5675L278.105 47.5031H278.24C277.993 48.1239 277.654 48.7041 277.234 49.2244C276.882 49.6523 276.418 49.9737 275.893 50.1527C275.541 50.2725 275.163 50.2992 274.798 50.23C274.698 50.211 274.601 50.1829 274.507 50.1462C274.449 50.1462 274.417 50.1011 274.417 50.0947C274.417 50.0882 274.559 50.1334 274.804 50.1656C275.157 50.2065 275.515 50.1623 275.848 50.0366C276.354 49.8562 276.801 49.5394 277.138 49.1212C277.542 48.6095 277.868 48.0402 278.105 47.4322L278.156 47.3226L278.247 47.4064L278.311 47.458C278.588 47.637 278.918 47.7144 279.246 47.6771C279.566 47.658 279.884 47.6214 280.2 47.5675C280.735 47.5188 281.246 47.3224 281.676 47.0002C281.952 46.7692 282.141 46.4507 282.211 46.0977C282.223 45.9539 282.223 45.8095 282.211 45.6658Z" fill="#455A64"/>
<path d="M277.731 24.6108C277.731 24.6108 277.647 24.6624 277.518 24.7849C277.335 24.9591 277.207 25.1833 277.151 25.4296C277.064 25.8282 277.116 26.2446 277.299 26.6093C277.548 27.0842 277.868 27.5189 278.247 27.8987L278.311 27.9696L278.221 28.0147C277.585 28.3413 277.074 28.8665 276.764 29.5104C276.583 29.8658 276.488 30.259 276.488 30.6579C276.488 31.0568 276.583 31.45 276.764 31.8054C276.921 32.1339 277.153 32.4213 277.44 32.6451C277.728 32.8688 278.064 33.0227 278.421 33.0947L278.666 33.1399L278.446 33.2559C278.086 33.4544 277.771 33.7252 277.52 34.0513C277.269 34.3775 277.089 34.752 276.989 35.1512C276.829 35.8002 276.902 36.4847 277.196 37.0853C277.383 37.4769 277.648 37.8258 277.976 38.1103C278.208 38.3037 278.356 38.3875 278.35 38.4004L278.24 38.3488C278.137 38.2908 278.038 38.2263 277.944 38.1554C277.494 37.8084 277.152 37.3401 276.959 36.8057C276.766 36.2712 276.73 35.6928 276.854 35.1383C276.952 34.7165 277.137 34.3199 277.398 33.9744C277.659 33.629 277.99 33.3424 278.369 33.1334V33.2881C277.986 33.215 277.624 33.0534 277.314 32.8161C277.004 32.5789 276.754 32.2725 276.583 31.9214C276.379 31.5343 276.277 31.1017 276.287 30.6643C276.297 30.2485 276.396 29.8396 276.577 29.4652C276.907 28.7927 277.448 28.2469 278.118 27.9116V28.0276C277.733 27.638 277.413 27.1897 277.17 26.6996C276.988 26.3112 276.944 25.8719 277.047 25.4554C277.113 25.1897 277.259 24.9509 277.467 24.772C277.521 24.7255 277.582 24.6865 277.647 24.656L277.731 24.6108Z" fill="#455A64"/>
<path d="M292.777 30.6321C292.777 30.6321 292.777 30.6708 292.726 30.7288C292.667 30.8167 292.602 30.9007 292.532 30.9802C292.276 31.2867 291.977 31.5539 291.643 31.7731C291.129 32.1105 290.552 32.3407 289.947 32.4501C289.172 32.6048 288.369 32.5423 287.627 32.2696L287.736 32.1986C287.721 32.7433 287.585 33.2779 287.339 33.7639C287.093 34.2499 286.742 34.6753 286.311 35.0094C285.844 35.3493 285.283 35.5356 284.706 35.5425C284.128 35.5494 283.563 35.3767 283.088 35.0481L283.217 34.9707C283.276 35.3738 283.227 35.7854 283.075 36.1634C282.943 36.5045 282.751 36.8189 282.508 37.0917C282.097 37.5242 281.601 37.8667 281.051 38.0974C280.7 38.2517 280.338 38.3789 279.968 38.4778C279.84 38.528 279.705 38.5605 279.568 38.5744C279.694 38.5188 279.823 38.4714 279.955 38.4326C280.2 38.3424 280.567 38.2134 281.012 38.0071C281.538 37.7675 282.012 37.4256 282.405 37.0014C282.651 36.734 282.836 36.4161 282.948 36.0699C283.059 35.7237 283.094 35.3575 283.049 34.9965L283.017 34.7967L283.178 34.9191C283.629 35.2308 284.166 35.3934 284.714 35.3842C285.262 35.3749 285.794 35.1943 286.234 34.8676C286.644 34.5495 286.98 34.1448 287.216 33.6824C287.452 33.22 287.584 32.7112 287.601 32.1922V32.0761L287.704 32.1213C288.419 32.3852 289.191 32.452 289.941 32.3147C290.535 32.2121 291.102 31.993 291.611 31.67C292.049 31.3839 292.442 31.0341 292.777 30.6321Z" fill="#455A64"/>
<path d="M291.527 40.9533C291.527 40.9533 291.527 40.992 291.527 41.0758C291.482 41.1892 291.406 41.2875 291.308 41.3595C290.944 41.6023 290.525 41.7487 290.089 41.785C289.439 41.8618 288.781 41.7333 288.207 41.4175C287.505 41.0196 286.979 40.3732 286.73 39.606H286.885C286.427 40.2609 285.769 40.7495 285.009 40.9985C284.388 41.21 283.725 41.2718 283.075 41.179C282.648 41.1246 282.232 41.0096 281.837 40.8373C281.688 40.7853 281.549 40.7091 281.425 40.6116C281.96 40.8319 282.521 40.9815 283.095 41.0565C283.713 41.1223 284.338 41.0496 284.925 40.8437C285.647 40.5988 286.272 40.1316 286.711 39.5092L286.808 39.3674L286.866 39.535C287.076 40.196 287.506 40.7654 288.084 41.1488C288.662 41.5322 289.353 41.7066 290.044 41.6431C290.463 41.6164 290.871 41.4952 291.237 41.2885C291.37 41.2146 291.473 41.0958 291.527 40.9533Z" fill="#455A64"/>
<path d="M266.765 30.8577C266.871 31.4543 267.09 32.0253 267.41 32.5403C267.757 33.09 268.23 33.5496 268.789 33.8812C269.481 34.27 270.273 34.445 271.065 34.384C271.522 34.3529 271.97 34.2394 272.387 34.0488L272.483 34.0037V34.1068C272.607 34.7267 272.848 35.3174 273.192 35.8474C273.468 36.2686 273.802 36.6485 274.185 36.9756C274.328 37.0977 274.478 37.2097 274.636 37.3108C274.691 37.3497 274.754 37.3752 274.82 37.3853C274.886 37.3954 274.953 37.3897 275.017 37.3689C275.057 37.3548 275.094 37.3318 275.124 37.3017C275.154 37.2716 275.177 37.235 275.191 37.1948C275.191 37.1432 275.191 37.111 275.191 37.111C275.191 37.111 275.191 37.111 275.191 37.2012C275.182 37.25 275.162 37.296 275.131 37.3353C275.101 37.3746 275.062 37.406 275.017 37.4269C274.945 37.4551 274.867 37.4663 274.79 37.4596C274.713 37.4529 274.638 37.4285 274.572 37.3882C274.402 37.292 274.24 37.182 274.088 37.0594C273.684 36.7372 273.332 36.3545 273.044 35.9248C272.679 35.3868 272.422 34.7823 272.29 34.1455L272.406 34.2035C271.971 34.4035 271.504 34.5236 271.026 34.5581C270.279 34.6271 269.527 34.4819 268.859 34.1394C268.192 33.7969 267.635 33.2713 267.255 32.6241C267.027 32.2367 266.866 31.814 266.778 31.3734C266.778 31.2122 266.739 31.0962 266.733 31.0124C266.733 30.9592 266.744 30.9066 266.765 30.8577Z" fill="#455A64"/>
<path d="M274.095 71.0272C273.927 71.0724 274.256 72.1296 273.586 73.1675C272.915 74.2055 271.742 74.4569 271.781 74.5923C271.819 74.7276 272.096 74.7212 272.573 74.5923C273.2 74.4078 273.741 74.0083 274.101 73.4641C274.446 72.9419 274.575 72.3066 274.462 71.6912C274.366 71.2013 274.166 70.9757 274.095 71.0272Z" fill="#263238"/>
<path d="M279.078 89.2585C279.078 89.2585 283.649 119.378 289.116 124.619C294.995 130.26 305.561 133.038 305.561 133.038C305.561 133.038 319.622 138.602 324.508 137.39L333.34 107.09C333.197 106.565 332.884 106.102 332.45 105.774C332.017 105.445 331.486 105.269 330.942 105.272C330.065 105.24 327.545 106.42 326.397 106.142C321.82 105.04 311.093 88.6267 311.093 88.6267C311.093 88.6267 300.9 74.5729 292.21 75.8429C286.253 76.7132 283.784 79.3628 281.541 85.3711C281 86.8185 280.161 88.1362 279.078 89.2392V89.2585Z" fill="#2F88FF"/>
<path d="M279.078 89.2585L275.113 109.327L256.792 104.118L253.633 114.82L284.629 128.816L290.727 103.441L279.078 89.2585Z" fill="#2F88FF"/>
<path d="M320.524 124.658C320.44 124.625 321.813 120.867 323.535 116.277C325.256 111.687 326.758 107.973 326.861 108.006C326.964 108.038 325.572 111.796 323.851 116.386C322.129 120.977 320.608 124.69 320.524 124.658Z" fill="#263238"/>
<path d="M320.183 120.448C321.196 117.037 322.428 113.695 323.87 110.443C323.411 112.162 322.847 113.852 322.181 115.503C321.616 117.19 320.948 118.842 320.183 120.448Z" fill="#263238"/>
<path d="M278.601 95.0607C278.777 96.6211 278.867 98.19 278.872 99.7603C278.923 101.05 278.975 102.223 279.027 103.074C279.089 103.529 279.106 103.989 279.078 104.447C278.917 104.012 278.821 103.556 278.794 103.093C278.678 102.249 278.588 101.069 278.537 99.7732C278.485 98.4774 278.479 97.2912 278.498 96.4403C278.476 95.9779 278.511 95.5146 278.601 95.0607Z" fill="#263238"/>
<g opacity="0.3">
<path d="M268.512 121.537L275.339 118.572L279.078 105.33L276.538 121.641L271.503 122.891L268.512 121.537Z" fill="black"/>
</g>
<g opacity="0.3">
<path d="M325.501 110.591C325.266 110.481 325.001 110.453 324.748 110.51C324.495 110.567 324.268 110.707 324.102 110.907C323.748 111.325 323.478 111.809 323.309 112.331C321.964 115.739 320.614 119.163 319.261 122.601C319.029 123.079 318.915 123.605 318.925 124.135C318.983 124.664 319.396 125.186 319.873 125.115C320.35 125.044 320.582 124.554 320.782 124.116C322.714 119.765 324.353 115.289 325.688 110.72" fill="black"/>
</g>
<path d="M228.413 106.807C228.413 106.807 230.882 103.506 232.333 102.803C233.487 102.242 240.353 101.03 241.191 101.192C242.029 101.353 256.792 104.589 256.792 104.589L254.858 111.036L253.91 110.597C253.91 110.597 250.932 112.093 248.656 111.377C246.836 110.677 245.105 109.763 243.499 108.657L241.468 109.418C241.468 109.418 243.699 110.12 243.866 111.042C244.034 111.964 242.764 112.067 242.764 112.067L242.674 112.473C242.596 112.815 242.388 113.113 242.095 113.303C241.801 113.493 241.444 113.561 241.101 113.492C239.811 113.234 237.877 112.783 237.477 112.319C237.303 112.125 236.407 110.475 236.407 110.475C235.021 109.501 235.047 108.541 235.118 107.948C235.273 106.761 236.53 105.44 236.53 105.44L234.035 105.305C234.035 105.305 230.025 109.418 228.413 106.807Z" fill="#AE7461"/>
<path d="M249.159 105.724C246.161 105.724 243.312 105.324 241.081 105.878C240.483 105.99 239.928 106.265 239.476 106.671C239.253 106.879 239.103 107.152 239.046 107.451C238.989 107.75 239.029 108.06 239.16 108.335C239.309 108.548 239.508 108.721 239.74 108.84C239.971 108.959 240.228 109.02 240.488 109.018C241.004 109.018 241.52 108.941 242.042 108.928C243.295 108.978 244.515 109.347 245.587 109.998C246.658 110.643 247.809 111.144 249.011 111.487C250.229 111.751 253.098 111.519 253.936 110.597" fill="#AE7461"/>
<path d="M253.936 110.597C253.936 110.597 253.884 110.681 253.749 110.81C253.534 110.978 253.295 111.113 253.04 111.21C252.106 111.546 251.119 111.715 250.126 111.706C249.432 111.72 248.741 111.604 248.089 111.364C247.355 111.082 246.642 110.748 245.955 110.365C245.217 109.947 244.439 109.601 243.634 109.334C243.216 109.2 242.783 109.12 242.345 109.095C241.881 109.096 241.419 109.124 240.959 109.179C240.456 109.238 239.947 109.142 239.502 108.902C239.272 108.773 239.088 108.578 238.973 108.342C238.857 108.106 238.817 107.84 238.857 107.58C238.926 107.099 239.181 106.664 239.566 106.368C239.924 106.107 240.329 105.917 240.759 105.807C242.193 105.476 243.669 105.368 245.136 105.485L248.076 105.64C248.438 105.641 248.8 105.669 249.159 105.724C249.066 105.748 248.971 105.759 248.875 105.756C248.695 105.756 248.424 105.756 248.076 105.756C247.38 105.756 246.374 105.756 245.13 105.698C243.69 105.622 242.246 105.752 240.843 106.085C240.456 106.19 240.091 106.365 239.766 106.6C239.447 106.846 239.239 107.207 239.186 107.606C239.156 107.8 239.186 107.999 239.273 108.175C239.359 108.351 239.498 108.497 239.669 108.592C240.064 108.803 240.515 108.885 240.959 108.824C241.429 108.77 241.903 108.742 242.377 108.741C242.846 108.77 243.309 108.856 243.757 108.998C244.581 109.279 245.375 109.64 246.129 110.075C247.56 110.868 248.907 111.5 250.152 111.448C251.122 111.477 252.091 111.348 253.02 111.068C253.349 110.962 253.658 110.803 253.936 110.597Z" fill="#6F4439"/>
<path d="M239.573 105.027C239.573 105.066 239.289 105.208 238.786 105.298C238.147 105.408 237.501 105.468 236.852 105.478C235.922 105.555 234.986 105.497 234.074 105.304C234.99 105.163 235.919 105.109 236.846 105.143C237.606 105.143 238.296 105.098 238.78 105.066C239.041 105.021 239.308 105.008 239.573 105.027Z" fill="#6F4439"/>
<path d="M242.867 112.074C241.708 112.259 240.524 112.202 239.388 111.906C238.253 111.61 237.192 111.081 236.272 110.352C237.319 110.832 238.396 111.246 239.495 111.59C240.609 111.816 241.735 111.978 242.867 112.074Z" fill="#6F4439"/>
<path d="M238.747 108.708C239.241 108.611 239.753 108.653 240.224 108.831C240.724 108.898 241.197 109.101 241.59 109.418C241.097 109.415 240.608 109.326 240.146 109.153C239.658 109.087 239.185 108.936 238.747 108.708Z" fill="#6F4439"/>
<path d="M208.422 113.769L224.687 105.84C224.818 105.775 224.963 105.746 225.109 105.758C225.254 105.769 225.393 105.82 225.512 105.904L243.396 117.27C243.497 117.339 243.583 117.429 243.647 117.533C243.711 117.638 243.753 117.755 243.769 117.877C243.784 117.998 243.774 118.122 243.739 118.24C243.703 118.357 243.644 118.466 243.563 118.559L234.112 131.156L208.422 113.769Z" fill="#263238"/>
<path d="M210.453 114.349L232.346 128.764L242.287 117.676L225.055 106.974L210.453 114.349Z" fill="white"/>
<path d="M218.962 110.056L237.755 122.736L232.346 128.764L210.453 114.349L218.962 110.056Z" fill="#E0E0E0"/>
<path d="M228.568 110.43L225.693 112.763C225.647 112.803 225.594 112.833 225.536 112.852C225.478 112.87 225.417 112.876 225.357 112.87C225.296 112.864 225.238 112.846 225.185 112.817C225.132 112.787 225.085 112.747 225.048 112.699C225.008 112.653 224.978 112.6 224.96 112.542C224.942 112.484 224.935 112.423 224.941 112.363C224.947 112.302 224.966 112.244 224.995 112.191C225.025 112.138 225.065 112.091 225.113 112.054L227.988 109.72C228.034 109.681 228.087 109.651 228.145 109.632C228.203 109.614 228.264 109.607 228.324 109.613C228.385 109.619 228.443 109.638 228.496 109.667C228.549 109.697 228.596 109.737 228.633 109.785C228.672 109.831 228.701 109.885 228.719 109.942C228.737 110 228.743 110.061 228.737 110.121C228.731 110.181 228.713 110.239 228.684 110.292C228.655 110.345 228.615 110.392 228.568 110.43Z" fill="#E0E0E0"/>
<path d="M229.864 111.487L226.995 113.821C226.949 113.86 226.896 113.891 226.838 113.909C226.78 113.927 226.719 113.934 226.659 113.928C226.598 113.922 226.54 113.903 226.487 113.874C226.434 113.844 226.387 113.804 226.35 113.756C226.311 113.71 226.281 113.657 226.262 113.599C226.244 113.541 226.237 113.48 226.243 113.42C226.249 113.36 226.268 113.301 226.297 113.248C226.327 113.195 226.367 113.148 226.415 113.111L229.29 110.778C229.335 110.737 229.389 110.706 229.447 110.687C229.505 110.668 229.566 110.662 229.627 110.668C229.687 110.674 229.746 110.692 229.799 110.722C229.852 110.753 229.898 110.793 229.935 110.842C229.974 110.888 230.004 110.942 230.022 111C230.04 111.058 230.045 111.12 230.039 111.18C230.032 111.24 230.013 111.299 229.983 111.352C229.953 111.404 229.912 111.45 229.864 111.487Z" fill="#E0E0E0"/>
<path d="M231.256 112.725L228.381 115.058C228.336 115.1 228.283 115.132 228.225 115.151C228.167 115.171 228.105 115.178 228.044 115.172C227.983 115.166 227.924 115.147 227.871 115.116C227.818 115.085 227.772 115.044 227.737 114.994C227.695 114.949 227.663 114.896 227.644 114.838C227.624 114.78 227.617 114.718 227.623 114.657C227.629 114.596 227.648 114.537 227.679 114.484C227.71 114.431 227.751 114.385 227.801 114.349L230.67 112.009C230.716 111.969 230.769 111.939 230.827 111.921C230.885 111.902 230.946 111.896 231.006 111.902C231.066 111.908 231.125 111.926 231.178 111.956C231.231 111.985 231.277 112.025 231.314 112.074C231.356 112.119 231.387 112.173 231.407 112.231C231.426 112.289 231.433 112.351 231.428 112.412C231.423 112.473 231.404 112.532 231.375 112.586C231.345 112.64 231.305 112.687 231.256 112.725Z" fill="#E0E0E0"/>
<path d="M231.83 114.407L230.199 115.735C230.153 115.774 230.099 115.804 230.042 115.821C229.984 115.839 229.923 115.845 229.863 115.839C229.803 115.833 229.745 115.815 229.692 115.786C229.639 115.757 229.592 115.718 229.554 115.671C229.515 115.625 229.485 115.572 229.466 115.514C229.448 115.456 229.441 115.395 229.447 115.335C229.453 115.274 229.472 115.216 229.501 115.163C229.531 115.11 229.571 115.063 229.619 115.026L231.25 113.698C231.296 113.659 231.35 113.63 231.407 113.612C231.465 113.594 231.526 113.588 231.586 113.594C231.646 113.6 231.704 113.618 231.757 113.647C231.81 113.676 231.857 113.715 231.895 113.763C231.934 113.808 231.965 113.862 231.983 113.92C232.001 113.977 232.008 114.038 232.002 114.099C231.996 114.159 231.977 114.218 231.948 114.271C231.918 114.324 231.878 114.37 231.83 114.407Z" fill="#E0E0E0"/>
<path d="M226.151 110.036L224.255 111.364C224.207 111.403 224.151 111.431 224.091 111.446C224.032 111.462 223.969 111.464 223.908 111.454C223.848 111.444 223.79 111.42 223.738 111.386C223.687 111.352 223.643 111.307 223.611 111.255C223.577 111.207 223.554 111.154 223.541 111.098C223.529 111.041 223.528 110.983 223.538 110.926C223.548 110.869 223.569 110.814 223.601 110.766C223.632 110.717 223.673 110.675 223.72 110.642L225.628 109.308C225.677 109.271 225.733 109.245 225.793 109.231C225.852 109.216 225.914 109.214 225.974 109.224C226.035 109.235 226.092 109.257 226.144 109.29C226.195 109.323 226.239 109.367 226.273 109.417C226.306 109.466 226.329 109.521 226.34 109.578C226.352 109.636 226.352 109.695 226.341 109.752C226.329 109.81 226.307 109.865 226.274 109.913C226.241 109.962 226.199 110.004 226.151 110.036Z" fill="#FF725E"/>
<path d="M235.943 116.393L234.306 118.03C234.265 118.075 234.215 118.11 234.159 118.135C234.104 118.159 234.044 118.172 233.983 118.172C233.923 118.172 233.863 118.159 233.807 118.135C233.752 118.11 233.702 118.075 233.661 118.03C233.616 117.989 233.581 117.939 233.557 117.884C233.532 117.828 233.52 117.769 233.52 117.708C233.52 117.647 233.532 117.587 233.557 117.532C233.581 117.477 233.616 117.427 233.661 117.386L235.298 115.767C235.34 115.723 235.389 115.687 235.445 115.663C235.5 115.639 235.56 115.626 235.621 115.626C235.681 115.626 235.741 115.639 235.797 115.663C235.852 115.687 235.902 115.723 235.943 115.767C235.985 115.808 236.018 115.857 236.04 115.911C236.063 115.964 236.074 116.022 236.074 116.08C236.074 116.138 236.063 116.196 236.04 116.25C236.018 116.303 235.985 116.352 235.943 116.393Z" fill="#FF725E"/>
<path d="M234.112 131.156C234.011 131.315 233.879 131.453 233.724 131.561C233.569 131.669 233.395 131.746 233.21 131.786C233.026 131.827 232.835 131.831 232.649 131.798C232.463 131.765 232.286 131.696 232.127 131.594L208.222 116.296C208.063 116.195 207.925 116.063 207.817 115.908C207.709 115.753 207.632 115.579 207.592 115.394C207.551 115.21 207.547 115.019 207.58 114.833C207.613 114.647 207.682 114.47 207.784 114.311C207.99 113.99 208.315 113.765 208.687 113.684C209.06 113.603 209.449 113.673 209.769 113.879L233.674 129.17C233.833 129.272 233.971 129.404 234.079 129.558C234.187 129.713 234.264 129.888 234.304 130.072C234.345 130.257 234.349 130.447 234.316 130.633C234.283 130.819 234.214 130.997 234.112 131.156Z" fill="#263238"/>
<path d="M333.34 107.09L338.104 105.575C338.104 105.575 346.859 98.5419 356.684 99.4702C362.913 100.158 368.95 102.043 374.464 105.021L384.682 110.617L410.952 117.65L395.822 81.9867L410.759 75.7914C410.759 75.7914 425.69 99.8377 430.202 106.607C434.715 113.376 438.145 120.209 438.68 125.786C439.215 131.362 435.018 139.163 423.472 140.491C411.926 141.819 362.512 138.518 362.512 138.518L324.476 137.422L333.34 107.09Z" fill="#263238"/>
<path d="M333.34 107.09C333.34 107.09 333.295 107.271 333.198 107.612C333.102 107.954 332.96 108.476 332.766 109.147C332.38 110.501 331.806 112.493 331.058 115.084C329.562 120.242 327.371 127.836 324.611 137.416L324.521 137.293L351.746 138.073C361.996 138.189 373.31 139.13 385.507 139.691C391.606 139.988 397.924 140.272 404.428 140.465C407.652 140.549 410.991 140.626 414.337 140.633C416.007 140.633 417.696 140.633 419.385 140.568C420.229 140.568 421.08 140.523 421.925 140.439C422.776 140.397 423.624 140.307 424.465 140.168C427.905 139.73 431.156 138.347 433.858 136.171C435.222 135.067 436.342 133.692 437.149 132.133C437.956 130.574 438.431 128.865 438.544 127.114C438.57 126.674 438.57 126.232 438.544 125.792C438.486 125.347 438.448 124.903 438.364 124.464C438.218 123.582 438.018 122.71 437.764 121.853C437.245 120.117 436.599 118.421 435.83 116.78C434.273 113.457 432.467 110.257 430.428 107.206C426.914 101.888 423.581 96.5498 420.287 91.3151L410.617 75.843L410.823 75.9074L395.88 82.0963L395.97 81.8835L411.081 117.592L411.197 117.856L410.914 117.785L384.65 110.739L376.772 106.413C375.482 105.73 374.29 105.014 373.059 104.402C371.827 103.79 370.589 103.242 369.365 102.752C364.951 100.936 360.272 99.8472 355.511 99.5282C353.522 99.4794 351.536 99.6962 349.605 100.173C347.943 100.586 346.319 101.14 344.751 101.83C342.412 102.844 340.199 104.127 338.156 105.653L334.559 106.774L333.379 107.129L334.533 106.742L338.13 105.575C340.171 104.035 342.385 102.737 344.725 101.707C346.297 101.009 347.925 100.444 349.592 100.018C351.539 99.5442 353.54 99.3274 355.543 99.3735C360.328 99.6872 365.031 100.776 369.468 102.597C370.697 103.087 371.935 103.635 373.181 104.241C374.425 104.885 375.644 105.575 376.907 106.252L384.792 110.565L411.068 117.579L410.901 117.772L395.757 82.0834L395.693 81.9351L395.841 81.8707L410.778 75.6753L410.907 75.6238L410.985 75.7398L420.655 91.212C423.955 96.4467 427.288 101.785 430.795 107.097C432.848 110.157 434.663 113.37 436.224 116.709C436.993 118.365 437.639 120.076 438.158 121.827C438.414 122.699 438.617 123.586 438.764 124.484C438.854 124.928 438.892 125.38 438.95 125.831C439.008 126.282 439.015 126.74 438.95 127.198C438.837 128.995 438.352 130.75 437.525 132.35C436.699 133.95 435.548 135.361 434.148 136.494C431.398 138.698 428.091 140.098 424.594 140.536C423.74 140.675 422.879 140.765 422.015 140.807C421.164 140.89 420.307 140.91 419.436 140.936C417.734 141 416.052 140.994 414.376 141C411.023 141 407.716 140.91 404.46 140.82C397.949 140.626 391.625 140.336 385.526 140.033C373.329 139.453 362.022 138.499 351.771 138.37L324.54 137.557H324.418V137.435L330.987 115.097L332.734 109.185C332.934 108.541 333.082 108.019 333.192 107.67C333.302 107.322 333.34 107.09 333.34 107.09Z" fill="#455A64"/>
<path d="M245.065 128.313C245.065 128.313 238.328 124.483 237.02 124.406C235.144 124.29 226.885 124.574 225.873 124.509C225.689 124.498 225.505 124.538 225.341 124.625C225.178 124.712 225.043 124.843 224.95 125.004C224.858 125.164 224.812 125.347 224.818 125.532C224.824 125.716 224.881 125.896 224.984 126.05C225.364 126.695 226.273 127.739 228.852 127.675C230.433 127.573 232.018 127.793 233.513 128.319C234.157 128.577 233.97 129.357 233.97 129.357C233.97 129.357 230.264 129.557 229.187 129.306C227.704 128.958 222.811 125.631 222.811 125.631L220.877 124.387C220.877 124.387 220.058 125.38 221.335 127.23C222.212 128.465 223.173 129.639 224.21 130.743C224.21 130.743 222.405 131.839 223.965 133.56C223.965 133.56 222.837 135.688 225.403 136.926C225.77 137.837 226.344 138.652 227.079 139.305C227.859 139.949 229.832 139.807 231.044 139.885C232.853 139.899 234.661 139.757 236.446 139.459C238.052 139.117 239.638 138.686 241.197 138.17L247.302 138.518L247.857 128.119L245.065 128.313Z" fill="#AE7461"/>
<path d="M228.078 132.916C227.245 132.758 226.449 132.445 225.732 131.994C224.96 131.641 224.261 131.15 223.669 130.543C224.441 130.867 225.185 131.255 225.893 131.704C226.653 132.048 227.384 132.453 228.078 132.916Z" fill="#6F4439"/>
<path d="M227.272 135.224C226.584 135.173 225.919 134.951 225.338 134.579C224.716 134.312 224.167 133.899 223.74 133.374C224.35 133.623 224.937 133.927 225.493 134.283C226.113 134.543 226.708 134.858 227.272 135.224Z" fill="#6F4439"/>
<path d="M227.414 137.725C226.818 137.733 226.231 137.57 225.725 137.254C225.17 137.039 224.688 136.667 224.339 136.184C224.877 136.39 225.393 136.65 225.88 136.958C226.415 137.162 226.929 137.419 227.414 137.725Z" fill="#6F4439"/>
<g opacity="0.3">
<path d="M294.834 128.564C298.277 124.052 300.043 118.475 300.759 112.86C301.474 107.245 301.306 101.901 301.029 96.2598C299.929 107.191 297.855 118.002 294.834 128.564Z" fill="black"/>
</g>
<path d="M301.629 89.7227C301.687 90.2965 301.629 88.4721 301.629 89.0781C301.468 96.8141 296.929 129.622 291.03 136.01C286.518 140.89 244.343 138.815 244.343 138.815L244.807 127.823C244.807 127.823 245.942 127.494 253.517 126.534C261.092 125.573 276.558 121.64 276.558 121.64L281.715 87.2859" fill="#2F88FF"/>
<path d="M281.715 87.2859C281.715 87.2859 281.715 87.4922 281.644 87.9306L281.393 89.7356C281.16 91.328 280.819 93.6553 280.38 96.6336C279.491 102.61 278.214 111.203 276.648 121.686V121.776H276.564C272.051 122.93 267.1 124.129 261.788 125.251C259.132 125.805 256.386 126.347 253.53 126.727C250.674 127.107 247.728 127.436 244.84 128.016L244.956 127.862C244.807 131.369 244.653 135.075 244.498 138.853L244.337 138.679C247.315 138.815 250.474 138.918 253.678 138.995C259.712 139.137 265.605 139.169 271.297 138.995C274.14 138.911 276.931 138.782 279.678 138.563C282.337 138.388 284.98 138.009 287.581 137.429C288.206 137.275 288.82 137.079 289.419 136.842C290.005 136.635 290.536 136.298 290.972 135.856C291.765 134.898 292.416 133.832 292.906 132.69C293.88 130.497 294.694 128.237 295.343 125.928C296.633 121.466 297.542 117.224 298.296 113.344C299.785 105.575 300.63 99.2252 301.12 94.8286C301.365 92.6302 301.506 90.9154 301.564 89.755C301.564 89.4649 301.564 89.207 301.603 88.9878C301.603 88.9878 301.603 88.9878 301.635 88.9878V89.5229C301.635 89.6712 301.635 89.7808 301.597 89.8646C301.591 89.824 301.591 89.7827 301.597 89.7421C301.597 89.7421 301.597 89.7872 301.597 89.8517C301.597 89.7872 301.597 89.6712 301.597 89.5229V89.0136C301.597 89.0136 301.597 89.0136 301.642 89.0136C301.642 89.2371 301.642 89.495 301.642 89.7872C301.603 90.9476 301.481 92.6625 301.261 94.8672C300.81 99.2704 299.972 105.633 298.534 113.414C297.793 117.282 296.897 121.55 295.614 126.031C294.969 128.355 294.156 130.631 293.184 132.838C292.677 134 292.011 135.085 291.204 136.062C290.735 136.535 290.167 136.898 289.541 137.126C288.931 137.371 288.304 137.571 287.665 137.725C285.043 138.316 282.379 138.704 279.697 138.885C276.964 139.111 274.166 139.246 271.316 139.33C265.617 139.491 259.712 139.459 253.678 139.33C250.455 139.253 247.315 139.15 244.337 139.014H244.169V138.853C244.33 135.069 244.485 131.369 244.64 127.862V127.739H244.756C246.258 127.417 247.715 127.236 249.178 127.023L253.498 126.463C256.334 126.089 259.08 125.547 261.73 124.999C267.042 123.89 271.987 122.704 276.5 121.563L276.403 121.673C278.014 111.197 279.336 102.61 280.271 96.6336C280.735 93.6617 281.102 91.3409 281.354 89.7485C281.476 88.9685 281.573 88.3625 281.644 87.9499C281.715 87.5373 281.715 87.2859 281.715 87.2859Z" fill="#263238"/>
</svg>
