<svg width="30" height="30" viewBox="0 0 30 30" fill="none" xmlns="http://www.w3.org/2000/svg">
<path d="M29.9546 23.5756C29.6901 24.2302 28.366 24.7715 26.1256 25.1397C25.917 25.1751 25.8256 25.5378 25.7056 26.131C25.6566 26.3765 25.6034 26.6151 25.5352 26.8673C25.5152 26.9721 25.4587 27.0663 25.3757 27.1332C25.2953 27.1975 25.1932 27.2283 25.0907 27.2192H25.0566C24.8425 27.2103 24.6297 27.1811 24.4211 27.1319C23.869 27.0096 23.3053 26.9469 22.7398 26.9451C22.3307 26.9451 21.9285 26.9819 21.5262 27.0542C20.6725 27.2867 19.8848 27.7154 19.2258 28.3059C18.1193 29.3234 16.6922 29.9224 15.191 29.9995C15.1064 29.9995 15.0246 29.9968 14.9632 29.9927C14.9134 29.9973 14.8633 29.9996 14.8133 29.9995C13.3114 29.9233 11.8836 29.3242 10.777 28.3059C10.1178 27.7157 9.33021 27.2872 8.47663 27.0542C8.07604 26.9826 7.66997 26.9461 7.26303 26.9451C6.6983 26.9514 6.13593 27.0191 5.58581 27.1469C5.37582 27.1987 5.1631 27.2314 4.94765 27.2423C4.83906 27.256 4.72941 27.2267 4.64221 27.1605C4.55195 27.0911 4.48993 26.9913 4.46767 26.8796C4.40271 26.6344 4.34632 26.387 4.29858 26.1378C4.17586 25.5419 4.08722 25.1779 3.87859 25.1424C1.63685 24.7756 0.314159 24.2329 0.0496221 23.5756C0.0218123 23.5098 0.00522008 23.4397 0.000532734 23.3684C-0.00428487 23.275 0.0236914 23.1829 0.0796211 23.1079C0.13331 23.035 0.212798 22.9852 0.301887 22.9688C2.15637 22.6116 3.82541 21.5548 5.00629 19.9907C5.65951 19.1831 6.19905 18.2899 6.60987 17.3358L6.61533 17.3181C6.73767 17.102 6.81446 16.8631 6.84096 16.6161C6.86746 16.3692 6.84311 16.1194 6.76941 15.8822C6.48306 15.1582 5.52582 14.835 4.89311 14.6209C4.74979 14.5756 4.60832 14.5247 4.46903 14.4682C3.90723 14.2323 2.98544 13.7318 3.10816 13.046C3.19909 12.7902 3.36671 12.5688 3.58815 12.4119C3.80284 12.26 4.06171 12.1833 4.32449 12.1937C4.4517 12.191 4.57779 12.2181 4.69266 12.2728C5.15986 12.5292 5.67939 12.6756 6.2117 12.701C6.53017 12.7239 6.84494 12.6211 7.08849 12.4146C7.07169 12.0964 7.0535 11.7782 7.03395 11.4601C6.74684 9.30972 6.86992 7.1244 7.39667 5.01985C7.99849 3.53476 9.01953 2.25693 10.3352 1.34223C11.6144 0.45608 13.1372 -0.0108725 14.6933 0.00591283L15.2973 0.00045852C16.8551 -0.0167388 18.3798 0.4502 19.6608 1.33678C20.9788 2.25132 22.0022 3.52961 22.6062 5.01576C23.1329 7.12267 23.255 9.31038 22.9662 11.4628L22.9607 11.5665L22.913 12.4146C23.138 12.6055 23.4189 12.7051 23.708 12.6982C24.2084 12.6573 24.6952 12.5142 25.1425 12.2728C25.2884 12.2046 25.4478 12.1701 25.6088 12.1719C25.7943 12.1719 25.9743 12.2101 26.1434 12.281L26.1515 12.2864C26.3464 12.3368 26.5211 12.4458 26.652 12.5987C26.7872 12.7559 26.8748 12.9484 26.9042 13.1537C26.9097 13.4878 26.6779 13.9855 25.5338 14.4682C25.3942 14.5237 25.2527 14.5746 25.1098 14.6209C24.4743 14.835 23.5198 15.1582 23.2334 15.8822C23.1594 16.1187 23.1344 16.3679 23.1602 16.6143C23.186 16.8608 23.262 17.0994 23.3834 17.3154L23.393 17.3345C23.9541 18.7123 24.8203 19.945 25.9265 20.9398C27.004 21.9079 28.2979 22.6037 29.6996 22.9688C29.7882 22.9857 29.8671 23.0354 29.9205 23.1079C29.9758 23.1832 30.0037 23.2751 29.9996 23.3684C29.9955 23.4405 29.9794 23.5115 29.9519 23.5784L29.9546 23.5756Z" fill="#FFDD55"/>
</svg>
