<svg width="40" height="40" viewBox="0 0 40 40" fill="none" xmlns="http://www.w3.org/2000/svg">
<path d="M40 12.5C40 11.125 38.875 10 37.5 10H30V2.5C30 1.125 28.875 0 27.5 0C26.125 0 25 1.125 25 2.5V10H15V2.5C15 1.125 13.875 0 12.5 0C11.125 0 10 1.125 10 2.5V10H2.5C1.125 10 0 11.125 0 12.5C0 13.875 1.125 15 2.5 15H10V25H2.5C1.125 25 0 26.125 0 27.5C0 28.875 1.125 30 2.5 30H10V37.5C10 38.875 11.125 40 12.5 40C13.875 40 15 38.875 15 37.5V30H25V37.5C25 38.875 26.125 40 27.5 40C28.875 40 30 38.875 30 37.5V30H37.5C38.875 30 40 28.875 40 27.5C40 26.125 38.875 25 37.5 25H30V15H37.5C38.875 15 40 13.875 40 12.5ZM25 25H15V15H25V25Z" fill="#989694"/>
</svg>
