<svg width="30" height="31" viewBox="0 0 30 31" fill="none" xmlns="http://www.w3.org/2000/svg">
<path d="M28.4606 10.5691L19.3742 1.48278L20.0125 0.844487C20.5882 0.268767 21.3016 -0.0125846 22.1527 0.000431662C23.0038 0.0134479 23.7171 0.307315 24.2929 0.882034L29.1364 5.72559C29.7121 6.30131 30 7.00869 30 7.84774C30 8.68679 29.7121 9.39367 29.1364 9.96839L28.4606 10.5691ZM9.94994 29.1549C9.37422 29.7306 8.66733 30.0185 7.82929 30.0185C6.99124 30.0185 6.28385 29.7306 5.70713 29.1549L0.863579 24.3113C0.28786 23.7356 0 23.0287 0 22.1907C0 21.3526 0.28786 20.6452 0.863579 20.0685L1.46433 19.4678L10.5507 28.5541L9.94994 29.1549ZM15.3942 28.1036C15.0939 28.4039 14.7434 28.5541 14.3429 28.5541C13.9424 28.5541 13.592 28.4039 13.2916 28.1036L1.91489 16.7268C1.61452 16.4265 1.46433 16.076 1.46433 15.6755C1.46433 15.275 1.61452 14.9246 1.91489 14.6242L4.05507 12.4465C4.35544 12.1461 4.71239 11.9959 5.12591 11.9959C5.53942 11.9959 5.89587 12.1461 6.19524 12.4465L8.5607 14.8119L14.7935 8.57915L12.428 6.2137C12.1277 5.91332 11.9775 5.56288 11.9775 5.16238C11.9775 4.76188 12.1277 4.41145 12.428 4.11107L14.5682 1.93335C14.8686 1.63297 15.2255 1.48278 15.639 1.48278C16.0526 1.48278 16.409 1.63297 16.7084 1.93335L28.0851 13.3101C28.3855 13.6104 28.5357 13.9674 28.5357 14.3809C28.5357 14.7944 28.3855 15.1509 28.0851 15.4502L25.9074 17.5904C25.607 17.8908 25.2566 18.041 24.8561 18.041C24.4556 18.041 24.1051 17.8908 23.8048 17.5904L21.4393 15.225L15.2065 21.4578L17.572 23.8232C17.8723 24.1236 18.0225 24.48 18.0225 24.8925C18.0225 25.3051 17.8723 25.662 17.572 25.9634L15.3942 28.1036Z" fill="#FF0000"/>
</svg>
