<svg width="30" height="30" viewBox="0 0 30 30" fill="none" xmlns="http://www.w3.org/2000/svg">
<path d="M29.3379 4.69783C29.1659 3.78981 28.8302 2.96201 28.3644 2.29684C27.8985 1.63167 27.3188 1.15235 26.6829 0.906601C24.3548 0 14.985 0 14.985 0C14.985 0 5.6148 0.0274423 3.28672 0.934043C2.65079 1.1798 2.07105 1.65915 1.60522 2.32435C1.13939 2.98955 0.803734 3.81739 0.631674 4.72544C-0.0725178 10.6319 -0.345686 19.632 0.65101 25.3022C0.823088 26.2102 1.15875 27.038 1.62458 27.7032C2.09041 28.3683 2.67014 28.8477 3.30605 29.0934C5.63414 30 15.0041 30 15.0041 30C15.0041 30 24.374 30 26.702 29.0934C27.3379 28.8477 27.9177 28.3684 28.3835 27.7032C28.8494 27.038 29.1851 26.2102 29.3572 25.3022C30.0999 19.3873 30.3288 10.3928 29.3379 4.69783Z" fill="#FF0000"/>
<path d="M10.5 21.8571L21.5988 15.4285L10.5 9V21.8571Z" fill="white"/>
</svg>
